<svg width="223" height="70" viewBox="0 0 223 70" fill="none" xmlns="http://www.w3.org/2000/svg">
<path d="M18.1917 23.9954C17.9678 23.9954 17.7849 24.0672 17.6433 24.2092C17.501 24.3532 17.4303 24.5375 17.4303 24.7616V36.3508L9.99507 24.5782C9.95427 24.4971 9.85768 24.3787 9.70581 24.2254C9.55325 24.0715 9.30428 23.9956 8.95923 23.9956H5.72895C5.5056 23.9956 5.32253 24.0673 5.18061 24.2094C5.03834 24.3534 4.96737 24.5377 4.96737 24.7618V44.6902C4.96737 44.8948 5.03816 45.0743 5.18061 45.2272C5.32236 45.3802 5.50543 45.4574 5.72895 45.4574H9.38587C9.60922 45.4574 9.7916 45.3802 9.93422 45.2272C10.076 45.0743 10.1473 44.8948 10.1473 44.6902V33.5299L17.5821 44.8742C17.6233 44.9357 17.72 45.0485 17.8717 45.2105C18.0243 45.3757 18.2625 45.4574 18.5882 45.4574H21.8488C22.0719 45.4574 22.2547 45.3802 22.3971 45.2272C22.5389 45.0743 22.6103 44.8854 22.6103 44.6602V24.7616C22.6103 24.5375 22.539 24.3532 22.3971 24.2092C22.2548 24.0673 22.0719 23.9954 21.8488 23.9954H18.1917V23.9954Z" fill="#3073FF"/>
<path d="M39.3266 32.5494V36.7815H43.1142C43.3349 36.7815 43.5213 36.7008 43.6632 36.5478C43.8042 36.394 43.8776 36.2178 43.8776 36.0135V33.345C43.8776 33.124 43.8042 32.9295 43.6632 32.7765C43.5213 32.6227 43.3349 32.5494 43.1142 32.5494H39.3266ZM30.6833 23.9936C30.4623 23.9936 30.2762 24.0676 30.1348 24.2111C29.9931 24.3521 29.9254 24.5344 29.9254 24.7615V44.6874C29.9254 44.8926 29.9931 45.0749 30.1348 45.2279C30.2762 45.3817 30.4623 45.4555 30.6833 45.4555H45.1611C45.3815 45.4555 45.5621 45.3817 45.7091 45.2279C45.8507 45.0749 45.9186 44.8926 45.9186 44.6874V41.8093C45.9186 41.5819 45.8507 41.3994 45.7091 41.2576C45.5621 41.1155 45.3815 41.0414 45.1611 41.0414H35.1944V28.4085H44.9177C45.1384 28.4085 45.319 28.3395 45.466 28.1976C45.6076 28.0499 45.6754 27.8674 45.6754 27.6458V24.7615C45.6754 24.5344 45.6074 24.3521 45.466 24.2111C45.319 24.0676 45.1384 23.9936 44.9177 23.9936H30.6833V23.9936Z" fill="#3073FF"/>
<path d="M65.7571 23.9954C65.5538 23.9954 65.3761 24.0672 65.2239 24.2092C65.0721 24.3533 64.9953 24.5375 64.9953 24.7616V37.2407C64.9953 38.5687 64.6751 39.5652 64.0354 40.2284C63.3955 40.8938 62.5064 41.2259 61.3689 41.2259C60.2116 41.2259 59.3169 40.894 58.6879 40.2284C58.0578 39.565 57.7432 38.5687 57.7432 37.2407V24.7616C57.7432 24.5375 57.667 24.3533 57.5145 24.2092C57.3626 24.0673 57.174 23.9954 56.951 23.9954H53.0201C52.7964 23.9954 52.6135 24.0672 52.4716 24.2092C52.3297 24.3533 52.2585 24.5375 52.2585 24.7616V37.271C52.2585 39.2129 52.6339 40.8111 53.3857 42.0688C54.137 43.3264 55.1985 44.2566 56.57 44.8592C57.9411 45.4616 59.5506 45.764 61.3996 45.764C63.2277 45.764 64.8219 45.4616 66.1837 44.8592C67.5442 44.2566 68.6012 43.3262 69.3527 42.0688C70.1038 40.8111 70.48 39.2131 70.48 37.271V24.7616C70.48 24.5375 70.4038 24.3533 70.2516 24.2092C70.0992 24.0673 69.921 23.9954 69.7181 23.9954H65.7571V23.9954Z" fill="#3073FF"/>
<path d="M83.0648 36.4122H87.3004C88.1532 36.4122 88.8088 36.6577 89.2656 37.1479C89.7232 37.6386 89.9511 38.2413 89.9511 38.9566C89.9511 39.6115 89.7274 40.1947 89.2806 40.7052C88.8337 41.2159 88.1729 41.4712 87.3004 41.4712H83.0648V36.4122ZM83.0648 27.9816H87.0258C87.8583 27.9816 88.4831 28.1916 88.8996 28.6093C89.316 29.0286 89.5253 29.5649 89.5253 30.2184C89.5253 30.8728 89.316 31.4199 88.8996 31.8587C88.4831 32.2989 87.8583 32.5189 87.0258 32.5189H83.0648V27.9816ZM78.341 23.9954C78.1182 23.9954 77.9348 24.0672 77.7932 24.2092C77.6506 24.3532 77.5799 24.5375 77.5799 24.7616V44.69C77.5799 44.8946 77.6506 45.0741 77.7932 45.227C77.9349 45.3801 78.1182 45.4572 78.341 45.4572H87.9098C89.5749 45.4572 90.9824 45.196 92.1297 44.6752C93.2768 44.1537 94.1513 43.4082 94.7502 42.4364C95.3488 41.4667 95.6497 40.3065 95.6497 38.9568C95.6497 37.8342 95.3486 36.8523 94.7502 36.0136C94.1512 35.1759 93.4649 34.5734 92.6934 34.2046C93.0381 34.0421 93.4089 33.7757 93.8056 33.4081C94.2014 33.0399 94.5365 32.5753 94.8113 32.0134C95.0854 31.4515 95.2224 30.8018 95.2224 30.0666C95.2224 28.819 94.9528 27.7413 94.415 26.8315C93.8757 25.922 93.0482 25.222 91.9314 24.7309C90.8138 24.2404 89.3818 23.9958 87.6353 23.9958H78.341V23.9954Z" fill="#3073FF"/>
<path d="M111.518 32.5494V36.7815H115.271C115.492 36.7815 115.673 36.7008 115.82 36.5478C115.962 36.394 116.029 36.2178 116.029 36.0135V33.345C116.029 33.124 115.961 32.9295 115.82 32.7765C115.673 32.6227 115.492 32.5494 115.271 32.5494H111.518ZM102.84 23.9936C102.614 23.9936 102.433 24.0676 102.292 24.2111C102.151 24.3521 102.077 24.5344 102.077 24.7615V44.6874C102.077 44.8926 102.151 45.0749 102.292 45.2279C102.433 45.3817 102.614 45.4555 102.84 45.4555H117.312C117.539 45.4555 117.719 45.3817 117.861 45.2279C118.003 45.0749 118.076 44.8926 118.076 44.6874V41.8093C118.076 41.5819 118.002 41.3994 117.861 41.2576C117.719 41.1155 117.539 41.0414 117.312 41.0414H107.352V36.7412V36.7044V32.5666V32.5493V28.4085H117.069C117.296 28.4085 117.476 28.3395 117.618 28.1976C117.759 28.0499 117.832 27.8674 117.832 27.6458V24.7615C117.832 24.5344 117.759 24.3521 117.618 24.2111C117.476 24.0676 117.295 23.9936 117.069 23.9936H102.84Z" fill="#3073FF"/>
<path d="M137.82 23.9954C137.516 23.9954 137.282 24.0715 137.12 24.2253C136.956 24.3787 136.835 24.5159 136.754 24.6388L133.067 30.1883L129.441 24.6388C129.359 24.5157 129.237 24.3785 129.075 24.2253C128.912 24.0713 128.679 23.9954 128.374 23.9954H123.956C123.773 23.9954 123.62 24.0625 123.499 24.1944C123.377 24.3275 123.315 24.4757 123.315 24.639C123.315 24.7616 123.347 24.8845 123.407 25.0066L129.562 34.5111L122.919 44.4452C122.879 44.5056 122.848 44.5672 122.828 44.6285C122.807 44.69 122.798 44.7525 122.798 44.8129C122.798 44.9766 122.864 45.1244 122.996 45.2575C123.128 45.3914 123.286 45.4572 123.468 45.4572H127.856C128.16 45.4572 128.394 45.3801 128.557 45.227C128.72 45.0741 128.831 44.9468 128.892 44.8434L132.884 38.9566L136.906 44.8434C136.967 44.9468 137.084 45.0741 137.257 45.227C137.43 45.3801 137.667 45.4572 137.973 45.4572H142.513C142.696 45.4572 142.848 45.3912 142.97 45.2575C143.091 45.1244 143.153 44.9768 143.153 44.8129C143.153 44.7525 143.148 44.69 143.138 44.6285C143.127 44.5672 143.102 44.5056 143.062 44.4452L136.358 34.4803L142.543 25.0066C142.624 24.9054 142.665 24.7828 142.665 24.639C142.665 24.4757 142.599 24.3275 142.467 24.1944C142.334 24.0625 142.188 23.9954 142.025 23.9954H137.82V23.9954Z" fill="#3073FF"/>
<path d="M186.494 45.338L183.21 43.2848L179.383 40.8841V29.57L181.915 28.0969L186.494 25.4296L188.903 23.8086L189.089 23.9218L191.684 25.4751L196.778 28.518L198.768 29.7067V40.7593L196.879 41.8399L191.684 44.8262L188.903 46.4246L188.552 46.6238L186.494 45.338ZM183.905 6.39169L179.383 9.0651L177.545 10.1458C176.912 9.88995 176.211 9.7362 175.477 9.72505H175.47H175.375C174.804 9.72505 174.256 9.80393 173.741 9.95838C172.243 10.4014 171.033 11.4251 170.406 12.7568C170.134 13.3309 169.976 13.962 169.959 14.6278C169.954 14.679 169.954 14.736 169.954 14.7873C169.954 16.5279 170.892 18.0638 172.328 18.9739H172.333C172.757 19.2525 173.232 19.4688 173.741 19.6163C174.256 19.7702 174.804 19.8491 175.375 19.8491C176.963 19.8491 178.388 19.2125 179.383 18.2058V18.1205L179.434 18.1543C180.287 17.2558 180.802 16.0782 180.802 14.7872C180.802 14.5256 180.779 14.2693 180.74 14.0137L181.695 13.4505L188.745 9.28694L196.088 13.6778L198.768 15.2822L201.311 16.8062L204.262 18.5696L208.22 20.936L204.262 23.5579L201.584 25.3326L198.768 23.6491L194.223 20.9301L191.684 19.4173L188.993 17.8074L186.495 19.2637L183.86 20.7938L179.383 23.3989L176.483 25.0885L173.741 23.5694L168.998 20.9418L167.014 19.8437L165.493 19.002L165.109 18.7916C164.781 18.6431 164.413 18.5639 164.029 18.5639C163.576 18.5639 163.147 18.6776 162.78 18.8708L162.621 18.9621C161.949 19.3718 161.508 20.0769 161.508 20.8669V50.7525L162.401 51.2878L166.963 54.041L167.014 54.0121V54.0751L171.197 56.5946L172.548 57.4083C172.537 57.5331 172.531 57.6585 172.531 57.7895C172.531 59 172.989 60.109 173.741 60.98C173.86 61.1111 173.978 61.2412 174.108 61.361C175.092 62.2832 176.455 62.857 177.958 62.857C178.45 62.857 178.931 62.7948 179.383 62.6807C179.796 62.5791 180.186 62.4304 180.553 62.2372C182.136 61.4347 183.244 59.9157 183.374 58.1415C183.379 58.028 183.385 57.9087 183.385 57.7896C183.385 57.2317 183.289 56.6916 183.108 56.1915C182.537 54.5928 181.135 53.3467 179.383 52.903C178.931 52.7892 178.45 52.7268 177.958 52.7268H177.93C177.014 52.7326 176.149 52.9485 175.392 53.3244L173.741 52.3284L171.548 51.0096L167.014 48.2728L166.979 48.2557L167.014 48.2329V25.3044L171.672 27.8866L173.741 29.0304V43.6146L173.865 43.6942L178.354 46.5043L179.383 47.1467L183.34 49.6212L186.494 51.5955V64.0863C186.494 65.3435 187.557 66.3726 188.903 66.4632C188.965 66.4689 189.027 66.4689 189.089 66.4689C189.513 66.4689 189.915 66.3782 190.265 66.2067L190.739 65.9237L191.684 65.3601L193.516 64.262L198.768 61.1165L200.266 60.2186L204.262 57.8236L205.376 57.152L211.142 53.6999L214.579 51.6401L216.45 50.5203V37.9946C217.406 37.4827 218.175 36.7033 218.65 35.7703C218.683 35.7074 218.712 35.6456 218.74 35.5831C219.011 34.9797 219.164 34.3146 219.164 33.6149C219.164 32.1928 218.537 30.9074 217.525 29.9859H217.519C217.197 29.6893 216.841 29.4341 216.451 29.2293C215.654 28.7905 214.727 28.5463 213.737 28.5463C212.799 28.5463 211.917 28.7682 211.142 29.1664C210.616 29.4341 210.136 29.7809 209.729 30.1959C208.847 31.0949 208.31 32.295 208.31 33.6149C208.31 34.1439 208.395 34.6555 208.559 35.1331C208.621 35.3212 208.7 35.5086 208.785 35.6905C209.277 36.7033 210.108 37.5339 211.142 38.0569V48.0628L209.684 48.9331L204.262 52.1809L200.775 54.2741L198.768 55.4748L195.664 57.3346L191.684 59.7174V51.2657L193.917 49.9852L198.768 47.198L202.584 45.0028L204.262 44.0409V29.3432L206.173 28.0746L211.142 24.7872L212.81 23.6841L215.78 21.7163C216.199 21.4387 216.45 20.9684 216.45 20.4643C216.45 19.9346 216.174 19.4451 215.722 19.1752L213.177 17.6544L211.142 16.4372L206.609 13.7238L204.262 12.3189L201.379 10.5953L198.768 9.03689L194.001 6.181L189.163 3.29132L183.905 6.39169Z" fill="#3073FF"/>
<path d="M185.487 35.462C185.487 33.5688 187.079 32.0289 189.035 32.0289C190.991 32.0289 192.582 33.5686 192.582 35.462C192.582 37.3547 190.991 38.8943 189.035 38.8943C187.079 38.8943 185.487 37.3549 185.487 35.462ZM183.804 35.462C183.804 38.3423 186.151 40.6856 189.035 40.6856C191.918 40.6856 194.265 38.3423 194.265 35.462C194.265 32.5815 191.918 30.2378 189.035 30.2378C186.151 30.2378 183.804 32.5815 183.804 35.462Z" fill="#3073FF"/>
<path d="M175.227 57.8109C175.227 59.4465 176.554 60.7711 178.191 60.7711C179.827 60.7711 181.155 59.4465 181.155 57.8109C181.155 56.177 179.827 54.8507 178.191 54.8507C176.554 54.8507 175.227 56.177 175.227 57.8109Z" fill="#3073FF"/>
</svg>
