<svg width="560" height="369" viewBox="0 0 560 369" fill="none" xmlns="http://www.w3.org/2000/svg">
<g filter="url(#filter0_d)">
<path d="M559.999 0.305145H21.2292V345.999H559.999V0.305145Z" fill="#E2E2E2"/>
<path d="M544.594 37.9549H36.636V331.161H544.594V37.9549Z" fill="white"/>
<path d="M559.77 0H21V22.9315H559.77V0Z" fill="#3073FF"/>
<path d="M38.0092 16.327C40.5467 16.327 42.6038 14.2661 42.6038 11.7239C42.6038 9.18164 40.5467 7.12076 38.0092 7.12076C35.4717 7.12076 33.4146 9.18164 33.4146 11.7239C33.4146 14.2661 35.4717 16.327 38.0092 16.327Z" fill="white"/>
<path d="M54.1119 16.327C56.6494 16.327 58.7064 14.2661 58.7064 11.7239C58.7064 9.18164 56.6494 7.12076 54.1119 7.12076C51.5744 7.12076 49.5173 9.18164 49.5173 11.7239C49.5173 14.2661 51.5744 16.327 54.1119 16.327Z" fill="white"/>
<path d="M70.2145 16.327C72.752 16.327 74.8091 14.2661 74.8091 11.7239C74.8091 9.18164 72.752 7.12076 70.2145 7.12076C67.677 7.12076 65.62 9.18164 65.62 11.7239C65.62 14.2661 67.677 16.327 70.2145 16.327Z" fill="white"/>
<path d="M345.663 104.666H236.243V200.411H345.663V104.666Z" fill="#E2E2E2"/>
<path d="M274.036 111.702L277.395 125.162L275.955 144.872L288.91 154.967L293.229 121.317L290.83 113.145L274.036 111.702Z" fill="#FFB8B8"/>
<path d="M286.031 141.988L288.43 129.008L293.229 119.874L305.224 168.427L277.874 172.273L270.677 133.335L276.814 122.837L281.233 130.931L286.031 141.988Z" fill="white"/>
<path d="M316.893 200.411H271.391L271.637 196.79L282.189 190.061H296.585L316.74 198.715L316.893 200.411Z" fill="#2F2E41"/>
<path d="M283.152 118.913C289.512 118.913 294.668 113.748 294.668 107.376C294.668 101.004 289.512 95.8386 283.152 95.8386C276.792 95.8386 271.636 101.004 271.636 107.376C271.636 113.748 276.792 118.913 283.152 118.913Z" fill="#FFB8B8"/>
<path d="M326.817 163.141L315.783 154.004L316.886 177.902L316.993 180.196L317.131 183.226L317.437 189.839L317.927 200.411H293.905L292.266 195.347L291.615 200.411H269.646C269.493 197.756 269.408 194.557 269.546 191.327C269.631 188.364 270.008 185.417 270.672 182.528C271.084 180.564 271.903 178.708 273.076 177.081L268.758 161.699L266.836 171.312L253.404 172.271C253.404 172.271 253.412 172.025 253.435 171.565V171.557C253.626 166.823 255.043 140.033 262.042 134.778L276.293 120.746C276.293 120.746 276.3 121.767 276.438 123.485V123.493C276.545 124.951 276.744 126.907 277.104 129.17V129.193C277.908 134.295 279.501 140.931 282.671 146.792C283.843 148.956 284.793 150.797 285.566 152.362C288.912 159.152 288.912 160.74 288.912 160.74L290.298 144.192L290.306 144.13L290.314 144.069L292.159 121.913L292.435 118.606V118.598C292.435 118.598 314.343 122.281 321.059 132.377C326.458 140.478 336.497 153.559 340.234 158.384C340.28 158.438 340.318 158.492 340.364 158.546L340.923 159.274C341.03 159.413 341.13 159.535 341.214 159.65C341.306 159.765 341.382 159.858 341.444 159.942L341.689 160.256L326.817 163.141Z" fill="#3073FF"/>
<path d="M289.87 169.389C290.665 169.389 291.31 168.743 291.31 167.947C291.31 167.15 290.665 166.505 289.87 166.505C289.075 166.505 288.431 167.15 288.431 167.947C288.431 168.743 289.075 169.389 289.87 169.389Z" fill="#2F2E41"/>
<path d="M291.789 182.368C292.584 182.368 293.229 181.723 293.229 180.926C293.229 180.13 292.584 179.484 291.789 179.484C290.994 179.484 290.35 180.13 290.35 180.926C290.35 181.723 290.994 182.368 291.789 182.368Z" fill="#2F2E41"/>
<path d="M321.059 186.214L316.741 190.541L313.861 182.849L316.991 180.199L321.059 186.214Z" fill="#FFB8B8"/>
<path d="M266.359 188.137L270.677 192.464L271.637 182.849L268.758 181.887L266.359 188.137Z" fill="#FFB8B8"/>
<path d="M269.717 98.497C269.717 98.497 266.358 94.2282 269.717 92.0938V93.161C269.717 93.161 276.915 85.157 281.233 87.2914L285.072 86.2242V87.2914L287.471 86.2242L286.991 87.825H290.35L288.91 88.8922C288.91 88.8922 299.946 88.3586 293.229 96.3626C293.229 96.3626 296.422 101.161 293.386 103.831C293.386 103.831 290.83 97.9634 287.471 99.5642C286.561 100.037 285.534 100.239 284.514 100.144C283.493 100.05 282.521 99.663 281.713 99.0306C281.713 99.0306 274.995 98.497 275.955 101.699C276.915 104.9 276.435 105.967 276.435 105.967C276.435 105.967 274.036 107.568 274.515 108.635C274.995 109.703 274.995 112.904 274.995 112.904C274.995 112.904 272.596 109.169 271.636 109.703C270.677 110.236 265.399 104.9 269.717 98.497Z" fill="#2F2E41"/>
<path d="M255.322 170.351L253.403 171.583V172.754C253.512 174.815 254.175 176.808 255.322 178.523C257.242 181.407 267.798 191.022 267.798 191.022L270.677 180.926L266.838 171.312L264.439 168.428L255.322 170.351Z" fill="#3073FF"/>
<path d="M334.974 157.852L340.239 158.387L341.692 160.255C341.692 160.255 342.651 164.582 340.732 166.985C338.813 169.389 322.019 189.098 322.019 189.098L314.821 180.445L327.297 165.062L326.817 163.139L334.974 157.852Z" fill="#3073FF"/>
<path d="M511.371 103.726H400.878V200.41H511.371V103.726Z" fill="#E2E2E2"/>
<path d="M469.145 124.743L444.194 125.223L440.835 102.149H469.145V124.743Z" fill="#2F2E41"/>
<path d="M481.38 128.348C481.38 128.348 490.017 128.348 490.977 137.482C491.937 146.615 488.578 170.171 488.578 170.171L485.699 200.456H478.934L479.461 177.382L481.38 144.212L475.622 137.963L481.38 128.348Z" fill="#A0616A"/>
<path d="M445.873 128.348C445.873 128.348 437.716 126.425 430.039 137.482C430.039 137.482 410.366 151.903 416.604 157.191C422.841 162.479 439.635 165.844 439.635 165.844C439.635 165.844 433.398 178.824 437.236 179.304C441.075 179.785 446.833 165.364 445.393 162.96C443.954 160.556 438.676 159.114 438.676 159.114L426.2 152.865C426.2 152.865 442.207 139.088 443.081 145.015L447.792 142.77L445.873 128.348Z" fill="#A0616A"/>
<path d="M463.627 112.003C464.64 115.452 466.418 118.626 468.828 121.29C471.237 123.954 474.216 126.038 477.542 127.387L465.066 137.962L450.192 128.348C450.192 128.348 455.47 124.983 454.03 117.772L463.627 112.003Z" fill="#A0616A"/>
<path d="M454.03 119.695C460.39 119.695 465.546 114.53 465.546 108.158C465.546 101.786 460.39 96.6204 454.03 96.6204C447.67 96.6204 442.514 101.786 442.514 108.158C442.514 114.53 447.67 119.695 454.03 119.695Z" fill="#A0616A"/>
<path d="M443.954 127.387L452.712 125.667C452.712 125.667 455.47 132.194 464.586 131.232C473.703 130.271 475.31 126.326 475.31 126.326L483.78 128.348C483.78 128.348 478.981 133.636 481.38 144.212C481.38 144.212 482.34 161.518 477.062 167.767L476.582 177.382C476.582 177.382 482.82 193.726 479.461 200.456H432.438C432.438 200.456 434.357 176.42 442.994 170.171L444.913 165.844C444.913 165.844 441.075 149.019 442.994 146.135C442.994 146.135 444.434 127.867 443.954 127.387Z" fill="#3073FF"/>
<path d="M475.924 118.999C473.31 117.56 472.093 114.332 472.006 111.346C471.92 108.359 472.643 105.403 472.699 102.416C472.729 101.805 472.677 101.193 472.545 100.595C472.328 99.8535 471.99 99.153 471.545 98.5219C468.146 93.3034 462.237 89.6325 456.012 89.5747C455.113 89.5629 454.22 89.7273 453.384 90.0588C452.74 90.317 452.53 90.2854 452.407 91.077C450.932 90.5897 449.333 90.6406 447.893 91.2208C446.466 91.802 445.135 92.596 443.945 93.5761C443.238 94.1029 442.571 94.6815 441.949 95.3073C438.66 98.7212 437.903 103.983 438.856 108.631C439.165 110.142 437.679 111.601 436.449 112.529C435.219 113.457 433.799 114.309 433.195 115.728C432.614 117.093 432.933 118.655 432.816 120.134C432.685 121.532 432.166 122.866 431.318 123.985C430.47 125.103 429.327 125.962 428.018 126.465C428.285 126.785 428.634 127.027 429.027 127.166C429.42 127.304 429.843 127.334 430.251 127.251C431.104 127.071 431.901 126.691 432.578 126.142C435.124 124.252 436.946 121.544 437.739 118.471C438.1 120.117 437.96 121.815 437.947 123.5C437.978 125.381 437.632 127.249 436.93 128.993C436.215 130.746 434.906 132.19 433.233 133.071C434.847 133.863 436.625 133.289 437.992 132.121C439.302 130.875 440.249 129.295 440.73 127.55C441.648 124.766 442.02 121.83 441.826 118.904C443.327 121.435 443.875 124.42 443.372 127.321C442.847 130.278 441.306 132.958 439.016 134.897C443.009 134.863 446.936 133.872 450.469 132.007C451.382 131.593 452.186 130.972 452.819 130.195C453.956 128.614 453.687 126.459 453.368 124.538C453.116 123.019 455.011 120.822 453.925 119.731C453.645 119.448 453.274 119.271 452.877 119.231C448.949 118.669 445.416 116.409 443.714 112.817C442.978 111.341 442.575 109.72 442.533 108.07C442.534 106.337 442.924 104.626 443.675 103.065C444.426 101.503 445.519 100.131 446.872 99.051C448.225 97.9707 449.804 97.2097 451.491 96.8245C453.177 96.4394 454.929 96.4399 456.616 96.8262C458.303 97.2124 459.881 97.9744 461.233 99.0556C462.585 100.137 463.677 101.509 464.427 103.071C465.177 104.633 465.567 106.344 465.566 108.078C465.565 109.811 465.175 111.522 464.424 113.083C464.299 115.409 463.914 117.713 463.276 119.953C462.455 122.817 461.064 125.74 458.49 127.234C459.39 127.62 460.357 127.825 461.336 127.838C464.566 128.194 467.962 128.116 470.886 126.694C473.809 125.273 476.132 122.247 475.924 118.999Z" fill="#2F2E41"/>
<path d="M467.705 105.514C459.073 102.048 450.563 101.308 442.274 105.514V98.5271C442.274 97.9295 442.392 97.3378 442.62 96.7857C442.848 96.2336 443.183 95.732 443.605 95.3094C444.027 94.8868 444.527 94.5517 445.078 94.323C445.629 94.0943 446.22 93.9766 446.817 93.9766H464.117C465.069 93.9766 465.981 94.3553 466.654 95.0295C467.327 95.7037 467.705 96.6181 467.705 97.5716V105.514Z" fill="#2F2E41"/>
<path d="M465.546 109.84C466.54 109.84 467.345 108.549 467.345 106.956C467.345 105.363 466.54 104.072 465.546 104.072C464.552 104.072 463.747 105.363 463.747 106.956C463.747 108.549 464.552 109.84 465.546 109.84Z" fill="#A0616A"/>
<path d="M187.485 104.375H77.7285V200.411H187.485V104.375Z" fill="#E2E2E2"/>
<path d="M140.476 127.514L116.964 127.033V94.3443L140.476 96.7478V127.514Z" fill="#2F2E41"/>
<path d="M162.008 200.411H111.2C111.529 198.561 112.096 196.761 112.884 195.056C114.324 192.409 116.124 186.64 117.563 181.53C118.398 178.569 119.11 175.83 119.562 174.058C119.891 172.762 120.083 171.979 120.083 171.979L145.031 161.883C145.031 161.883 145.736 163.164 146.869 165.32C146.884 165.352 146.902 165.383 146.923 165.412C147.727 166.939 148.737 168.903 149.855 171.15H149.863C153.952 179.313 159.535 191.297 162.008 200.411Z" fill="#2F2E41"/>
<path d="M121.763 113.573L118.404 130.398L129.92 131.36C129.92 131.36 131.839 116.457 132.319 115.976C132.799 115.496 121.763 113.573 121.763 113.573Z" fill="#FFB8B8"/>
<path d="M129.2 119.101C135.56 119.101 140.716 113.936 140.716 107.564C140.716 101.192 135.56 96.0265 129.2 96.0265C122.84 96.0265 117.684 101.192 117.684 107.564C117.684 113.936 122.84 119.101 129.2 119.101Z" fill="#FFB8B8"/>
<path d="M118.404 125.591C118.404 125.591 129.44 127.995 129.92 127.514C130.4 127.033 143.355 129.437 144.315 133.763C145.274 138.09 142.875 154.915 142.875 154.915C142.875 154.915 148.153 157.318 147.673 158.28C147.194 159.241 150.552 160.203 149.593 161.645C148.633 163.087 131.359 188.085 123.202 187.604C115.045 187.123 100.17 132.802 100.17 132.802C100.17 132.802 100.65 126.072 106.888 126.072C113.126 126.072 118.404 125.591 118.404 125.591Z" fill="#3073FF"/>
<path d="M149.833 164.289C149.833 164.289 143.107 165.814 144.31 168.897C145.514 171.981 152.712 171.019 152.712 171.019L149.833 164.289Z" fill="#FFB8B8"/>
<path d="M128.843 200.411H111.2C111.146 200.687 111.085 200.971 111.024 201.255C110.175 200.903 109.299 200.621 108.405 200.411C108.206 200.365 108.091 200.342 108.091 200.342C108.091 200.342 104.247 185.919 98.9706 168.135C94.2919 152.354 99.0472 136.19 100.181 132.745V132.737C100.326 132.308 100.41 132.078 100.41 132.078L104.729 128.717L119.562 174.058L123.444 185.919C123.444 185.919 123.567 186.578 123.774 187.599C124.402 190.637 125.841 196.859 127.281 197.94C127.998 198.621 128.535 199.47 128.843 200.411V200.411Z" fill="#3073FF"/>
<path d="M137.837 132.081L143.825 132.704L157.51 149.867C157.51 149.867 162.788 154.674 159.429 156.597C156.07 158.52 154.631 162.366 154.631 162.366C154.631 162.366 158.949 171.98 152.712 173.423C152.712 173.423 148.393 163.808 146.954 162.847C145.514 161.885 148.873 158.039 148.873 158.039L137.837 150.829L137.837 132.081Z" fill="#3073FF"/>
<path d="M129.2 88.8159C129.2 88.8159 115.765 86.4124 113.366 98.4304C112.791 101.221 112.411 104.048 112.229 106.891C111.851 113.856 109.946 120.651 106.648 126.793L128.24 133.042C128.24 133.042 122.482 123.909 123.442 120.063C123.62 119.098 123.607 118.108 123.403 117.148C121.164 115.766 119.465 113.658 118.589 111.175C117.712 108.691 117.71 105.981 118.584 103.497C119.458 101.012 121.154 98.9018 123.391 97.5169C125.628 96.1321 128.27 95.5561 130.879 95.8847C133.488 96.2134 135.906 97.4268 137.731 99.3233C139.556 101.22 140.678 103.685 140.911 106.309C141.143 108.933 140.472 111.558 139.009 113.747C137.546 115.936 135.379 117.557 132.869 118.341C131.263 121.841 130.39 125.627 132.559 128.235C135.3 131.591 138.536 134.509 142.155 136.888C142.155 136.888 139.756 125.351 143.595 118.621C147.434 111.891 143.595 89.7774 129.2 88.8159Z" fill="#2F2E41"/>
<path d="M141.132 104.233L118.619 105.556L118 94.9883L137.593 94.2827L141.132 104.233Z" fill="#2F2E41"/>
<path d="M82.2376 240.028C84.3522 240.028 86.0664 238.311 86.0664 236.192C86.0664 234.074 84.3522 232.356 82.2376 232.356C80.123 232.356 78.4088 234.074 78.4088 236.192C78.4088 238.311 80.123 240.028 82.2376 240.028Z" fill="#E2E2E2"/>
<path d="M82.2376 261.509C84.3522 261.509 86.0664 259.792 86.0664 257.674C86.0664 255.555 84.3522 253.838 82.2376 253.838C80.123 253.838 78.4088 255.555 78.4088 257.674C78.4088 259.792 80.123 261.509 82.2376 261.509Z" fill="#E2E2E2"/>
<path d="M82.2376 282.99C84.3522 282.99 86.0664 281.273 86.0664 279.155C86.0664 277.036 84.3522 275.319 82.2376 275.319C80.123 275.319 78.4088 277.036 78.4088 279.155C78.4088 281.273 80.123 282.99 82.2376 282.99Z" fill="#E2E2E2"/>
<path d="M171.066 233.123H98.3186V239.261H171.066V233.123Z" fill="#E2E2E2"/>
<path d="M171.066 254.605H98.3186V260.742H171.066V254.605Z" fill="#E2E2E2"/>
<path d="M171.066 276.086H98.3186V282.223H171.066V276.086Z" fill="#E2E2E2"/>
<path d="M248.453 240.028C250.568 240.028 252.282 238.311 252.282 236.192C252.282 234.074 250.568 232.356 248.453 232.356C246.339 232.356 244.625 234.074 244.625 236.192C244.625 238.311 246.339 240.028 248.453 240.028Z" fill="#E2E2E2"/>
<path d="M248.453 261.509C250.568 261.509 252.282 259.792 252.282 257.674C252.282 255.555 250.568 253.838 248.453 253.838C246.339 253.838 244.625 255.555 244.625 257.674C244.625 259.792 246.339 261.509 248.453 261.509Z" fill="#E2E2E2"/>
<path d="M248.453 282.99C250.568 282.99 252.282 281.273 252.282 279.155C252.282 277.036 250.568 275.319 248.453 275.319C246.339 275.319 244.625 277.036 244.625 279.155C244.625 281.273 246.339 282.99 248.453 282.99Z" fill="#E2E2E2"/>
<path d="M337.282 233.123H264.534V239.261H337.282V233.123Z" fill="#E2E2E2"/>
<path d="M337.282 254.605H264.534V260.742H337.282V254.605Z" fill="#E2E2E2"/>
<path d="M337.282 276.086H264.534V282.223H337.282V276.086Z" fill="#E2E2E2"/>
<path d="M413.625 240.028C415.74 240.028 417.454 238.311 417.454 236.192C417.454 234.074 415.74 232.356 413.625 232.356C411.51 232.356 409.796 234.074 409.796 236.192C409.796 238.311 411.51 240.028 413.625 240.028Z" fill="#E2E2E2"/>
<path d="M413.625 261.509C415.74 261.509 417.454 259.792 417.454 257.674C417.454 255.555 415.74 253.838 413.625 253.838C411.51 253.838 409.796 255.555 409.796 257.674C409.796 259.792 411.51 261.509 413.625 261.509Z" fill="#E2E2E2"/>
<path d="M413.625 282.99C415.74 282.99 417.454 281.273 417.454 279.155C417.454 277.036 415.74 275.319 413.625 275.319C411.51 275.319 409.796 277.036 409.796 279.155C409.796 281.273 411.51 282.99 413.625 282.99Z" fill="#E2E2E2"/>
<path d="M502.453 233.123H429.706V239.261H502.453V233.123Z" fill="#E2E2E2"/>
<path d="M502.453 254.605H429.706V260.742H502.453V254.605Z" fill="#E2E2E2"/>
<path d="M502.453 276.086H429.706V282.223H502.453V276.086Z" fill="#E2E2E2"/>
</g>
<defs>
<filter id="filter0_d" x="0" y="0" width="560" height="369" filterUnits="userSpaceOnUse" color-interpolation-filters="sRGB">
<feFlood flood-opacity="0" result="BackgroundImageFix"/>
<feColorMatrix in="SourceAlpha" type="matrix" values="0 0 0 0 0 0 0 0 0 0 0 0 0 0 0 0 0 0 127 0" result="hardAlpha"/>
<feOffset dx="-13" dy="15"/>
<feGaussianBlur stdDeviation="4"/>
<feComposite in2="hardAlpha" operator="out"/>
<feColorMatrix type="matrix" values="0 0 0 0 0 0 0 0 0 0 0 0 0 0 0 0 0 0 0.2 0"/>
<feBlend mode="normal" in2="BackgroundImageFix" result="effect1_dropShadow"/>
<feBlend mode="normal" in="SourceGraphic" in2="effect1_dropShadow" result="shape"/>
</filter>
</defs>
</svg>
