<svg width="1718" height="1106" viewBox="0 0 1718 1106" fill="none" xmlns="http://www.w3.org/2000/svg">
<path d="M329.798 277.201L282.923 263.499C277.497 261.938 273.721 256.865 273.721 251.229C273.721 244.161 279.451 238.438 286.525 238.438H315.301C320.596 238.438 325.805 240.042 330.145 242.99C332.793 244.768 336.352 244.334 338.609 242.123L353.713 227.381C356.794 224.389 356.36 219.403 352.931 216.758C342.298 208.433 329.017 203.793 315.388 203.75V182.938C315.388 179.122 312.263 176 308.444 176H294.555C290.735 176 287.61 179.122 287.61 182.938V203.75H286.525C258.878 203.75 236.655 227.468 239.216 255.608C241.039 275.596 256.317 291.856 275.588 297.493L320.076 310.501C325.501 312.105 329.277 317.135 329.277 322.771C329.277 329.839 323.548 335.562 316.473 335.562H287.697C282.402 335.562 277.194 333.958 272.853 331.01C270.206 329.232 266.647 329.666 264.39 331.877L249.286 346.619C246.204 349.611 246.638 354.597 250.067 357.242C260.701 365.567 273.982 370.207 287.61 370.25V391.062C287.61 394.878 290.735 398 294.555 398H308.444C312.263 398 315.388 394.878 315.388 391.062V370.163C335.614 369.773 354.581 357.762 361.265 338.641C370.596 311.932 354.928 284.529 329.798 277.201Z" fill="#F0F0F4"/>
<path d="M454.32 351H434V272.672L409.742 280.195V263.672L452.141 248.484H454.32V351ZM556.555 308.672C556.555 322.828 553.625 333.656 547.766 341.156C541.906 348.656 533.328 352.406 522.031 352.406C510.875 352.406 502.344 348.727 496.438 341.367C490.531 334.008 487.508 323.461 487.367 309.727V290.883C487.367 276.586 490.32 265.734 496.227 258.328C502.18 250.922 510.734 247.219 521.891 247.219C533.047 247.219 541.578 250.898 547.484 258.258C553.391 265.57 556.414 276.094 556.555 289.828V308.672ZM536.234 288C536.234 279.516 535.062 273.352 532.719 269.508C530.422 265.617 526.812 263.672 521.891 263.672C517.109 263.672 513.57 265.523 511.273 269.227C509.023 272.883 507.828 278.625 507.688 286.453V311.344C507.688 319.688 508.812 325.898 511.062 329.977C513.359 334.008 517.016 336.023 522.031 336.023C527 336.023 530.586 334.078 532.789 330.188C534.992 326.297 536.141 320.344 536.234 312.328V288ZM573.359 300.656L579.266 248.625H636.641V265.57H595.93L593.398 287.578C598.227 285 603.359 283.711 608.797 283.711C618.547 283.711 626.188 286.734 631.719 292.781C637.25 298.828 640.016 307.289 640.016 318.164C640.016 324.773 638.609 330.703 635.797 335.953C633.031 341.156 629.047 345.211 623.844 348.117C618.641 350.977 612.5 352.406 605.422 352.406C599.234 352.406 593.492 351.164 588.195 348.68C582.898 346.148 578.703 342.609 575.609 338.062C572.562 333.516 570.945 328.336 570.758 322.523H590.867C591.289 326.789 592.766 330.117 595.297 332.508C597.875 334.852 601.227 336.023 605.352 336.023C609.945 336.023 613.484 334.383 615.969 331.102C618.453 327.773 619.695 323.086 619.695 317.039C619.695 311.227 618.266 306.773 615.406 303.68C612.547 300.586 608.492 299.039 603.242 299.039C598.414 299.039 594.5 300.305 591.5 302.836L589.531 304.664L573.359 300.656ZM721.93 308.672C721.93 322.828 719 333.656 713.141 341.156C707.281 348.656 698.703 352.406 687.406 352.406C676.25 352.406 667.719 348.727 661.812 341.367C655.906 334.008 652.883 323.461 652.742 309.727V290.883C652.742 276.586 655.695 265.734 661.602 258.328C667.555 250.922 676.109 247.219 687.266 247.219C698.422 247.219 706.953 250.898 712.859 258.258C718.766 265.57 721.789 276.094 721.93 289.828V308.672ZM701.609 288C701.609 279.516 700.438 273.352 698.094 269.508C695.797 265.617 692.188 263.672 687.266 263.672C682.484 263.672 678.945 265.523 676.648 269.227C674.398 272.883 673.203 278.625 673.062 286.453V311.344C673.062 319.688 674.188 325.898 676.438 329.977C678.734 334.008 682.391 336.023 687.406 336.023C692.375 336.023 695.961 334.078 698.164 330.188C700.367 326.297 701.516 320.344 701.609 312.328V288ZM741.828 376.664L731.211 371.109L733.742 366.539C736.883 360.82 738.5 355.125 738.594 349.453V333.703H755.75L755.68 347.766C755.633 352.969 754.32 358.219 751.742 363.516C749.164 368.812 745.859 373.195 741.828 376.664ZM839.773 308.672C839.773 322.828 836.844 333.656 830.984 341.156C825.125 348.656 816.547 352.406 805.25 352.406C794.094 352.406 785.562 348.727 779.656 341.367C773.75 334.008 770.727 323.461 770.586 309.727V290.883C770.586 276.586 773.539 265.734 779.445 258.328C785.398 250.922 793.953 247.219 805.109 247.219C816.266 247.219 824.797 250.898 830.703 258.258C836.609 265.57 839.633 276.094 839.773 289.828V308.672ZM819.453 288C819.453 279.516 818.281 273.352 815.938 269.508C813.641 265.617 810.031 263.672 805.109 263.672C800.328 263.672 796.789 265.523 794.492 269.227C792.242 272.883 791.047 278.625 790.906 286.453V311.344C790.906 319.688 792.031 325.898 794.281 329.977C796.578 334.008 800.234 336.023 805.25 336.023C810.219 336.023 813.805 334.078 816.008 330.188C818.211 326.297 819.359 320.344 819.453 312.328V288ZM922.461 308.672C922.461 322.828 919.531 333.656 913.672 341.156C907.812 348.656 899.234 352.406 887.938 352.406C876.781 352.406 868.25 348.727 862.344 341.367C856.438 334.008 853.414 323.461 853.273 309.727V290.883C853.273 276.586 856.227 265.734 862.133 258.328C868.086 250.922 876.641 247.219 887.797 247.219C898.953 247.219 907.484 250.898 913.391 258.258C919.297 265.57 922.32 276.094 922.461 289.828V308.672ZM902.141 288C902.141 279.516 900.969 273.352 898.625 269.508C896.328 265.617 892.719 263.672 887.797 263.672C883.016 263.672 879.477 265.523 877.18 269.227C874.93 272.883 873.734 278.625 873.594 286.453V311.344C873.594 319.688 874.719 325.898 876.969 329.977C879.266 334.008 882.922 336.023 887.938 336.023C892.906 336.023 896.492 334.078 898.695 330.188C900.898 326.297 902.047 320.344 902.141 312.328V288Z" fill="#F0F0F4"/>
<rect x="1208" y="229" width="249" height="145" fill="#F0F0F4"/>
<circle cx="275" cy="529" r="27" fill="#F0F0F4"/>
<circle cx="337" cy="529" r="27" fill="#F0F0F4"/>
<circle cx="398" cy="529" r="27" fill="#F0F0F4"/>
<circle cx="460" cy="529" r="27" fill="#F0F0F4"/>
<circle cx="576" cy="529" r="27" fill="#F0F0F4"/>
<circle cx="638" cy="529" r="27" fill="#F0F0F4"/>
<circle cx="699" cy="529" r="27" fill="#F0F0F4"/>
<circle cx="761" cy="529" r="27" fill="#F0F0F4"/>
<circle cx="877" cy="529" r="27" fill="#F0F0F4"/>
<circle cx="939" cy="529" r="27" fill="#F0F0F4"/>
<circle cx="1000" cy="529" r="27" fill="#F0F0F4"/>
<circle cx="1062" cy="529" r="27" fill="#F0F0F4"/>
<circle cx="1178" cy="529" r="27" fill="#F0F0F4"/>
<circle cx="1240" cy="529" r="27" fill="#F0F0F4"/>
<circle cx="1301" cy="529" r="27" fill="#F0F0F4"/>
<circle cx="1363" cy="529" r="27" fill="#F0F0F4"/>
<path d="M294.195 936H283.648L263.117 902.32V936H252.57V884.812H263.117L283.684 918.562V884.812H294.195V936ZM320.246 936.703C314.668 936.703 310.121 934.992 306.605 931.57C303.113 928.148 301.367 923.59 301.367 917.895V916.91C301.367 913.09 302.105 909.68 303.582 906.68C305.059 903.656 307.145 901.336 309.84 899.719C312.559 898.078 315.652 897.258 319.121 897.258C324.324 897.258 328.414 898.898 331.391 902.18C334.391 905.461 335.891 910.113 335.891 916.137V920.285H311.668C311.996 922.77 312.98 924.762 314.621 926.262C316.285 927.762 318.383 928.512 320.914 928.512C324.828 928.512 327.887 927.094 330.09 924.258L335.082 929.848C333.559 932.004 331.496 933.691 328.895 934.91C326.293 936.105 323.41 936.703 320.246 936.703ZM319.086 905.484C317.07 905.484 315.43 906.164 314.164 907.523C312.922 908.883 312.125 910.828 311.773 913.359H325.906V912.551C325.859 910.301 325.25 908.566 324.078 907.348C322.906 906.105 321.242 905.484 319.086 905.484ZM364.473 932.133C361.965 935.18 358.496 936.703 354.066 936.703C349.988 936.703 346.871 935.531 344.715 933.188C342.582 930.844 341.492 927.41 341.445 922.887V897.961H351.605V922.535C351.605 926.496 353.41 928.477 357.02 928.477C360.465 928.477 362.832 927.281 364.121 924.891V897.961H374.316V936H364.754L364.473 932.133ZM416.258 917.332C416.258 923.426 414.957 928.184 412.355 931.605C409.754 935.004 406.121 936.703 401.457 936.703C397.332 936.703 394.039 935.121 391.578 931.957L391.121 936H381.98V882H392.141V901.371C394.484 898.629 397.566 897.258 401.387 897.258C406.027 897.258 409.66 898.969 412.285 902.391C414.934 905.789 416.258 910.582 416.258 916.77V917.332ZM406.098 916.594C406.098 912.75 405.488 909.949 404.27 908.191C403.051 906.41 401.234 905.52 398.82 905.52C395.586 905.52 393.359 906.844 392.141 909.492V924.504C393.383 927.176 395.633 928.512 398.891 928.512C402.172 928.512 404.328 926.895 405.359 923.66C405.852 922.113 406.098 919.758 406.098 916.594ZM440.059 936.703C434.48 936.703 429.934 934.992 426.418 931.57C422.926 928.148 421.18 923.59 421.18 917.895V916.91C421.18 913.09 421.918 909.68 423.395 906.68C424.871 903.656 426.957 901.336 429.652 899.719C432.371 898.078 435.465 897.258 438.934 897.258C444.137 897.258 448.227 898.898 451.203 902.18C454.203 905.461 455.703 910.113 455.703 916.137V920.285H431.48C431.809 922.77 432.793 924.762 434.434 926.262C436.098 927.762 438.195 928.512 440.727 928.512C444.641 928.512 447.699 927.094 449.902 924.258L454.895 929.848C453.371 932.004 451.309 933.691 448.707 934.91C446.105 936.105 443.223 936.703 440.059 936.703ZM438.898 905.484C436.883 905.484 435.242 906.164 433.977 907.523C432.734 908.883 431.938 910.828 431.586 913.359H445.719V912.551C445.672 910.301 445.062 908.566 443.891 907.348C442.719 906.105 441.055 905.484 438.898 905.484ZM475.988 909.316L482.387 897.961H493.25L482.422 916.594L493.707 936H482.809L476.023 924.047L469.273 936H458.34L469.625 916.594L458.832 897.961H469.73L475.988 909.316ZM516.734 936V884.812H532.484C536.984 884.812 541.004 885.832 544.543 887.871C548.105 889.887 550.883 892.77 552.875 896.52C554.867 900.246 555.863 904.488 555.863 909.246V911.602C555.863 916.359 554.879 920.59 552.91 924.293C550.965 927.996 548.211 930.867 544.648 932.906C541.086 934.945 537.066 935.977 532.59 936H516.734ZM527.281 893.355V927.527H532.379C536.504 927.527 539.656 926.18 541.836 923.484C544.016 920.789 545.129 916.934 545.176 911.918V909.211C545.176 904.008 544.098 900.07 541.941 897.398C539.785 894.703 536.633 893.355 532.484 893.355H527.281ZM580.402 936.703C574.824 936.703 570.277 934.992 566.762 931.57C563.27 928.148 561.523 923.59 561.523 917.895V916.91C561.523 913.09 562.262 909.68 563.738 906.68C565.215 903.656 567.301 901.336 569.996 899.719C572.715 898.078 575.809 897.258 579.277 897.258C584.48 897.258 588.57 898.898 591.547 902.18C594.547 905.461 596.047 910.113 596.047 916.137V920.285H571.824C572.152 922.77 573.137 924.762 574.777 926.262C576.441 927.762 578.539 928.512 581.07 928.512C584.984 928.512 588.043 927.094 590.246 924.258L595.238 929.848C593.715 932.004 591.652 933.691 589.051 934.91C586.449 936.105 583.566 936.703 580.402 936.703ZM579.242 905.484C577.227 905.484 575.586 906.164 574.32 907.523C573.078 908.883 572.281 910.828 571.93 913.359H586.062V912.551C586.016 910.301 585.406 908.566 584.234 907.348C583.062 906.105 581.398 905.484 579.242 905.484ZM615.594 923.59L622.66 897.961H633.277L620.445 936H610.742L597.91 897.961H608.527L615.594 923.59ZM654.793 936.703C649.215 936.703 644.668 934.992 641.152 931.57C637.66 928.148 635.914 923.59 635.914 917.895V916.91C635.914 913.09 636.652 909.68 638.129 906.68C639.605 903.656 641.691 901.336 644.387 899.719C647.105 898.078 650.199 897.258 653.668 897.258C658.871 897.258 662.961 898.898 665.938 902.18C668.938 905.461 670.438 910.113 670.438 916.137V920.285H646.215C646.543 922.77 647.527 924.762 649.168 926.262C650.832 927.762 652.93 928.512 655.461 928.512C659.375 928.512 662.434 927.094 664.637 924.258L669.629 929.848C668.105 932.004 666.043 933.691 663.441 934.91C660.84 936.105 657.957 936.703 654.793 936.703ZM653.633 905.484C651.617 905.484 649.977 906.164 648.711 907.523C647.469 908.883 646.672 910.828 646.32 913.359H660.453V912.551C660.406 910.301 659.797 908.566 658.625 907.348C657.453 906.105 655.789 905.484 653.633 905.484ZM686.961 936H676.766V882H686.961V936ZM693.781 916.629C693.781 912.855 694.508 909.492 695.961 906.539C697.414 903.586 699.5 901.301 702.219 899.684C704.961 898.066 708.137 897.258 711.746 897.258C716.879 897.258 721.062 898.828 724.297 901.969C727.555 905.109 729.371 909.375 729.746 914.766L729.816 917.367C729.816 923.203 728.188 927.891 724.93 931.43C721.672 934.945 717.301 936.703 711.816 936.703C706.332 936.703 701.949 934.945 698.668 931.43C695.41 927.914 693.781 923.133 693.781 917.086V916.629ZM703.941 917.367C703.941 920.977 704.621 923.742 705.98 925.664C707.34 927.562 709.285 928.512 711.816 928.512C714.277 928.512 716.199 927.574 717.582 925.699C718.965 923.801 719.656 920.777 719.656 916.629C719.656 913.09 718.965 910.348 717.582 908.402C716.199 906.457 714.254 905.484 711.746 905.484C709.262 905.484 707.34 906.457 705.98 908.402C704.621 910.324 703.941 913.312 703.941 917.367ZM770.316 917.332C770.316 923.191 768.98 927.891 766.309 931.43C763.66 934.945 760.074 936.703 755.551 936.703C751.707 936.703 748.602 935.367 746.234 932.695V950.625H736.074V897.961H745.496L745.848 901.688C748.309 898.734 751.52 897.258 755.48 897.258C760.168 897.258 763.812 898.992 766.414 902.461C769.016 905.93 770.316 910.711 770.316 916.805V917.332ZM760.156 916.594C760.156 913.055 759.523 910.324 758.258 908.402C757.016 906.48 755.199 905.52 752.809 905.52C749.621 905.52 747.43 906.738 746.234 909.176V924.75C747.477 927.258 749.691 928.512 752.879 928.512C757.73 928.512 760.156 924.539 760.156 916.594ZM786.172 897.961L786.488 902.215C789.184 898.91 792.828 897.258 797.422 897.258C802.32 897.258 805.684 899.191 807.512 903.059C810.184 899.191 813.992 897.258 818.938 897.258C823.062 897.258 826.133 898.465 828.148 900.879C830.164 903.27 831.172 906.879 831.172 911.707V936H820.977V911.742C820.977 909.586 820.555 908.016 819.711 907.031C818.867 906.023 817.379 905.52 815.246 905.52C812.199 905.52 810.09 906.973 808.918 909.879L808.953 936H798.793V911.777C798.793 909.574 798.359 907.98 797.492 906.996C796.625 906.012 795.148 905.52 793.062 905.52C790.18 905.52 788.094 906.715 786.805 909.105V936H776.645V897.961H786.172ZM856.52 936.703C850.941 936.703 846.395 934.992 842.879 931.57C839.387 928.148 837.641 923.59 837.641 917.895V916.91C837.641 913.09 838.379 909.68 839.855 906.68C841.332 903.656 843.418 901.336 846.113 899.719C848.832 898.078 851.926 897.258 855.395 897.258C860.598 897.258 864.688 898.898 867.664 902.18C870.664 905.461 872.164 910.113 872.164 916.137V920.285H847.941C848.27 922.77 849.254 924.762 850.895 926.262C852.559 927.762 854.656 928.512 857.188 928.512C861.102 928.512 864.16 927.094 866.363 924.258L871.355 929.848C869.832 932.004 867.77 933.691 865.168 934.91C862.566 936.105 859.684 936.703 856.52 936.703ZM855.359 905.484C853.344 905.484 851.703 906.164 850.438 907.523C849.195 908.883 848.398 910.828 848.047 913.359H862.18V912.551C862.133 910.301 861.523 908.566 860.352 907.348C859.18 906.105 857.516 905.484 855.359 905.484ZM887.316 897.961L887.633 902.355C890.352 898.957 893.996 897.258 898.566 897.258C902.598 897.258 905.598 898.441 907.566 900.809C909.535 903.176 910.543 906.715 910.59 911.426V936H900.43V911.672C900.43 909.516 899.961 907.957 899.023 906.996C898.086 906.012 896.527 905.52 894.348 905.52C891.488 905.52 889.344 906.738 887.914 909.176V936H877.754V897.961H887.316ZM930.488 888.609V897.961H936.992V905.414H930.488V924.398C930.488 925.805 930.758 926.812 931.297 927.422C931.836 928.031 932.867 928.336 934.391 928.336C935.516 928.336 936.512 928.254 937.379 928.09V935.789C935.387 936.398 933.336 936.703 931.227 936.703C924.102 936.703 920.469 933.105 920.328 925.91V905.414H914.773V897.961H920.328V888.609H930.488Z" fill="#F0F0F4"/>
<path d="M273.797 844.879C273.48 847.586 272.479 849.678 270.791 851.154C269.115 852.619 266.883 853.352 264.094 853.352C261.07 853.352 258.645 852.268 256.816 850.1C255 847.932 254.092 845.031 254.092 841.398V838.938C254.092 836.559 254.514 834.467 255.357 832.662C256.213 830.857 257.42 829.475 258.979 828.514C260.537 827.541 262.342 827.055 264.393 827.055C267.111 827.055 269.291 827.816 270.932 829.34C272.572 830.852 273.527 832.949 273.797 835.633H270.404C270.111 833.594 269.473 832.117 268.488 831.203C267.516 830.289 266.15 829.832 264.393 829.832C262.236 829.832 260.543 830.629 259.312 832.223C258.094 833.816 257.484 836.084 257.484 839.025V841.504C257.484 844.281 258.064 846.49 259.225 848.131C260.385 849.771 262.008 850.592 264.094 850.592C265.969 850.592 267.404 850.17 268.4 849.326C269.408 848.471 270.076 846.988 270.404 844.879H273.797ZM287.104 836.898C286.611 836.816 286.078 836.775 285.504 836.775C283.371 836.775 281.924 837.684 281.162 839.5V853H277.91V833.98H281.074L281.127 836.178C282.193 834.479 283.705 833.629 285.662 833.629C286.295 833.629 286.775 833.711 287.104 833.875V836.898ZM297.65 853.352C295.072 853.352 292.975 852.508 291.357 850.82C289.74 849.121 288.932 846.854 288.932 844.018V843.42C288.932 841.533 289.289 839.852 290.004 838.375C290.73 836.887 291.738 835.727 293.027 834.895C294.328 834.051 295.734 833.629 297.246 833.629C299.719 833.629 301.641 834.443 303.012 836.072C304.383 837.701 305.068 840.033 305.068 843.068V844.422H292.184C292.23 846.297 292.775 847.814 293.818 848.975C294.873 850.123 296.209 850.697 297.826 850.697C298.975 850.697 299.947 850.463 300.744 849.994C301.541 849.525 302.238 848.904 302.836 848.131L304.822 849.678C303.229 852.127 300.838 853.352 297.65 853.352ZM297.246 836.301C295.934 836.301 294.832 836.781 293.941 837.742C293.051 838.691 292.5 840.027 292.289 841.75H301.816V841.504C301.723 839.852 301.277 838.574 300.48 837.672C299.684 836.758 298.605 836.301 297.246 836.301ZM308.057 843.332C308.057 840.414 308.748 838.07 310.131 836.301C311.514 834.52 313.324 833.629 315.562 833.629C317.789 833.629 319.553 834.391 320.854 835.914V826H324.105V853H321.117L320.959 850.961C319.658 852.555 317.848 853.352 315.527 853.352C313.324 853.352 311.525 852.449 310.131 850.645C308.748 848.84 308.057 846.484 308.057 843.578V843.332ZM311.309 843.701C311.309 845.857 311.754 847.545 312.645 848.764C313.535 849.982 314.766 850.592 316.336 850.592C318.398 850.592 319.904 849.666 320.854 847.814V839.078C319.881 837.285 318.387 836.389 316.371 836.389C314.777 836.389 313.535 837.004 312.645 838.234C311.754 839.465 311.309 841.287 311.309 843.701ZM332.701 853H329.449V833.98H332.701V853ZM329.186 828.936C329.186 828.408 329.344 827.963 329.66 827.6C329.988 827.236 330.469 827.055 331.102 827.055C331.734 827.055 332.215 827.236 332.543 827.6C332.871 827.963 333.035 828.408 333.035 828.936C333.035 829.463 332.871 829.902 332.543 830.254C332.215 830.605 331.734 830.781 331.102 830.781C330.469 830.781 329.988 830.605 329.66 830.254C329.344 829.902 329.186 829.463 329.186 828.936ZM342.334 829.375V833.98H345.885V836.494H342.334V848.289C342.334 849.051 342.492 849.625 342.809 850.012C343.125 850.387 343.664 850.574 344.426 850.574C344.801 850.574 345.316 850.504 345.973 850.363V853C345.117 853.234 344.285 853.352 343.477 853.352C342.023 853.352 340.928 852.912 340.189 852.033C339.451 851.154 339.082 849.906 339.082 848.289V836.494H335.619V833.98H339.082V829.375H342.334ZM366.258 850.697C367.418 850.697 368.432 850.346 369.299 849.643C370.166 848.939 370.646 848.061 370.74 847.006H373.816C373.758 848.096 373.383 849.133 372.691 850.117C372 851.102 371.074 851.887 369.914 852.473C368.766 853.059 367.547 853.352 366.258 853.352C363.668 853.352 361.605 852.49 360.07 850.768C358.547 849.033 357.785 846.666 357.785 843.666V843.121C357.785 841.27 358.125 839.623 358.805 838.182C359.484 836.74 360.457 835.621 361.723 834.824C363 834.027 364.506 833.629 366.24 833.629C368.373 833.629 370.143 834.268 371.549 835.545C372.967 836.822 373.723 838.48 373.816 840.52H370.74C370.646 839.289 370.178 838.281 369.334 837.496C368.502 836.699 367.471 836.301 366.24 836.301C364.588 836.301 363.305 836.898 362.391 838.094C361.488 839.277 361.037 840.994 361.037 843.244V843.859C361.037 846.051 361.488 847.738 362.391 848.922C363.293 850.105 364.582 850.697 366.258 850.697ZM389.215 853C389.027 852.625 388.875 851.957 388.758 850.996C387.246 852.566 385.441 853.352 383.344 853.352C381.469 853.352 379.928 852.824 378.721 851.77C377.525 850.703 376.928 849.355 376.928 847.727C376.928 845.746 377.678 844.211 379.178 843.121C380.689 842.02 382.811 841.469 385.541 841.469H388.705V839.975C388.705 838.838 388.365 837.936 387.686 837.268C387.006 836.588 386.004 836.248 384.68 836.248C383.52 836.248 382.547 836.541 381.762 837.127C380.977 837.713 380.584 838.422 380.584 839.254H377.314C377.314 838.305 377.648 837.391 378.316 836.512C378.996 835.621 379.91 834.918 381.059 834.402C382.219 833.887 383.49 833.629 384.873 833.629C387.064 833.629 388.781 834.18 390.023 835.281C391.266 836.371 391.91 837.877 391.957 839.799V848.553C391.957 850.299 392.18 851.688 392.625 852.719V853H389.215ZM383.818 850.521C384.838 850.521 385.805 850.258 386.719 849.73C387.633 849.203 388.295 848.518 388.705 847.674V843.771H386.156C382.172 843.771 380.18 844.938 380.18 847.27C380.18 848.289 380.52 849.086 381.199 849.66C381.879 850.234 382.752 850.521 383.818 850.521ZM406.248 836.898C405.756 836.816 405.223 836.775 404.648 836.775C402.516 836.775 401.068 837.684 400.307 839.5V853H397.055V833.98H400.219L400.271 836.178C401.338 834.479 402.85 833.629 404.807 833.629C405.439 833.629 405.92 833.711 406.248 833.875V836.898ZM408.111 843.332C408.111 840.414 408.803 838.07 410.186 836.301C411.568 834.52 413.379 833.629 415.617 833.629C417.844 833.629 419.607 834.391 420.908 835.914V826H424.16V853H421.172L421.014 850.961C419.713 852.555 417.902 853.352 415.582 853.352C413.379 853.352 411.58 852.449 410.186 850.645C408.803 848.84 408.111 846.484 408.111 843.578V843.332ZM411.363 843.701C411.363 845.857 411.809 847.545 412.699 848.764C413.59 849.982 414.82 850.592 416.391 850.592C418.453 850.592 419.959 849.666 420.908 847.814V839.078C419.936 837.285 418.441 836.389 416.426 836.389C414.832 836.389 413.59 837.004 412.699 838.234C411.809 839.465 411.363 841.287 411.363 843.701Z" fill="#F0F0F4"/>
<circle cx="1304" cy="900" r="59" fill="#F0F0F4"/>
<circle cx="1387" cy="900" r="59" fill="#F0F0F4" fill-opacity="0.58"/>
</svg>
