<svg width="999" height="998" viewBox="0 0 999 998" fill="none" xmlns="http://www.w3.org/2000/svg">
<path d="M519.994 260.463L499.6 205.933L517.418 91.509L533.034 97.401L978.318 358.945C917.789 151.724 726.377 0.341995 499.598 0.341995C224.193 0.341995 0.931 223.603 0.931 499.009C0.931 774.415 224.193 997.676 499.598 997.676C559.786 997.676 617.484 987.013 670.906 967.472L387.348 794.99L519.994 260.463Z" fill="#161616"/>
<path d="M256.556 211.185C259.457 211.185 261.809 208.833 261.809 205.932C261.809 203.031 259.457 200.679 256.556 200.679C253.655 200.679 251.303 203.031 251.303 205.932C251.303 208.833 253.655 211.185 256.556 211.185Z" fill="#617D91"/>
<path d="M701.387 379.093C704.288 379.093 706.639 376.742 706.639 373.841C706.639 370.94 704.288 368.589 701.387 368.589C698.486 368.589 696.135 370.94 696.135 373.841C696.135 376.742 698.486 379.093 701.387 379.093Z" fill="#617D91"/>
<path d="M763.002 474.911C765.903 474.911 768.255 472.559 768.255 469.658C768.255 466.757 765.903 464.405 763.002 464.405C760.101 464.405 757.749 466.757 757.749 469.658C757.749 472.559 760.101 474.911 763.002 474.911Z" fill="#617D91"/>
<path d="M310.122 543.098C313.023 543.098 315.374 540.747 315.374 537.846C315.374 534.945 313.023 532.594 310.122 532.594C307.221 532.594 304.87 534.945 304.87 537.846C304.87 540.747 307.221 543.098 310.122 543.098Z" fill="#617D91"/>
<path d="M563.914 693.764C566.815 693.764 569.166 691.413 569.166 688.512C569.166 685.611 566.815 683.26 563.914 683.26C561.013 683.26 558.662 685.611 558.662 688.512C558.662 691.413 561.013 693.764 563.914 693.764Z" fill="#617D91"/>
<path d="M998.267 499.009C998.267 450.38 991.298 403.38 978.319 358.945L532.339 97L517.418 91.508L499.6 205.933L519.994 260.463L387.348 794.99L670.907 967.472C861.927 897.6 998.267 714.226 998.267 499.009Z" fill="black"/>
<path d="M764.563 204.957C768.122 204.957 771.008 202.071 771.008 198.512C771.008 194.953 768.122 192.067 764.563 192.067C761.004 192.067 758.118 194.953 758.118 198.512C758.118 202.071 761.004 204.957 764.563 204.957Z" fill="white"/>
<path d="M787.557 357.821C791.116 357.821 794.001 354.936 794.001 351.377C794.001 347.818 791.116 344.933 787.557 344.933C783.998 344.933 781.113 347.818 781.113 351.377C781.113 354.936 783.998 357.821 787.557 357.821Z" fill="white"/>
<path d="M884.5 646.298C887.401 646.298 889.753 643.946 889.753 641.045C889.753 638.144 887.401 635.792 884.5 635.792C881.599 635.792 879.247 638.144 879.247 641.045C879.247 643.946 881.599 646.298 884.5 646.298Z" fill="white"/>
<path d="M845.164 808.113C848.723 808.113 851.609 805.228 851.609 801.668C851.609 798.109 848.723 795.223 845.164 795.223C841.604 795.223 838.719 798.109 838.719 801.668C838.719 805.228 841.604 808.113 845.164 808.113Z" fill="white"/>
<path d="M325.623 88.1C328.525 88.1 330.877 90.453 330.877 93.352C330.877 96.253 328.525 98.605 325.623 98.605C322.725 98.605 320.373 96.253 320.373 93.352C320.372 90.453 322.724 88.1 325.623 88.1Z" fill="white"/>
<path d="M950.316 520.019C953.217 520.019 955.569 517.667 955.569 514.766C955.569 511.865 953.217 509.513 950.316 509.513C947.415 509.513 945.063 511.865 945.063 514.766C945.063 517.667 947.415 520.019 950.316 520.019Z" fill="white"/>
<path d="M144.03 204.696C146.931 204.696 149.283 202.344 149.283 199.443C149.283 196.542 146.931 194.19 144.03 194.19C141.129 194.19 138.777 196.542 138.777 199.443C138.777 202.344 141.129 204.696 144.03 204.696Z" fill="white"/>
<path d="M522.751 781.963C525.652 781.963 528.004 779.611 528.004 776.71C528.004 773.809 525.652 771.457 522.751 771.457C519.85 771.457 517.498 773.809 517.498 776.71C517.498 779.611 519.85 781.963 522.751 781.963Z" fill="white"/>
<path d="M652.854 385.182C656.416 385.182 659.3 388.068 659.3 391.626C659.3 395.186 656.415 398.071 652.854 398.071C649.297 398.071 646.412 395.186 646.412 391.626C646.412 388.068 649.297 385.182 652.854 385.182Z" fill="white"/>
<path d="M634.095 886.413C637.654 886.413 640.54 883.527 640.54 879.968C640.54 876.409 637.654 873.523 634.095 873.523C630.535 873.523 627.65 876.409 627.65 879.968C627.65 883.527 630.535 886.413 634.095 886.413Z" fill="white"/>
<path d="M589.728 106.243C593.288 106.243 596.173 103.357 596.173 99.798C596.173 96.2385 593.288 93.353 589.728 93.353C586.169 93.353 583.283 96.2385 583.283 99.798C583.283 103.357 586.169 106.243 589.728 106.243Z" fill="white"/>
<path d="M35.183 469.247C38.0842 469.247 40.436 466.895 40.436 463.994C40.436 461.093 38.0842 458.741 35.183 458.741C32.2818 458.741 29.93 461.093 29.93 463.994C29.93 466.895 32.2818 469.247 35.183 469.247Z" fill="white"/>
<path d="M876.194 438.605L881.327 443.941L888.632 442.736L885.144 449.268L888.547 455.842L881.259 454.543L876.054 459.811L875.039 452.478L868.421 449.159L875.082 445.926L876.194 438.605Z" fill="white"/>
<path d="M768.673 681.636L773.808 686.971L781.113 685.766L777.624 692.297L781.029 698.873L773.738 697.574L768.536 702.841L767.518 695.507L760.9 692.189L767.561 688.955L768.673 681.636Z" fill="#F8EF70"/>
<path d="M457.623 970.639L462.958 965.506L461.754 958.201L468.286 961.688L474.861 958.286L473.562 965.576L478.83 970.778L471.496 971.793L468.177 978.412L464.943 971.751L457.623 970.639Z" fill="white"/>
<path d="M657.985 669.937L663.321 664.802L662.114 657.497L668.647 660.986L675.22 657.582L673.922 664.874L679.191 670.074L671.859 671.092L668.539 677.709L665.306 671.049L657.985 669.937Z" fill="#5EC8E1"/>
<path d="M462.875 165.842L468.21 160.708L467.007 153.402L473.539 156.891L480.114 153.487L478.814 160.777L484.081 165.979L476.748 166.996L473.428 173.614L470.196 166.954L462.875 165.842Z" fill="#F8EF70"/>
<path d="M615.099 289.648C615.099 289.648 626.473 293.219 627.67 302.517C627.67 302.517 629.161 293.891 640.537 289.648C629.161 285.405 627.67 276.779 627.67 276.779C626.473 286.078 615.099 289.648 615.099 289.648Z" fill="white"/>
<path d="M234.458 845.215C234.458 845.215 245.832 848.785 247.029 858.083C247.029 858.083 248.522 849.457 259.896 845.215C248.522 840.972 247.029 832.346 247.029 832.346C245.833 841.644 234.458 845.215 234.458 845.215Z" fill="white"/>
<path d="M965.309 394.152C968.21 394.152 970.562 391.8 970.562 388.899C970.562 385.998 968.21 383.646 965.309 383.646C962.408 383.646 960.056 385.998 960.056 388.899C960.056 391.8 962.408 394.152 965.309 394.152Z" fill="#617D91"/>
<path d="M845.165 170.973C848.066 170.973 850.418 168.621 850.418 165.72C850.418 162.819 848.066 160.467 845.165 160.467C842.264 160.467 839.912 162.819 839.912 165.72C839.912 168.621 842.264 170.973 845.165 170.973Z" fill="#617D91"/>
<path d="M763.373 281.191C763.373 284.092 761.019 286.444 758.12 286.444C755.218 286.444 752.865 284.092 752.865 281.191C752.865 278.29 755.218 275.938 758.12 275.938C761.018 275.938 763.373 278.29 763.373 281.191Z" fill="#617D91"/>
<path d="M72.461 329.262C75.3622 329.262 77.714 326.91 77.714 324.009C77.714 321.108 75.3622 318.756 72.461 318.756C69.5598 318.756 67.208 321.108 67.208 324.009C67.208 326.91 69.5598 329.262 72.461 329.262Z" fill="#617D91"/>
<path d="M879.247 281.191C882.148 281.191 884.5 278.839 884.5 275.938C884.5 273.037 882.148 270.685 879.247 270.685C876.346 270.685 873.994 273.037 873.994 275.938C873.994 278.839 876.346 281.191 879.247 281.191Z" fill="#617D91"/>
<path d="M742.242 430.621C742.242 433.522 739.888 435.874 736.991 435.874C734.089 435.874 731.737 433.522 731.737 430.621C731.737 427.721 734.089 425.369 736.991 425.369C739.888 425.369 742.242 427.721 742.242 430.621Z" fill="#617D91"/>
<path d="M781.113 557.69C784.014 557.69 786.365 555.339 786.365 552.438C786.365 549.537 784.014 547.186 781.113 547.186C778.212 547.186 775.861 549.537 775.861 552.438C775.861 555.339 778.212 557.69 781.113 557.69Z" fill="#617D91"/>
<path d="M149.283 792.468C152.184 792.468 154.535 790.117 154.535 787.216C154.535 784.315 152.184 781.964 149.283 781.964C146.382 781.964 144.031 784.315 144.031 787.216C144.031 790.117 146.382 792.468 149.283 792.468Z" fill="#617D91"/>
<path d="M69.002 624.619C71.9026 624.619 74.254 622.268 74.254 619.367C74.254 616.466 71.9026 614.115 69.002 614.115C66.1014 614.115 63.75 616.466 63.75 619.367C63.75 622.268 66.1014 624.619 69.002 624.619Z" fill="#617D91"/>
<path d="M373.827 27.178C376.728 27.178 379.08 24.8262 379.08 21.925C379.08 19.0239 376.728 16.672 373.827 16.672C370.926 16.672 368.574 19.0239 368.574 21.925C368.574 24.8262 370.926 27.178 373.827 27.178Z" fill="#617D91"/>
<path d="M627.649 586.96C630.55 586.96 632.901 584.609 632.901 581.708C632.901 578.807 630.55 576.456 627.649 576.456C624.748 576.456 622.397 578.807 622.397 581.708C622.397 584.609 624.748 586.96 627.649 586.96Z" fill="#617D91"/>
<path d="M640.538 163.509C643.439 163.509 645.791 161.157 645.791 158.256C645.791 155.355 643.439 153.003 640.538 153.003C637.637 153.003 635.285 155.355 635.285 158.256C635.285 161.157 637.637 163.509 640.538 163.509Z" fill="#617D91"/>
<path d="M84.138 507.33C87.0392 507.33 89.391 504.978 89.391 502.077C89.391 499.176 87.0392 496.824 84.138 496.824C81.2368 496.824 78.885 499.176 78.885 502.077C78.885 504.978 81.2368 507.33 84.138 507.33Z" fill="#617D91"/>
<path d="M473.479 54.244C476.38 54.244 478.732 51.8921 478.732 48.991C478.732 46.0898 476.38 43.738 473.479 43.738C470.578 43.738 468.226 46.0898 468.226 48.991C468.226 51.8921 470.578 54.244 473.479 54.244Z" fill="#617D91"/>
<path d="M747.495 795.224C747.495 798.124 745.141 800.477 742.242 800.477C739.34 800.477 736.987 798.124 736.987 795.224C736.987 792.324 739.34 789.971 742.242 789.971C745.14 789.971 747.495 792.324 747.495 795.224Z" fill="#617D91"/>
<path d="M666.201 781.963C669.102 781.963 671.454 779.611 671.454 776.71C671.454 773.809 669.102 771.457 666.201 771.457C663.3 771.457 660.948 773.809 660.948 776.71C660.948 779.611 663.3 781.963 666.201 781.963Z" fill="#617D91"/>
<path d="M681.958 474.5C684.859 474.5 687.211 472.148 687.211 469.247C687.211 466.346 684.859 463.994 681.958 463.994C679.057 463.994 676.705 466.346 676.705 469.247C676.705 472.148 679.057 474.5 681.958 474.5Z" fill="#617D91"/>
<path d="M566.236 237.812C569.137 237.812 571.489 235.46 571.489 232.559C571.489 229.658 569.137 227.306 566.236 227.306C563.335 227.306 560.983 229.658 560.983 232.559C560.983 235.46 563.335 237.812 566.236 237.812Z" fill="#617D91"/>
<path d="M419.767 350.569C422.668 350.569 425.02 348.217 425.02 345.316C425.02 342.415 422.668 340.063 419.767 340.063C416.866 340.063 414.514 342.415 414.514 345.316C414.514 348.217 416.866 350.569 419.767 350.569Z" fill="#617D91"/>
<path d="M528.003 581.708C530.903 581.708 533.256 584.062 533.256 586.96C533.256 589.863 530.903 592.215 528.003 592.215C525.103 592.215 522.751 589.863 522.751 586.96C522.751 584.062 525.103 581.708 528.003 581.708Z" fill="#617D91"/>
<path d="M325.623 906.385C328.525 906.385 330.877 908.737 330.877 911.636C330.877 914.538 328.525 916.89 325.623 916.89C322.725 916.89 320.373 914.538 320.373 911.636C320.372 908.737 322.724 906.385 325.623 906.385Z" fill="#617D91"/>
<path d="M206.311 671.707C209.212 671.707 211.563 669.356 211.563 666.455C211.563 663.554 209.212 661.203 206.311 661.203C203.41 661.203 201.059 663.554 201.059 666.455C201.059 669.356 203.41 671.707 206.311 671.707Z" fill="#617D91"/>
<path d="M403.18 766.204C406.08 766.204 408.432 768.558 408.432 771.456C408.432 774.359 406.08 776.711 403.18 776.711C400.28 776.711 397.927 774.359 397.927 771.456C397.927 768.557 400.28 766.204 403.18 766.204Z" fill="#617D91"/>
<path d="M336.13 599.027C339.03 599.027 341.382 601.381 341.382 604.279C341.382 607.181 339.03 609.534 336.13 609.534C333.229 609.534 330.877 607.181 330.877 604.279C330.877 601.38 333.229 599.027 336.13 599.027Z" fill="#617D91"/>
<path d="M414.514 502.078C417.415 502.078 419.767 499.726 419.767 496.825C419.767 493.924 417.415 491.572 414.514 491.572C411.613 491.572 409.261 493.924 409.261 496.825C409.261 499.726 411.613 502.078 414.514 502.078Z" fill="#617D91"/>
<path d="M298.095 396.127C300.996 396.127 303.348 393.775 303.348 390.874C303.348 387.973 300.996 385.621 298.095 385.621C295.194 385.621 292.842 387.973 292.842 390.874C292.842 393.775 295.194 396.127 298.095 396.127Z" fill="#617D91"/>
<path d="M308.602 199.444C311.503 199.444 313.855 197.092 313.855 194.191C313.855 191.29 311.503 188.938 308.602 188.938C305.701 188.938 303.349 191.29 303.349 194.191C303.349 197.092 305.701 199.444 308.602 199.444Z" fill="#617D91"/>
<path d="M220.01 196.128C222.911 196.128 225.263 193.776 225.263 190.875C225.263 187.974 222.911 185.622 220.01 185.622C217.109 185.622 214.757 187.974 214.757 190.875C214.757 193.776 217.109 196.128 220.01 196.128Z" fill="#617D91"/>
<path d="M259.897 512.584C262.798 512.584 265.15 510.232 265.15 507.331C265.15 504.43 262.798 502.078 259.897 502.078C256.996 502.078 254.644 504.43 254.644 507.331C254.644 510.232 256.996 512.584 259.897 512.584Z" fill="#617D91"/>
<path d="M247.177 243.065C250.078 243.065 252.43 240.713 252.43 237.812C252.43 234.911 250.078 232.559 247.177 232.559C244.276 232.559 241.924 234.911 241.924 237.812C241.924 240.713 244.276 243.065 247.177 243.065Z" fill="#617D91"/>
<path d="M78.905 707.537C81.8056 707.537 84.157 705.186 84.157 702.285C84.157 699.384 81.8056 697.033 78.905 697.033C76.0044 697.033 73.653 699.384 73.653 702.285C73.653 705.186 76.0044 707.537 78.905 707.537Z" fill="#617D91"/>
<path d="M448.764 696.544C452.323 696.544 455.209 693.658 455.209 690.099C455.209 686.54 452.323 683.654 448.764 683.654C445.204 683.654 442.319 686.54 442.319 690.099C442.319 693.658 445.204 696.544 448.764 696.544Z" fill="white"/>
<path d="M480.09 282.908C483.649 282.908 486.535 280.022 486.535 276.463C486.535 272.904 483.649 270.018 480.09 270.018C476.531 270.018 473.645 272.904 473.645 276.463C473.645 280.022 476.531 282.908 480.09 282.908Z" fill="white"/>
<path d="M116.921 592.583C120.48 592.583 123.367 595.468 123.367 599.027C123.367 602.586 120.48 605.472 116.921 605.472C113.364 605.472 110.477 602.585 110.477 599.027C110.477 595.467 113.364 592.583 116.921 592.583Z" fill="white"/>
<path d="M678.792 208.658L685.902 210.736L691.643 206.06L691.859 213.461L698.083 217.476L691.11 219.972L689.215 227.127L684.687 221.27L677.294 221.679L681.467 215.563L678.792 208.658Z" fill="#F8EF70"/>
<path d="M912.366 454.964L917.701 449.829L916.496 442.523L923.027 446.013L929.603 442.609L928.303 449.899L933.571 455.1L926.237 456.119L922.919 462.736L919.684 456.076L912.366 454.964Z" fill="#5EC8E1"/>
<path d="M769.433 732.396C770.416 727.818 774.926 724.904 779.508 725.889C784.088 726.872 786.999 731.382 786.013 735.964C785.028 740.543 780.517 743.456 775.94 742.474C771.36 741.486 768.446 736.976 769.433 732.396Z" fill="white"/>
<path d="M517.972 799.096C517.972 815.544 504.636 828.874 488.187 828.874C471.739 828.874 458.406 815.544 458.406 799.096C458.406 782.646 471.739 769.309 488.187 769.309C504.636 769.309 517.972 782.646 517.972 799.096Z" fill="white"/>
<path d="M493.832 839.044C518.971 839.044 539.351 818.664 539.351 793.525C539.351 768.386 518.971 748.006 493.832 748.006C468.693 748.006 448.313 768.386 448.313 793.525C448.313 818.664 468.693 839.044 493.832 839.044Z" fill="white"/>
<path d="M430.755 847.28C455.896 847.28 476.276 826.9 476.276 801.759C476.276 776.618 455.896 756.238 430.755 756.238C405.614 756.238 385.234 776.618 385.234 801.759C385.234 826.9 405.614 847.28 430.755 847.28Z" fill="white"/>
<path d="M415.354 814.83C440.495 814.83 460.875 794.45 460.875 769.309C460.875 744.168 440.495 723.788 415.354 723.788C390.213 723.788 369.833 744.168 369.833 769.309C369.833 794.45 390.213 814.83 415.354 814.83Z" fill="white"/>
<path d="M357.094 815.268C382.235 815.268 402.615 794.888 402.615 769.747C402.615 744.606 382.235 724.226 357.094 724.226C331.953 724.226 311.573 744.606 311.573 769.747C311.573 794.888 331.953 815.268 357.094 815.268Z" fill="white"/>
<path d="M608.096 833.705C633.235 833.705 653.614 813.326 653.614 788.187C653.614 763.048 633.235 742.669 608.096 742.669C582.957 742.669 562.578 763.048 562.578 788.187C562.578 813.326 582.957 833.705 608.096 833.705Z" fill="white"/>
<path d="M675.708 820.299C700.847 820.299 721.226 799.92 721.226 774.781C721.226 749.642 700.847 729.263 675.708 729.263C650.569 729.263 630.19 749.642 630.19 774.781C630.19 799.92 650.569 820.299 675.708 820.299Z" fill="white"/>
<path d="M608.091 820.299C608.091 854.921 580.026 882.986 545.402 882.986C510.78 882.986 482.715 854.922 482.715 820.299C482.715 785.682 510.779 757.616 545.402 757.616C580.026 757.617 608.091 785.682 608.091 820.299Z" fill="white"/>
<path d="M458.405 904.709C485.044 904.709 506.639 883.114 506.639 856.475C506.639 829.836 485.044 808.241 458.405 808.241C431.766 808.241 410.171 829.836 410.171 856.475C410.171 883.114 431.766 904.709 458.405 904.709Z" fill="white"/>
<path d="M662.505 828.877C662.505 849.102 646.109 865.495 625.886 865.495C605.664 865.495 589.262 849.101 589.262 828.877C589.262 808.648 605.664 792.254 625.886 792.254C646.11 792.254 662.505 808.649 662.505 828.877Z" fill="white"/>
<path d="M349.755 894.05C359.486 894.05 367.374 886.162 367.374 876.431C367.374 866.7 359.486 858.812 349.755 858.812C340.024 858.812 332.136 866.7 332.136 876.431C332.136 886.162 340.024 894.05 349.755 894.05Z" fill="white"/>
<path d="M215.109 836.263C215.109 845.992 207.224 853.883 197.491 853.883C187.762 853.883 179.871 845.991 179.871 836.263C179.871 826.532 187.762 818.645 197.491 818.645C207.224 818.645 215.109 826.532 215.109 836.263Z" fill="white"/>
<path d="M246.787 804.769C248.832 795.255 258.202 789.206 267.72 791.248C277.232 793.294 283.283 802.662 281.239 812.181C279.189 821.694 269.819 827.744 260.307 825.7C250.794 823.65 244.742 814.281 246.787 804.769Z" fill="white"/>
<path d="M760.499 787.5C762.544 777.986 771.915 771.935 781.43 773.979C790.943 776.023 796.993 785.394 794.951 794.912C792.9 804.424 783.53 810.475 774.018 808.431C764.504 806.38 758.453 797.01 760.499 787.5Z" fill="white"/>
<path d="M809.844 833.224C814.528 833.224 818.325 829.427 818.325 824.743C818.325 820.059 814.528 816.262 809.844 816.262C805.16 816.262 801.363 820.059 801.363 824.743C801.363 829.427 805.16 833.224 809.844 833.224Z" fill="white"/>
<path d="M446.211 835.714C446.211 845.446 438.325 853.331 428.59 853.331C418.861 853.331 410.972 845.446 410.972 835.714C410.972 825.984 418.861 818.094 428.59 818.094C438.326 818.094 446.211 825.984 446.211 835.714Z" fill="white"/>
<path d="M337.381 836.263C337.381 845.997 329.488 853.883 319.76 853.883C310.028 853.883 302.141 845.997 302.141 836.263C302.141 826.535 310.028 818.645 319.76 818.645C329.489 818.645 337.381 826.536 337.381 836.263Z" fill="white"/>
<path d="M760.1 816.259C760.1 822.285 755.219 827.168 749.196 827.168C743.175 827.168 738.288 822.285 738.288 816.259C738.288 810.237 743.176 805.355 749.196 805.355C755.219 805.355 760.1 810.237 760.1 816.259Z" fill="white"/>
<path d="M760.1 844.616C760.1 850.638 755.214 855.519 749.192 855.519C743.169 855.519 738.288 850.638 738.288 844.616C738.288 838.59 743.169 833.708 749.192 833.708C755.214 833.708 760.1 838.589 760.1 844.616Z" fill="white"/>
<path d="M418.019 916.825C418.019 925.33 411.121 932.227 402.615 932.227C394.112 932.227 387.214 925.33 387.214 916.825C387.214 908.319 394.111 901.426 402.615 901.426C411.121 901.425 418.019 908.319 418.019 916.825Z" fill="white"/>
<path d="M390.447 868.038C394.385 868.038 397.577 864.846 397.577 860.908C397.577 856.97 394.385 853.778 390.447 853.778C386.509 853.778 383.317 856.97 383.317 860.908C383.317 864.846 386.509 868.038 390.447 868.038Z" fill="white"/>
<path d="M281.235 855.835C285.173 855.835 288.366 852.642 288.366 848.704C288.366 844.766 285.173 841.573 281.235 841.573C277.297 841.573 274.104 844.766 274.104 848.704C274.104 852.642 277.297 855.835 281.235 855.835Z" fill="white"/>
<path d="M516.486 819.382C516.486 828.702 508.928 836.263 499.604 836.263C490.277 836.263 482.715 828.702 482.715 819.382C482.715 810.057 490.277 802.496 499.604 802.496C508.928 802.497 516.486 810.057 516.486 819.382Z" fill="#B0B0B0"/>
<path d="M516.486 769.747C516.486 783.999 504.926 795.551 490.676 795.551C476.423 795.551 464.87 783.999 464.87 769.747C464.87 755.497 476.423 743.943 490.676 743.943C504.926 743.943 516.486 755.497 516.486 769.747Z" fill="#B0B0B0"/>
<path d="M607.141 769.309C607.141 779.184 599.14 787.19 589.262 787.19C579.385 787.19 571.384 779.184 571.384 769.309C571.384 759.433 579.385 751.43 589.262 751.43C599.14 751.43 607.141 759.433 607.141 769.309Z" fill="#B0B0B0"/>
<path d="M476.287 774.781C476.287 784.657 468.277 792.66 458.402 792.66C448.532 792.66 440.523 784.657 440.523 774.781C440.523 764.906 448.532 756.902 458.402 756.902C468.277 756.902 476.287 764.906 476.287 774.781Z" fill="#B0B0B0"/>
<path d="M550.901 815.011C570.526 815.011 586.436 799.101 586.436 779.476C586.436 759.851 570.526 743.941 550.901 743.941C531.276 743.941 515.366 759.851 515.366 779.476C515.366 799.101 531.276 815.011 550.901 815.011Z" fill="#B0B0B0"/>
<path d="M514.646 798.75C527.884 798.75 538.615 788.019 538.615 774.781C538.615 761.543 527.884 750.812 514.646 750.812C501.408 750.812 490.677 761.543 490.677 774.781C490.677 788.019 501.408 798.75 514.646 798.75Z" fill="#B0B0B0"/>
<path d="M564.993 842.384C564.993 850.166 558.681 856.473 550.9 856.473C543.119 856.473 536.811 850.166 536.811 842.384C536.811 834.597 543.119 828.29 550.9 828.29C558.681 828.29 564.993 834.597 564.993 842.384Z" fill="#B0B0B0"/>
<path d="M450.369 816.261C450.369 821.697 445.962 826.107 440.523 826.107C435.085 826.107 430.675 821.697 430.675 816.261C430.675 810.819 435.085 806.414 440.523 806.414C445.961 806.415 450.369 810.819 450.369 816.261Z" fill="#B0B0B0"/>
<path d="M626.835 808.055C626.835 813.491 622.426 817.901 616.988 817.901C611.551 817.901 607.14 813.491 607.14 808.055C607.14 802.612 611.551 798.207 616.988 798.207C622.426 798.208 626.835 802.612 626.835 808.055Z" fill="#B0B0B0"/>
<path d="M727.165 855.519C727.165 870.079 715.362 881.878 700.801 881.878C686.245 881.878 674.443 870.078 674.443 855.519C674.443 840.963 686.246 829.161 700.801 829.161C715.362 829.161 727.165 840.963 727.165 855.519Z" fill="white"/>
<path d="M679.484 889.858C679.484 895.884 674.597 900.766 668.575 900.766C662.548 900.766 657.663 895.884 657.663 889.858C657.663 883.83 662.548 878.95 668.575 878.95C674.597 878.95 679.484 883.83 679.484 889.858Z" fill="white"/>
<path d="M446.516 779.209H387.348V794.989H446.516V779.209Z" fill="#4B72AD"/>
<path d="M464.267 766.72C464.267 775.796 456.908 783.155 447.831 783.155H386.031C376.955 783.155 369.596 775.797 369.596 766.72C369.596 757.643 376.954 750.282 386.031 750.282H447.831C456.908 750.283 464.267 757.643 464.267 766.72Z" fill="#ED7411"/>
<path d="M647.908 779.209H588.738V794.989H647.908V779.209Z" fill="#4B72AD"/>
<path d="M665.656 766.72C665.656 775.796 658.298 783.155 649.22 783.155H587.42C578.346 783.155 570.987 775.797 570.987 766.72C570.987 757.643 578.345 750.282 587.42 750.282H649.22C658.297 750.283 665.656 757.643 665.656 766.72Z" fill="#ED7411"/>
<path d="M509.632 755.625H470.023V766.188H509.632V755.625Z" fill="#4B72AD"/>
<path d="M515.563 747.263C515.563 752.2 511.563 756.201 506.627 756.201H473.025C468.09 756.201 464.087 752.199 464.087 747.263C464.087 742.327 468.091 738.326 473.025 738.326H506.627C511.563 738.327 515.563 742.328 515.563 747.263Z" fill="#ED7411"/>
<path d="M567.098 755.543H527.491V766.106H567.098V755.543Z" fill="#6990C9"/>
<path d="M573.034 747.18C573.034 752.117 569.03 756.117 564.096 756.117H530.497C525.56 756.117 521.559 752.117 521.559 747.18C521.559 742.245 525.561 738.244 530.497 738.244H564.096C569.03 738.245 573.034 742.246 573.034 747.18Z" fill="#FFAE39"/>
<path d="M514.355 91.082C459.32 97.679 449.696 193.825 449.696 213.52V623.913L514.355 623.956V91.082Z" fill="#ED7411"/>
<path d="M514.366 91.04C569.675 97.678 579.299 193.824 579.299 213.52V623.913H514.366V91.04Z" fill="#FFAE39"/>
<path d="M514.629 376.041H449.696V383.595H514.629V376.041Z" fill="#FBE920"/>
<path d="M579.299 376.041H514.366V383.595H579.299V376.041Z" fill="#FFFE39"/>
<path d="M514.629 241.011H449.696V248.566H514.629V241.011Z" fill="#FBE920"/>
<path d="M579.299 241.011H514.366V248.566H579.299V241.011Z" fill="#FFFE39"/>
<path d="M384.805 626.598H414.811V171.181C411.751 171.943 406.297 175.587 400.11 190.217C390.595 212.702 382.418 238.601 381.082 259.588C375.029 354.719 381.082 625.688 381.082 625.688L384.805 626.598Z" fill="#17A0CE"/>
<path d="M444.802 626.598L448.525 625.687C448.525 625.687 454.58 354.718 448.525 259.587C447.191 238.6 439.012 212.701 429.501 190.216C423.309 175.587 417.855 171.942 414.799 171.18V626.597H444.802V626.598Z" fill="#6FBFE4"/>
<path d="M414.815 487.218V478.365H378.723C378.707 481.303 378.694 484.257 378.684 487.218H414.815Z" fill="#2C2F30"/>
<path d="M450.923 487.218C450.912 484.257 450.902 481.303 450.885 478.365H414.792V487.218H450.923Z" fill="#5D5D5D"/>
<path d="M414.815 384.729V375.875H378.387C378.371 378.813 378.358 381.767 378.348 384.729H414.815Z" fill="#2C2F30"/>
<path d="M451.261 384.729C451.247 381.767 451.237 378.813 451.22 375.875H414.792V384.729H451.261Z" fill="#5D5D5D"/>
<path d="M414.815 278.888V270.322L380.227 270.189C379.976 273.125 379.868 276.022 379.858 278.888H414.815Z" fill="#2C2F30"/>
<path d="M449.75 278.888C449.74 276.023 449.684 273.121 449.669 270.277L414.793 270.322V278.888H449.75Z" fill="#5D5D5D"/>
<path d="M583.409 626.598H613.414V171.181C610.355 171.943 604.9 175.587 598.714 190.217C589.199 212.702 581.024 238.601 579.685 259.588C573.632 354.719 579.685 625.688 579.685 625.688L583.409 626.598Z" fill="#17A0CE"/>
<path d="M643.406 626.598L647.129 625.687C647.129 625.687 653.181 354.718 647.129 259.587C645.795 238.6 637.616 212.701 628.105 190.216C621.913 175.587 616.46 171.942 613.402 171.18V626.597H643.406V626.598Z" fill="#6FBFE4"/>
<path d="M613.417 487.218V478.365H577.325C577.31 481.303 577.296 484.257 577.284 487.218H613.417Z" fill="#2C2F30"/>
<path d="M649.527 487.218C649.516 484.257 649.506 481.303 649.486 478.365H613.395V487.218H649.527Z" fill="#5D5D5D"/>
<path d="M613.417 384.729V375.875H576.99C576.975 378.813 576.963 381.767 576.949 384.729H613.417Z" fill="#2C2F30"/>
<path d="M649.862 384.729C649.851 381.767 649.841 378.813 649.824 375.875H613.395V384.729H649.862Z" fill="#5D5D5D"/>
<path d="M613.417 278.888V270.322L578.83 270.189C578.578 273.125 578.469 276.022 578.46 278.888H613.417Z" fill="#2C2F30"/>
<path d="M648.354 278.888C648.342 276.023 648.287 273.121 648.27 270.277L613.395 270.322V278.888H648.354Z" fill="#5D5D5D"/>
<path d="M416.934 750.216H373.808L388.363 687.686H416.934V750.216Z" fill="white"/>
<path d="M416.934 750.216H460.056L445.502 687.686H416.934V750.216Z" fill="#B3B3B3"/>
<path d="M460.057 750.216H373.808V757.33H460.057V750.216Z" fill="#C1272D"/>
<path d="M618.322 750.216H575.199L589.751 687.686H618.322V750.216Z" fill="white"/>
<path d="M618.322 750.216H661.447L646.891 687.686H618.322V750.216Z" fill="#B3B3B3"/>
<path d="M661.447 750.216H575.199V757.33H661.447V750.216Z" fill="#C1272D"/>
<path d="M715.212 687.251L705.173 673.446L595.084 523C594.037 515.081 590.054 486.112 581.382 434.906C570.642 371.489 526.366 332.238 524.486 330.598L518.882 325.684L513.22 330.517C511.339 332.122 467 370.556 456.25 434.025C447.56 485.34 443.579 515.027 442.54 523.109L332.463 673.442L322.411 687.252H339.421H455.269L449.058 727.679L447.507 738.245H457.58H518.814H580.052H590.125L588.573 727.679L582.365 687.252H698.212H715.212V687.251Z" fill="#4D4D4D"/>
<path d="M698.213 679.201L586.817 526.795C586.817 526.795 583.229 498.622 572.88 436.524C562.53 374.425 518.815 336.243 518.815 336.243C518.815 336.243 475.105 374.399 464.753 436.498C454.403 498.596 450.818 526.8 450.818 526.8L339.421 679.2H465.345L457.58 728.851H518.814H580.052L572.289 679.2H698.213V679.201Z" fill="white"/>
<path d="M465.119 678.701L464.906 679.201H339.198L450.595 526.796C450.595 526.796 454.183 498.623 464.529 436.525C465.955 427.974 468.008 420.532 470.494 412.926L465.119 678.701Z" fill="#E6E6E6"/>
<path d="M580.053 728.852L572.29 679.201H698.213L586.817 526.795C586.817 526.795 583.227 498.622 572.879 436.524C562.527 374.425 518.813 336.227 518.813 336.227V728.852H580.053Z" fill="#CCCCCC"/>
<path d="M572.465 434.136L572.489 679.2H698.213L586.866 526.795C586.866 526.795 582.666 492.674 572.465 434.136Z" fill="#B3B3B3"/>
<path d="M500.046 401.558L487.218 403.175L495.412 383.77L501.988 396.383L500.046 401.558Z" fill="#333333"/>
<path d="M496.38 382.475L502.602 395.197L517.36 391.464L517.418 375.037L496.38 382.475Z" fill="#333333"/>
<path d="M537.362 401.558L550.191 403.175L541.998 383.77L535.422 396.383L537.362 401.558Z" fill="#333333"/>
<path d="M541.029 382.475L534.81 395.197L520.051 391.464L519.994 375.037L541.029 382.475Z" fill="#333333"/>
<path d="M523.018 729.948H514.105V660.445L518.705 653.473L523.018 660.445V729.948Z" fill="#666666"/>
<path d="M542.462 363.83C530.005 345.043 518.843 336.24 518.843 336.24C518.843 336.24 507.591 345.064 495.132 363.851L542.462 363.83Z" fill="#1A1A1A"/>
<path d="M631.461 632.126H595.205V639.98H631.461V632.126Z" fill="#1B1A22"/>
<path d="M649.82 644.333H595.205V652.187H649.82V644.333Z" fill="#1B1A22"/>
<path d="M445.402 632.126H409.144V639.98H445.402V632.126Z" fill="#1B1A22"/>
<path d="M445.402 644.333H390.786V652.187H445.402V644.333Z" fill="#1B1A22"/>
</svg>
