<svg width="461" height="374" viewBox="0 0 461 374" fill="none" xmlns="http://www.w3.org/2000/svg">
<g filter="url(#filter0_d)">
<g filter="url(#filter1_d)">
<path d="M441.566 151.546C419.512 178.84 377.898 185.09 343.465 175.583C332.199 172.397 321.33 168.018 311.056 162.526C305.088 159.39 299.262 155.949 293.556 152.283C292.152 151.385 290.748 150.473 289.359 149.542C288.411 148.916 287.467 148.282 286.527 147.64C274.743 139.617 263.421 130.816 252.289 122.065C224.5 100.22 195.95 77.702 161.808 67.2792C154.774 65.1329 145.674 64.1289 141.324 69.8953C137.551 74.9017 139.854 81.99 143.047 87.3603C154.893 107.253 176.395 119.812 197.916 129.471C219.437 139.129 242.233 146.954 260.941 161.075C279.65 175.197 293.932 197.64 290.106 220.296C286.807 239.82 270.336 255.682 251.185 262.595C232.034 269.504 210.675 268.541 190.768 264.055C170.86 259.565 151.961 251.73 132.748 244.978C121.165 240.902 106.021 238.083 98.3348 247.41C91.8435 255.291 95.5746 267.721 103.48 274.28C111.384 280.839 122.083 283.036 132.292 285.007C163.988 291.132 195.684 297.257 227.38 303.379C237.103 305.254 247.054 307.216 255.525 312.208C263.997 317.196 270.831 325.91 270.588 335.504C270.346 344.96 263.193 353.315 254.426 357.501C245.665 361.683 235.546 362.328 225.785 361.877C189.207 360.182 84.3382 303.941 59.186 296.752C43.0239 292.137 25.3532 285.357 18.5379 270.443C10.0522 251.878 24.0158 229.415 43.0762 220.936C62.1319 212.452 84.224 214.332 104.993 217.187C125.762 220.043 147.216 223.677 167.433 218.251C187.65 212.826 206.173 195.139 204.179 174.929C202.442 157.345 186.075 144.094 168.851 138.254C155.369 133.68 141.025 132.437 126.861 130.378C122.93 129.811 119.014 129.176 115.135 128.393C105.201 126.379 95.5118 123.369 86.2229 119.412C76.4753 115.268 67.215 110.125 58.6007 104.07C51.73 99.2478 45.3091 93.8523 39.4118 87.9452C38.5122 87.0425 37.6222 86.1198 36.7417 85.1772C35.9042 84.2745 35.076 83.3533 34.2671 82.4137C23.7398 70.2407 15.9631 55.249 18.2953 39.8014C20.6224 24.3951 33.0297 11.5681 47.8021 5.40562C56.3401 1.84538 65.5491 0.251786 74.8722 0.0214988C81.6894 -0.110354 88.5046 0.364502 95.2319 1.44007C126.362 6.25768 154.888 20.8948 181.83 36.7431C208.767 52.5915 235.018 69.9874 264.301 81.2853C293.585 92.5879 326.918 97.3732 356.625 87.1531C386.331 76.9375 410.736 49.0635 409.285 18.5873C428.988 35.0068 445.73 55.6451 453.145 79.7608C460.56 103.876 457.581 131.723 441.566 151.546Z" fill="#3F3D56"/>
</g>
<path d="M299.604 124.035C301.517 124.035 303.068 122.485 303.068 120.572C303.068 118.66 301.517 117.109 299.604 117.109C297.691 117.109 296.14 118.66 296.14 120.572C296.14 122.485 297.691 124.035 299.604 124.035Z" fill="#4042E2"/>
<path d="M421.915 80.2471C424.872 80.2471 427.27 77.85 427.27 74.8931C427.27 71.9361 424.872 69.5391 421.915 69.5391C418.957 69.5391 416.56 71.9361 416.56 74.8931C416.56 77.85 418.957 80.2471 421.915 80.2471Z" fill="#FF6584"/>
<path d="M70.688 245.315C71.7807 245.315 72.6666 244.429 72.6666 243.337C72.6666 242.244 71.7807 241.358 70.688 241.358C69.5952 241.358 68.7094 242.244 68.7094 243.337C68.7094 244.429 69.5952 245.315 70.688 245.315Z" fill="#FF6584"/>
<path d="M127.48 129.615C127.481 131.331 127.274 133.04 126.862 134.706C122.93 134.121 119.014 133.464 115.135 132.655C105.201 130.574 95.5118 127.465 86.2229 123.376C87.7167 118.554 90.8902 114.428 95.1675 111.746C99.4448 109.063 104.542 108.003 109.534 108.758C114.527 109.513 119.083 112.033 122.375 115.859C125.668 119.686 127.479 124.567 127.48 129.615V129.615Z" fill="#FF6584"/>
<path d="M387.649 111.652C388.766 111.652 389.672 110.746 389.672 109.629C389.672 108.511 388.766 107.605 387.649 107.605C386.531 107.605 385.625 108.511 385.625 109.629C385.625 110.746 386.531 111.652 387.649 111.652Z" fill="#F0F0F0"/>
<path d="M202.517 334.34C203.635 334.34 204.541 333.435 204.541 332.317C204.541 331.2 203.635 330.294 202.517 330.294C201.399 330.294 200.493 331.2 200.493 332.317C200.493 333.435 201.399 334.34 202.517 334.34Z" fill="#F0F0F0"/>
<path d="M231.548 362.415C232.665 362.415 233.571 361.509 233.571 360.391C233.571 359.274 232.665 358.368 231.548 358.368C230.43 358.368 229.524 359.274 229.524 360.391C229.524 361.509 230.43 362.415 231.548 362.415Z" fill="#F0F0F0"/>
<path d="M52.1272 282.475C53.2448 282.475 54.1508 281.569 54.1508 280.452C54.1508 279.335 53.2448 278.429 52.1272 278.429C51.0096 278.429 50.1036 279.335 50.1036 280.452C50.1036 281.569 51.0096 282.475 52.1272 282.475Z" fill="#F0F0F0"/>
<path d="M151.594 244.884C152.711 244.884 153.617 243.979 153.617 242.861C153.617 241.744 152.711 240.838 151.594 240.838C150.476 240.838 149.57 241.744 149.57 242.861C149.57 243.979 150.476 244.884 151.594 244.884Z" fill="#F0F0F0"/>
<path d="M141.6 44.0835C142.717 44.0835 143.623 43.1777 143.623 42.0603C143.623 40.9429 142.717 40.0371 141.6 40.0371C140.482 40.0371 139.576 40.9429 139.576 42.0603C139.576 43.1777 140.482 44.0835 141.6 44.0835Z" fill="#F0F0F0"/>
<path d="M263.91 202.535C265.028 202.535 265.934 201.629 265.934 200.512C265.934 199.395 265.028 198.489 263.91 198.489C262.793 198.489 261.887 199.395 261.887 200.512C261.887 201.629 262.793 202.535 263.91 202.535Z" fill="#F0F0F0"/>
<path d="M279.14 237.747C280.257 237.747 281.163 236.841 281.163 235.724C281.163 234.606 280.257 233.701 279.14 233.701C278.022 233.701 277.116 234.606 277.116 235.724C277.116 236.841 278.022 237.747 279.14 237.747Z" fill="#F0F0F0"/>
<path d="M96.7358 48.5184C96.7507 58.7338 94.3365 68.8065 89.6923 77.9057C89.0784 79.1048 88.4279 80.2832 87.741 81.4411C80.9401 92.9241 70.7648 102.032 58.6006 107.526C51.7299 102.544 45.3091 96.97 39.4117 90.8673C38.5122 89.9347 37.6222 88.9814 36.7417 88.0076C35.9042 87.0749 35.076 86.1233 34.267 85.1526C23.7397 72.5764 15.9631 57.0881 18.2952 41.1288C20.6223 25.2122 33.0296 11.9603 47.8021 5.59368C56.34 1.91551 65.549 0.269165 74.8722 0.03125C82.162 6.46784 87.9088 14.4628 91.6864 23.4231C92.1623 24.5508 92.6001 25.6928 93.0142 26.8491C95.4841 33.8065 96.7429 41.1357 96.7358 48.5184V48.5184Z" fill="#4042E2"/>
<path d="M126.243 51.8495C126.243 61.761 116.563 70.9541 98.9823 77.7442C95.4652 79.1051 91.7006 80.3375 87.741 81.4414C72.9209 85.5716 55.2834 87.8603 36.7417 88.0079C35.9042 87.0752 35.076 86.1236 34.2671 85.1529C34.4669 85.1576 34.6668 85.1576 34.8666 85.1576C55.0027 85.1576 74.1061 82.6072 89.6924 77.906C92.5716 77.0352 95.332 76.093 97.9542 75.0795C114.116 68.8414 123.387 60.3716 123.387 51.8495C123.387 43.3273 114.116 34.8623 97.9542 28.6194C96.3552 28.0008 94.7085 27.4108 93.0142 26.8493C92.6001 25.6931 92.1623 24.5511 91.6864 23.4233C94.2182 24.2132 96.6502 25.057 98.9823 25.9548C116.563 32.7449 126.243 41.9427 126.243 51.8495Z" fill="#E4E4E4"/>
<path d="M37.8497 16.4854C38.9673 16.4854 39.8733 15.5796 39.8733 14.4622C39.8733 13.3448 38.9673 12.439 37.8497 12.439C36.7321 12.439 35.8261 13.3448 35.8261 14.4622C35.8261 15.5796 36.7321 16.4854 37.8497 16.4854Z" fill="#F0F0F0"/>
<path d="M80.2063 29.3331C81.3239 29.3331 82.2299 28.4272 82.2299 27.3098C82.2299 26.1924 81.3239 25.2866 80.2063 25.2866C79.0887 25.2866 78.1827 26.1924 78.1827 27.3098C78.1827 28.4272 79.0887 29.3331 80.2063 29.3331Z" fill="#F0F0F0"/>
<path d="M58.3141 67.4454C69.1822 67.4454 77.9925 58.6367 77.9925 47.7706C77.9925 36.9044 69.1822 28.0957 58.3141 28.0957C47.446 28.0957 38.6357 36.9044 38.6357 47.7706C38.6357 58.6367 47.446 67.4454 58.3141 67.4454Z" fill="#F0F0F0"/>
<path opacity="0.3" d="M421.725 151.902C417.309 153.206 407.571 154.167 396.863 154.757C386.16 155.343 374.419 155.6 362.826 155.847C342.533 156.285 322.241 156.724 301.951 157.165C299.162 157.227 296.364 157.284 293.556 157.336C292.152 156.408 290.748 155.466 289.359 154.505C291.848 154.519 294.337 154.505 296.807 154.458C307.358 154.248 316.291 153.425 326.466 153.035C342.123 152.431 359.028 152.906 375.347 153.149C391.666 153.396 410.26 153.306 421.725 151.902Z" fill="#F0F0F0"/>
<path opacity="0.3" d="M110.271 301.899L45.5843 248.02L108.427 304.057C108.548 304.262 108.717 304.435 108.919 304.561C109.121 304.688 109.35 304.765 109.588 304.785C109.825 304.806 110.064 304.769 110.285 304.679C110.505 304.588 110.701 304.447 110.856 304.265C111.011 304.084 111.12 303.869 111.175 303.637C111.23 303.405 111.229 303.163 111.172 302.932C111.115 302.7 111.003 302.486 110.847 302.306C110.69 302.127 110.493 301.987 110.271 301.899H110.271Z" fill="#F0F0F0"/>
<path d="M61.1696 97.8526C62.2872 97.8526 63.1932 96.9467 63.1932 95.8294C63.1932 94.712 62.2872 93.8062 61.1696 93.8062C60.052 93.8062 59.1461 94.712 59.1461 95.8294C59.1461 96.9467 60.052 97.8526 61.1696 97.8526Z" fill="#F0F0F0"/>
<path d="M231.123 330.262L239.492 330.261L243.474 297.982L231.121 297.983L231.123 330.262Z" fill="#FFB6B6"/>
<path d="M228.987 327.529L231.343 327.529L240.541 323.789L245.471 327.528H245.472C248.258 327.529 250.93 328.635 252.9 330.605C254.87 332.574 255.976 335.246 255.977 338.031V338.372L228.988 338.373L228.987 327.529Z" fill="#2F2E41"/>
<path d="M168.44 330.262L160.07 330.261L156.088 297.982L168.441 297.983L168.44 330.262Z" fill="#FFB6B6"/>
<path d="M170.575 338.373L143.586 338.372V338.031C143.586 335.246 144.693 332.574 146.663 330.605C148.633 328.635 151.305 327.529 154.091 327.528H154.092L159.021 323.789L168.219 327.529L170.575 327.529L170.575 338.373Z" fill="#2F2E41"/>
<path d="M198.431 82.8838L189.956 89.3361L167.443 95.2972C167.443 95.2972 175.51 151.902 171.702 155.709C167.895 159.516 171.329 159.618 170.564 164.563C169.799 169.508 166.75 182.564 166.75 182.564H233.944C233.944 182.564 234.485 174.45 231.173 172.693C227.86 170.935 234.226 162.734 231.519 161.363C228.812 159.991 232.62 148.096 232.62 148.096L240.871 109.149L218.924 91.9812L215.586 83.9408L198.431 82.8838Z" fill="#4042E2"/>
<path d="M209.006 133.466C210.625 133.466 211.938 132.153 211.938 130.534C211.938 128.915 210.625 127.602 209.006 127.602C207.386 127.602 206.073 128.915 206.073 130.534C206.073 132.153 207.386 133.466 209.006 133.466Z" fill="#F2F2F2"/>
<path d="M166.75 182.564L163.979 253.901C163.979 253.901 152.015 306.59 154.093 307.975C156.172 309.36 157.052 317.62 157.052 317.62L168.828 319.005C168.828 319.005 168.828 313.464 171.599 311.386C174.37 309.308 200 211.653 200 211.653L225.005 306.072C225.005 306.072 225.631 311.386 227.709 311.386C229.787 311.386 230.48 319.005 230.48 319.005H242.256V311.386C242.256 311.386 247.548 309.709 245.469 304.168C243.391 298.627 233.944 182.564 233.944 182.564H166.75Z" fill="#2F2E41"/>
<path d="M207.232 78.6331C215.074 78.6331 221.432 72.2764 221.432 64.435C221.432 56.5935 215.074 50.2368 207.232 50.2368C199.389 50.2368 193.031 56.5935 193.031 64.435C193.031 72.2764 199.389 78.6331 207.232 78.6331Z" fill="#FFB6B6"/>
<path opacity="0.1" d="M231.519 128.196L234.29 130.274L235.675 120.577L231.519 128.196Z" fill="black"/>
<path d="M168.771 95.2426C168.771 95.2426 165.307 94.55 163.229 100.783C161.151 107.017 153.531 130.565 153.531 134.72C153.531 138.876 200.985 157.211 200.985 157.211L196.047 139.893L174.312 128.487L168.771 95.2426Z" fill="#4042E2"/>
<path d="M203.186 154.644C207.654 154.644 211.276 151.022 211.276 146.554C211.276 142.087 207.654 138.465 203.186 138.465C198.717 138.465 195.095 142.087 195.095 146.554C195.095 151.022 198.717 154.644 203.186 154.644Z" fill="#FFB6B6"/>
<path opacity="0.1" d="M173.679 119.908L174.312 128.486L194.411 139.034L176.534 127.045L173.679 119.908Z" fill="black"/>
<path d="M221.995 121.131H221.735V113.99C221.735 113.447 221.628 112.909 221.42 112.408C221.212 111.907 220.908 111.451 220.524 111.067C220.14 110.683 219.684 110.379 219.183 110.171C218.681 109.963 218.144 109.856 217.601 109.856H202.468C201.925 109.856 201.388 109.963 200.886 110.171C200.384 110.379 199.929 110.683 199.545 111.067C199.161 111.451 198.856 111.906 198.649 112.408C198.441 112.909 198.334 113.447 198.334 113.99V153.168C198.334 153.711 198.441 154.248 198.649 154.75C198.856 155.251 199.161 155.707 199.545 156.091C199.929 156.474 200.384 156.779 200.886 156.987C201.387 157.194 201.925 157.301 202.468 157.301H217.601C218.144 157.301 218.681 157.194 219.183 156.987C219.684 156.779 220.14 156.474 220.524 156.091C220.908 155.707 221.212 155.251 221.42 154.75C221.628 154.248 221.735 153.711 221.735 153.168V126.214H221.995V121.131Z" fill="#F0F0F0"/>
<path d="M240.871 109.149C240.871 109.149 242.949 110.535 244.334 116.768C245.72 123.001 254.725 146.549 251.261 152.09C247.798 157.631 246.775 163.545 234.999 155.233L218.704 140.316L230.48 129.235L235.329 132.698L240.871 109.149Z" fill="#4042E2"/>
<path d="M210.219 127.318C212.132 127.318 213.683 125.768 213.683 123.855C213.683 121.943 212.132 120.392 210.219 120.392C208.306 120.392 206.756 121.943 206.756 123.855C206.756 125.768 208.306 127.318 210.219 127.318Z" fill="#4042E2"/>
<path d="M220.246 139.531C224.714 139.531 228.336 135.909 228.336 131.442C228.336 126.974 224.714 123.353 220.246 123.353C215.777 123.353 212.155 126.974 212.155 131.442C212.155 135.909 215.777 139.531 220.246 139.531Z" fill="#FFB6B6"/>
<path opacity="0.1" d="M173.297 145.799L196.523 156.071L172.652 151.407L173.297 145.799Z" fill="black"/>
<path d="M192.905 67.2645L190.955 59.8454C190.446 57.9096 189.933 55.9346 190.048 53.9364C190.162 51.9381 191.01 49.8761 192.693 48.7935C194.377 47.711 196.948 47.9667 198.031 49.6497C198.237 46.9624 200.682 44.8953 203.276 44.163C205.871 43.4307 208.625 43.7203 211.318 43.8438C214.011 43.9674 216.853 43.8811 219.178 42.5156C219.355 43.0469 219.343 43.6231 219.145 44.1468C218.946 44.6705 218.573 45.1097 218.088 45.3903C218.666 45.5479 219.282 45.4802 219.812 45.2008C220.341 44.9215 220.745 44.4514 220.941 43.8857C220.959 45.442 220.384 46.9468 219.332 48.0946C220.335 47.5971 221.487 47.4904 222.565 47.7954C223.642 48.1004 224.567 48.7952 225.16 49.7445C226.346 51.8005 225.682 54.3825 224.988 56.6522L221.426 68.3017C220.886 66.5308 220.784 64.6611 220.495 62.8324C220.206 61.0037 219.692 59.1361 218.485 57.7324C217.277 56.3286 215.227 55.5157 213.511 56.2127C212.548 56.6037 211.815 57.3971 210.946 57.9664C209.163 59.1347 206.895 59.3023 204.776 59.0645C202.658 58.8268 200.593 58.2237 198.475 57.9828C197.149 57.8319 195.669 57.8719 194.668 58.755C193.98 59.47 193.526 60.3773 193.365 61.3565C192.893 63.3083 192.707 65.3185 192.814 67.3238" fill="#2F2E41"/>
</g>
<defs>
<filter id="filter0_d" x="-4" y="0" width="465" height="382" filterUnits="userSpaceOnUse" color-interpolation-filters="sRGB">
<feFlood flood-opacity="0" result="BackgroundImageFix"/>
<feColorMatrix in="SourceAlpha" type="matrix" values="0 0 0 0 0 0 0 0 0 0 0 0 0 0 0 0 0 0 127 0" result="hardAlpha"/>
<feOffset dy="4"/>
<feGaussianBlur stdDeviation="2"/>
<feComposite in2="hardAlpha" operator="out"/>
<feColorMatrix type="matrix" values="0 0 0 0 0 0 0 0 0 0 0 0 0 0 0 0 0 0 0.25 0"/>
<feBlend mode="normal" in2="BackgroundImageFix" result="effect1_dropShadow"/>
<feBlend mode="normal" in="SourceGraphic" in2="effect1_dropShadow" result="shape"/>
</filter>
<filter id="filter1_d" x="6" y="0" width="451" height="372" filterUnits="userSpaceOnUse" color-interpolation-filters="sRGB">
<feFlood flood-opacity="0" result="BackgroundImageFix"/>
<feColorMatrix in="SourceAlpha" type="matrix" values="0 0 0 0 0 0 0 0 0 0 0 0 0 0 0 0 0 0 127 0" result="hardAlpha"/>
<feOffset dx="-10" dy="10"/>
<feComposite in2="hardAlpha" operator="out"/>
<feColorMatrix type="matrix" values="0 0 0 0 0 0 0 0 0 0 0 0 0 0 0 0 0 0 0.25 0"/>
<feBlend mode="normal" in2="BackgroundImageFix" result="effect1_dropShadow"/>
<feBlend mode="normal" in="SourceGraphic" in2="effect1_dropShadow" result="shape"/>
</filter>
</defs>
</svg>
