<svg width="1128" height="612" viewBox="0 0 1128 612" fill="none" xmlns="http://www.w3.org/2000/svg">
<g filter="url(#filter0_d)">
<rect x="10" width="1118" height="602" rx="35" fill="white"/>
<rect x="10" width="593" height="602" rx="35" fill="#4042E2"/>
<g clip-path="url(#clip0)" filter="url(#filter1_d)">
<g filter="url(#filter2_d)">
<path d="M1086.57 282.576C1064.51 310.774 1022.9 317.231 988.466 307.41C977.199 304.118 966.33 299.594 956.056 293.92C950.088 290.679 944.262 287.125 938.556 283.337C937.152 282.409 935.748 281.467 934.359 280.506C933.411 279.859 932.467 279.204 931.527 278.541C919.743 270.252 908.421 261.159 897.289 252.118C869.5 229.549 840.95 206.286 806.808 195.518C799.774 193.301 790.674 192.263 786.324 198.221C782.551 203.393 784.854 210.716 788.047 216.264C799.893 236.815 821.395 249.791 842.916 259.769C864.437 269.748 887.233 277.832 905.941 292.421C924.65 307.01 938.932 330.197 935.106 353.603C931.807 373.774 915.336 390.161 896.185 397.304C877.034 404.441 855.675 403.447 835.768 398.812C815.86 394.173 796.961 386.079 777.748 379.103C766.165 374.892 751.021 371.98 743.335 381.615C736.843 389.757 740.575 402.6 748.48 409.375C756.384 416.151 767.083 418.421 777.292 420.458C808.988 426.786 840.684 433.113 872.38 439.438C882.103 441.375 892.054 443.402 900.525 448.56C908.997 453.713 915.831 462.716 915.588 472.628C915.346 482.396 908.193 491.028 899.426 495.353C890.665 499.674 880.546 500.34 870.785 499.874C834.207 498.123 729.338 440.019 704.186 432.591C688.024 427.823 670.353 420.819 663.538 405.412C655.052 386.231 669.016 363.025 688.076 354.265C707.132 345.5 729.224 347.441 749.993 350.391C770.762 353.342 792.216 357.096 812.433 351.491C832.65 345.885 851.173 327.613 849.179 306.734C847.442 288.567 831.075 274.877 813.851 268.844C800.369 264.119 786.025 262.834 771.861 260.707C767.93 260.122 764.014 259.465 760.135 258.656C750.201 256.575 740.512 253.466 731.223 249.377C721.475 245.096 712.215 239.783 703.601 233.527C696.73 228.545 690.309 222.971 684.412 216.869C683.512 215.936 682.622 214.983 681.742 214.009C680.904 213.076 680.076 212.125 679.267 211.154C668.74 198.578 660.963 183.089 663.295 167.13C665.622 151.213 678.03 137.962 692.802 131.595C701.34 127.917 710.549 126.27 719.872 126.032C726.689 125.896 733.505 126.387 740.232 127.498C771.362 132.475 799.888 147.597 826.83 163.97C853.767 180.344 880.018 198.316 909.301 209.988C938.585 221.665 971.918 226.609 1001.62 216.05C1031.33 205.496 1055.74 176.699 1054.28 145.213C1073.99 162.177 1090.73 183.499 1098.15 208.413C1105.56 233.327 1102.58 262.096 1086.57 282.576Z" fill="#3F3D56"/>
</g>
<path d="M944.604 250.035C946.517 250.035 948.068 248.485 948.068 246.572C948.068 244.66 946.517 243.109 944.604 243.109C942.691 243.109 941.14 244.66 941.14 246.572C941.14 248.485 942.691 250.035 944.604 250.035Z" fill="#4042E2"/>
<path d="M1066.91 206.247C1069.87 206.247 1072.27 203.85 1072.27 200.893C1072.27 197.936 1069.87 195.539 1066.91 195.539C1063.96 195.539 1061.56 197.936 1061.56 200.893C1061.56 203.85 1063.96 206.247 1066.91 206.247Z" fill="#FF6584"/>
<path d="M715.688 371.315C716.781 371.315 717.667 370.429 717.667 369.337C717.667 368.244 716.781 367.358 715.688 367.358C714.595 367.358 713.709 368.244 713.709 369.337C713.709 370.429 714.595 371.315 715.688 371.315Z" fill="#FF6584"/>
<path d="M772.48 255.615C772.481 257.331 772.274 259.04 771.862 260.706C767.93 260.121 764.014 259.464 760.135 258.655C750.201 256.574 740.512 253.465 731.223 249.376C732.717 244.554 735.89 240.428 740.168 237.746C744.445 235.063 749.542 234.003 754.534 234.758C759.527 235.513 764.083 238.033 767.375 241.859C770.668 245.686 772.479 250.567 772.48 255.615V255.615Z" fill="#FF6584"/>
<path d="M1032.65 237.652C1033.77 237.652 1034.67 236.746 1034.67 235.629C1034.67 234.511 1033.77 233.605 1032.65 233.605C1031.53 233.605 1030.62 234.511 1030.62 235.629C1030.62 236.746 1031.53 237.652 1032.65 237.652Z" fill="#F0F0F0"/>
<path d="M847.517 460.34C848.635 460.34 849.541 459.435 849.541 458.317C849.541 457.2 848.635 456.294 847.517 456.294C846.399 456.294 845.493 457.2 845.493 458.317C845.493 459.435 846.399 460.34 847.517 460.34Z" fill="#F0F0F0"/>
<path d="M876.548 488.415C877.665 488.415 878.571 487.509 878.571 486.391C878.571 485.274 877.665 484.368 876.548 484.368C875.43 484.368 874.524 485.274 874.524 486.391C874.524 487.509 875.43 488.415 876.548 488.415Z" fill="#F0F0F0"/>
<path d="M697.127 408.475C698.245 408.475 699.151 407.569 699.151 406.452C699.151 405.335 698.245 404.429 697.127 404.429C696.01 404.429 695.104 405.335 695.104 406.452C695.104 407.569 696.01 408.475 697.127 408.475Z" fill="#F0F0F0"/>
<path d="M796.594 370.884C797.711 370.884 798.617 369.979 798.617 368.861C798.617 367.744 797.711 366.838 796.594 366.838C795.476 366.838 794.57 367.744 794.57 368.861C794.57 369.979 795.476 370.884 796.594 370.884Z" fill="#F0F0F0"/>
<path d="M786.6 170.084C787.717 170.084 788.623 169.178 788.623 168.06C788.623 166.943 787.717 166.037 786.6 166.037C785.482 166.037 784.576 166.943 784.576 168.06C784.576 169.178 785.482 170.084 786.6 170.084Z" fill="#F0F0F0"/>
<path d="M908.91 328.535C910.028 328.535 910.934 327.629 910.934 326.512C910.934 325.395 910.028 324.489 908.91 324.489C907.793 324.489 906.887 325.395 906.887 326.512C906.887 327.629 907.793 328.535 908.91 328.535Z" fill="#F0F0F0"/>
<path d="M924.14 363.747C925.257 363.747 926.163 362.841 926.163 361.724C926.163 360.606 925.257 359.701 924.14 359.701C923.022 359.701 922.116 360.606 922.116 361.724C922.116 362.841 923.022 363.747 924.14 363.747Z" fill="#F0F0F0"/>
<path d="M741.736 174.518C741.751 184.734 739.336 194.806 734.692 203.906C734.078 205.105 733.428 206.283 732.741 207.441C725.94 218.924 715.765 228.032 703.601 233.526C696.73 228.544 690.309 222.97 684.412 216.867C683.512 215.935 682.622 214.981 681.742 214.008C680.904 213.075 680.076 212.123 679.267 211.153C668.74 198.576 660.963 183.088 663.295 167.129C665.622 151.212 678.03 137.96 692.802 131.594C701.34 127.916 710.549 126.269 719.872 126.031C727.162 132.468 732.909 140.463 736.686 149.423C737.162 150.551 737.6 151.693 738.014 152.849C740.484 159.806 741.743 167.136 741.736 174.518V174.518Z" fill="#4042E2"/>
<path d="M771.243 177.849C771.243 187.761 761.563 196.954 743.982 203.744C740.465 205.105 736.701 206.337 732.741 207.441C717.921 211.572 700.283 213.86 681.742 214.008C680.904 213.075 680.076 212.124 679.267 211.153C679.467 211.158 679.667 211.158 679.867 211.158C700.003 211.158 719.106 208.607 734.692 203.906C737.572 203.035 740.332 202.093 742.954 201.08C759.116 194.841 768.387 186.372 768.387 177.849C768.387 169.327 759.116 160.862 742.954 154.619C741.355 154.001 739.709 153.411 738.014 152.849C737.6 151.693 737.162 150.551 736.686 149.423C739.218 150.213 741.65 151.057 743.982 151.955C761.563 158.745 771.243 167.943 771.243 177.849Z" fill="#E4E4E4"/>
<path d="M682.85 142.485C683.967 142.485 684.873 141.58 684.873 140.462C684.873 139.345 683.967 138.439 682.85 138.439C681.732 138.439 680.826 139.345 680.826 140.462C680.826 141.58 681.732 142.485 682.85 142.485Z" fill="#F0F0F0"/>
<path d="M725.206 155.333C726.324 155.333 727.23 154.427 727.23 153.31C727.23 152.192 726.324 151.287 725.206 151.287C724.089 151.287 723.183 152.192 723.183 153.31C723.183 154.427 724.089 155.333 725.206 155.333Z" fill="#F0F0F0"/>
<path d="M703.314 193.445C714.182 193.445 722.993 184.637 722.993 173.771C722.993 162.904 714.182 154.096 703.314 154.096C692.446 154.096 683.636 162.904 683.636 173.771C683.636 184.637 692.446 193.445 703.314 193.445Z" fill="#F0F0F0"/>
<path opacity="0.3" d="M1066.73 277.902C1062.31 279.206 1052.57 280.167 1041.86 280.757C1031.16 281.343 1019.42 281.6 1007.83 281.847C987.533 282.285 967.241 282.724 946.951 283.165C944.162 283.227 941.364 283.284 938.556 283.336C937.152 282.408 935.748 281.466 934.359 280.505C936.848 280.519 939.337 280.505 941.807 280.458C952.358 280.248 961.291 279.425 971.466 279.035C987.123 278.431 1004.03 278.906 1020.35 279.149C1036.67 279.396 1055.26 279.306 1066.73 277.902Z" fill="#F0F0F0"/>
<path opacity="0.3" d="M755.271 427.899L690.584 374.02L753.427 430.057C753.548 430.262 753.717 430.435 753.919 430.561C754.121 430.688 754.35 430.765 754.588 430.785C754.825 430.806 755.064 430.769 755.285 430.679C755.505 430.588 755.701 430.447 755.856 430.265C756.011 430.084 756.12 429.869 756.175 429.637C756.23 429.405 756.229 429.163 756.172 428.932C756.115 428.7 756.003 428.486 755.847 428.306C755.69 428.127 755.493 427.987 755.271 427.899H755.271Z" fill="#F0F0F0"/>
<path d="M706.17 223.853C707.287 223.853 708.193 222.947 708.193 221.829C708.193 220.712 707.287 219.806 706.17 219.806C705.052 219.806 704.146 220.712 704.146 221.829C704.146 222.947 705.052 223.853 706.17 223.853Z" fill="#F0F0F0"/>
<path d="M876.123 456.262L884.492 456.261L888.474 423.982L876.121 423.983L876.123 456.262Z" fill="#FFB6B6"/>
<path d="M873.987 453.529L876.343 453.529L885.541 449.789L890.471 453.528H890.472C893.258 453.529 895.93 454.635 897.9 456.605C899.87 458.574 900.976 461.246 900.977 464.031V464.372L873.988 464.373L873.987 453.529Z" fill="#2F2E41"/>
<path d="M813.44 456.262L805.07 456.261L801.088 423.982L813.441 423.983L813.44 456.262Z" fill="#FFB6B6"/>
<path d="M815.575 464.373L788.586 464.372V464.031C788.586 461.246 789.693 458.574 791.663 456.605C793.633 454.635 796.305 453.529 799.091 453.528H799.092L804.021 449.789L813.219 453.529L815.575 453.529L815.575 464.373Z" fill="#2F2E41"/>
<path d="M843.431 208.884L834.956 215.336L812.443 221.297C812.443 221.297 820.51 277.902 816.702 281.709C812.895 285.516 816.329 285.618 815.564 290.563C814.799 295.508 811.75 308.564 811.75 308.564H878.944C878.944 308.564 879.485 300.45 876.173 298.693C872.86 296.935 879.226 288.734 876.519 287.363C873.812 285.991 877.62 274.096 877.62 274.096L885.871 235.149L863.924 217.981L860.586 209.941L843.431 208.884Z" fill="#4042E2"/>
<path d="M854.006 259.466C855.625 259.466 856.938 258.153 856.938 256.534C856.938 254.915 855.625 253.602 854.006 253.602C852.386 253.602 851.073 254.915 851.073 256.534C851.073 258.153 852.386 259.466 854.006 259.466Z" fill="#F2F2F2"/>
<path d="M811.75 308.564L808.979 379.901C808.979 379.901 797.015 432.59 799.093 433.975C801.172 435.36 802.052 443.62 802.052 443.62L813.828 445.005C813.828 445.005 813.828 439.464 816.599 437.386C819.37 435.308 845 337.653 845 337.653L870.005 432.072C870.005 432.072 870.631 437.386 872.709 437.386C874.787 437.386 875.48 445.005 875.48 445.005H887.256V437.386C887.256 437.386 892.548 435.709 890.469 430.168C888.391 424.627 878.944 308.564 878.944 308.564H811.75Z" fill="#2F2E41"/>
<path d="M852.232 204.633C860.074 204.633 866.432 198.276 866.432 190.435C866.432 182.594 860.074 176.237 852.232 176.237C844.389 176.237 838.031 182.594 838.031 190.435C838.031 198.276 844.389 204.633 852.232 204.633Z" fill="#FFB6B6"/>
<path opacity="0.1" d="M876.519 254.196L879.29 256.274L880.675 246.577L876.519 254.196Z" fill="black"/>
<path d="M813.771 221.243C813.771 221.243 810.307 220.55 808.229 226.783C806.151 233.017 798.531 256.565 798.531 260.72C798.531 264.876 845.985 283.211 845.985 283.211L841.047 265.893L819.312 254.487L813.771 221.243Z" fill="#4042E2"/>
<path d="M848.186 280.644C852.654 280.644 856.276 277.022 856.276 272.554C856.276 268.087 852.654 264.465 848.186 264.465C843.717 264.465 840.095 268.087 840.095 272.554C840.095 277.022 843.717 280.644 848.186 280.644Z" fill="#FFB6B6"/>
<path opacity="0.1" d="M818.679 245.908L819.312 254.486L839.411 265.034L821.534 253.045L818.679 245.908Z" fill="black"/>
<path d="M866.995 247.131H866.735V239.99C866.735 239.447 866.628 238.909 866.42 238.408C866.212 237.907 865.908 237.451 865.524 237.067C865.14 236.683 864.684 236.379 864.183 236.171C863.681 235.963 863.144 235.856 862.601 235.856H847.468C846.925 235.856 846.388 235.963 845.886 236.171C845.384 236.379 844.929 236.683 844.545 237.067C844.161 237.451 843.856 237.906 843.649 238.408C843.441 238.909 843.334 239.447 843.334 239.99V279.168C843.334 279.711 843.441 280.248 843.649 280.75C843.856 281.251 844.161 281.707 844.545 282.091C844.929 282.474 845.384 282.779 845.886 282.987C846.387 283.194 846.925 283.301 847.468 283.301H862.601C863.144 283.301 863.681 283.194 864.183 282.987C864.684 282.779 865.14 282.474 865.524 282.091C865.908 281.707 866.212 281.251 866.42 280.75C866.628 280.248 866.735 279.711 866.735 279.168V252.214H866.995V247.131Z" fill="#F0F0F0"/>
<path d="M885.871 235.149C885.871 235.149 887.949 236.535 889.334 242.768C890.72 249.001 899.725 272.549 896.261 278.09C892.798 283.631 891.775 289.545 879.999 281.233L863.704 266.316L875.48 255.235L880.329 258.698L885.871 235.149Z" fill="#4042E2"/>
<path d="M855.219 253.318C857.132 253.318 858.683 251.768 858.683 249.855C858.683 247.943 857.132 246.392 855.219 246.392C853.306 246.392 851.756 247.943 851.756 249.855C851.756 251.768 853.306 253.318 855.219 253.318Z" fill="#4042E2"/>
<path d="M865.246 265.531C869.714 265.531 873.336 261.909 873.336 257.442C873.336 252.974 869.714 249.353 865.246 249.353C860.777 249.353 857.155 252.974 857.155 257.442C857.155 261.909 860.777 265.531 865.246 265.531Z" fill="#FFB6B6"/>
<path opacity="0.1" d="M818.297 271.799L841.523 282.071L817.652 277.407L818.297 271.799Z" fill="black"/>
<path d="M837.905 193.264L835.955 185.845C835.446 183.91 834.933 181.935 835.048 179.936C835.162 177.938 836.01 175.876 837.693 174.794C839.377 173.711 841.948 173.967 843.031 175.65C843.237 172.962 845.682 170.895 848.276 170.163C850.871 169.431 853.625 169.72 856.318 169.844C859.011 169.967 861.853 169.881 864.178 168.516C864.355 169.047 864.343 169.623 864.145 170.147C863.946 170.67 863.573 171.11 863.088 171.39C863.666 171.548 864.282 171.48 864.812 171.201C865.341 170.922 865.745 170.451 865.941 169.886C865.959 171.442 865.384 172.947 864.332 174.095C865.335 173.597 866.487 173.49 867.565 173.795C868.642 174.1 869.567 174.795 870.16 175.745C871.346 177.8 870.682 180.382 869.988 182.652L866.426 194.302C865.886 192.531 865.784 190.661 865.495 188.832C865.206 187.004 864.692 185.136 863.485 183.732C862.277 182.329 860.227 181.516 858.511 182.213C857.548 182.604 856.815 183.397 855.946 183.966C854.163 185.135 851.895 185.302 849.776 185.065C847.658 184.827 845.593 184.224 843.475 183.983C842.149 183.832 840.669 183.872 839.668 184.755C838.98 185.47 838.526 186.377 838.365 187.357C837.893 189.308 837.707 191.318 837.814 193.324" fill="#2F2E41"/>
</g>
<path d="M108.804 72.98V98H104.7V72.98H108.804ZM121.68 77.84C123.24 77.84 124.632 78.164 125.856 78.812C127.104 79.46 128.076 80.42 128.772 81.692C129.468 82.964 129.816 84.5 129.816 86.3V98H125.748V86.912C125.748 85.136 125.304 83.78 124.416 82.844C123.528 81.884 122.316 81.404 120.78 81.404C119.244 81.404 118.02 81.884 117.108 82.844C116.22 83.78 115.776 85.136 115.776 86.912V98H111.672V78.164H115.776V80.432C116.448 79.616 117.3 78.98 118.332 78.524C119.388 78.068 120.504 77.84 121.68 77.84ZM140.847 81.512H137.175V98H133.035V81.512H130.695V78.164H133.035V76.76C133.035 74.48 133.635 72.824 134.835 71.792C136.059 70.736 137.967 70.208 140.559 70.208V73.628C139.311 73.628 138.435 73.868 137.931 74.348C137.427 74.804 137.175 75.608 137.175 76.76V78.164H140.847V81.512ZM150.568 98.324C148.696 98.324 147.004 97.904 145.492 97.064C143.98 96.2 142.792 95 141.928 93.464C141.064 91.904 140.632 90.104 140.632 88.064C140.632 86.048 141.076 84.26 141.964 82.7C142.852 81.14 144.064 79.94 145.6 79.1C147.136 78.26 148.852 77.84 150.748 77.84C152.644 77.84 154.36 78.26 155.896 79.1C157.432 79.94 158.644 81.14 159.532 82.7C160.42 84.26 160.864 86.048 160.864 88.064C160.864 90.08 160.408 91.868 159.496 93.428C158.584 94.988 157.336 96.2 155.752 97.064C154.192 97.904 152.464 98.324 150.568 98.324ZM150.568 94.76C151.624 94.76 152.608 94.508 153.52 94.004C154.456 93.5 155.212 92.744 155.788 91.736C156.364 90.728 156.652 89.504 156.652 88.064C156.652 86.624 156.376 85.412 155.824 84.428C155.272 83.42 154.54 82.664 153.628 82.16C152.716 81.656 151.732 81.404 150.676 81.404C149.62 81.404 148.636 81.656 147.724 82.16C146.836 82.664 146.128 83.42 145.6 84.428C145.072 85.412 144.808 86.624 144.808 88.064C144.808 90.2 145.348 91.856 146.428 93.032C147.532 94.184 148.912 94.76 150.568 94.76ZM166.505 81.044C167.105 80.036 167.897 79.256 168.881 78.704C169.889 78.128 171.077 77.84 172.445 77.84V82.088H171.401C169.793 82.088 168.569 82.496 167.729 83.312C166.913 84.128 166.505 85.544 166.505 87.56V98H162.401V78.164H166.505V81.044ZM197.71 77.84C199.27 77.84 200.662 78.164 201.886 78.812C203.134 79.46 204.106 80.42 204.802 81.692C205.522 82.964 205.882 84.5 205.882 86.3V98H201.814V86.912C201.814 85.136 201.37 83.78 200.482 82.844C199.594 81.884 198.382 81.404 196.846 81.404C195.31 81.404 194.086 81.884 193.174 82.844C192.286 83.78 191.842 85.136 191.842 86.912V98H187.774V86.912C187.774 85.136 187.33 83.78 186.442 82.844C185.554 81.884 184.342 81.404 182.806 81.404C181.27 81.404 180.046 81.884 179.134 82.844C178.246 83.78 177.802 85.136 177.802 86.912V98H173.698V78.164H177.802V80.432C178.474 79.616 179.326 78.98 180.358 78.524C181.39 78.068 182.494 77.84 183.67 77.84C185.254 77.84 186.67 78.176 187.918 78.848C189.166 79.52 190.126 80.492 190.798 81.764C191.398 80.564 192.334 79.616 193.606 78.92C194.878 78.2 196.246 77.84 197.71 77.84ZM207.216 87.992C207.216 86 207.624 84.236 208.44 82.7C209.28 81.164 210.408 79.976 211.824 79.136C213.264 78.272 214.848 77.84 216.576 77.84C218.136 77.84 219.492 78.152 220.644 78.776C221.82 79.376 222.756 80.132 223.452 81.044V78.164H227.592V98H223.452V95.048C222.756 95.984 221.808 96.764 220.608 97.388C219.408 98.012 218.04 98.324 216.504 98.324C214.8 98.324 213.24 97.892 211.824 97.028C210.408 96.14 209.28 94.916 208.44 93.356C207.624 91.772 207.216 89.984 207.216 87.992ZM223.452 88.064C223.452 86.696 223.164 85.508 222.588 84.5C222.036 83.492 221.304 82.724 220.392 82.196C219.48 81.668 218.496 81.404 217.44 81.404C216.384 81.404 215.4 81.668 214.488 82.196C213.576 82.7 212.832 83.456 212.256 84.464C211.704 85.448 211.428 86.624 211.428 87.992C211.428 89.36 211.704 90.56 212.256 91.592C212.832 92.624 213.576 93.416 214.488 93.968C215.424 94.496 216.408 94.76 217.44 94.76C218.496 94.76 219.48 94.496 220.392 93.968C221.304 93.44 222.036 92.672 222.588 91.664C223.164 90.632 223.452 89.432 223.452 88.064ZM229.094 88.064C229.094 86.024 229.502 84.236 230.318 82.7C231.158 81.14 232.31 79.94 233.774 79.1C235.238 78.26 236.918 77.84 238.814 77.84C241.214 77.84 243.194 78.416 244.754 79.568C246.338 80.696 247.406 82.316 247.958 84.428H243.53C243.17 83.444 242.594 82.676 241.802 82.124C241.01 81.572 240.014 81.296 238.814 81.296C237.134 81.296 235.79 81.896 234.782 83.096C233.798 84.272 233.306 85.928 233.306 88.064C233.306 90.2 233.798 91.868 234.782 93.068C235.79 94.268 237.134 94.868 238.814 94.868C241.19 94.868 242.762 93.824 243.53 91.736H247.958C247.382 93.752 246.302 95.36 244.718 96.56C243.134 97.736 241.166 98.324 238.814 98.324C236.918 98.324 235.238 97.904 233.774 97.064C232.31 96.2 231.158 95 230.318 93.464C229.502 91.904 229.094 90.104 229.094 88.064ZM251.616 75.536C250.872 75.536 250.248 75.284 249.744 74.78C249.24 74.276 248.988 73.652 248.988 72.908C248.988 72.164 249.24 71.54 249.744 71.036C250.248 70.532 250.872 70.28 251.616 70.28C252.336 70.28 252.948 70.532 253.452 71.036C253.956 71.54 254.208 72.164 254.208 72.908C254.208 73.652 253.956 74.276 253.452 74.78C252.948 75.284 252.336 75.536 251.616 75.536ZM253.632 78.164V98H249.528V78.164H253.632ZM265.104 98.324C263.232 98.324 261.54 97.904 260.028 97.064C258.516 96.2 257.328 95 256.464 93.464C255.6 91.904 255.168 90.104 255.168 88.064C255.168 86.048 255.612 84.26 256.5 82.7C257.388 81.14 258.6 79.94 260.136 79.1C261.672 78.26 263.388 77.84 265.284 77.84C267.18 77.84 268.896 78.26 270.432 79.1C271.968 79.94 273.18 81.14 274.068 82.7C274.956 84.26 275.4 86.048 275.4 88.064C275.4 90.08 274.944 91.868 274.032 93.428C273.12 94.988 271.872 96.2 270.288 97.064C268.728 97.904 267 98.324 265.104 98.324ZM265.104 94.76C266.16 94.76 267.144 94.508 268.056 94.004C268.992 93.5 269.748 92.744 270.324 91.736C270.9 90.728 271.188 89.504 271.188 88.064C271.188 86.624 270.912 85.412 270.36 84.428C269.808 83.42 269.076 82.664 268.164 82.16C267.252 81.656 266.268 81.404 265.212 81.404C264.156 81.404 263.172 81.656 262.26 82.16C261.372 82.664 260.664 83.42 260.136 84.428C259.608 85.412 259.344 86.624 259.344 88.064C259.344 90.2 259.884 91.856 260.964 93.032C262.068 94.184 263.448 94.76 265.104 94.76ZM286.946 77.84C288.506 77.84 289.898 78.164 291.122 78.812C292.37 79.46 293.342 80.42 294.038 81.692C294.734 82.964 295.082 84.5 295.082 86.3V98H291.014V86.912C291.014 85.136 290.57 83.78 289.682 82.844C288.794 81.884 287.582 81.404 286.046 81.404C284.51 81.404 283.286 81.884 282.374 82.844C281.486 83.78 281.042 85.136 281.042 86.912V98H276.938V78.164H281.042V80.432C281.714 79.616 282.566 78.98 283.598 78.524C284.654 78.068 285.77 77.84 286.946 77.84ZM303.26 87.992C303.26 86 303.668 84.236 304.484 82.7C305.324 81.164 306.452 79.976 307.868 79.136C309.308 78.272 310.904 77.84 312.656 77.84C313.952 77.84 315.224 78.128 316.472 78.704C317.744 79.256 318.752 80 319.496 80.936V71.36H323.636V98H319.496V95.012C318.824 95.972 317.888 96.764 316.688 97.388C315.512 98.012 314.156 98.324 312.62 98.324C310.892 98.324 309.308 97.892 307.868 97.028C306.452 96.14 305.324 94.916 304.484 93.356C303.668 91.772 303.26 89.984 303.26 87.992ZM319.496 88.064C319.496 86.696 319.208 85.508 318.632 84.5C318.08 83.492 317.348 82.724 316.436 82.196C315.524 81.668 314.54 81.404 313.484 81.404C312.428 81.404 311.444 81.668 310.532 82.196C309.62 82.7 308.876 83.456 308.3 84.464C307.748 85.448 307.472 86.624 307.472 87.992C307.472 89.36 307.748 90.56 308.3 91.592C308.876 92.624 309.62 93.416 310.532 93.968C311.468 94.496 312.452 94.76 313.484 94.76C314.54 94.76 315.524 94.496 316.436 93.968C317.348 93.44 318.08 92.672 318.632 91.664C319.208 90.632 319.496 89.432 319.496 88.064ZM344.686 87.596C344.686 88.34 344.638 89.012 344.542 89.612H329.386C329.506 91.196 330.094 92.468 331.15 93.428C332.206 94.388 333.502 94.868 335.038 94.868C337.246 94.868 338.806 93.944 339.718 92.096H344.146C343.546 93.92 342.454 95.42 340.87 96.596C339.31 97.748 337.366 98.324 335.038 98.324C333.142 98.324 331.438 97.904 329.926 97.064C328.438 96.2 327.262 95 326.398 93.464C325.558 91.904 325.138 90.104 325.138 88.064C325.138 86.024 325.546 84.236 326.362 82.7C327.202 81.14 328.366 79.94 329.854 79.1C331.366 78.26 333.094 77.84 335.038 77.84C336.91 77.84 338.578 78.248 340.042 79.064C341.506 79.88 342.646 81.032 343.462 82.52C344.278 83.984 344.686 85.676 344.686 87.596ZM340.402 86.3C340.378 84.788 339.838 83.576 338.782 82.664C337.726 81.752 336.418 81.296 334.858 81.296C333.442 81.296 332.23 81.752 331.222 82.664C330.214 83.552 329.614 84.764 329.422 86.3H340.402ZM351.669 88.064C351.669 86.024 352.077 84.236 352.893 82.7C353.733 81.14 354.885 79.94 356.349 79.1C357.813 78.26 359.493 77.84 361.389 77.84C363.789 77.84 365.769 78.416 367.329 79.568C368.913 80.696 369.981 82.316 370.533 84.428H366.105C365.745 83.444 365.169 82.676 364.377 82.124C363.585 81.572 362.589 81.296 361.389 81.296C359.709 81.296 358.365 81.896 357.357 83.096C356.373 84.272 355.881 85.928 355.881 88.064C355.881 90.2 356.373 91.868 357.357 93.068C358.365 94.268 359.709 94.868 361.389 94.868C363.765 94.868 365.337 93.824 366.105 91.736H370.533C369.957 93.752 368.877 95.36 367.293 96.56C365.709 97.736 363.741 98.324 361.389 98.324C359.493 98.324 357.813 97.904 356.349 97.064C354.885 96.2 353.733 95 352.893 93.464C352.077 91.904 351.669 90.104 351.669 88.064ZM380.707 98.324C378.835 98.324 377.143 97.904 375.631 97.064C374.119 96.2 372.931 95 372.067 93.464C371.203 91.904 370.771 90.104 370.771 88.064C370.771 86.048 371.215 84.26 372.103 82.7C372.991 81.14 374.203 79.94 375.739 79.1C377.275 78.26 378.991 77.84 380.887 77.84C382.783 77.84 384.499 78.26 386.035 79.1C387.571 79.94 388.783 81.14 389.671 82.7C390.559 84.26 391.003 86.048 391.003 88.064C391.003 90.08 390.547 91.868 389.635 93.428C388.723 94.988 387.475 96.2 385.891 97.064C384.331 97.904 382.603 98.324 380.707 98.324ZM380.707 94.76C381.763 94.76 382.747 94.508 383.659 94.004C384.595 93.5 385.351 92.744 385.927 91.736C386.503 90.728 386.791 89.504 386.791 88.064C386.791 86.624 386.515 85.412 385.963 84.428C385.411 83.42 384.679 82.664 383.767 82.16C382.855 81.656 381.871 81.404 380.815 81.404C379.759 81.404 378.775 81.656 377.863 82.16C376.975 82.664 376.267 83.42 375.739 84.428C375.211 85.412 374.947 86.624 374.947 88.064C374.947 90.2 375.487 91.856 376.567 93.032C377.671 94.184 379.051 94.76 380.707 94.76ZM402.548 77.84C404.108 77.84 405.5 78.164 406.724 78.812C407.972 79.46 408.944 80.42 409.64 81.692C410.336 82.964 410.684 84.5 410.684 86.3V98H406.616V86.912C406.616 85.136 406.172 83.78 405.284 82.844C404.396 81.884 403.184 81.404 401.648 81.404C400.112 81.404 398.888 81.884 397.976 82.844C397.088 83.78 396.644 85.136 396.644 86.912V98H392.54V78.164H396.644V80.432C397.316 79.616 398.168 78.98 399.2 78.524C400.256 78.068 401.372 77.84 402.548 77.84ZM418.187 81.512V92.492C418.187 93.236 418.355 93.776 418.691 94.112C419.051 94.424 419.651 94.58 420.491 94.58H423.011V98H419.771C417.923 98 416.507 97.568 415.523 96.704C414.539 95.84 414.047 94.436 414.047 92.492V81.512H411.707V78.164H414.047V73.232H418.187V78.164H423.011V81.512H418.187ZM422.905 87.992C422.905 86 423.313 84.236 424.129 82.7C424.969 81.164 426.097 79.976 427.513 79.136C428.953 78.272 430.537 77.84 432.265 77.84C433.825 77.84 435.181 78.152 436.333 78.776C437.509 79.376 438.445 80.132 439.141 81.044V78.164H443.281V98H439.141V95.048C438.445 95.984 437.497 96.764 436.297 97.388C435.097 98.012 433.729 98.324 432.193 98.324C430.489 98.324 428.929 97.892 427.513 97.028C426.097 96.14 424.969 94.916 424.129 93.356C423.313 91.772 422.905 89.984 422.905 87.992ZM439.141 88.064C439.141 86.696 438.853 85.508 438.277 84.5C437.725 83.492 436.993 82.724 436.081 82.196C435.169 81.668 434.185 81.404 433.129 81.404C432.073 81.404 431.089 81.668 430.177 82.196C429.265 82.7 428.521 83.456 427.945 84.464C427.393 85.448 427.117 86.624 427.117 87.992C427.117 89.36 427.393 90.56 427.945 91.592C428.521 92.624 429.265 93.416 430.177 93.968C431.113 94.496 432.097 94.76 433.129 94.76C434.185 94.76 435.169 94.496 436.081 93.968C436.993 93.44 437.725 92.672 438.277 91.664C438.853 90.632 439.141 89.432 439.141 88.064ZM444.784 88.064C444.784 86.024 445.192 84.236 446.008 82.7C446.848 81.14 448 79.94 449.464 79.1C450.928 78.26 452.608 77.84 454.504 77.84C456.904 77.84 458.884 78.416 460.444 79.568C462.028 80.696 463.096 82.316 463.648 84.428H459.22C458.86 83.444 458.284 82.676 457.492 82.124C456.7 81.572 455.704 81.296 454.504 81.296C452.824 81.296 451.48 81.896 450.472 83.096C449.488 84.272 448.996 85.928 448.996 88.064C448.996 90.2 449.488 91.868 450.472 93.068C451.48 94.268 452.824 94.868 454.504 94.868C456.88 94.868 458.452 93.824 459.22 91.736H463.648C463.072 93.752 461.992 95.36 460.408 96.56C458.824 97.736 456.856 98.324 454.504 98.324C452.608 98.324 450.928 97.904 449.464 97.064C448 96.2 446.848 95 446.008 93.464C445.192 91.904 444.784 90.104 444.784 88.064ZM470.005 81.512V92.492C470.005 93.236 470.173 93.776 470.509 94.112C470.869 94.424 471.469 94.58 472.309 94.58H474.829V98H471.589C469.741 98 468.325 97.568 467.341 96.704C466.357 95.84 465.865 94.436 465.865 92.492V81.512H463.525V78.164H465.865V73.232H470.005V78.164H474.829V81.512H470.005ZM484.696 98.324C482.824 98.324 481.132 97.904 479.62 97.064C478.108 96.2 476.92 95 476.056 93.464C475.192 91.904 474.76 90.104 474.76 88.064C474.76 86.048 475.204 84.26 476.092 82.7C476.98 81.14 478.192 79.94 479.728 79.1C481.264 78.26 482.98 77.84 484.876 77.84C486.772 77.84 488.488 78.26 490.024 79.1C491.56 79.94 492.772 81.14 493.66 82.7C494.548 84.26 494.992 86.048 494.992 88.064C494.992 90.08 494.536 91.868 493.624 93.428C492.712 94.988 491.464 96.2 489.88 97.064C488.32 97.904 486.592 98.324 484.696 98.324ZM484.696 94.76C485.752 94.76 486.736 94.508 487.648 94.004C488.584 93.5 489.34 92.744 489.916 91.736C490.492 90.728 490.78 89.504 490.78 88.064C490.78 86.624 490.504 85.412 489.952 84.428C489.4 83.42 488.668 82.664 487.756 82.16C486.844 81.656 485.86 81.404 484.804 81.404C483.748 81.404 482.764 81.656 481.852 82.16C480.964 82.664 480.256 83.42 479.728 84.428C479.2 85.412 478.936 86.624 478.936 88.064C478.936 90.2 479.476 91.856 480.556 93.032C481.66 94.184 483.04 94.76 484.696 94.76Z" fill="white"/>
<path d="M189.774 213.718C189.774 212.494 190.05 211.396 190.602 210.424C191.154 209.44 191.904 208.672 192.852 208.12C193.812 207.568 194.874 207.292 196.038 207.292C197.406 207.292 198.6 207.622 199.62 208.282C200.64 208.942 201.384 209.878 201.852 211.09H199.89C199.542 210.334 199.038 209.752 198.378 209.344C197.73 208.936 196.95 208.732 196.038 208.732C195.162 208.732 194.376 208.936 193.68 209.344C192.984 209.752 192.438 210.334 192.042 211.09C191.646 211.834 191.448 212.71 191.448 213.718C191.448 214.714 191.646 215.59 192.042 216.346C192.438 217.09 192.984 217.666 193.68 218.074C194.376 218.482 195.162 218.686 196.038 218.686C196.95 218.686 197.73 218.488 198.378 218.092C199.038 217.684 199.542 217.102 199.89 216.346H201.852C201.384 217.546 200.64 218.476 199.62 219.136C198.6 219.784 197.406 220.108 196.038 220.108C194.874 220.108 193.812 219.838 192.852 219.298C191.904 218.746 191.154 217.984 190.602 217.012C190.05 216.04 189.774 214.942 189.774 213.718ZM207.332 220.162C206.408 220.162 205.568 219.952 204.812 219.532C204.068 219.112 203.48 218.518 203.048 217.75C202.628 216.97 202.418 216.07 202.418 215.05C202.418 214.042 202.634 213.154 203.066 212.386C203.51 211.606 204.11 211.012 204.866 210.604C205.622 210.184 206.468 209.974 207.404 209.974C208.34 209.974 209.186 210.184 209.942 210.604C210.698 211.012 211.292 211.6 211.724 212.368C212.168 213.136 212.39 214.03 212.39 215.05C212.39 216.07 212.162 216.97 211.706 217.75C211.262 218.518 210.656 219.112 209.888 219.532C209.12 219.952 208.268 220.162 207.332 220.162ZM207.332 218.722C207.92 218.722 208.472 218.584 208.988 218.308C209.504 218.032 209.918 217.618 210.23 217.066C210.554 216.514 210.716 215.842 210.716 215.05C210.716 214.258 210.56 213.586 210.248 213.034C209.936 212.482 209.528 212.074 209.024 211.81C208.52 211.534 207.974 211.396 207.386 211.396C206.786 211.396 206.234 211.534 205.73 211.81C205.238 212.074 204.842 212.482 204.542 213.034C204.242 213.586 204.092 214.258 204.092 215.05C204.092 215.854 204.236 216.532 204.524 217.084C204.824 217.636 205.22 218.05 205.712 218.326C206.204 218.59 206.744 218.722 207.332 218.722ZM209.168 207.22L205.334 209.272V208.048L209.168 205.798V207.22ZM214.922 211.738C215.21 211.174 215.618 210.736 216.146 210.424C216.686 210.112 217.34 209.956 218.108 209.956V211.648H217.676C215.84 211.648 214.922 212.644 214.922 214.636V220H213.284V210.136H214.922V211.738ZM218.127 215.032C218.127 214.024 218.331 213.142 218.739 212.386C219.147 211.618 219.705 211.024 220.413 210.604C221.133 210.184 221.937 209.974 222.825 209.974C223.593 209.974 224.307 210.154 224.967 210.514C225.627 210.862 226.131 211.324 226.479 211.9V206.68H228.135V220H226.479V218.146C226.155 218.734 225.675 219.22 225.039 219.604C224.403 219.976 223.659 220.162 222.807 220.162C221.931 220.162 221.133 219.946 220.413 219.514C219.705 219.082 219.147 218.476 218.739 217.696C218.331 216.916 218.127 216.028 218.127 215.032ZM226.479 215.05C226.479 214.306 226.329 213.658 226.029 213.106C225.729 212.554 225.321 212.134 224.805 211.846C224.301 211.546 223.743 211.396 223.131 211.396C222.519 211.396 221.961 211.54 221.457 211.828C220.953 212.116 220.551 212.536 220.251 213.088C219.951 213.64 219.801 214.288 219.801 215.032C219.801 215.788 219.951 216.448 220.251 217.012C220.551 217.564 220.953 217.99 221.457 218.29C221.961 218.578 222.519 218.722 223.131 218.722C223.743 218.722 224.301 218.578 224.805 218.29C225.321 217.99 225.729 217.564 226.029 217.012C226.329 216.448 226.479 215.794 226.479 215.05ZM233.945 220.162C233.021 220.162 232.181 219.952 231.425 219.532C230.681 219.112 230.093 218.518 229.661 217.75C229.241 216.97 229.031 216.07 229.031 215.05C229.031 214.042 229.247 213.154 229.679 212.386C230.123 211.606 230.723 211.012 231.479 210.604C232.235 210.184 233.081 209.974 234.017 209.974C234.953 209.974 235.799 210.184 236.555 210.604C237.311 211.012 237.905 211.6 238.337 212.368C238.781 213.136 239.003 214.03 239.003 215.05C239.003 216.07 238.775 216.97 238.319 217.75C237.875 218.518 237.269 219.112 236.501 219.532C235.733 219.952 234.881 220.162 233.945 220.162ZM233.945 218.722C234.533 218.722 235.085 218.584 235.601 218.308C236.117 218.032 236.531 217.618 236.843 217.066C237.167 216.514 237.329 215.842 237.329 215.05C237.329 214.258 237.173 213.586 236.861 213.034C236.549 212.482 236.141 212.074 235.637 211.81C235.133 211.534 234.587 211.396 233.999 211.396C233.399 211.396 232.847 211.534 232.343 211.81C231.851 212.074 231.455 212.482 231.155 213.034C230.855 213.586 230.705 214.258 230.705 215.05C230.705 215.854 230.849 216.532 231.137 217.084C231.437 217.636 231.833 218.05 232.325 218.326C232.817 218.59 233.357 218.722 233.945 218.722ZM241.535 211.972C241.871 211.384 242.363 210.904 243.011 210.532C243.659 210.16 244.397 209.974 245.225 209.974C246.113 209.974 246.911 210.184 247.619 210.604C248.327 211.024 248.885 211.618 249.293 212.386C249.701 213.142 249.905 214.024 249.905 215.032C249.905 216.028 249.701 216.916 249.293 217.696C248.885 218.476 248.321 219.082 247.601 219.514C246.893 219.946 246.101 220.162 245.225 220.162C244.373 220.162 243.623 219.976 242.975 219.604C242.339 219.232 241.859 218.758 241.535 218.182V220H239.897V206.68H241.535V211.972ZM248.231 215.032C248.231 214.288 248.081 213.64 247.781 213.088C247.481 212.536 247.073 212.116 246.557 211.828C246.053 211.54 245.495 211.396 244.883 211.396C244.283 211.396 243.725 211.546 243.209 211.846C242.705 212.134 242.297 212.56 241.985 213.124C241.685 213.676 241.535 214.318 241.535 215.05C241.535 215.794 241.685 216.448 241.985 217.012C242.297 217.564 242.705 217.99 243.209 218.29C243.725 218.578 244.283 218.722 244.883 218.722C245.495 218.722 246.053 218.578 246.557 218.29C247.073 217.99 247.481 217.564 247.781 217.012C248.081 216.448 248.231 215.788 248.231 215.032ZM250.189 215.032C250.189 214.024 250.393 213.142 250.801 212.386C251.209 211.618 251.767 211.024 252.475 210.604C253.195 210.184 253.993 209.974 254.869 209.974C255.733 209.974 256.483 210.16 257.119 210.532C257.755 210.904 258.229 211.372 258.541 211.936V210.136H260.197V220H258.541V218.164C258.217 218.74 257.731 219.22 257.083 219.604C256.447 219.976 255.703 220.162 254.851 220.162C253.975 220.162 253.183 219.946 252.475 219.514C251.767 219.082 251.209 218.476 250.801 217.696C250.393 216.916 250.189 216.028 250.189 215.032ZM258.541 215.05C258.541 214.306 258.391 213.658 258.091 213.106C257.791 212.554 257.383 212.134 256.867 211.846C256.363 211.546 255.805 211.396 255.193 211.396C254.581 211.396 254.023 211.54 253.519 211.828C253.015 212.116 252.613 212.536 252.313 213.088C252.013 213.64 251.863 214.288 251.863 215.032C251.863 215.788 252.013 216.448 252.313 217.012C252.613 217.564 253.015 217.99 253.519 218.29C254.023 218.578 254.581 218.722 255.193 218.722C255.805 218.722 256.363 218.578 256.867 218.29C257.383 217.99 257.791 217.564 258.091 217.012C258.391 216.448 258.541 215.794 258.541 215.05ZM263.397 217.732L261.381 222.574H260.283L261.597 217.732H263.397ZM274.968 217.21H269.496L268.488 220H266.76L271.296 207.526H273.186L277.704 220H275.976L274.968 217.21ZM274.5 215.878L272.232 209.542L269.964 215.878H274.5ZM280.059 211.738C280.347 211.174 280.755 210.736 281.283 210.424C281.823 210.112 282.477 209.956 283.245 209.956V211.648H282.813C280.977 211.648 280.059 212.644 280.059 214.636V220H278.421V210.136H280.059V211.738ZM287.944 209.974C288.796 209.974 289.54 210.16 290.176 210.532C290.824 210.904 291.304 211.372 291.616 211.936V210.136H293.272V220.216C293.272 221.116 293.08 221.914 292.696 222.61C292.312 223.318 291.76 223.87 291.04 224.266C290.332 224.662 289.504 224.86 288.556 224.86C287.26 224.86 286.18 224.554 285.316 223.942C284.452 223.33 283.942 222.496 283.786 221.44H285.406C285.586 222.04 285.958 222.52 286.522 222.88C287.086 223.252 287.764 223.438 288.556 223.438C289.456 223.438 290.188 223.156 290.752 222.592C291.328 222.028 291.616 221.236 291.616 220.216V218.146C291.292 218.722 290.812 219.202 290.176 219.586C289.54 219.97 288.796 220.162 287.944 220.162C287.068 220.162 286.27 219.946 285.55 219.514C284.842 219.082 284.284 218.476 283.876 217.696C283.468 216.916 283.264 216.028 283.264 215.032C283.264 214.024 283.468 213.142 283.876 212.386C284.284 211.618 284.842 211.024 285.55 210.604C286.27 210.184 287.068 209.974 287.944 209.974ZM291.616 215.05C291.616 214.306 291.466 213.658 291.166 213.106C290.866 212.554 290.458 212.134 289.942 211.846C289.438 211.546 288.88 211.396 288.268 211.396C287.656 211.396 287.098 211.54 286.594 211.828C286.09 212.116 285.688 212.536 285.388 213.088C285.088 213.64 284.938 214.288 284.938 215.032C284.938 215.788 285.088 216.448 285.388 217.012C285.688 217.564 286.09 217.99 286.594 218.29C287.098 218.578 287.656 218.722 288.268 218.722C288.88 218.722 289.438 218.578 289.942 218.29C290.458 217.99 290.866 217.564 291.166 217.012C291.466 216.448 291.616 215.794 291.616 215.05ZM303.78 214.69C303.78 215.002 303.762 215.332 303.726 215.68H295.842C295.902 216.652 296.232 217.414 296.832 217.966C297.444 218.506 298.182 218.776 299.046 218.776C299.754 218.776 300.342 218.614 300.81 218.29C301.29 217.954 301.626 217.51 301.818 216.958H303.582C303.318 217.906 302.79 218.68 301.998 219.28C301.206 219.868 300.222 220.162 299.046 220.162C298.11 220.162 297.27 219.952 296.526 219.532C295.794 219.112 295.218 218.518 294.798 217.75C294.378 216.97 294.168 216.07 294.168 215.05C294.168 214.03 294.372 213.136 294.78 212.368C295.188 211.6 295.758 211.012 296.49 210.604C297.234 210.184 298.086 209.974 299.046 209.974C299.982 209.974 300.81 210.178 301.53 210.586C302.25 210.994 302.802 211.558 303.186 212.278C303.582 212.986 303.78 213.79 303.78 214.69ZM302.088 214.348C302.088 213.724 301.95 213.19 301.674 212.746C301.398 212.29 301.02 211.948 300.54 211.72C300.072 211.48 299.55 211.36 298.974 211.36C298.146 211.36 297.438 211.624 296.85 212.152C296.274 212.68 295.944 213.412 295.86 214.348H302.088ZM309.488 209.956C310.688 209.956 311.66 210.322 312.404 211.054C313.148 211.774 313.52 212.818 313.52 214.186V220H311.9V214.42C311.9 213.436 311.654 212.686 311.162 212.17C310.67 211.642 309.998 211.378 309.146 211.378C308.282 211.378 307.592 211.648 307.076 212.188C306.572 212.728 306.32 213.514 306.32 214.546V220H304.682V210.136H306.32V211.54C306.644 211.036 307.082 210.646 307.634 210.37C308.198 210.094 308.816 209.956 309.488 209.956ZM316.933 211.486V217.3C316.933 217.78 317.035 218.122 317.239 218.326C317.443 218.518 317.797 218.614 318.301 218.614H319.507V220H318.031C317.119 220 316.435 219.79 315.979 219.37C315.523 218.95 315.295 218.26 315.295 217.3V211.486H314.017V210.136H315.295V207.652H316.933V210.136H319.507V211.486H316.933ZM321.078 208.534C320.766 208.534 320.502 208.426 320.286 208.21C320.07 207.994 319.962 207.73 319.962 207.418C319.962 207.106 320.07 206.842 320.286 206.626C320.502 206.41 320.766 206.302 321.078 206.302C321.378 206.302 321.63 206.41 321.834 206.626C322.05 206.842 322.158 207.106 322.158 207.418C322.158 207.73 322.05 207.994 321.834 208.21C321.63 208.426 321.378 208.534 321.078 208.534ZM321.87 210.136V220H320.232V210.136H321.87ZM328.208 209.956C329.408 209.956 330.38 210.322 331.124 211.054C331.868 211.774 332.24 212.818 332.24 214.186V220H330.62V214.42C330.62 213.436 330.374 212.686 329.882 212.17C329.39 211.642 328.718 211.378 327.866 211.378C327.002 211.378 326.312 211.648 325.796 212.188C325.292 212.728 325.04 213.514 325.04 214.546V220H323.402V210.136H325.04V211.54C325.364 211.036 325.802 210.646 326.354 210.37C326.918 210.094 327.536 209.956 328.208 209.956ZM333.043 215.032C333.043 214.024 333.247 213.142 333.655 212.386C334.063 211.618 334.621 211.024 335.329 210.604C336.049 210.184 336.847 209.974 337.723 209.974C338.587 209.974 339.337 210.16 339.973 210.532C340.609 210.904 341.083 211.372 341.395 211.936V210.136H343.051V220H341.395V218.164C341.071 218.74 340.585 219.22 339.937 219.604C339.301 219.976 338.557 220.162 337.705 220.162C336.829 220.162 336.037 219.946 335.329 219.514C334.621 219.082 334.063 218.476 333.655 217.696C333.247 216.916 333.043 216.028 333.043 215.032ZM341.395 215.05C341.395 214.306 341.245 213.658 340.945 213.106C340.645 212.554 340.237 212.134 339.721 211.846C339.217 211.546 338.659 211.396 338.047 211.396C337.435 211.396 336.877 211.54 336.373 211.828C335.869 212.116 335.467 212.536 335.167 213.088C334.867 213.64 334.717 214.288 334.717 215.032C334.717 215.788 334.867 216.448 335.167 217.012C335.467 217.564 335.869 217.99 336.373 218.29C336.877 218.578 337.435 218.722 338.047 218.722C338.659 218.722 339.217 218.578 339.721 218.29C340.237 217.99 340.645 217.564 340.945 217.012C341.245 216.448 341.395 215.794 341.395 215.05Z" fill="white"/>
<path d="M190.08 298.262C190.164 297.158 190.59 296.294 191.358 295.67C192.126 295.046 193.122 294.734 194.346 294.734C195.162 294.734 195.864 294.884 196.452 295.184C197.052 295.472 197.502 295.868 197.802 296.372C198.114 296.876 198.27 297.446 198.27 298.082C198.27 298.826 198.054 299.468 197.622 300.008C197.202 300.548 196.65 300.896 195.966 301.052V301.142C196.746 301.334 197.364 301.712 197.82 302.276C198.276 302.84 198.504 303.578 198.504 304.49C198.504 305.174 198.348 305.792 198.036 306.344C197.724 306.884 197.256 307.31 196.632 307.622C196.008 307.934 195.258 308.09 194.382 308.09C193.11 308.09 192.066 307.76 191.25 307.1C190.434 306.428 189.978 305.48 189.882 304.256H191.466C191.55 304.976 191.844 305.564 192.348 306.02C192.852 306.476 193.524 306.704 194.364 306.704C195.204 306.704 195.84 306.488 196.272 306.056C196.716 305.612 196.938 305.042 196.938 304.346C196.938 303.446 196.638 302.798 196.038 302.402C195.438 302.006 194.532 301.808 193.32 301.808H192.906V300.44H193.338C194.442 300.428 195.276 300.248 195.84 299.9C196.404 299.54 196.686 298.988 196.686 298.244C196.686 297.608 196.476 297.098 196.056 296.714C195.648 296.33 195.06 296.138 194.292 296.138C193.548 296.138 192.948 296.33 192.492 296.714C192.036 297.098 191.766 297.614 191.682 298.262H190.08ZM207.754 296.408H201.436V300.512C201.712 300.128 202.12 299.816 202.66 299.576C203.2 299.324 203.782 299.198 204.406 299.198C205.402 299.198 206.212 299.408 206.836 299.828C207.46 300.236 207.904 300.77 208.168 301.43C208.444 302.078 208.582 302.768 208.582 303.5C208.582 304.364 208.42 305.138 208.096 305.822C207.772 306.506 207.274 307.046 206.602 307.442C205.942 307.838 205.12 308.036 204.136 308.036C202.876 308.036 201.856 307.712 201.076 307.064C200.296 306.416 199.822 305.552 199.654 304.472H201.256C201.412 305.156 201.742 305.69 202.246 306.074C202.75 306.458 203.386 306.65 204.154 306.65C205.102 306.65 205.816 306.368 206.296 305.804C206.776 305.228 207.016 304.472 207.016 303.536C207.016 302.6 206.776 301.88 206.296 301.376C205.816 300.86 205.108 300.602 204.172 300.602C203.536 300.602 202.978 300.758 202.498 301.07C202.03 301.37 201.688 301.784 201.472 302.312H199.924V294.968H207.754V296.408ZM209.066 296.48V294.986H212.45V308H210.794V296.48H209.066ZM217.507 298.262C217.591 297.158 218.017 296.294 218.785 295.67C219.553 295.046 220.549 294.734 221.773 294.734C222.589 294.734 223.291 294.884 223.879 295.184C224.479 295.472 224.929 295.868 225.229 296.372C225.541 296.876 225.697 297.446 225.697 298.082C225.697 298.826 225.481 299.468 225.049 300.008C224.629 300.548 224.077 300.896 223.393 301.052V301.142C224.173 301.334 224.791 301.712 225.247 302.276C225.703 302.84 225.931 303.578 225.931 304.49C225.931 305.174 225.775 305.792 225.463 306.344C225.151 306.884 224.683 307.31 224.059 307.622C223.435 307.934 222.685 308.09 221.809 308.09C220.537 308.09 219.493 307.76 218.677 307.1C217.861 306.428 217.405 305.48 217.309 304.256H218.893C218.977 304.976 219.271 305.564 219.775 306.02C220.279 306.476 220.951 306.704 221.791 306.704C222.631 306.704 223.267 306.488 223.699 306.056C224.143 305.612 224.365 305.042 224.365 304.346C224.365 303.446 224.065 302.798 223.465 302.402C222.865 302.006 221.959 301.808 220.747 301.808H220.333V300.44H220.765C221.869 300.428 222.703 300.248 223.267 299.9C223.831 299.54 224.113 298.988 224.113 298.244C224.113 297.608 223.903 297.098 223.483 296.714C223.075 296.33 222.487 296.138 221.719 296.138C220.975 296.138 220.375 296.33 219.919 296.714C219.463 297.098 219.193 297.614 219.109 298.262H217.507ZM229.258 301.232C228.586 300.968 228.07 300.584 227.71 300.08C227.35 299.576 227.17 298.964 227.17 298.244C227.17 297.596 227.332 297.014 227.656 296.498C227.98 295.97 228.46 295.556 229.096 295.256C229.744 294.944 230.524 294.788 231.436 294.788C232.348 294.788 233.122 294.944 233.758 295.256C234.406 295.556 234.892 295.97 235.216 296.498C235.552 297.014 235.72 297.596 235.72 298.244C235.72 298.94 235.534 299.552 235.162 300.08C234.79 300.596 234.28 300.98 233.632 301.232C234.376 301.46 234.964 301.862 235.396 302.438C235.84 303.002 236.062 303.686 236.062 304.49C236.062 305.27 235.87 305.954 235.486 306.542C235.102 307.118 234.556 307.568 233.848 307.892C233.152 308.204 232.348 308.36 231.436 308.36C230.524 308.36 229.72 308.204 229.024 307.892C228.34 307.568 227.806 307.118 227.422 306.542C227.038 305.954 226.846 305.27 226.846 304.49C226.846 303.686 227.062 302.996 227.494 302.42C227.926 301.844 228.514 301.448 229.258 301.232ZM234.136 298.442C234.136 297.71 233.896 297.146 233.416 296.75C232.936 296.354 232.276 296.156 231.436 296.156C230.608 296.156 229.954 296.354 229.474 296.75C228.994 297.146 228.754 297.716 228.754 298.46C228.754 299.132 229 299.672 229.492 300.08C229.996 300.488 230.644 300.692 231.436 300.692C232.24 300.692 232.888 300.488 233.38 300.08C233.884 299.66 234.136 299.114 234.136 298.442ZM231.436 301.952C230.548 301.952 229.822 302.162 229.258 302.582C228.694 302.99 228.412 303.608 228.412 304.436C228.412 305.204 228.682 305.822 229.222 306.29C229.774 306.758 230.512 306.992 231.436 306.992C232.36 306.992 233.092 306.758 233.632 306.29C234.172 305.822 234.442 305.204 234.442 304.436C234.442 303.632 234.166 303.02 233.614 302.6C233.062 302.168 232.336 301.952 231.436 301.952ZM239.354 301.232C238.682 300.968 238.166 300.584 237.806 300.08C237.446 299.576 237.266 298.964 237.266 298.244C237.266 297.596 237.428 297.014 237.752 296.498C238.076 295.97 238.556 295.556 239.192 295.256C239.84 294.944 240.62 294.788 241.532 294.788C242.444 294.788 243.218 294.944 243.854 295.256C244.502 295.556 244.988 295.97 245.312 296.498C245.648 297.014 245.816 297.596 245.816 298.244C245.816 298.94 245.63 299.552 245.258 300.08C244.886 300.596 244.376 300.98 243.728 301.232C244.472 301.46 245.06 301.862 245.492 302.438C245.936 303.002 246.158 303.686 246.158 304.49C246.158 305.27 245.966 305.954 245.582 306.542C245.198 307.118 244.652 307.568 243.944 307.892C243.248 308.204 242.444 308.36 241.532 308.36C240.62 308.36 239.816 308.204 239.12 307.892C238.436 307.568 237.902 307.118 237.518 306.542C237.134 305.954 236.942 305.27 236.942 304.49C236.942 303.686 237.158 302.996 237.59 302.42C238.022 301.844 238.61 301.448 239.354 301.232ZM244.232 298.442C244.232 297.71 243.992 297.146 243.512 296.75C243.032 296.354 242.372 296.156 241.532 296.156C240.704 296.156 240.05 296.354 239.57 296.75C239.09 297.146 238.85 297.716 238.85 298.46C238.85 299.132 239.096 299.672 239.588 300.08C240.092 300.488 240.74 300.692 241.532 300.692C242.336 300.692 242.984 300.488 243.476 300.08C243.98 299.66 244.232 299.114 244.232 298.442ZM241.532 301.952C240.644 301.952 239.918 302.162 239.354 302.582C238.79 302.99 238.508 303.608 238.508 304.436C238.508 305.204 238.778 305.822 239.318 306.29C239.87 306.758 240.608 306.992 241.532 306.992C242.456 306.992 243.188 306.758 243.728 306.29C244.268 305.822 244.538 305.204 244.538 304.436C244.538 303.632 244.262 303.02 243.71 302.6C243.158 302.168 242.432 301.952 241.532 301.952ZM258.91 296.408H252.592V300.512C252.868 300.128 253.276 299.816 253.816 299.576C254.356 299.324 254.938 299.198 255.562 299.198C256.558 299.198 257.368 299.408 257.992 299.828C258.616 300.236 259.06 300.77 259.324 301.43C259.6 302.078 259.738 302.768 259.738 303.5C259.738 304.364 259.576 305.138 259.252 305.822C258.928 306.506 258.43 307.046 257.758 307.442C257.098 307.838 256.276 308.036 255.292 308.036C254.032 308.036 253.012 307.712 252.232 307.064C251.452 306.416 250.978 305.552 250.81 304.472H252.412C252.568 305.156 252.898 305.69 253.402 306.074C253.906 306.458 254.542 306.65 255.31 306.65C256.258 306.65 256.972 306.368 257.452 305.804C257.932 305.228 258.172 304.472 258.172 303.536C258.172 302.6 257.932 301.88 257.452 301.376C256.972 300.86 256.264 300.602 255.328 300.602C254.692 300.602 254.134 300.758 253.654 301.07C253.186 301.37 252.844 301.784 252.628 302.312H251.08V294.968H258.91V296.408ZM267.909 298.082C267.645 296.75 266.823 296.084 265.443 296.084C264.375 296.084 263.577 296.498 263.049 297.326C262.521 298.142 262.263 299.492 262.275 301.376C262.551 300.752 263.007 300.266 263.643 299.918C264.291 299.558 265.011 299.378 265.803 299.378C267.039 299.378 268.023 299.762 268.755 300.53C269.499 301.298 269.871 302.36 269.871 303.716C269.871 304.532 269.709 305.264 269.385 305.912C269.073 306.56 268.593 307.076 267.945 307.46C267.309 307.844 266.535 308.036 265.623 308.036C264.387 308.036 263.421 307.76 262.725 307.208C262.029 306.656 261.543 305.894 261.267 304.922C260.991 303.95 260.853 302.75 260.853 301.322C260.853 296.918 262.389 294.716 265.461 294.716C266.637 294.716 267.561 295.034 268.233 295.67C268.905 296.306 269.301 297.11 269.421 298.082H267.909ZM265.461 300.764C264.945 300.764 264.459 300.872 264.003 301.088C263.547 301.292 263.175 301.61 262.887 302.042C262.611 302.462 262.473 302.978 262.473 303.59C262.473 304.502 262.737 305.246 263.265 305.822C263.793 306.386 264.549 306.668 265.533 306.668C266.373 306.668 267.039 306.41 267.531 305.894C268.035 305.366 268.287 304.658 268.287 303.77C268.287 302.834 268.047 302.102 267.567 301.574C267.087 301.034 266.385 300.764 265.461 300.764ZM273.197 301.232C272.525 300.968 272.009 300.584 271.649 300.08C271.289 299.576 271.109 298.964 271.109 298.244C271.109 297.596 271.271 297.014 271.595 296.498C271.919 295.97 272.399 295.556 273.035 295.256C273.683 294.944 274.463 294.788 275.375 294.788C276.287 294.788 277.061 294.944 277.697 295.256C278.345 295.556 278.831 295.97 279.155 296.498C279.491 297.014 279.659 297.596 279.659 298.244C279.659 298.94 279.473 299.552 279.101 300.08C278.729 300.596 278.219 300.98 277.571 301.232C278.315 301.46 278.903 301.862 279.335 302.438C279.779 303.002 280.001 303.686 280.001 304.49C280.001 305.27 279.809 305.954 279.425 306.542C279.041 307.118 278.495 307.568 277.787 307.892C277.091 308.204 276.287 308.36 275.375 308.36C274.463 308.36 273.659 308.204 272.963 307.892C272.279 307.568 271.745 307.118 271.361 306.542C270.977 305.954 270.785 305.27 270.785 304.49C270.785 303.686 271.001 302.996 271.433 302.42C271.865 301.844 272.453 301.448 273.197 301.232ZM278.075 298.442C278.075 297.71 277.835 297.146 277.355 296.75C276.875 296.354 276.215 296.156 275.375 296.156C274.547 296.156 273.893 296.354 273.413 296.75C272.933 297.146 272.693 297.716 272.693 298.46C272.693 299.132 272.939 299.672 273.431 300.08C273.935 300.488 274.583 300.692 275.375 300.692C276.179 300.692 276.827 300.488 277.319 300.08C277.823 299.66 278.075 299.114 278.075 298.442ZM275.375 301.952C274.487 301.952 273.761 302.162 273.197 302.582C272.633 302.99 272.351 303.608 272.351 304.436C272.351 305.204 272.621 305.822 273.161 306.29C273.713 306.758 274.451 306.992 275.375 306.992C276.299 306.992 277.031 306.758 277.571 306.29C278.111 305.822 278.381 305.204 278.381 304.436C278.381 303.632 278.105 303.02 277.553 302.6C277.001 302.168 276.275 301.952 275.375 301.952ZM280.88 298.262C280.964 297.158 281.39 296.294 282.158 295.67C282.926 295.046 283.922 294.734 285.146 294.734C285.962 294.734 286.664 294.884 287.252 295.184C287.852 295.472 288.302 295.868 288.602 296.372C288.914 296.876 289.07 297.446 289.07 298.082C289.07 298.826 288.854 299.468 288.422 300.008C288.002 300.548 287.45 300.896 286.766 301.052V301.142C287.546 301.334 288.164 301.712 288.62 302.276C289.076 302.84 289.304 303.578 289.304 304.49C289.304 305.174 289.148 305.792 288.836 306.344C288.524 306.884 288.056 307.31 287.432 307.622C286.808 307.934 286.058 308.09 285.182 308.09C283.91 308.09 282.866 307.76 282.05 307.1C281.234 306.428 280.778 305.48 280.682 304.256H282.266C282.35 304.976 282.644 305.564 283.148 306.02C283.652 306.476 284.324 306.704 285.164 306.704C286.004 306.704 286.64 306.488 287.072 306.056C287.516 305.612 287.738 305.042 287.738 304.346C287.738 303.446 287.438 302.798 286.838 302.402C286.238 302.006 285.332 301.808 284.12 301.808H283.706V300.44H284.138C285.242 300.428 286.076 300.248 286.64 299.9C287.204 299.54 287.486 298.988 287.486 298.244C287.486 297.608 287.276 297.098 286.856 296.714C286.448 296.33 285.86 296.138 285.092 296.138C284.348 296.138 283.748 296.33 283.292 296.714C282.836 297.098 282.566 297.614 282.482 298.262H280.88Z" fill="white"/>
<path d="M195.192 385.956C196.392 385.956 197.364 386.322 198.108 387.054C198.852 387.774 199.224 388.818 199.224 390.186V396H197.604V390.42C197.604 389.436 197.358 388.686 196.866 388.17C196.374 387.642 195.702 387.378 194.85 387.378C193.986 387.378 193.296 387.648 192.78 388.188C192.276 388.728 192.024 389.514 192.024 390.546V396H190.386V386.136H192.024V387.54C192.348 387.036 192.786 386.646 193.338 386.37C193.902 386.094 194.52 385.956 195.192 385.956ZM209.64 390.69C209.64 391.002 209.622 391.332 209.586 391.68H201.702C201.762 392.652 202.092 393.414 202.692 393.966C203.304 394.506 204.042 394.776 204.906 394.776C205.614 394.776 206.202 394.614 206.67 394.29C207.15 393.954 207.486 393.51 207.678 392.958H209.442C209.178 393.906 208.65 394.68 207.858 395.28C207.066 395.868 206.082 396.162 204.906 396.162C203.97 396.162 203.13 395.952 202.386 395.532C201.654 395.112 201.078 394.518 200.658 393.75C200.238 392.97 200.028 392.07 200.028 391.05C200.028 390.03 200.232 389.136 200.64 388.368C201.048 387.6 201.618 387.012 202.35 386.604C203.094 386.184 203.946 385.974 204.906 385.974C205.842 385.974 206.67 386.178 207.39 386.586C208.11 386.994 208.662 387.558 209.046 388.278C209.442 388.986 209.64 389.79 209.64 390.69ZM207.948 390.348C207.948 389.724 207.81 389.19 207.534 388.746C207.258 388.29 206.88 387.948 206.4 387.72C205.932 387.48 205.41 387.36 204.834 387.36C204.006 387.36 203.298 387.624 202.71 388.152C202.134 388.68 201.804 389.412 201.72 390.348H207.948ZM219.29 386.136V396H217.652V394.542C217.34 395.046 216.902 395.442 216.338 395.73C215.786 396.006 215.174 396.144 214.502 396.144C213.734 396.144 213.044 395.988 212.432 395.676C211.82 395.352 211.334 394.872 210.974 394.236C210.626 393.6 210.452 392.826 210.452 391.914V386.136H212.072V391.698C212.072 392.67 212.318 393.42 212.81 393.948C213.302 394.464 213.974 394.722 214.826 394.722C215.702 394.722 216.392 394.452 216.896 393.912C217.4 393.372 217.652 392.586 217.652 391.554V386.136H219.29ZM222.433 387.972C222.769 387.384 223.261 386.904 223.909 386.532C224.557 386.16 225.295 385.974 226.123 385.974C227.011 385.974 227.809 386.184 228.517 386.604C229.225 387.024 229.783 387.618 230.191 388.386C230.599 389.142 230.803 390.024 230.803 391.032C230.803 392.028 230.599 392.916 230.191 393.696C229.783 394.476 229.219 395.082 228.499 395.514C227.791 395.946 226.999 396.162 226.123 396.162C225.271 396.162 224.521 395.976 223.873 395.604C223.237 395.232 222.757 394.758 222.433 394.182V396H220.795V382.68H222.433V387.972ZM229.129 391.032C229.129 390.288 228.979 389.64 228.679 389.088C228.379 388.536 227.971 388.116 227.455 387.828C226.951 387.54 226.393 387.396 225.781 387.396C225.181 387.396 224.623 387.546 224.107 387.846C223.603 388.134 223.195 388.56 222.883 389.124C222.583 389.676 222.433 390.318 222.433 391.05C222.433 391.794 222.583 392.448 222.883 393.012C223.195 393.564 223.603 393.99 224.107 394.29C224.623 394.578 225.181 394.722 225.781 394.722C226.393 394.722 226.951 394.578 227.455 394.29C227.971 393.99 228.379 393.564 228.679 393.012C228.979 392.448 229.129 391.788 229.129 391.032ZM240.7 390.69C240.7 391.002 240.682 391.332 240.646 391.68H232.762C232.822 392.652 233.152 393.414 233.752 393.966C234.364 394.506 235.102 394.776 235.966 394.776C236.674 394.776 237.262 394.614 237.73 394.29C238.21 393.954 238.546 393.51 238.738 392.958H240.502C240.238 393.906 239.71 394.68 238.918 395.28C238.126 395.868 237.142 396.162 235.966 396.162C235.03 396.162 234.19 395.952 233.446 395.532C232.714 395.112 232.138 394.518 231.718 393.75C231.298 392.97 231.088 392.07 231.088 391.05C231.088 390.03 231.292 389.136 231.7 388.368C232.108 387.6 232.678 387.012 233.41 386.604C234.154 386.184 235.006 385.974 235.966 385.974C236.902 385.974 237.73 386.178 238.45 386.586C239.17 386.994 239.722 387.558 240.106 388.278C240.502 388.986 240.7 389.79 240.7 390.69ZM239.008 390.348C239.008 389.724 238.87 389.19 238.594 388.746C238.318 388.29 237.94 387.948 237.46 387.72C236.992 387.48 236.47 387.36 235.894 387.36C235.066 387.36 234.358 387.624 233.77 388.152C233.194 388.68 232.864 389.412 232.78 390.348H239.008ZM246.75 396L244.41 392.328L242.16 396H240.45L243.636 391.104L240.45 386.136H242.304L244.644 389.79L246.876 386.136H248.586L245.418 391.014L248.604 396H246.75ZM249.477 396.108C249.165 396.108 248.901 396 248.685 395.784C248.469 395.568 248.361 395.304 248.361 394.992C248.361 394.68 248.469 394.416 248.685 394.2C248.901 393.984 249.165 393.876 249.477 393.876C249.777 393.876 250.029 393.984 250.233 394.2C250.449 394.416 250.557 394.68 250.557 394.992C250.557 395.304 250.449 395.568 250.233 395.784C250.029 396 249.777 396.108 249.477 396.108ZM250.862 391.032C250.862 390.024 251.066 389.142 251.474 388.386C251.882 387.618 252.44 387.024 253.148 386.604C253.868 386.184 254.672 385.974 255.56 385.974C256.328 385.974 257.042 386.154 257.702 386.514C258.362 386.862 258.866 387.324 259.214 387.9V382.68H260.87V396H259.214V394.146C258.89 394.734 258.41 395.22 257.774 395.604C257.138 395.976 256.394 396.162 255.542 396.162C254.666 396.162 253.868 395.946 253.148 395.514C252.44 395.082 251.882 394.476 251.474 393.696C251.066 392.916 250.862 392.028 250.862 391.032ZM259.214 391.05C259.214 390.306 259.064 389.658 258.764 389.106C258.464 388.554 258.056 388.134 257.54 387.846C257.036 387.546 256.478 387.396 255.866 387.396C255.254 387.396 254.696 387.54 254.192 387.828C253.688 388.116 253.286 388.536 252.986 389.088C252.686 389.64 252.536 390.288 252.536 391.032C252.536 391.788 252.686 392.448 252.986 393.012C253.286 393.564 253.688 393.99 254.192 394.29C254.696 394.578 255.254 394.722 255.866 394.722C256.478 394.722 257.036 394.578 257.54 394.29C258.056 393.99 258.464 393.564 258.764 393.012C259.064 392.448 259.214 391.794 259.214 391.05ZM271.378 390.69C271.378 391.002 271.36 391.332 271.324 391.68H263.44C263.5 392.652 263.83 393.414 264.43 393.966C265.042 394.506 265.78 394.776 266.644 394.776C267.352 394.776 267.94 394.614 268.408 394.29C268.888 393.954 269.224 393.51 269.416 392.958H271.18C270.916 393.906 270.388 394.68 269.596 395.28C268.804 395.868 267.82 396.162 266.644 396.162C265.708 396.162 264.868 395.952 264.124 395.532C263.392 395.112 262.816 394.518 262.396 393.75C261.976 392.97 261.766 392.07 261.766 391.05C261.766 390.03 261.97 389.136 262.378 388.368C262.786 387.6 263.356 387.012 264.088 386.604C264.832 386.184 265.684 385.974 266.644 385.974C267.58 385.974 268.408 386.178 269.128 386.586C269.848 386.994 270.4 387.558 270.784 388.278C271.18 388.986 271.378 389.79 271.378 390.69ZM269.686 390.348C269.686 389.724 269.548 389.19 269.272 388.746C268.996 388.29 268.618 387.948 268.138 387.72C267.67 387.48 267.148 387.36 266.572 387.36C265.744 387.36 265.036 387.624 264.448 388.152C263.872 388.68 263.542 389.412 263.458 390.348H269.686ZM275.952 394.488L279.012 386.136H280.758L276.888 396H274.98L271.11 386.136H272.874L275.952 394.488ZM290.11 384.462C291.442 384.462 292.6 384.714 293.584 385.218C294.568 385.722 295.324 386.43 295.852 387.342C296.38 388.242 296.644 389.286 296.644 390.474C296.644 391.422 296.488 392.334 296.176 393.21C295.864 394.074 295.408 394.776 294.808 395.316C294.22 395.856 293.53 396.126 292.738 396.126C292.138 396.126 291.676 395.976 291.352 395.676C291.028 395.376 290.842 394.968 290.794 394.452C290.422 394.968 289.948 395.376 289.372 395.676C288.808 395.976 288.208 396.126 287.572 396.126C286.66 396.126 285.94 395.85 285.412 395.298C284.896 394.734 284.638 393.978 284.638 393.03C284.638 392.13 284.824 391.29 285.196 390.51C285.58 389.73 286.108 389.106 286.78 388.638C287.452 388.158 288.214 387.918 289.066 387.918C290.206 387.918 290.974 388.35 291.37 389.214L291.568 388.098H292.99L292.09 393.3C292.054 393.528 292.036 393.738 292.036 393.93C292.036 394.65 292.354 395.01 292.99 395.01C293.47 395.01 293.884 394.782 294.232 394.326C294.592 393.87 294.862 393.3 295.042 392.616C295.222 391.92 295.312 391.236 295.312 390.564C295.312 388.992 294.838 387.774 293.89 386.91C292.954 386.046 291.628 385.614 289.912 385.614C288.484 385.614 287.194 385.962 286.042 386.658C284.902 387.342 284.008 388.284 283.36 389.484C282.712 390.684 282.388 392.01 282.388 393.462C282.376 395.046 282.85 396.264 283.81 397.116C284.77 397.98 286.102 398.412 287.806 398.412C288.934 398.412 289.93 398.208 290.794 397.8L291.01 398.916C289.942 399.36 288.766 399.582 287.482 399.582C286.198 399.582 285.064 399.336 284.08 398.844C283.108 398.364 282.352 397.668 281.812 396.756C281.284 395.856 281.02 394.806 281.02 393.606C281.02 391.914 281.41 390.372 282.19 388.98C282.97 387.576 284.05 386.472 285.43 385.668C286.822 384.864 288.382 384.462 290.11 384.462ZM288.058 394.848C288.598 394.848 289.096 394.692 289.552 394.38C290.008 394.056 290.368 393.624 290.632 393.084C290.896 392.532 291.028 391.932 291.028 391.284C291.028 390.66 290.854 390.156 290.506 389.772C290.17 389.376 289.69 389.178 289.066 389.178C288.49 389.178 287.98 389.352 287.536 389.7C287.104 390.036 286.768 390.486 286.528 391.05C286.288 391.602 286.168 392.178 286.168 392.778C286.168 393.414 286.33 393.918 286.654 394.29C286.978 394.662 287.446 394.848 288.058 394.848ZM302.147 385.974C302.999 385.974 303.743 386.16 304.379 386.532C305.027 386.904 305.507 387.372 305.819 387.936V386.136H307.475V396.216C307.475 397.116 307.283 397.914 306.899 398.61C306.515 399.318 305.963 399.87 305.243 400.266C304.535 400.662 303.707 400.86 302.759 400.86C301.463 400.86 300.383 400.554 299.519 399.942C298.655 399.33 298.145 398.496 297.989 397.44H299.609C299.789 398.04 300.161 398.52 300.725 398.88C301.289 399.252 301.967 399.438 302.759 399.438C303.659 399.438 304.391 399.156 304.955 398.592C305.531 398.028 305.819 397.236 305.819 396.216V394.146C305.495 394.722 305.015 395.202 304.379 395.586C303.743 395.97 302.999 396.162 302.147 396.162C301.271 396.162 300.473 395.946 299.753 395.514C299.045 395.082 298.487 394.476 298.079 393.696C297.671 392.916 297.467 392.028 297.467 391.032C297.467 390.024 297.671 389.142 298.079 388.386C298.487 387.618 299.045 387.024 299.753 386.604C300.473 386.184 301.271 385.974 302.147 385.974ZM305.819 391.05C305.819 390.306 305.669 389.658 305.369 389.106C305.069 388.554 304.661 388.134 304.145 387.846C303.641 387.546 303.083 387.396 302.471 387.396C301.859 387.396 301.301 387.54 300.797 387.828C300.293 388.116 299.891 388.536 299.591 389.088C299.291 389.64 299.141 390.288 299.141 391.032C299.141 391.788 299.291 392.448 299.591 393.012C299.891 393.564 300.293 393.99 300.797 394.29C301.301 394.578 301.859 394.722 302.471 394.722C303.083 394.722 303.641 394.578 304.145 394.29C304.661 393.99 305.069 393.564 305.369 393.012C305.669 392.448 305.819 391.794 305.819 391.05ZM320.845 385.956C321.613 385.956 322.297 386.118 322.897 386.442C323.497 386.754 323.971 387.228 324.319 387.864C324.667 388.5 324.841 389.274 324.841 390.186V396H323.221V390.42C323.221 389.436 322.975 388.686 322.483 388.17C322.003 387.642 321.349 387.378 320.521 387.378C319.669 387.378 318.991 387.654 318.487 388.206C317.983 388.746 317.731 389.532 317.731 390.564V396H316.111V390.42C316.111 389.436 315.865 388.686 315.373 388.17C314.893 387.642 314.239 387.378 313.411 387.378C312.559 387.378 311.881 387.654 311.377 388.206C310.873 388.746 310.621 389.532 310.621 390.564V396H308.983V386.136H310.621V387.558C310.945 387.042 311.377 386.646 311.917 386.37C312.469 386.094 313.075 385.956 313.735 385.956C314.563 385.956 315.295 386.142 315.931 386.514C316.567 386.886 317.041 387.432 317.353 388.152C317.629 387.456 318.085 386.916 318.721 386.532C319.357 386.148 320.065 385.956 320.845 385.956ZM325.656 391.032C325.656 390.024 325.86 389.142 326.268 388.386C326.676 387.618 327.234 387.024 327.942 386.604C328.662 386.184 329.46 385.974 330.336 385.974C331.2 385.974 331.95 386.16 332.586 386.532C333.222 386.904 333.696 387.372 334.008 387.936V386.136H335.664V396H334.008V394.164C333.684 394.74 333.198 395.22 332.55 395.604C331.914 395.976 331.17 396.162 330.318 396.162C329.442 396.162 328.65 395.946 327.942 395.514C327.234 395.082 326.676 394.476 326.268 393.696C325.86 392.916 325.656 392.028 325.656 391.032ZM334.008 391.05C334.008 390.306 333.858 389.658 333.558 389.106C333.258 388.554 332.85 388.134 332.334 387.846C331.83 387.546 331.272 387.396 330.66 387.396C330.048 387.396 329.49 387.54 328.986 387.828C328.482 388.116 328.08 388.536 327.78 389.088C327.48 389.64 327.33 390.288 327.33 391.032C327.33 391.788 327.48 392.448 327.78 393.012C328.08 393.564 328.482 393.99 328.986 394.29C329.49 394.578 330.048 394.722 330.66 394.722C331.272 394.722 331.83 394.578 332.334 394.29C332.85 393.99 333.258 393.564 333.558 393.012C333.858 392.448 334.008 391.794 334.008 391.05ZM338.018 384.534C337.706 384.534 337.442 384.426 337.226 384.21C337.01 383.994 336.902 383.73 336.902 383.418C336.902 383.106 337.01 382.842 337.226 382.626C337.442 382.41 337.706 382.302 338.018 382.302C338.318 382.302 338.57 382.41 338.774 382.626C338.99 382.842 339.098 383.106 339.098 383.418C339.098 383.73 338.99 383.994 338.774 384.21C338.57 384.426 338.318 384.534 338.018 384.534ZM338.81 386.136V396H337.172V386.136H338.81ZM341.979 382.68V396H340.341V382.68H341.979ZM344.033 396.108C343.721 396.108 343.457 396 343.241 395.784C343.025 395.568 342.917 395.304 342.917 394.992C342.917 394.68 343.025 394.416 343.241 394.2C343.457 393.984 343.721 393.876 344.033 393.876C344.333 393.876 344.585 393.984 344.789 394.2C345.005 394.416 345.113 394.68 345.113 394.992C345.113 395.304 345.005 395.568 344.789 395.784C344.585 396 344.333 396.108 344.033 396.108ZM345.418 391.05C345.418 390.03 345.622 389.142 346.03 388.386C346.438 387.618 347.002 387.024 347.722 386.604C348.454 386.184 349.288 385.974 350.224 385.974C351.436 385.974 352.432 386.268 353.212 386.856C354.004 387.444 354.526 388.26 354.778 389.304H353.014C352.846 388.704 352.516 388.23 352.024 387.882C351.544 387.534 350.944 387.36 350.224 387.36C349.288 387.36 348.532 387.684 347.956 388.332C347.38 388.968 347.092 389.874 347.092 391.05C347.092 392.238 347.38 393.156 347.956 393.804C348.532 394.452 349.288 394.776 350.224 394.776C350.944 394.776 351.544 394.608 352.024 394.272C352.504 393.936 352.834 393.456 353.014 392.832H354.778C354.514 393.84 353.986 394.65 353.194 395.262C352.402 395.862 351.412 396.162 350.224 396.162C349.288 396.162 348.454 395.952 347.722 395.532C347.002 395.112 346.438 394.518 346.03 393.75C345.622 392.982 345.418 392.082 345.418 391.05ZM360.006 396.162C359.082 396.162 358.242 395.952 357.486 395.532C356.742 395.112 356.154 394.518 355.722 393.75C355.302 392.97 355.092 392.07 355.092 391.05C355.092 390.042 355.308 389.154 355.74 388.386C356.184 387.606 356.784 387.012 357.54 386.604C358.296 386.184 359.142 385.974 360.078 385.974C361.014 385.974 361.86 386.184 362.616 386.604C363.372 387.012 363.966 387.6 364.398 388.368C364.842 389.136 365.064 390.03 365.064 391.05C365.064 392.07 364.836 392.97 364.38 393.75C363.936 394.518 363.33 395.112 362.562 395.532C361.794 395.952 360.942 396.162 360.006 396.162ZM360.006 394.722C360.594 394.722 361.146 394.584 361.662 394.308C362.178 394.032 362.592 393.618 362.904 393.066C363.228 392.514 363.39 391.842 363.39 391.05C363.39 390.258 363.234 389.586 362.922 389.034C362.61 388.482 362.202 388.074 361.698 387.81C361.194 387.534 360.648 387.396 360.06 387.396C359.46 387.396 358.908 387.534 358.404 387.81C357.912 388.074 357.516 388.482 357.216 389.034C356.916 389.586 356.766 390.258 356.766 391.05C356.766 391.854 356.91 392.532 357.198 393.084C357.498 393.636 357.894 394.05 358.386 394.326C358.878 394.59 359.418 394.722 360.006 394.722ZM377.82 385.956C378.588 385.956 379.272 386.118 379.872 386.442C380.472 386.754 380.946 387.228 381.294 387.864C381.642 388.5 381.816 389.274 381.816 390.186V396H380.196V390.42C380.196 389.436 379.95 388.686 379.458 388.17C378.978 387.642 378.324 387.378 377.496 387.378C376.644 387.378 375.966 387.654 375.462 388.206C374.958 388.746 374.706 389.532 374.706 390.564V396H373.086V390.42C373.086 389.436 372.84 388.686 372.348 388.17C371.868 387.642 371.214 387.378 370.386 387.378C369.534 387.378 368.856 387.654 368.352 388.206C367.848 388.746 367.596 389.532 367.596 390.564V396H365.958V386.136H367.596V387.558C367.92 387.042 368.352 386.646 368.892 386.37C369.444 386.094 370.05 385.956 370.71 385.956C371.538 385.956 372.27 386.142 372.906 386.514C373.542 386.886 374.016 387.432 374.328 388.152C374.604 387.456 375.06 386.916 375.696 386.532C376.332 386.148 377.04 385.956 377.82 385.956Z" fill="white"/>
<g clip-path="url(#clip1)">
<path d="M126.804 235.112C114.318 217.01 112 215.153 112 208.5C112 199.387 119.387 192 128.5 192C137.613 192 145 199.387 145 208.5C145 215.153 142.682 217.01 130.196 235.112C129.376 236.296 127.624 236.296 126.804 235.112ZM128.5 215.375C132.297 215.375 135.375 212.297 135.375 208.5C135.375 204.703 132.297 201.625 128.5 201.625C124.703 201.625 121.625 204.703 121.625 208.5C121.625 212.297 124.703 215.375 128.5 215.375Z" fill="#F0F0F4"/>
</g>
<g clip-path="url(#clip2)">
<path fill-rule="evenodd" clip-rule="evenodd" d="M136.88 306.217C137.675 306.576 137.691 306.954 137.705 307.296C137.717 307.575 137.716 307.895 137.716 308.215C137.716 308.535 137.596 309.054 137.119 309.494C136.641 309.933 135.486 311.172 133.137 311.172C130.787 311.172 128.517 309.454 128.198 309.214C127.88 308.974 122.905 305.896 120.991 301.022C119.401 296.97 119.717 296.146 119.797 295.266C119.876 294.387 120.951 292.429 122.066 292.029C123.181 291.63 124.137 291.63 124.336 291.749C124.535 291.869 124.655 292.189 124.894 292.669C125.132 293.148 126.288 295.506 126.447 295.946C126.606 296.386 126.686 296.705 126.208 297.025C125.73 297.345 124.655 298.264 124.336 298.543C124.017 298.823 123.978 299.103 124.216 299.583C124.456 300.062 124.959 301.607 126.586 303.439C127.852 304.865 129.415 305.828 129.893 306.107C130.37 306.387 130.629 306.137 130.867 305.897C131.081 305.681 131.424 305.417 131.703 305.177C131.982 304.938 132.181 304.858 132.499 304.698C132.818 304.538 133.097 304.618 133.336 304.738C133.574 304.858 135.936 305.79 136.88 306.217Z" fill="#F0F0F4"/>
<path d="M142.394 287.842C146.004 291.466 147.994 296.285 147.996 301.419C147.996 311.999 139.427 320.609 128.894 320.614C125.527 320.615 122.24 319.731 119.343 318.052L109.444 320.775L112.1 310.6C110.578 307.796 109.776 304.64 109.775 301.427V301.419V301.419C109.775 290.841 118.346 282.23 128.878 282.225C133.983 282.223 138.783 284.218 142.394 287.842V287.842ZM113.001 301.419V301.425C113.003 304.289 113.768 307.096 115.215 309.545L115.559 310.128L113.983 316.166L119.842 314.554L120.442 314.934C122.971 316.531 125.892 317.374 128.892 317.373C137.647 317.369 144.77 310.213 144.77 301.413C144.768 297.152 143.114 293.147 140.113 290.134C137.112 287.122 133.122 285.465 128.879 285.466C120.125 285.47 113.001 292.626 113.001 301.419Z" fill="#F0F0F4"/>
</g>
<path d="M111.805 375.18H143.195C145.845 375.18 148 377.23 148 379.75V399.25C148 401.77 145.845 403.82 143.195 403.82H111.805C109.155 403.82 107 401.77 107 399.25V379.75C107 377.23 109.155 375.18 111.805 375.18ZM110.203 399.25C110.203 400.09 110.922 400.773 111.805 400.773H143.195C144.078 400.773 144.797 400.09 144.797 399.25V379.75C144.797 378.91 144.078 378.227 143.195 378.227H111.805C110.922 378.227 110.203 378.91 110.203 379.75V399.25Z" fill="#F0F0F4"/>
<path d="M110.475 377.079L127.5 389.125L144.525 377.079L146.437 379.524L127.5 392.922L108.563 379.524L110.475 377.079Z" fill="#F0F0F4"/>
</g>
<defs>
<filter id="filter0_d" x="0" y="0" width="1128" height="612" filterUnits="userSpaceOnUse" color-interpolation-filters="sRGB">
<feFlood flood-opacity="0" result="BackgroundImageFix"/>
<feColorMatrix in="SourceAlpha" type="matrix" values="0 0 0 0 0 0 0 0 0 0 0 0 0 0 0 0 0 0 127 0" result="hardAlpha"/>
<feOffset dx="-10" dy="10"/>
<feComposite in2="hardAlpha" operator="out"/>
<feColorMatrix type="matrix" values="0 0 0 0 0 0 0 0 0 0 0 0 0 0 0 0 0 0 0.25 0"/>
<feBlend mode="normal" in2="BackgroundImageFix" result="effect1_dropShadow"/>
<feBlend mode="normal" in="SourceGraphic" in2="effect1_dropShadow" result="shape"/>
</filter>
<filter id="filter1_d" x="641" y="126" width="465" height="382" filterUnits="userSpaceOnUse" color-interpolation-filters="sRGB">
<feFlood flood-opacity="0" result="BackgroundImageFix"/>
<feColorMatrix in="SourceAlpha" type="matrix" values="0 0 0 0 0 0 0 0 0 0 0 0 0 0 0 0 0 0 127 0" result="hardAlpha"/>
<feOffset dy="4"/>
<feGaussianBlur stdDeviation="2"/>
<feComposite in2="hardAlpha" operator="out"/>
<feColorMatrix type="matrix" values="0 0 0 0 0 0 0 0 0 0 0 0 0 0 0 0 0 0 0.25 0"/>
<feBlend mode="normal" in2="BackgroundImageFix" result="effect1_dropShadow"/>
<feBlend mode="normal" in="SourceGraphic" in2="effect1_dropShadow" result="shape"/>
</filter>
<filter id="filter2_d" x="651" y="126.01" width="451" height="383.991" filterUnits="userSpaceOnUse" color-interpolation-filters="sRGB">
<feFlood flood-opacity="0" result="BackgroundImageFix"/>
<feColorMatrix in="SourceAlpha" type="matrix" values="0 0 0 0 0 0 0 0 0 0 0 0 0 0 0 0 0 0 127 0" result="hardAlpha"/>
<feOffset dx="-10" dy="10"/>
<feComposite in2="hardAlpha" operator="out"/>
<feColorMatrix type="matrix" values="0 0 0 0 0 0 0 0 0 0 0 0 0 0 0 0 0 0 0.25 0"/>
<feBlend mode="normal" in2="BackgroundImageFix" result="effect1_dropShadow"/>
<feBlend mode="normal" in="SourceGraphic" in2="effect1_dropShadow" result="shape"/>
</filter>
<clipPath id="clip0">
<rect width="457" height="374" fill="white" transform="translate(645 126)"/>
</clipPath>
<clipPath id="clip1">
<rect width="33" height="44" fill="white" transform="translate(112 192)"/>
</clipPath>
<clipPath id="clip2">
<rect width="39" height="39" fill="white" transform="matrix(0 -1 -1 0 148 321)"/>
</clipPath>
</defs>
</svg>
