<svg width="593" height="602" viewBox="0 0 593 602" fill="none" xmlns="http://www.w3.org/2000/svg">
<rect width="593" height="602" rx="35" fill="white"/>
<path d="M203.008 424.144C205.141 424.144 206.869 424.795 208.192 426.096C209.515 427.376 210.176 429.232 210.176 431.664V442H207.296V432.08C207.296 430.331 206.859 428.997 205.984 428.08C205.109 427.141 203.915 426.672 202.4 426.672C200.864 426.672 199.637 427.152 198.72 428.112C197.824 429.072 197.376 430.469 197.376 432.304V442H194.464V424.464H197.376V426.96C197.952 426.064 198.731 425.371 199.712 424.88C200.715 424.389 201.813 424.144 203.008 424.144ZM228.693 432.56C228.693 433.115 228.661 433.701 228.597 434.32H214.581C214.687 436.048 215.274 437.403 216.341 438.384C217.429 439.344 218.741 439.824 220.277 439.824C221.535 439.824 222.581 439.536 223.413 438.96C224.266 438.363 224.863 437.573 225.205 436.592H228.341C227.871 438.277 226.933 439.653 225.525 440.72C224.117 441.765 222.367 442.288 220.277 442.288C218.613 442.288 217.119 441.915 215.797 441.168C214.495 440.421 213.471 439.365 212.725 438C211.978 436.613 211.605 435.013 211.605 433.2C211.605 431.387 211.967 429.797 212.693 428.432C213.418 427.067 214.431 426.021 215.733 425.296C217.055 424.549 218.57 424.176 220.277 424.176C221.941 424.176 223.413 424.539 224.693 425.264C225.973 425.989 226.954 426.992 227.637 428.272C228.341 429.531 228.693 430.96 228.693 432.56ZM225.685 431.952C225.685 430.843 225.439 429.893 224.949 429.104C224.458 428.293 223.786 427.685 222.933 427.28C222.101 426.853 221.173 426.64 220.149 426.64C218.677 426.64 217.418 427.109 216.373 428.048C215.349 428.987 214.762 430.288 214.613 431.952H225.685ZM245.849 424.464V442H242.937V439.408C242.382 440.304 241.603 441.008 240.601 441.52C239.619 442.011 238.531 442.256 237.337 442.256C235.971 442.256 234.745 441.979 233.657 441.424C232.569 440.848 231.705 439.995 231.065 438.864C230.446 437.733 230.137 436.357 230.137 434.736V424.464H233.017V434.352C233.017 436.08 233.454 437.413 234.329 438.352C235.203 439.269 236.398 439.728 237.913 439.728C239.47 439.728 240.697 439.248 241.593 438.288C242.489 437.328 242.937 435.931 242.937 434.096V424.464H245.849ZM251.437 427.728C252.035 426.683 252.909 425.829 254.061 425.168C255.213 424.507 256.525 424.176 257.997 424.176C259.576 424.176 260.995 424.549 262.253 425.296C263.512 426.043 264.504 427.099 265.229 428.464C265.955 429.808 266.317 431.376 266.317 433.168C266.317 434.939 265.955 436.517 265.229 437.904C264.504 439.291 263.501 440.368 262.221 441.136C260.963 441.904 259.555 442.288 257.997 442.288C256.483 442.288 255.149 441.957 253.997 441.296C252.867 440.635 252.013 439.792 251.437 438.768V442H248.525V418.32H251.437V427.728ZM263.341 433.168C263.341 431.845 263.075 430.693 262.541 429.712C262.008 428.731 261.283 427.984 260.365 427.472C259.469 426.96 258.477 426.704 257.389 426.704C256.323 426.704 255.331 426.971 254.413 427.504C253.517 428.016 252.792 428.773 252.237 429.776C251.704 430.757 251.437 431.899 251.437 433.2C251.437 434.523 251.704 435.685 252.237 436.688C252.792 437.669 253.517 438.427 254.413 438.96C255.331 439.472 256.323 439.728 257.389 439.728C258.477 439.728 259.469 439.472 260.365 438.96C261.283 438.427 262.008 437.669 262.541 436.688C263.075 435.685 263.341 434.512 263.341 433.168ZM283.91 432.56C283.91 433.115 283.878 433.701 283.814 434.32H269.798C269.905 436.048 270.492 437.403 271.558 438.384C272.646 439.344 273.958 439.824 275.494 439.824C276.753 439.824 277.798 439.536 278.63 438.96C279.484 438.363 280.081 437.573 280.422 436.592H283.558C283.089 438.277 282.15 439.653 280.742 440.72C279.334 441.765 277.585 442.288 275.494 442.288C273.83 442.288 272.337 441.915 271.014 441.168C269.713 440.421 268.689 439.365 267.942 438C267.196 436.613 266.822 435.013 266.822 433.2C266.822 431.387 267.185 429.797 267.91 428.432C268.636 427.067 269.649 426.021 270.95 425.296C272.273 424.549 273.788 424.176 275.494 424.176C277.158 424.176 278.63 424.539 279.91 425.264C281.19 425.989 282.172 426.992 282.854 428.272C283.558 429.531 283.91 430.96 283.91 432.56ZM280.902 431.952C280.902 430.843 280.657 429.893 280.166 429.104C279.676 428.293 279.004 427.685 278.15 427.28C277.318 426.853 276.39 426.64 275.366 426.64C273.894 426.64 272.636 427.109 271.59 428.048C270.566 428.987 269.98 430.288 269.83 431.952H280.902ZM294.666 442L290.506 435.472L286.506 442H283.466L289.13 433.296L283.466 424.464H286.762L290.922 430.96L294.89 424.464H297.93L292.298 433.136L297.962 442H294.666ZM299.514 442.192C298.96 442.192 298.49 442 298.106 441.616C297.722 441.232 297.53 440.763 297.53 440.208C297.53 439.653 297.722 439.184 298.106 438.8C298.49 438.416 298.96 438.224 299.514 438.224C300.048 438.224 300.496 438.416 300.858 438.8C301.242 439.184 301.434 439.653 301.434 440.208C301.434 440.763 301.242 441.232 300.858 441.616C300.496 442 300.048 442.192 299.514 442.192ZM301.977 433.168C301.977 431.376 302.34 429.808 303.065 428.464C303.791 427.099 304.783 426.043 306.041 425.296C307.321 424.549 308.751 424.176 310.329 424.176C311.695 424.176 312.964 424.496 314.137 425.136C315.311 425.755 316.207 426.576 316.825 427.6V418.32H319.769V442H316.825V438.704C316.249 439.749 315.396 440.613 314.265 441.296C313.135 441.957 311.812 442.288 310.297 442.288C308.74 442.288 307.321 441.904 306.041 441.136C304.783 440.368 303.791 439.291 303.065 437.904C302.34 436.517 301.977 434.939 301.977 433.168ZM316.825 433.2C316.825 431.877 316.559 430.725 316.025 429.744C315.492 428.763 314.767 428.016 313.849 427.504C312.953 426.971 311.961 426.704 310.873 426.704C309.785 426.704 308.793 426.96 307.897 427.472C307.001 427.984 306.287 428.731 305.753 429.712C305.22 430.693 304.953 431.845 304.953 433.168C304.953 434.512 305.22 435.685 305.753 436.688C306.287 437.669 307.001 438.427 307.897 438.96C308.793 439.472 309.785 439.728 310.873 439.728C311.961 439.728 312.953 439.472 313.849 438.96C314.767 438.427 315.492 437.669 316.025 436.688C316.559 435.685 316.825 434.523 316.825 433.2ZM338.45 432.56C338.45 433.115 338.418 433.701 338.354 434.32H324.338C324.445 436.048 325.032 437.403 326.098 438.384C327.186 439.344 328.498 439.824 330.034 439.824C331.293 439.824 332.338 439.536 333.17 438.96C334.024 438.363 334.621 437.573 334.962 436.592H338.098C337.629 438.277 336.69 439.653 335.282 440.72C333.874 441.765 332.125 442.288 330.034 442.288C328.37 442.288 326.877 441.915 325.554 441.168C324.253 440.421 323.229 439.365 322.482 438C321.736 436.613 321.362 435.013 321.362 433.2C321.362 431.387 321.725 429.797 322.45 428.432C323.176 427.067 324.189 426.021 325.49 425.296C326.813 424.549 328.328 424.176 330.034 424.176C331.698 424.176 333.17 424.539 334.45 425.264C335.73 425.989 336.712 426.992 337.394 428.272C338.098 429.531 338.45 430.96 338.45 432.56ZM335.442 431.952C335.442 430.843 335.197 429.893 334.706 429.104C334.216 428.293 333.544 427.685 332.69 427.28C331.858 426.853 330.93 426.64 329.906 426.64C328.434 426.64 327.176 427.109 326.13 428.048C325.106 428.987 324.52 430.288 324.37 431.952H335.442ZM346.582 439.312L352.022 424.464H355.126L348.246 442H344.854L337.974 424.464H341.11L346.582 439.312ZM371.752 421.488C374.12 421.488 376.178 421.936 377.928 422.832C379.677 423.728 381.021 424.987 381.96 426.608C382.898 428.208 383.368 430.064 383.368 432.176C383.368 433.861 383.09 435.483 382.536 437.04C381.981 438.576 381.17 439.824 380.104 440.784C379.058 441.744 377.832 442.224 376.424 442.224C375.357 442.224 374.536 441.957 373.96 441.424C373.384 440.891 373.053 440.165 372.968 439.248C372.306 440.165 371.464 440.891 370.44 441.424C369.437 441.957 368.37 442.224 367.24 442.224C365.618 442.224 364.338 441.733 363.4 440.752C362.482 439.749 362.024 438.405 362.024 436.72C362.024 435.12 362.354 433.627 363.016 432.24C363.698 430.853 364.637 429.744 365.832 428.912C367.026 428.059 368.381 427.632 369.896 427.632C371.922 427.632 373.288 428.4 373.992 429.936L374.344 427.952H376.872L375.272 437.2C375.208 437.605 375.176 437.979 375.176 438.32C375.176 439.6 375.741 440.24 376.872 440.24C377.725 440.24 378.461 439.835 379.08 439.024C379.72 438.213 380.2 437.2 380.52 435.984C380.84 434.747 381 433.531 381 432.336C381 429.541 380.157 427.376 378.472 425.84C376.808 424.304 374.45 423.536 371.4 423.536C368.861 423.536 366.568 424.155 364.52 425.392C362.493 426.608 360.904 428.283 359.752 430.416C358.6 432.549 358.024 434.907 358.024 437.488C358.002 440.304 358.845 442.469 360.552 443.984C362.258 445.52 364.626 446.288 367.656 446.288C369.661 446.288 371.432 445.925 372.968 445.2L373.352 447.184C371.453 447.973 369.362 448.368 367.08 448.368C364.797 448.368 362.781 447.931 361.032 447.056C359.304 446.203 357.96 444.965 357 443.344C356.061 441.744 355.592 439.877 355.592 437.744C355.592 434.736 356.285 431.995 357.672 429.52C359.058 427.024 360.978 425.061 363.432 423.632C365.906 422.203 368.68 421.488 371.752 421.488ZM368.104 439.952C369.064 439.952 369.949 439.675 370.76 439.12C371.57 438.544 372.21 437.776 372.68 436.816C373.149 435.835 373.384 434.768 373.384 433.616C373.384 432.507 373.074 431.611 372.456 430.928C371.858 430.224 371.005 429.872 369.896 429.872C368.872 429.872 367.965 430.181 367.176 430.8C366.408 431.397 365.81 432.197 365.384 433.2C364.957 434.181 364.744 435.205 364.744 436.272C364.744 437.403 365.032 438.299 365.608 438.96C366.184 439.621 367.016 439.952 368.104 439.952ZM393.15 424.176C394.664 424.176 395.987 424.507 397.118 425.168C398.27 425.829 399.123 426.661 399.678 427.664V424.464H402.622V442.384C402.622 443.984 402.28 445.403 401.598 446.64C400.915 447.899 399.934 448.88 398.654 449.584C397.395 450.288 395.923 450.64 394.238 450.64C391.934 450.64 390.014 450.096 388.478 449.008C386.942 447.92 386.035 446.437 385.758 444.56H388.638C388.958 445.627 389.619 446.48 390.622 447.12C391.624 447.781 392.83 448.112 394.238 448.112C395.838 448.112 397.139 447.611 398.142 446.608C399.166 445.605 399.678 444.197 399.678 442.384V438.704C399.102 439.728 398.248 440.581 397.118 441.264C395.987 441.947 394.664 442.288 393.15 442.288C391.592 442.288 390.174 441.904 388.894 441.136C387.635 440.368 386.643 439.291 385.918 437.904C385.192 436.517 384.83 434.939 384.83 433.168C384.83 431.376 385.192 429.808 385.918 428.464C386.643 427.099 387.635 426.043 388.894 425.296C390.174 424.549 391.592 424.176 393.15 424.176ZM399.678 433.2C399.678 431.877 399.411 430.725 398.878 429.744C398.344 428.763 397.619 428.016 396.702 427.504C395.806 426.971 394.814 426.704 393.726 426.704C392.638 426.704 391.646 426.96 390.75 427.472C389.854 427.984 389.139 428.731 388.606 429.712C388.072 430.693 387.806 431.845 387.806 433.168C387.806 434.512 388.072 435.685 388.606 436.688C389.139 437.669 389.854 438.427 390.75 438.96C391.646 439.472 392.638 439.728 393.726 439.728C394.814 439.728 395.806 439.472 396.702 438.96C397.619 438.427 398.344 437.669 398.878 436.688C399.411 435.685 399.678 434.523 399.678 433.2ZM426.391 424.144C427.756 424.144 428.972 424.432 430.039 425.008C431.105 425.563 431.948 426.405 432.567 427.536C433.185 428.667 433.495 430.043 433.495 431.664V442H430.615V432.08C430.615 430.331 430.177 428.997 429.303 428.08C428.449 427.141 427.287 426.672 425.815 426.672C424.3 426.672 423.095 427.163 422.199 428.144C421.303 429.104 420.855 430.501 420.855 432.336V442H417.975V432.08C417.975 430.331 417.537 428.997 416.663 428.08C415.809 427.141 414.647 426.672 413.175 426.672C411.66 426.672 410.455 427.163 409.559 428.144C408.663 429.104 408.215 430.501 408.215 432.336V442H405.303V424.464H408.215V426.992C408.791 426.075 409.559 425.371 410.519 424.88C411.5 424.389 412.577 424.144 413.751 424.144C415.223 424.144 416.524 424.475 417.655 425.136C418.785 425.797 419.628 426.768 420.183 428.048C420.673 426.811 421.484 425.851 422.615 425.168C423.745 424.485 425.004 424.144 426.391 424.144ZM434.944 433.168C434.944 431.376 435.306 429.808 436.032 428.464C436.757 427.099 437.749 426.043 439.008 425.296C440.288 424.549 441.706 424.176 443.264 424.176C444.8 424.176 446.133 424.507 447.264 425.168C448.394 425.829 449.237 426.661 449.792 427.664V424.464H452.736V442H449.792V438.736C449.216 439.76 448.352 440.613 447.2 441.296C446.069 441.957 444.746 442.288 443.232 442.288C441.674 442.288 440.266 441.904 439.008 441.136C437.749 440.368 436.757 439.291 436.032 437.904C435.306 436.517 434.944 434.939 434.944 433.168ZM449.792 433.2C449.792 431.877 449.525 430.725 448.992 429.744C448.458 428.763 447.733 428.016 446.816 427.504C445.92 426.971 444.928 426.704 443.84 426.704C442.752 426.704 441.76 426.96 440.864 427.472C439.968 427.984 439.253 428.731 438.72 429.712C438.186 430.693 437.92 431.845 437.92 433.168C437.92 434.512 438.186 435.685 438.72 436.688C439.253 437.669 439.968 438.427 440.864 438.96C441.76 439.472 442.752 439.728 443.84 439.728C444.928 439.728 445.92 439.472 446.816 438.96C447.733 438.427 448.458 437.669 448.992 436.688C449.525 435.685 449.792 434.523 449.792 433.2ZM456.921 421.616C456.366 421.616 455.897 421.424 455.513 421.04C455.129 420.656 454.937 420.187 454.937 419.632C454.937 419.077 455.129 418.608 455.513 418.224C455.897 417.84 456.366 417.648 456.921 417.648C457.454 417.648 457.902 417.84 458.265 418.224C458.649 418.608 458.841 419.077 458.841 419.632C458.841 420.187 458.649 420.656 458.265 421.04C457.902 421.424 457.454 421.616 456.921 421.616ZM458.329 424.464V442H455.417V424.464H458.329ZM463.963 418.32V442H461.051V418.32H463.963ZM467.615 442.192C467.06 442.192 466.591 442 466.207 441.616C465.823 441.232 465.631 440.763 465.631 440.208C465.631 439.653 465.823 439.184 466.207 438.8C466.591 438.416 467.06 438.224 467.615 438.224C468.148 438.224 468.596 438.416 468.959 438.8C469.343 439.184 469.535 439.653 469.535 440.208C469.535 440.763 469.343 441.232 468.959 441.616C468.596 442 468.148 442.192 467.615 442.192ZM470.077 433.2C470.077 431.387 470.44 429.808 471.165 428.464C471.891 427.099 472.893 426.043 474.173 425.296C475.475 424.549 476.957 424.176 478.621 424.176C480.776 424.176 482.547 424.699 483.933 425.744C485.341 426.789 486.269 428.24 486.717 430.096H483.581C483.283 429.029 482.696 428.187 481.821 427.568C480.968 426.949 479.901 426.64 478.621 426.64C476.957 426.64 475.613 427.216 474.589 428.368C473.565 429.499 473.053 431.109 473.053 433.2C473.053 435.312 473.565 436.944 474.589 438.096C475.613 439.248 476.957 439.824 478.621 439.824C479.901 439.824 480.968 439.525 481.821 438.928C482.675 438.331 483.261 437.477 483.581 436.368H486.717C486.248 438.16 485.309 439.6 483.901 440.688C482.493 441.755 480.733 442.288 478.621 442.288C476.957 442.288 475.475 441.915 474.173 441.168C472.893 440.421 471.891 439.365 471.165 438C470.44 436.635 470.077 435.035 470.077 433.2ZM496.011 442.288C494.368 442.288 492.875 441.915 491.531 441.168C490.208 440.421 489.163 439.365 488.395 438C487.648 436.613 487.275 435.013 487.275 433.2C487.275 431.408 487.659 429.829 488.427 428.464C489.216 427.077 490.283 426.021 491.627 425.296C492.971 424.549 494.475 424.176 496.139 424.176C497.803 424.176 499.307 424.549 500.651 425.296C501.995 426.021 503.051 427.067 503.819 428.432C504.608 429.797 505.003 431.387 505.003 433.2C505.003 435.013 504.597 436.613 503.787 438C502.997 439.365 501.92 440.421 500.555 441.168C499.189 441.915 497.675 442.288 496.011 442.288ZM496.011 439.728C497.056 439.728 498.037 439.483 498.955 438.992C499.872 438.501 500.608 437.765 501.163 436.784C501.739 435.803 502.027 434.608 502.027 433.2C502.027 431.792 501.749 430.597 501.195 429.616C500.64 428.635 499.915 427.909 499.019 427.44C498.123 426.949 497.152 426.704 496.107 426.704C495.04 426.704 494.059 426.949 493.163 427.44C492.288 427.909 491.584 428.635 491.051 429.616C490.517 430.597 490.251 431.792 490.251 433.2C490.251 434.629 490.507 435.835 491.019 436.816C491.552 437.797 492.256 438.533 493.131 439.024C494.005 439.493 494.965 439.728 496.011 439.728ZM527.68 424.144C529.045 424.144 530.261 424.432 531.328 425.008C532.394 425.563 533.237 426.405 533.856 427.536C534.474 428.667 534.784 430.043 534.784 431.664V442H531.904V432.08C531.904 430.331 531.466 428.997 530.592 428.08C529.738 427.141 528.576 426.672 527.104 426.672C525.589 426.672 524.384 427.163 523.488 428.144C522.592 429.104 522.144 430.501 522.144 432.336V442H519.264V432.08C519.264 430.331 518.826 428.997 517.952 428.08C517.098 427.141 515.936 426.672 514.464 426.672C512.949 426.672 511.744 427.163 510.848 428.144C509.952 429.104 509.504 430.501 509.504 432.336V442H506.592V424.464H509.504V426.992C510.08 426.075 510.848 425.371 511.808 424.88C512.789 424.389 513.866 424.144 515.04 424.144C516.512 424.144 517.813 424.475 518.944 425.136C520.074 425.797 520.917 426.768 521.472 428.048C521.962 426.811 522.773 425.851 523.904 425.168C525.034 424.485 526.293 424.144 527.68 424.144Z" fill="#4042E2"/>
<g clip-path="url(#clip0)">
<path d="M82.8516 405H134.148C138.478 405 142 408.507 142 412.818V446.174C142 450.484 138.478 453.992 134.148 453.992H82.8516C78.5222 453.992 75 450.484 75 446.174V412.818C75 408.507 78.5222 405 82.8516 405ZM80.2344 446.174C80.2344 447.611 81.4084 448.78 82.8516 448.78H134.148C135.592 448.78 136.766 447.611 136.766 446.174V412.818C136.766 411.381 135.592 410.212 134.148 410.212H82.8516C81.4084 410.212 80.2344 411.381 80.2344 412.818V446.174Z" fill="#4042E2"/>
<path d="M79.6788 408.758L107.5 429.362L135.321 408.758L138.445 412.94L107.5 435.858L76.5547 412.94L79.6788 408.758Z" fill="#4042E2"/>
</g>
<path d="M193.92 294.688C194.069 292.725 194.827 291.189 196.192 290.08C197.557 288.971 199.328 288.416 201.504 288.416C202.955 288.416 204.203 288.683 205.248 289.216C206.315 289.728 207.115 290.432 207.648 291.328C208.203 292.224 208.48 293.237 208.48 294.368C208.48 295.691 208.096 296.832 207.328 297.792C206.581 298.752 205.6 299.371 204.384 299.648V299.808C205.771 300.149 206.869 300.821 207.68 301.824C208.491 302.827 208.896 304.139 208.896 305.76C208.896 306.976 208.619 308.075 208.064 309.056C207.509 310.016 206.677 310.773 205.568 311.328C204.459 311.883 203.125 312.16 201.568 312.16C199.307 312.16 197.451 311.573 196 310.4C194.549 309.205 193.739 307.52 193.568 305.344H196.384C196.533 306.624 197.056 307.669 197.952 308.48C198.848 309.291 200.043 309.696 201.536 309.696C203.029 309.696 204.16 309.312 204.928 308.544C205.717 307.755 206.112 306.741 206.112 305.504C206.112 303.904 205.579 302.752 204.512 302.048C203.445 301.344 201.835 300.992 199.68 300.992H198.944V298.56H199.712C201.675 298.539 203.157 298.219 204.16 297.6C205.163 296.96 205.664 295.979 205.664 294.656C205.664 293.525 205.291 292.619 204.544 291.936C203.819 291.253 202.773 290.912 201.408 290.912C200.085 290.912 199.019 291.253 198.208 291.936C197.397 292.619 196.917 293.536 196.768 294.688H193.92ZM225.34 291.392H214.108V298.688C214.598 298.005 215.324 297.451 216.284 297.024C217.244 296.576 218.278 296.352 219.388 296.352C221.158 296.352 222.598 296.725 223.708 297.472C224.817 298.197 225.606 299.147 226.076 300.32C226.566 301.472 226.812 302.699 226.812 304C226.812 305.536 226.524 306.912 225.948 308.128C225.372 309.344 224.486 310.304 223.292 311.008C222.118 311.712 220.657 312.064 218.908 312.064C216.668 312.064 214.854 311.488 213.468 310.336C212.081 309.184 211.238 307.648 210.94 305.728H213.788C214.065 306.944 214.652 307.893 215.548 308.576C216.444 309.259 217.574 309.6 218.94 309.6C220.625 309.6 221.894 309.099 222.748 308.096C223.601 307.072 224.028 305.728 224.028 304.064C224.028 302.4 223.601 301.12 222.748 300.224C221.894 299.307 220.636 298.848 218.972 298.848C217.841 298.848 216.849 299.125 215.996 299.68C215.164 300.213 214.556 300.949 214.172 301.888H211.42V288.832H225.34V291.392ZM227.674 291.52V288.864H233.69V312H230.746V291.52H227.674ZM242.679 294.688C242.828 292.725 243.585 291.189 244.951 290.08C246.316 288.971 248.087 288.416 250.263 288.416C251.713 288.416 252.961 288.683 254.007 289.216C255.073 289.728 255.873 290.432 256.407 291.328C256.961 292.224 257.239 293.237 257.239 294.368C257.239 295.691 256.855 296.832 256.087 297.792C255.34 298.752 254.359 299.371 253.143 299.648V299.808C254.529 300.149 255.628 300.821 256.439 301.824C257.249 302.827 257.655 304.139 257.655 305.76C257.655 306.976 257.377 308.075 256.823 309.056C256.268 310.016 255.436 310.773 254.327 311.328C253.217 311.883 251.884 312.16 250.327 312.16C248.065 312.16 246.209 311.573 244.759 310.4C243.308 309.205 242.497 307.52 242.327 305.344H245.143C245.292 306.624 245.815 307.669 246.711 308.48C247.607 309.291 248.801 309.696 250.295 309.696C251.788 309.696 252.919 309.312 253.687 308.544C254.476 307.755 254.871 306.741 254.871 305.504C254.871 303.904 254.337 302.752 253.271 302.048C252.204 301.344 250.593 300.992 248.439 300.992H247.703V298.56H248.471C250.433 298.539 251.916 298.219 252.919 297.6C253.921 296.96 254.423 295.979 254.423 294.656C254.423 293.525 254.049 292.619 253.303 291.936C252.577 291.253 251.532 290.912 250.167 290.912C248.844 290.912 247.777 291.253 246.967 291.936C246.156 292.619 245.676 293.536 245.527 294.688H242.679ZM263.571 299.968C262.376 299.499 261.459 298.816 260.819 297.92C260.179 297.024 259.859 295.936 259.859 294.656C259.859 293.504 260.147 292.469 260.723 291.552C261.299 290.613 262.152 289.877 263.283 289.344C264.435 288.789 265.821 288.512 267.443 288.512C269.064 288.512 270.44 288.789 271.571 289.344C272.723 289.877 273.587 290.613 274.163 291.552C274.76 292.469 275.059 293.504 275.059 294.656C275.059 295.893 274.728 296.981 274.067 297.92C273.405 298.837 272.499 299.52 271.347 299.968C272.669 300.373 273.715 301.088 274.483 302.112C275.272 303.115 275.667 304.331 275.667 305.76C275.667 307.147 275.325 308.363 274.643 309.408C273.96 310.432 272.989 311.232 271.731 311.808C270.493 312.363 269.064 312.64 267.443 312.64C265.821 312.64 264.392 312.363 263.155 311.808C261.939 311.232 260.989 310.432 260.307 309.408C259.624 308.363 259.283 307.147 259.283 305.76C259.283 304.331 259.667 303.104 260.435 302.08C261.203 301.056 262.248 300.352 263.571 299.968ZM272.243 295.008C272.243 293.707 271.816 292.704 270.963 292C270.109 291.296 268.936 290.944 267.443 290.944C265.971 290.944 264.808 291.296 263.955 292C263.101 292.704 262.675 293.717 262.675 295.04C262.675 296.235 263.112 297.195 263.987 297.92C264.883 298.645 266.035 299.008 267.443 299.008C268.872 299.008 270.024 298.645 270.899 297.92C271.795 297.173 272.243 296.203 272.243 295.008ZM267.443 301.248C265.864 301.248 264.573 301.621 263.571 302.368C262.568 303.093 262.067 304.192 262.067 305.664C262.067 307.029 262.547 308.128 263.507 308.96C264.488 309.792 265.8 310.208 267.443 310.208C269.085 310.208 270.387 309.792 271.347 308.96C272.307 308.128 272.787 307.029 272.787 305.664C272.787 304.235 272.296 303.147 271.315 302.4C270.333 301.632 269.043 301.248 267.443 301.248ZM281.518 299.968C280.323 299.499 279.406 298.816 278.766 297.92C278.126 297.024 277.806 295.936 277.806 294.656C277.806 293.504 278.094 292.469 278.67 291.552C279.246 290.613 280.099 289.877 281.23 289.344C282.382 288.789 283.769 288.512 285.39 288.512C287.011 288.512 288.387 288.789 289.518 289.344C290.67 289.877 291.534 290.613 292.11 291.552C292.707 292.469 293.006 293.504 293.006 294.656C293.006 295.893 292.675 296.981 292.014 297.92C291.353 298.837 290.446 299.52 289.294 299.968C290.617 300.373 291.662 301.088 292.43 302.112C293.219 303.115 293.614 304.331 293.614 305.76C293.614 307.147 293.273 308.363 292.59 309.408C291.907 310.432 290.937 311.232 289.678 311.808C288.441 312.363 287.011 312.64 285.39 312.64C283.769 312.64 282.339 312.363 281.102 311.808C279.886 311.232 278.937 310.432 278.254 309.408C277.571 308.363 277.23 307.147 277.23 305.76C277.23 304.331 277.614 303.104 278.382 302.08C279.15 301.056 280.195 300.352 281.518 299.968ZM290.19 295.008C290.19 293.707 289.763 292.704 288.91 292C288.057 291.296 286.883 290.944 285.39 290.944C283.918 290.944 282.755 291.296 281.902 292C281.049 292.704 280.622 293.717 280.622 295.04C280.622 296.235 281.059 297.195 281.934 297.92C282.83 298.645 283.982 299.008 285.39 299.008C286.819 299.008 287.971 298.645 288.846 297.92C289.742 297.173 290.19 296.203 290.19 295.008ZM285.39 301.248C283.811 301.248 282.521 301.621 281.518 302.368C280.515 303.093 280.014 304.192 280.014 305.664C280.014 307.029 280.494 308.128 281.454 308.96C282.435 309.792 283.747 310.208 285.39 310.208C287.033 310.208 288.334 309.792 289.294 308.96C290.254 308.128 290.734 307.029 290.734 305.664C290.734 304.235 290.243 303.147 289.262 302.4C288.281 301.632 286.99 301.248 285.39 301.248ZM316.285 291.392H305.053V298.688C305.543 298.005 306.269 297.451 307.229 297.024C308.189 296.576 309.223 296.352 310.333 296.352C312.103 296.352 313.543 296.725 314.653 297.472C315.762 298.197 316.551 299.147 317.021 300.32C317.511 301.472 317.757 302.699 317.757 304C317.757 305.536 317.469 306.912 316.893 308.128C316.317 309.344 315.431 310.304 314.237 311.008C313.063 311.712 311.602 312.064 309.853 312.064C307.613 312.064 305.799 311.488 304.413 310.336C303.026 309.184 302.183 307.648 301.885 305.728H304.733C305.01 306.944 305.597 307.893 306.493 308.576C307.389 309.259 308.519 309.6 309.885 309.6C311.57 309.6 312.839 309.099 313.693 308.096C314.546 307.072 314.973 305.728 314.973 304.064C314.973 302.4 314.546 301.12 313.693 300.224C312.839 299.307 311.581 298.848 309.917 298.848C308.786 298.848 307.794 299.125 306.941 299.68C306.109 300.213 305.501 300.949 305.117 301.888H302.365V288.832H316.285V291.392ZM332.282 294.368C331.813 292 330.352 290.816 327.898 290.816C326 290.816 324.581 291.552 323.642 293.024C322.704 294.475 322.245 296.875 322.266 300.224C322.757 299.115 323.568 298.251 324.698 297.632C325.85 296.992 327.13 296.672 328.538 296.672C330.736 296.672 332.485 297.355 333.786 298.72C335.109 300.085 335.77 301.973 335.77 304.384C335.77 305.835 335.482 307.136 334.906 308.288C334.352 309.44 333.498 310.357 332.346 311.04C331.216 311.723 329.84 312.064 328.218 312.064C326.021 312.064 324.304 311.573 323.066 310.592C321.829 309.611 320.965 308.256 320.474 306.528C319.984 304.8 319.738 302.667 319.738 300.128C319.738 292.299 322.469 288.384 327.93 288.384C330.021 288.384 331.664 288.949 332.858 290.08C334.053 291.211 334.757 292.64 334.97 294.368H332.282ZM327.93 299.136C327.013 299.136 326.149 299.328 325.338 299.712C324.528 300.075 323.866 300.64 323.354 301.408C322.864 302.155 322.618 303.072 322.618 304.16C322.618 305.781 323.088 307.104 324.026 308.128C324.965 309.131 326.309 309.632 328.058 309.632C329.552 309.632 330.736 309.173 331.61 308.256C332.506 307.317 332.954 306.059 332.954 304.48C332.954 302.816 332.528 301.515 331.674 300.576C330.821 299.616 329.573 299.136 327.93 299.136ZM341.683 299.968C340.488 299.499 339.571 298.816 338.931 297.92C338.291 297.024 337.971 295.936 337.971 294.656C337.971 293.504 338.259 292.469 338.835 291.552C339.411 290.613 340.264 289.877 341.395 289.344C342.547 288.789 343.934 288.512 345.555 288.512C347.176 288.512 348.552 288.789 349.683 289.344C350.835 289.877 351.699 290.613 352.275 291.552C352.872 292.469 353.171 293.504 353.171 294.656C353.171 295.893 352.84 296.981 352.179 297.92C351.518 298.837 350.611 299.52 349.459 299.968C350.782 300.373 351.827 301.088 352.595 302.112C353.384 303.115 353.779 304.331 353.779 305.76C353.779 307.147 353.438 308.363 352.755 309.408C352.072 310.432 351.102 311.232 349.843 311.808C348.606 312.363 347.176 312.64 345.555 312.64C343.934 312.64 342.504 312.363 341.267 311.808C340.051 311.232 339.102 310.432 338.419 309.408C337.736 308.363 337.395 307.147 337.395 305.76C337.395 304.331 337.779 303.104 338.547 302.08C339.315 301.056 340.36 300.352 341.683 299.968ZM350.355 295.008C350.355 293.707 349.928 292.704 349.075 292C348.222 291.296 347.048 290.944 345.555 290.944C344.083 290.944 342.92 291.296 342.067 292C341.214 292.704 340.787 293.717 340.787 295.04C340.787 296.235 341.224 297.195 342.099 297.92C342.995 298.645 344.147 299.008 345.555 299.008C346.984 299.008 348.136 298.645 349.011 297.92C349.907 297.173 350.355 296.203 350.355 295.008ZM345.555 301.248C343.976 301.248 342.686 301.621 341.683 302.368C340.68 303.093 340.179 304.192 340.179 305.664C340.179 307.029 340.659 308.128 341.619 308.96C342.6 309.792 343.912 310.208 345.555 310.208C347.198 310.208 348.499 309.792 349.459 308.96C350.419 308.128 350.899 307.029 350.899 305.664C350.899 304.235 350.408 303.147 349.427 302.4C348.446 301.632 347.155 301.248 345.555 301.248ZM355.343 294.688C355.492 292.725 356.249 291.189 357.615 290.08C358.98 288.971 360.751 288.416 362.927 288.416C364.377 288.416 365.625 288.683 366.671 289.216C367.737 289.728 368.537 290.432 369.071 291.328C369.625 292.224 369.903 293.237 369.903 294.368C369.903 295.691 369.519 296.832 368.751 297.792C368.004 298.752 367.023 299.371 365.807 299.648V299.808C367.193 300.149 368.292 300.821 369.103 301.824C369.913 302.827 370.319 304.139 370.319 305.76C370.319 306.976 370.041 308.075 369.487 309.056C368.932 310.016 368.1 310.773 366.991 311.328C365.881 311.883 364.548 312.16 362.991 312.16C360.729 312.16 358.873 311.573 357.423 310.4C355.972 309.205 355.161 307.52 354.991 305.344H357.807C357.956 306.624 358.479 307.669 359.375 308.48C360.271 309.291 361.465 309.696 362.959 309.696C364.452 309.696 365.583 309.312 366.351 308.544C367.14 307.755 367.535 306.741 367.535 305.504C367.535 303.904 367.001 302.752 365.935 302.048C364.868 301.344 363.257 300.992 361.103 300.992H360.367V298.56H361.135C363.097 298.539 364.58 298.219 365.583 297.6C366.585 296.96 367.087 295.979 367.087 294.656C367.087 293.525 366.713 292.619 365.967 291.936C365.241 291.253 364.196 290.912 362.831 290.912C361.508 290.912 360.441 291.253 359.631 291.936C358.82 292.619 358.34 293.536 358.191 294.688H355.343Z" fill="#4042E2"/>
<g clip-path="url(#clip1)">
<path fill-rule="evenodd" clip-rule="evenodd" d="M124.384 309.522C125.75 310.123 125.777 310.757 125.801 311.329C125.822 311.797 125.82 312.333 125.82 312.868C125.82 313.403 125.615 314.274 124.794 315.009C123.973 315.746 121.989 317.821 117.953 317.821C113.916 317.821 110.016 314.942 109.468 314.541C108.921 314.14 100.374 308.985 97.0858 300.823C94.3531 294.039 94.8966 292.658 95.0334 291.186C95.1701 289.713 97.0174 286.434 98.9331 285.765C100.848 285.096 102.49 285.096 102.833 285.296C103.175 285.497 103.38 286.033 103.79 286.836C104.201 287.639 106.186 291.587 106.459 292.323C106.733 293.06 106.869 293.595 106.048 294.131C105.228 294.666 103.38 296.204 102.833 296.673C102.285 297.141 102.217 297.61 102.627 298.413C103.038 299.216 103.904 301.803 106.698 304.871C108.873 307.259 111.558 308.87 112.379 309.339C113.2 309.807 113.644 309.389 114.053 308.986C114.421 308.626 115.011 308.183 115.49 307.782C115.969 307.381 116.311 307.247 116.858 306.979C117.405 306.711 117.884 306.845 118.295 307.046C118.705 307.247 122.762 308.808 124.384 309.522Z" fill="#4042E2"/>
<path d="M133.263 277.762C139.538 284.061 142.996 292.436 143 301.36C143 319.748 128.107 334.713 109.802 334.72C103.95 334.722 98.2385 333.186 93.2036 330.267L76 335L80.6165 317.315C77.9711 312.443 76.5771 306.957 76.5749 301.374V301.36V301.36C76.5749 282.974 91.4704 268.008 109.775 268C118.646 267.997 126.988 271.464 133.263 277.762V277.762ZM82.1821 301.36V301.371C82.1847 306.347 83.5147 311.227 86.0291 315.483L86.6269 316.496L83.8877 326.99L94.0703 324.189L95.1142 324.849C99.508 327.624 104.586 329.09 109.8 329.088C125.014 329.082 137.392 316.644 137.392 301.349C137.389 293.943 134.515 286.982 129.3 281.746C124.084 276.511 117.151 273.631 109.777 273.633C94.5618 273.639 82.1821 286.078 82.1821 301.36Z" fill="#4042E2"/>
</g>
<path d="M193.376 161.832C193.376 159.656 193.867 157.704 194.848 155.976C195.829 154.227 197.163 152.861 198.848 151.88C200.555 150.899 202.443 150.408 204.512 150.408C206.944 150.408 209.067 150.995 210.88 152.168C212.693 153.341 214.016 155.005 214.848 157.16H211.36C210.741 155.816 209.845 154.781 208.672 154.056C207.52 153.331 206.133 152.968 204.512 152.968C202.955 152.968 201.557 153.331 200.32 154.056C199.083 154.781 198.112 155.816 197.408 157.16C196.704 158.483 196.352 160.04 196.352 161.832C196.352 163.603 196.704 165.16 197.408 166.504C198.112 167.827 199.083 168.851 200.32 169.576C201.557 170.301 202.955 170.664 204.512 170.664C206.133 170.664 207.52 170.312 208.672 169.608C209.845 168.883 210.741 167.848 211.36 166.504H214.848C214.016 168.637 212.693 170.291 210.88 171.464C209.067 172.616 206.944 173.192 204.512 173.192C202.443 173.192 200.555 172.712 198.848 171.752C197.163 170.771 195.829 169.416 194.848 167.688C193.867 165.96 193.376 164.008 193.376 161.832ZM224.591 173.288C222.948 173.288 221.455 172.915 220.111 172.168C218.788 171.421 217.743 170.365 216.975 169C216.228 167.613 215.855 166.013 215.855 164.2C215.855 162.408 216.239 160.829 217.007 159.464C217.796 158.077 218.863 157.021 220.207 156.296C221.551 155.549 223.055 155.176 224.719 155.176C226.383 155.176 227.887 155.549 229.231 156.296C230.575 157.021 231.631 158.067 232.399 159.432C233.188 160.797 233.583 162.387 233.583 164.2C233.583 166.013 233.177 167.613 232.367 169C231.577 170.365 230.5 171.421 229.135 172.168C227.769 172.915 226.255 173.288 224.591 173.288ZM224.591 170.728C225.636 170.728 226.617 170.483 227.535 169.992C228.452 169.501 229.188 168.765 229.743 167.784C230.319 166.803 230.607 165.608 230.607 164.2C230.607 162.792 230.329 161.597 229.775 160.616C229.22 159.635 228.495 158.909 227.599 158.44C226.703 157.949 225.732 157.704 224.687 157.704C223.62 157.704 222.639 157.949 221.743 158.44C220.868 158.909 220.164 159.635 219.631 160.616C219.097 161.597 218.831 162.792 218.831 164.2C218.831 165.629 219.087 166.835 219.599 167.816C220.132 168.797 220.836 169.533 221.711 170.024C222.585 170.493 223.545 170.728 224.591 170.728ZM238.084 158.312C238.596 157.309 239.321 156.531 240.26 155.976C241.22 155.421 242.382 155.144 243.748 155.144V158.152H242.98C239.716 158.152 238.084 159.923 238.084 163.464V173H235.172V155.464H238.084V158.312ZM243.781 164.168C243.781 162.376 244.144 160.808 244.869 159.464C245.594 158.099 246.586 157.043 247.845 156.296C249.125 155.549 250.554 155.176 252.133 155.176C253.498 155.176 254.768 155.496 255.941 156.136C257.114 156.755 258.01 157.576 258.629 158.6V149.32H261.573V173H258.629V169.704C258.053 170.749 257.2 171.613 256.069 172.296C254.938 172.957 253.616 173.288 252.101 173.288C250.544 173.288 249.125 172.904 247.845 172.136C246.586 171.368 245.594 170.291 244.869 168.904C244.144 167.517 243.781 165.939 243.781 164.168ZM258.629 164.2C258.629 162.877 258.362 161.725 257.829 160.744C257.296 159.763 256.57 159.016 255.653 158.504C254.757 157.971 253.765 157.704 252.677 157.704C251.589 157.704 250.597 157.96 249.701 158.472C248.805 158.984 248.09 159.731 247.557 160.712C247.024 161.693 246.757 162.845 246.757 164.168C246.757 165.512 247.024 166.685 247.557 167.688C248.09 168.669 248.805 169.427 249.701 169.96C250.597 170.472 251.589 170.728 252.677 170.728C253.765 170.728 254.757 170.472 255.653 169.96C256.57 169.427 257.296 168.669 257.829 167.688C258.362 166.685 258.629 165.523 258.629 164.2ZM271.902 173.288C270.259 173.288 268.766 172.915 267.422 172.168C266.099 171.421 265.054 170.365 264.286 169C263.539 167.613 263.166 166.013 263.166 164.2C263.166 162.408 263.55 160.829 264.318 159.464C265.107 158.077 266.174 157.021 267.518 156.296C268.862 155.549 270.366 155.176 272.03 155.176C273.694 155.176 275.198 155.549 276.542 156.296C277.886 157.021 278.942 158.067 279.71 159.432C280.499 160.797 280.894 162.387 280.894 164.2C280.894 166.013 280.489 167.613 279.678 169C278.889 170.365 277.811 171.421 276.446 172.168C275.081 172.915 273.566 173.288 271.902 173.288ZM271.902 170.728C272.947 170.728 273.929 170.483 274.846 169.992C275.763 169.501 276.499 168.765 277.054 167.784C277.63 166.803 277.918 165.608 277.918 164.2C277.918 162.792 277.641 161.597 277.086 160.616C276.531 159.635 275.806 158.909 274.91 158.44C274.014 157.949 273.043 157.704 271.998 157.704C270.931 157.704 269.95 157.949 269.054 158.44C268.179 158.909 267.475 159.635 266.942 160.616C266.409 161.597 266.142 162.792 266.142 164.2C266.142 165.629 266.398 166.835 266.91 167.816C267.443 168.797 268.147 169.533 269.022 170.024C269.897 170.493 270.857 170.728 271.902 170.728ZM285.395 158.728C285.992 157.683 286.867 156.829 288.019 156.168C289.171 155.507 290.483 155.176 291.955 155.176C293.533 155.176 294.952 155.549 296.211 156.296C297.469 157.043 298.461 158.099 299.187 159.464C299.912 160.808 300.275 162.376 300.275 164.168C300.275 165.939 299.912 167.517 299.187 168.904C298.461 170.291 297.459 171.368 296.179 172.136C294.92 172.904 293.512 173.288 291.955 173.288C290.44 173.288 289.107 172.957 287.955 172.296C286.824 171.635 285.971 170.792 285.395 169.768V173H282.483V149.32H285.395V158.728ZM297.299 164.168C297.299 162.845 297.032 161.693 296.499 160.712C295.965 159.731 295.24 158.984 294.323 158.472C293.427 157.96 292.435 157.704 291.347 157.704C290.28 157.704 289.288 157.971 288.371 158.504C287.475 159.016 286.749 159.773 286.195 160.776C285.661 161.757 285.395 162.899 285.395 164.2C285.395 165.523 285.661 166.685 286.195 167.688C286.749 168.669 287.475 169.427 288.371 169.96C289.288 170.472 290.28 170.728 291.347 170.728C292.435 170.728 293.427 170.472 294.323 169.96C295.24 169.427 295.965 168.669 296.499 167.688C297.032 166.685 297.299 165.512 297.299 164.168ZM300.78 164.168C300.78 162.376 301.142 160.808 301.868 159.464C302.593 158.099 303.585 157.043 304.844 156.296C306.124 155.549 307.542 155.176 309.1 155.176C310.636 155.176 311.969 155.507 313.1 156.168C314.23 156.829 315.073 157.661 315.628 158.664V155.464H318.572V173H315.628V169.736C315.052 170.76 314.188 171.613 313.036 172.296C311.905 172.957 310.582 173.288 309.068 173.288C307.51 173.288 306.102 172.904 304.844 172.136C303.585 171.368 302.593 170.291 301.868 168.904C301.142 167.517 300.78 165.939 300.78 164.168ZM315.628 164.2C315.628 162.877 315.361 161.725 314.828 160.744C314.294 159.763 313.569 159.016 312.652 158.504C311.756 157.971 310.764 157.704 309.676 157.704C308.588 157.704 307.596 157.96 306.7 158.472C305.804 158.984 305.089 159.731 304.556 160.712C304.022 161.693 303.756 162.845 303.756 164.168C303.756 165.512 304.022 166.685 304.556 167.688C305.089 168.669 305.804 169.427 306.7 169.96C307.596 170.472 308.588 170.728 309.676 170.728C310.764 170.728 311.756 170.472 312.652 169.96C313.569 169.427 314.294 168.669 314.828 167.688C315.361 166.685 315.628 165.523 315.628 164.2ZM324.261 168.968L320.677 177.576H318.725L321.061 168.968H324.261ZM344.832 168.04H335.104L333.312 173H330.24L338.304 150.824H341.664L349.696 173H346.624L344.832 168.04ZM344 165.672L339.968 154.408L335.936 165.672H344ZM353.882 158.312C354.394 157.309 355.12 156.531 356.058 155.976C357.018 155.421 358.181 155.144 359.546 155.144V158.152H358.778C355.514 158.152 353.882 159.923 353.882 163.464V173H350.97V155.464H353.882V158.312ZM367.9 155.176C369.414 155.176 370.737 155.507 371.868 156.168C373.02 156.829 373.873 157.661 374.428 158.664V155.464H377.372V173.384C377.372 174.984 377.03 176.403 376.348 177.64C375.665 178.899 374.684 179.88 373.404 180.584C372.145 181.288 370.673 181.64 368.988 181.64C366.684 181.64 364.764 181.096 363.228 180.008C361.692 178.92 360.785 177.437 360.508 175.56H363.388C363.708 176.627 364.369 177.48 365.372 178.12C366.374 178.781 367.58 179.112 368.988 179.112C370.588 179.112 371.889 178.611 372.892 177.608C373.916 176.605 374.428 175.197 374.428 173.384V169.704C373.852 170.728 372.998 171.581 371.868 172.264C370.737 172.947 369.414 173.288 367.9 173.288C366.342 173.288 364.924 172.904 363.644 172.136C362.385 171.368 361.393 170.291 360.668 168.904C359.942 167.517 359.58 165.939 359.58 164.168C359.58 162.376 359.942 160.808 360.668 159.464C361.393 158.099 362.385 157.043 363.644 156.296C364.924 155.549 366.342 155.176 367.9 155.176ZM374.428 164.2C374.428 162.877 374.161 161.725 373.628 160.744C373.094 159.763 372.369 159.016 371.452 158.504C370.556 157.971 369.564 157.704 368.476 157.704C367.388 157.704 366.396 157.96 365.5 158.472C364.604 158.984 363.889 159.731 363.356 160.712C362.822 161.693 362.556 162.845 362.556 164.168C362.556 165.512 362.822 166.685 363.356 167.688C363.889 168.669 364.604 169.427 365.5 169.96C366.396 170.472 367.388 170.728 368.476 170.728C369.564 170.728 370.556 170.472 371.452 169.96C372.369 169.427 373.094 168.669 373.628 167.688C374.161 166.685 374.428 165.523 374.428 164.2ZM396.053 163.56C396.053 164.115 396.021 164.701 395.957 165.32H381.941C382.047 167.048 382.634 168.403 383.701 169.384C384.789 170.344 386.101 170.824 387.637 170.824C388.895 170.824 389.941 170.536 390.773 169.96C391.626 169.363 392.223 168.573 392.565 167.592H395.701C395.231 169.277 394.293 170.653 392.885 171.72C391.477 172.765 389.727 173.288 387.637 173.288C385.973 173.288 384.479 172.915 383.157 172.168C381.855 171.421 380.831 170.365 380.085 169C379.338 167.613 378.965 166.013 378.965 164.2C378.965 162.387 379.327 160.797 380.053 159.432C380.778 158.067 381.791 157.021 383.093 156.296C384.415 155.549 385.93 155.176 387.637 155.176C389.301 155.176 390.773 155.539 392.053 156.264C393.333 156.989 394.314 157.992 394.997 159.272C395.701 160.531 396.053 161.96 396.053 163.56ZM393.045 162.952C393.045 161.843 392.799 160.893 392.309 160.104C391.818 159.293 391.146 158.685 390.293 158.28C389.461 157.853 388.533 157.64 387.509 157.64C386.037 157.64 384.778 158.109 383.733 159.048C382.709 159.987 382.122 161.288 381.973 162.952H393.045ZM406.201 155.144C408.334 155.144 410.062 155.795 411.385 157.096C412.707 158.376 413.369 160.232 413.369 162.664V173H410.489V163.08C410.489 161.331 410.051 159.997 409.177 159.08C408.302 158.141 407.107 157.672 405.593 157.672C404.057 157.672 402.83 158.152 401.913 159.112C401.017 160.072 400.569 161.469 400.569 163.304V173H397.657V155.464H400.569V157.96C401.145 157.064 401.923 156.371 402.905 155.88C403.907 155.389 405.006 155.144 406.201 155.144ZM419.437 157.864V168.2C419.437 169.053 419.619 169.661 419.981 170.024C420.344 170.365 420.973 170.536 421.869 170.536H424.013V173H421.389C419.768 173 418.552 172.627 417.741 171.88C416.931 171.133 416.525 169.907 416.525 168.2V157.864H414.253V155.464H416.525V151.048H419.437V155.464H424.013V157.864H419.437ZM426.805 152.616C426.251 152.616 425.781 152.424 425.397 152.04C425.013 151.656 424.821 151.187 424.821 150.632C424.821 150.077 425.013 149.608 425.397 149.224C425.781 148.84 426.251 148.648 426.805 148.648C427.339 148.648 427.787 148.84 428.149 149.224C428.533 149.608 428.725 150.077 428.725 150.632C428.725 151.187 428.533 151.656 428.149 152.04C427.787 152.424 427.339 152.616 426.805 152.616ZM428.213 155.464V173H425.301V155.464H428.213ZM439.481 155.144C441.614 155.144 443.342 155.795 444.665 157.096C445.987 158.376 446.649 160.232 446.649 162.664V173H443.769V163.08C443.769 161.331 443.331 159.997 442.457 159.08C441.582 158.141 440.387 157.672 438.873 157.672C437.337 157.672 436.11 158.152 435.193 159.112C434.297 160.072 433.849 161.469 433.849 163.304V173H430.937V155.464H433.849V157.96C434.425 157.064 435.203 156.371 436.185 155.88C437.187 155.389 438.286 155.144 439.481 155.144ZM448.077 164.168C448.077 162.376 448.44 160.808 449.165 159.464C449.891 158.099 450.883 157.043 452.141 156.296C453.421 155.549 454.84 155.176 456.397 155.176C457.933 155.176 459.267 155.507 460.397 156.168C461.528 156.829 462.371 157.661 462.925 158.664V155.464H465.869V173H462.925V169.736C462.349 170.76 461.485 171.613 460.333 172.296C459.203 172.957 457.88 173.288 456.365 173.288C454.808 173.288 453.4 172.904 452.141 172.136C450.883 171.368 449.891 170.291 449.165 168.904C448.44 167.517 448.077 165.939 448.077 164.168ZM462.925 164.2C462.925 162.877 462.659 161.725 462.125 160.744C461.592 159.763 460.867 159.016 459.949 158.504C459.053 157.971 458.061 157.704 456.973 157.704C455.885 157.704 454.893 157.96 453.997 158.472C453.101 158.984 452.387 159.731 451.853 160.712C451.32 161.693 451.053 162.845 451.053 164.168C451.053 165.512 451.32 166.685 451.853 167.688C452.387 168.669 453.101 169.427 453.997 169.96C454.893 170.472 455.885 170.728 456.973 170.728C458.061 170.728 459.053 170.472 459.949 169.96C460.867 169.427 461.592 168.669 462.125 167.688C462.659 166.685 462.925 165.523 462.925 164.2Z" fill="#4042E2"/>
<g clip-path="url(#clip2)">
<path d="M103.814 202.325C80.3545 168.179 76 164.674 76 152.125C76 134.935 89.8791 121 107 121C124.121 121 138 134.935 138 152.125C138 164.674 133.645 168.179 110.186 202.325C108.646 204.558 105.353 204.558 103.814 202.325ZM107 165.094C114.134 165.094 119.917 159.287 119.917 152.125C119.917 144.963 114.134 139.156 107 139.156C99.8663 139.156 94.0833 144.963 94.0833 152.125C94.0833 159.287 99.8663 165.094 107 165.094Z" fill="#4042E2"/>
</g>
<defs>
<clipPath id="clip0">
<rect width="67" height="64" fill="white" transform="matrix(-1 0 0 1 141 399)"/>
</clipPath>
<clipPath id="clip1">
<rect width="67" height="67" fill="white" transform="matrix(0 -1 -1 0 143 335)"/>
</clipPath>
<clipPath id="clip2">
<rect width="62" height="83" fill="white" transform="translate(76 121)"/>
</clipPath>
</defs>
</svg>
