<svg width="293" height="353" viewBox="0 0 293 353" fill="none" xmlns="http://www.w3.org/2000/svg">
<path d="M2.04 234V216.96H7.944C9.768 216.96 11.288 217.344 12.504 218.112C13.736 218.864 14.656 219.888 15.264 221.184C15.872 222.464 16.176 223.888 16.176 225.456C16.176 227.184 15.84 228.688 15.168 229.968C14.496 231.248 13.544 232.24 12.312 232.944C11.08 233.648 9.624 234 7.944 234H2.04ZM13.992 225.456C13.992 224.176 13.752 223.04 13.272 222.048C12.808 221.056 12.128 220.28 11.232 219.72C10.336 219.16 9.24 218.88 7.944 218.88H4.2V232.08H7.944C9.256 232.08 10.36 231.792 11.256 231.216C12.152 230.624 12.832 229.832 13.296 228.84C13.76 227.832 13.992 226.704 13.992 225.456ZM24.4277 234.24C23.1797 234.24 22.0757 233.944 21.1157 233.352C20.1557 232.76 19.4037 231.968 18.8597 230.976C18.3157 229.984 18.0437 228.904 18.0437 227.736C18.0437 226.552 18.3157 225.472 18.8597 224.496C19.4037 223.52 20.1557 222.736 21.1157 222.144C22.0917 221.552 23.2037 221.256 24.4517 221.256C25.7157 221.256 26.8117 221.56 27.7397 222.168C28.6837 222.76 29.4117 223.544 29.9237 224.52C30.4517 225.48 30.7157 226.52 30.7157 227.64C30.7157 227.992 30.6997 228.264 30.6677 228.456H20.2757C20.3397 229.272 20.5637 230 20.9477 230.64C21.3477 231.264 21.8597 231.76 22.4837 232.128C23.1077 232.48 23.7797 232.656 24.4997 232.656C25.2677 232.656 25.9877 232.464 26.6597 232.08C27.3477 231.696 27.8197 231.192 28.0757 230.568L29.8997 231.072C29.4997 232 28.8037 232.76 27.8117 233.352C26.8197 233.944 25.6917 234.24 24.4277 234.24ZM20.2037 226.992H28.7477C28.6837 226.176 28.4517 225.456 28.0517 224.832C27.6517 224.208 27.1397 223.72 26.5157 223.368C25.8917 223.016 25.2037 222.84 24.4517 222.84C23.7157 222.84 23.0357 223.016 22.4117 223.368C21.7877 223.72 21.2757 224.208 20.8757 224.832C20.4917 225.456 20.2677 226.176 20.2037 226.992ZM37.3594 234.24C36.3194 234.24 35.3434 234.072 34.4314 233.736C33.5194 233.384 32.7354 232.864 32.0794 232.176L32.8954 230.688C33.6154 231.36 34.3354 231.84 35.0554 232.128C35.7754 232.416 36.5114 232.56 37.2634 232.56C38.1274 232.56 38.8314 232.4 39.3754 232.08C39.9194 231.744 40.1914 231.256 40.1914 230.616C40.1914 230.152 40.0474 229.808 39.7594 229.584C39.4874 229.36 39.0954 229.176 38.5834 229.032C38.0714 228.872 37.4634 228.696 36.7594 228.504C35.4634 228.136 34.4714 227.704 33.7834 227.208C33.1114 226.696 32.7754 225.952 32.7754 224.976C32.7754 223.792 33.2234 222.88 34.1194 222.24C35.0314 221.584 36.1914 221.256 37.5994 221.256C39.4874 221.256 40.9754 221.824 42.0634 222.96L41.1034 224.424C40.1274 223.416 38.9194 222.912 37.4794 222.912C37.0474 222.912 36.6234 222.968 36.2074 223.08C35.7914 223.176 35.4474 223.36 35.1754 223.632C34.9034 223.888 34.7674 224.256 34.7674 224.736C34.7674 225.328 35.0074 225.752 35.4874 226.008C35.9674 226.264 36.6714 226.528 37.5994 226.8C38.5434 227.072 39.3594 227.344 40.0474 227.616C40.7514 227.888 41.2954 228.24 41.6794 228.672C42.0634 229.104 42.2554 229.704 42.2554 230.472C42.2554 231.656 41.8074 232.584 40.9114 233.256C40.0154 233.912 38.8314 234.24 37.3594 234.24ZM43.7981 230.376C43.7981 229.576 44.0221 228.888 44.4701 228.312C44.9341 227.72 45.5661 227.264 46.3661 226.944C47.1661 226.624 48.0941 226.464 49.1501 226.464C49.7101 226.464 50.3021 226.512 50.9261 226.608C51.5501 226.688 52.1021 226.816 52.5821 226.992V226.08C52.5821 225.12 52.2941 224.368 51.7181 223.824C51.1421 223.264 50.3261 222.984 49.2701 222.984C48.5821 222.984 47.9181 223.112 47.2781 223.368C46.6541 223.608 45.9901 223.96 45.2861 224.424L44.5181 222.936C45.3341 222.376 46.1501 221.96 46.9661 221.688C47.7821 221.4 48.6301 221.256 49.5101 221.256C51.1101 221.256 52.3741 221.704 53.3021 222.6C54.2301 223.48 54.6941 224.712 54.6941 226.296V231.6C54.6941 232.096 54.9181 232.352 55.3661 232.368V234C55.1581 234.032 54.9741 234.056 54.8141 234.072C54.6701 234.088 54.5501 234.096 54.4541 234.096C53.9581 234.096 53.5821 233.96 53.3261 233.688C53.0861 233.416 52.9501 233.128 52.9181 232.824L52.8701 232.032C52.3261 232.736 51.6141 233.28 50.7341 233.664C49.8541 234.048 48.9821 234.24 48.1181 234.24C47.2861 234.24 46.5421 234.072 45.8861 233.736C45.2301 233.384 44.7181 232.92 44.3501 232.344C43.9821 231.752 43.7981 231.096 43.7981 230.376ZM51.9581 231.264C52.1501 231.04 52.3021 230.816 52.4141 230.592C52.5261 230.352 52.5821 230.152 52.5821 229.992V228.432C51.5581 228.032 50.5021 227.832 49.4141 227.832C48.3421 227.832 47.4701 228.048 46.7981 228.48C46.1421 228.896 45.8141 229.472 45.8141 230.208C45.8141 230.608 45.9181 231 46.1261 231.384C46.3501 231.752 46.6701 232.056 47.0861 232.296C47.5181 232.536 48.0461 232.656 48.6701 232.656C49.3261 232.656 49.9501 232.528 50.5421 232.272C51.1341 232 51.6061 231.664 51.9581 231.264ZM64.6952 223.32C63.6392 223.336 62.7032 223.608 61.8872 224.136C61.0872 224.648 60.5192 225.36 60.1832 226.272V234H58.0712V221.472H60.0392V224.376C60.4712 223.512 61.0392 222.816 61.7432 222.288C62.4632 221.744 63.2152 221.44 63.9992 221.376C64.1592 221.376 64.2952 221.376 64.4072 221.376C64.5192 221.376 64.6152 221.384 64.6952 221.4V223.32ZM73.4139 223.32C72.3579 223.336 71.4219 223.608 70.6059 224.136C69.8059 224.648 69.2379 225.36 68.9019 226.272V234H66.7899V221.472H68.7579V224.376C69.1899 223.512 69.7579 222.816 70.4619 222.288C71.1819 221.744 71.9339 221.44 72.7179 221.376C72.8779 221.376 73.0139 221.376 73.1259 221.376C73.2379 221.376 73.3339 221.384 73.4139 221.4V223.32ZM80.6994 234.24C79.4514 234.24 78.3474 233.944 77.3874 233.352C76.4434 232.744 75.7074 231.952 75.1794 230.976C74.6514 229.984 74.3874 228.912 74.3874 227.76C74.3874 226.592 74.6514 225.52 75.1794 224.544C75.7234 223.552 76.4674 222.76 77.4114 222.168C78.3714 221.56 79.4674 221.256 80.6994 221.256C81.9474 221.256 83.0434 221.56 83.9874 222.168C84.9474 222.76 85.6914 223.552 86.2194 224.544C86.7634 225.52 87.0354 226.592 87.0354 227.76C87.0354 228.912 86.7634 229.984 86.2194 230.976C85.6914 231.952 84.9554 232.744 84.0114 233.352C83.0674 233.944 81.9634 234.24 80.6994 234.24ZM76.5474 227.784C76.5474 228.648 76.7314 229.432 77.0994 230.136C77.4834 230.84 77.9874 231.4 78.6114 231.816C79.2354 232.216 79.9314 232.416 80.6994 232.416C81.4674 232.416 82.1634 232.208 82.7874 231.792C83.4274 231.376 83.9314 230.816 84.2994 230.112C84.6834 229.392 84.8754 228.6 84.8754 227.736C84.8754 226.872 84.6834 226.088 84.2994 225.384C83.9314 224.68 83.4274 224.12 82.7874 223.704C82.1634 223.288 81.4674 223.08 80.6994 223.08C79.9314 223.08 79.2354 223.296 78.6114 223.728C77.9874 224.144 77.4834 224.704 77.0994 225.408C76.7314 226.112 76.5474 226.904 76.5474 227.784ZM89.6426 216.48H91.7546V230.76C91.7546 231.448 91.8506 231.872 92.0426 232.032C92.2346 232.192 92.4666 232.272 92.7386 232.272C93.0746 232.272 93.3946 232.24 93.6986 232.176C94.0026 232.096 94.2586 232.016 94.4666 231.936L94.8026 233.664C94.4506 233.808 94.0346 233.928 93.5546 234.024C93.0746 234.12 92.6506 234.168 92.2826 234.168C91.4666 234.168 90.8186 233.936 90.3386 233.472C89.8746 233.008 89.6426 232.36 89.6426 231.528V216.48ZM96.5098 216.48H98.6218V230.76C98.6218 231.448 98.7178 231.872 98.9098 232.032C99.1018 232.192 99.3338 232.272 99.6058 232.272C99.9418 232.272 100.262 232.24 100.566 232.176C100.87 232.096 101.126 232.016 101.334 231.936L101.67 233.664C101.318 233.808 100.902 233.928 100.422 234.024C99.9418 234.12 99.5178 234.168 99.1498 234.168C98.3338 234.168 97.6858 233.936 97.2058 233.472C96.7418 233.008 96.5098 232.36 96.5098 231.528V216.48ZM108.801 234.24C107.553 234.24 106.449 233.944 105.489 233.352C104.545 232.744 103.809 231.952 103.281 230.976C102.753 229.984 102.489 228.912 102.489 227.76C102.489 226.592 102.753 225.52 103.281 224.544C103.825 223.552 104.569 222.76 105.513 222.168C106.473 221.56 107.569 221.256 108.801 221.256C110.049 221.256 111.145 221.56 112.089 222.168C113.049 222.76 113.793 223.552 114.321 224.544C114.865 225.52 115.137 226.592 115.137 227.76C115.137 228.912 114.865 229.984 114.321 230.976C113.793 231.952 113.057 232.744 112.113 233.352C111.169 233.944 110.065 234.24 108.801 234.24ZM104.649 227.784C104.649 228.648 104.833 229.432 105.201 230.136C105.585 230.84 106.089 231.4 106.713 231.816C107.337 232.216 108.033 232.416 108.801 232.416C109.569 232.416 110.265 232.208 110.889 231.792C111.529 231.376 112.033 230.816 112.401 230.112C112.785 229.392 112.977 228.6 112.977 227.736C112.977 226.872 112.785 226.088 112.401 225.384C112.033 224.68 111.529 224.12 110.889 223.704C110.265 223.288 109.569 223.08 108.801 223.08C108.033 223.08 107.337 223.296 106.713 223.728C106.089 224.144 105.585 224.704 105.201 225.408C104.833 226.112 104.649 226.904 104.649 227.784ZM138.839 234V220.992L133.223 231H131.903L126.263 220.992V234H124.103V216.96H126.383L132.551 228.024L138.743 216.96H140.999V234H138.839ZM150.004 234.24C148.756 234.24 147.652 233.944 146.692 233.352C145.748 232.744 145.012 231.952 144.484 230.976C143.956 229.984 143.692 228.912 143.692 227.76C143.692 226.592 143.956 225.52 144.484 224.544C145.028 223.552 145.772 222.76 146.716 222.168C147.676 221.56 148.772 221.256 150.004 221.256C151.252 221.256 152.348 221.56 153.292 222.168C154.252 222.76 154.996 223.552 155.524 224.544C156.068 225.52 156.34 226.592 156.34 227.76C156.34 228.912 156.068 229.984 155.524 230.976C154.996 231.952 154.26 232.744 153.316 233.352C152.372 233.944 151.268 234.24 150.004 234.24ZM145.852 227.784C145.852 228.648 146.036 229.432 146.404 230.136C146.788 230.84 147.292 231.4 147.916 231.816C148.54 232.216 149.236 232.416 150.004 232.416C150.772 232.416 151.468 232.208 152.092 231.792C152.732 231.376 153.236 230.816 153.604 230.112C153.988 229.392 154.18 228.6 154.18 227.736C154.18 226.872 153.988 226.088 153.604 225.384C153.236 224.68 152.732 224.12 152.092 223.704C151.468 223.288 150.772 223.08 150.004 223.08C149.236 223.08 148.54 223.296 147.916 223.728C147.292 224.144 146.788 224.704 146.404 225.408C146.036 226.112 145.852 226.904 145.852 227.784ZM162.077 234L157.157 221.472H159.365L163.301 231.984L167.237 221.472H169.301L164.381 234H162.077ZM171.415 219.12V216.48H173.527V219.12H171.415ZM171.415 234V221.472H173.527V234H171.415ZM176.994 216.48H179.106V230.76C179.106 231.448 179.202 231.872 179.394 232.032C179.586 232.192 179.818 232.272 180.09 232.272C180.426 232.272 180.746 232.24 181.05 232.176C181.354 232.096 181.61 232.016 181.818 231.936L182.154 233.664C181.802 233.808 181.386 233.928 180.906 234.024C180.426 234.12 180.002 234.168 179.634 234.168C178.818 234.168 178.17 233.936 177.69 233.472C177.226 233.008 176.994 232.36 176.994 231.528V216.48Z" fill="black"/>
<path d="M0.756 263.52C0.756 262.752 0.888 261.99 1.152 261.234C1.428 260.478 1.824 259.794 2.34 259.182C2.856 258.558 3.492 258.066 4.248 257.706C5.004 257.334 5.862 257.148 6.822 257.148C7.95 257.148 8.922 257.412 9.738 257.94C10.554 258.456 11.154 259.122 11.538 259.938L10.548 260.55C10.272 259.986 9.924 259.542 9.504 259.218C9.084 258.882 8.634 258.642 8.154 258.498C7.686 258.354 7.218 258.282 6.75 258.282C5.982 258.282 5.304 258.438 4.716 258.75C4.128 259.05 3.63 259.458 3.222 259.974C2.826 260.49 2.526 261.06 2.322 261.684C2.118 262.308 2.016 262.944 2.016 263.592C2.016 264.3 2.136 264.978 2.376 265.626C2.616 266.262 2.952 266.832 3.384 267.336C3.816 267.84 4.32 268.242 4.896 268.542C5.484 268.83 6.12 268.974 6.804 268.974C7.284 268.974 7.776 268.89 8.28 268.722C8.784 268.554 9.252 268.296 9.684 267.948C10.116 267.6 10.47 267.15 10.746 266.598L11.79 267.138C11.514 267.774 11.1 268.314 10.548 268.758C10.008 269.202 9.396 269.538 8.712 269.766C8.04 269.994 7.38 270.108 6.732 270.108C5.856 270.108 5.052 269.922 4.32 269.55C3.588 269.166 2.952 268.662 2.412 268.038C1.884 267.402 1.476 266.694 1.188 265.914C0.9 265.122 0.756 264.324 0.756 263.52ZM18.3698 261.702C17.5538 261.726 16.8338 261.954 16.2098 262.386C15.5978 262.818 15.1658 263.412 14.9138 264.168V270H13.6898V260.622H14.8418V262.872C15.1658 262.212 15.5918 261.678 16.1198 261.27C16.6598 260.862 17.2298 260.634 17.8298 260.586C17.9498 260.574 18.0518 260.568 18.1358 260.568C18.2198 260.568 18.2978 260.574 18.3698 260.586V261.702ZM23.7691 270.18C22.8691 270.18 22.0651 269.958 21.3571 269.514C20.6491 269.07 20.0911 268.476 19.6831 267.732C19.2751 266.988 19.0711 266.172 19.0711 265.284C19.0711 264.408 19.2691 263.604 19.6651 262.872C20.0731 262.14 20.6311 261.558 21.3391 261.126C22.0471 260.682 22.8511 260.46 23.7511 260.46C24.6751 260.46 25.4851 260.682 26.1811 261.126C26.8771 261.57 27.4171 262.158 27.8011 262.89C28.1971 263.61 28.3951 264.402 28.3951 265.266C28.3951 265.458 28.3891 265.62 28.3771 265.752H20.3491C20.4091 266.424 20.6011 267.024 20.9251 267.552C21.2491 268.068 21.6631 268.482 22.1671 268.794C22.6711 269.094 23.2231 269.244 23.8231 269.244C24.4351 269.244 25.0111 269.088 25.5511 268.776C26.0911 268.464 26.4751 268.056 26.7031 267.552L27.7651 267.84C27.5731 268.296 27.2731 268.704 26.8651 269.064C26.4691 269.412 26.0071 269.688 25.4791 269.892C24.9511 270.084 24.3811 270.18 23.7691 270.18ZM20.3131 264.87H27.2431C27.1951 264.198 27.0091 263.604 26.6851 263.088C26.3611 262.56 25.9471 262.152 25.4431 261.864C24.9391 261.564 24.3811 261.414 23.7691 261.414C23.1571 261.414 22.5991 261.564 22.0951 261.864C21.5911 262.152 21.1771 262.56 20.8531 263.088C20.5411 263.604 20.3611 264.198 20.3131 264.87ZM29.5276 267.3C29.5276 266.724 29.6956 266.226 30.0316 265.806C30.3676 265.374 30.8296 265.038 31.4176 264.798C32.0176 264.558 32.7076 264.438 33.4876 264.438C33.9436 264.438 34.4176 264.48 34.9096 264.564C35.4016 264.636 35.8396 264.738 36.2236 264.87V264.078C36.2236 263.286 35.9896 262.656 35.5216 262.188C35.0536 261.72 34.4056 261.486 33.5776 261.486C33.0856 261.486 32.5936 261.582 32.1016 261.774C31.6096 261.954 31.0996 262.224 30.5716 262.584L30.1036 261.72C30.7156 261.3 31.3156 260.988 31.9036 260.784C32.4916 260.568 33.0916 260.46 33.7036 260.46C34.8556 260.46 35.7676 260.79 36.4396 261.45C37.1116 262.11 37.4476 263.022 37.4476 264.186V268.524C37.4476 268.848 37.5976 269.016 37.8976 269.028V270C37.6336 270.036 37.4476 270.048 37.3396 270.036C37.0396 270.024 36.8116 269.928 36.6556 269.748C36.4996 269.568 36.4156 269.376 36.4036 269.172L36.3856 268.488C35.9656 269.028 35.4196 269.448 34.7476 269.748C34.0756 270.036 33.3916 270.18 32.6956 270.18C32.0836 270.18 31.5376 270.054 31.0576 269.802C30.5776 269.538 30.1996 269.19 29.9236 268.758C29.6596 268.314 29.5276 267.828 29.5276 267.3ZM35.8096 268.02C36.0856 267.696 36.2236 267.396 36.2236 267.12V265.752C35.3956 265.428 34.5316 265.266 33.6316 265.266C32.7556 265.266 32.0476 265.44 31.5076 265.788C30.9676 266.136 30.6976 266.61 30.6976 267.21C30.6976 267.726 30.8956 268.194 31.2916 268.614C31.6996 269.034 32.2636 269.244 32.9836 269.244C33.5716 269.244 34.1176 269.13 34.6216 268.902C35.1376 268.674 35.5336 268.38 35.8096 268.02ZM54.0422 270H52.8182V264.762C52.8182 263.682 52.6442 262.884 52.2962 262.368C51.9482 261.84 51.4322 261.576 50.7482 261.576C50.0282 261.576 49.3922 261.828 48.8402 262.332C48.2882 262.836 47.8982 263.484 47.6702 264.276V270H46.4462V264.762C46.4462 263.658 46.2722 262.854 45.9242 262.35C45.5882 261.834 45.0782 261.576 44.3942 261.576C43.6862 261.576 43.0502 261.822 42.4862 262.314C41.9342 262.806 41.5442 263.454 41.3162 264.258V270H40.0922V260.622H41.2082V262.746C41.5922 262.026 42.0962 261.468 42.7202 261.072C43.3442 260.664 44.0342 260.46 44.7902 260.46C45.5702 260.46 46.2002 260.688 46.6802 261.144C47.1602 261.588 47.4542 262.164 47.5622 262.872C48.4262 261.264 49.6322 260.46 51.1802 260.46C52.2362 260.46 52.9742 260.832 53.3942 261.576C53.8262 262.308 54.0422 263.286 54.0422 264.51V270ZM60.6292 270.18C59.7292 270.18 58.9252 269.958 58.2172 269.514C57.5212 269.07 56.9752 268.482 56.5792 267.75C56.1832 267.006 55.9852 266.202 55.9852 265.338C55.9852 264.462 56.1832 263.658 56.5792 262.926C56.9872 262.182 57.5392 261.588 58.2352 261.144C58.9432 260.688 59.7412 260.46 60.6292 260.46C61.5292 260.46 62.3272 260.688 63.0232 261.144C63.7312 261.588 64.2832 262.182 64.6792 262.926C65.0872 263.658 65.2912 264.462 65.2912 265.338C65.2912 266.202 65.0932 267.006 64.6972 267.75C64.3012 268.482 63.7492 269.07 63.0412 269.514C62.3452 269.958 61.5412 270.18 60.6292 270.18ZM57.2272 265.356C57.2272 266.052 57.3772 266.688 57.6772 267.264C57.9892 267.828 58.4032 268.278 58.9192 268.614C59.4352 268.938 60.0052 269.1 60.6292 269.1C61.2532 269.1 61.8232 268.932 62.3392 268.596C62.8552 268.26 63.2692 267.804 63.5812 267.228C63.8932 266.652 64.0492 266.016 64.0492 265.32C64.0492 264.624 63.8932 263.988 63.5812 263.412C63.2692 262.836 62.8552 262.38 62.3392 262.044C61.8232 261.708 61.2532 261.54 60.6292 261.54C60.0172 261.54 59.4532 261.714 58.9372 262.062C58.4212 262.398 58.0072 262.854 57.6952 263.43C57.3832 264.006 57.2272 264.648 57.2272 265.356ZM70.4163 270.18C69.6483 270.18 68.9343 270.054 68.2743 269.802C67.6263 269.538 67.0563 269.154 66.5643 268.65L67.0683 267.786C67.5963 268.278 68.1243 268.638 68.6523 268.866C69.1923 269.082 69.7623 269.19 70.3623 269.19C71.0823 269.19 71.6703 269.046 72.1263 268.758C72.5943 268.458 72.8283 268.032 72.8283 267.48C72.8283 267.108 72.7143 266.826 72.4863 266.634C72.2703 266.43 71.9523 266.268 71.5323 266.148C71.1243 266.028 70.6323 265.89 70.0563 265.734C69.4083 265.554 68.8623 265.368 68.4183 265.176C67.9863 264.972 67.6563 264.72 67.4283 264.42C67.2123 264.108 67.1043 263.706 67.1043 263.214C67.1043 262.614 67.2543 262.11 67.5543 261.702C67.8663 261.294 68.2863 260.988 68.8143 260.784C69.3543 260.568 69.9543 260.46 70.6143 260.46C71.3343 260.46 71.9703 260.574 72.5223 260.802C73.0743 261.03 73.5243 261.348 73.8723 261.756L73.2783 262.584C72.9543 262.2 72.5523 261.918 72.0723 261.738C71.6043 261.546 71.0943 261.45 70.5423 261.45C70.1583 261.45 69.7923 261.504 69.4443 261.612C69.0963 261.708 68.8083 261.876 68.5803 262.116C68.3643 262.344 68.2563 262.662 68.2563 263.07C68.2563 263.574 68.4423 263.922 68.8143 264.114C69.1863 264.306 69.7503 264.51 70.5063 264.726C71.2143 264.918 71.8323 265.11 72.3603 265.302C72.8883 265.494 73.2963 265.752 73.5843 266.076C73.8723 266.388 74.0163 266.826 74.0163 267.39C74.0163 268.266 73.6863 268.95 73.0263 269.442C72.3663 269.934 71.4963 270.18 70.4163 270.18ZM80.5373 266.13V260.622H81.7613V265.914C81.7613 268.038 82.4873 269.1 83.9393 269.1C84.6593 269.1 85.3313 268.866 85.9553 268.398C86.5913 267.93 87.0473 267.306 87.3233 266.526V260.622H88.5473V268.524C88.5473 268.848 88.6913 269.016 88.9793 269.028V270C88.8353 270.024 88.7213 270.036 88.6373 270.036C88.5653 270.036 88.4873 270.036 88.4033 270.036C88.1513 270.012 87.9353 269.916 87.7553 269.748C87.5873 269.58 87.5033 269.376 87.5033 269.136L87.4673 267.876C87.0593 268.608 86.5013 269.178 85.7933 269.586C85.0973 269.982 84.3413 270.18 83.5253 270.18C81.5333 270.18 80.5373 268.83 80.5373 266.13ZM99.1988 270H97.9748V264.762C97.9748 263.658 97.8068 262.854 97.4708 262.35C97.1468 261.834 96.6428 261.576 95.9588 261.576C95.4788 261.576 95.0048 261.696 94.5368 261.936C94.0688 262.164 93.6548 262.482 93.2948 262.89C92.9468 263.286 92.6948 263.742 92.5388 264.258V270H91.3148V260.622H92.4308V262.746C92.8028 262.062 93.3488 261.51 94.0688 261.09C94.7888 260.67 95.5688 260.46 96.4088 260.46C97.1048 260.46 97.6568 260.628 98.0648 260.964C98.4728 261.288 98.7608 261.756 98.9288 262.368C99.1088 262.968 99.1988 263.682 99.1988 264.51V270ZM101.053 267.3C101.053 266.724 101.221 266.226 101.557 265.806C101.893 265.374 102.355 265.038 102.943 264.798C103.543 264.558 104.233 264.438 105.013 264.438C105.469 264.438 105.943 264.48 106.435 264.564C106.927 264.636 107.365 264.738 107.749 264.87V264.078C107.749 263.286 107.515 262.656 107.047 262.188C106.579 261.72 105.931 261.486 105.103 261.486C104.611 261.486 104.119 261.582 103.627 261.774C103.135 261.954 102.625 262.224 102.097 262.584L101.629 261.72C102.241 261.3 102.841 260.988 103.429 260.784C104.017 260.568 104.617 260.46 105.229 260.46C106.381 260.46 107.293 260.79 107.965 261.45C108.637 262.11 108.973 263.022 108.973 264.186V268.524C108.973 268.848 109.123 269.016 109.423 269.028V270C109.159 270.036 108.973 270.048 108.865 270.036C108.565 270.024 108.337 269.928 108.181 269.748C108.025 269.568 107.941 269.376 107.929 269.172L107.911 268.488C107.491 269.028 106.945 269.448 106.273 269.748C105.601 270.036 104.917 270.18 104.221 270.18C103.609 270.18 103.063 270.054 102.583 269.802C102.103 269.538 101.725 269.19 101.449 268.758C101.185 268.314 101.053 267.828 101.053 267.3ZM107.335 268.02C107.611 267.696 107.749 267.396 107.749 267.12V265.752C106.921 265.428 106.057 265.266 105.157 265.266C104.281 265.266 103.573 265.44 103.033 265.788C102.493 266.136 102.223 266.61 102.223 267.21C102.223 267.726 102.421 268.194 102.817 268.614C103.225 269.034 103.789 269.244 104.509 269.244C105.097 269.244 105.643 269.13 106.147 268.902C106.663 268.674 107.059 268.38 107.335 268.02ZM119.855 257.22H120.917L126.227 270H124.895L123.239 266.004H117.497L115.859 270H114.509L119.855 257.22ZM122.951 265.014L120.377 258.696L117.767 265.014H122.951ZM132.595 270.18C131.815 270.18 131.113 269.976 130.489 269.568C129.877 269.16 129.391 268.656 129.031 268.056V273.834H127.807V260.622H128.905V262.44C129.277 261.852 129.769 261.378 130.381 261.018C131.005 260.646 131.677 260.46 132.397 260.46C133.045 260.46 133.639 260.598 134.179 260.874C134.719 261.138 135.187 261.498 135.583 261.954C135.991 262.41 136.303 262.932 136.519 263.52C136.735 264.096 136.843 264.696 136.843 265.32C136.843 266.196 136.663 267.006 136.303 267.75C135.955 268.482 135.457 269.07 134.809 269.514C134.173 269.958 133.435 270.18 132.595 270.18ZM132.253 269.1C132.937 269.1 133.525 268.92 134.017 268.56C134.521 268.188 134.911 267.714 135.187 267.138C135.463 266.562 135.601 265.956 135.601 265.32C135.601 264.648 135.445 264.024 135.133 263.448C134.821 262.872 134.401 262.41 133.873 262.062C133.357 261.714 132.769 261.54 132.109 261.54C131.701 261.54 131.269 261.648 130.813 261.864C130.369 262.068 129.973 262.35 129.625 262.71C129.289 263.058 129.091 263.442 129.031 263.862V266.742C129.307 267.402 129.739 267.96 130.327 268.416C130.915 268.872 131.557 269.1 132.253 269.1ZM143.704 270.18C142.924 270.18 142.222 269.976 141.598 269.568C140.986 269.16 140.5 268.656 140.14 268.056V273.834H138.916V260.622H140.014V262.44C140.386 261.852 140.878 261.378 141.49 261.018C142.114 260.646 142.786 260.46 143.506 260.46C144.154 260.46 144.748 260.598 145.288 260.874C145.828 261.138 146.296 261.498 146.692 261.954C147.1 262.41 147.412 262.932 147.628 263.52C147.844 264.096 147.952 264.696 147.952 265.32C147.952 266.196 147.772 267.006 147.412 267.75C147.064 268.482 146.566 269.07 145.918 269.514C145.282 269.958 144.544 270.18 143.704 270.18ZM143.362 269.1C144.046 269.1 144.634 268.92 145.126 268.56C145.63 268.188 146.02 267.714 146.296 267.138C146.572 266.562 146.71 265.956 146.71 265.32C146.71 264.648 146.554 264.024 146.242 263.448C145.93 262.872 145.51 262.41 144.982 262.062C144.466 261.714 143.878 261.54 143.218 261.54C142.81 261.54 142.378 261.648 141.922 261.864C141.478 262.068 141.082 262.35 140.734 262.71C140.398 263.058 140.2 263.442 140.14 263.862V266.742C140.416 267.402 140.848 267.96 141.436 268.416C142.024 268.872 142.666 269.1 143.362 269.1ZM158.682 270.18C157.77 270.18 156.96 269.958 156.252 269.514C155.544 269.058 154.986 268.464 154.578 267.732C154.17 266.988 153.966 266.172 153.966 265.284C153.966 264.396 154.164 263.592 154.56 262.872C154.956 262.14 155.508 261.558 156.216 261.126C156.924 260.682 157.74 260.46 158.664 260.46C159.54 260.46 160.308 260.664 160.968 261.072C161.64 261.468 162.144 262.008 162.48 262.692L161.292 263.07C161.028 262.59 160.656 262.218 160.176 261.954C159.708 261.678 159.186 261.54 158.61 261.54C157.974 261.54 157.398 261.702 156.882 262.026C156.378 262.35 155.97 262.8 155.658 263.376C155.358 263.94 155.208 264.576 155.208 265.284C155.208 265.992 155.364 266.634 155.676 267.21C155.988 267.786 156.402 268.248 156.918 268.596C157.434 268.932 158.004 269.1 158.628 269.1C159.036 269.1 159.432 269.028 159.816 268.884C160.2 268.74 160.53 268.548 160.806 268.308C161.082 268.056 161.268 267.786 161.364 267.498L162.57 267.858C162.402 268.302 162.126 268.704 161.742 269.064C161.358 269.412 160.902 269.688 160.374 269.892C159.846 270.084 159.282 270.18 158.682 270.18ZM168.401 270.18C167.501 270.18 166.697 269.958 165.989 269.514C165.293 269.07 164.747 268.482 164.351 267.75C163.955 267.006 163.757 266.202 163.757 265.338C163.757 264.462 163.955 263.658 164.351 262.926C164.759 262.182 165.311 261.588 166.007 261.144C166.715 260.688 167.513 260.46 168.401 260.46C169.301 260.46 170.099 260.688 170.795 261.144C171.503 261.588 172.055 262.182 172.451 262.926C172.859 263.658 173.063 264.462 173.063 265.338C173.063 266.202 172.865 267.006 172.469 267.75C172.073 268.482 171.521 269.07 170.813 269.514C170.117 269.958 169.313 270.18 168.401 270.18ZM164.999 265.356C164.999 266.052 165.149 266.688 165.449 267.264C165.761 267.828 166.175 268.278 166.691 268.614C167.207 268.938 167.777 269.1 168.401 269.1C169.025 269.1 169.595 268.932 170.111 268.596C170.627 268.26 171.041 267.804 171.353 267.228C171.665 266.652 171.821 266.016 171.821 265.32C171.821 264.624 171.665 263.988 171.353 263.412C171.041 262.836 170.627 262.38 170.111 262.044C169.595 261.708 169.025 261.54 168.401 261.54C167.789 261.54 167.225 261.714 166.709 262.062C166.193 262.398 165.779 262.854 165.467 263.43C165.155 264.006 164.999 264.648 164.999 265.356ZM182.994 270H181.77V264.762C181.77 263.658 181.602 262.854 181.266 262.35C180.942 261.834 180.438 261.576 179.754 261.576C179.274 261.576 178.8 261.696 178.332 261.936C177.864 262.164 177.45 262.482 177.09 262.89C176.742 263.286 176.49 263.742 176.334 264.258V270H175.11V260.622H176.226V262.746C176.598 262.062 177.144 261.51 177.864 261.09C178.584 260.67 179.364 260.46 180.204 260.46C180.9 260.46 181.452 260.628 181.86 260.964C182.268 261.288 182.556 261.756 182.724 262.368C182.904 262.968 182.994 263.682 182.994 264.51V270ZM190.102 266.13V260.622H191.326V265.914C191.326 268.038 192.052 269.1 193.504 269.1C194.224 269.1 194.896 268.866 195.52 268.398C196.156 267.93 196.612 267.306 196.888 266.526V260.622H198.112V268.524C198.112 268.848 198.256 269.016 198.544 269.028V270C198.4 270.024 198.286 270.036 198.202 270.036C198.13 270.036 198.052 270.036 197.968 270.036C197.716 270.012 197.5 269.916 197.32 269.748C197.152 269.58 197.068 269.376 197.068 269.136L197.032 267.876C196.624 268.608 196.066 269.178 195.358 269.586C194.662 269.982 193.906 270.18 193.09 270.18C191.098 270.18 190.102 268.83 190.102 266.13ZM208.763 270H207.539V264.762C207.539 263.658 207.371 262.854 207.035 262.35C206.711 261.834 206.207 261.576 205.523 261.576C205.043 261.576 204.569 261.696 204.101 261.936C203.633 262.164 203.219 262.482 202.859 262.89C202.511 263.286 202.259 263.742 202.103 264.258V270H200.879V260.622H201.995V262.746C202.367 262.062 202.913 261.51 203.633 261.09C204.353 260.67 205.133 260.46 205.973 260.46C206.669 260.46 207.221 260.628 207.629 260.964C208.037 261.288 208.325 261.756 208.493 262.368C208.673 262.968 208.763 263.682 208.763 264.51V270ZM0.72 286.338C0.72 285.45 0.9 284.64 1.26 283.908C1.632 283.164 2.142 282.57 2.79 282.126C3.438 281.682 4.176 281.46 5.004 281.46C5.784 281.46 6.48 281.67 7.092 282.09C7.716 282.498 8.202 282.996 8.55 283.584V277.86H9.774V289.524C9.774 289.848 9.918 290.016 10.206 290.028V291C9.966 291.036 9.78 291.048 9.648 291.036C9.384 291.024 9.156 290.928 8.964 290.748C8.784 290.556 8.694 290.34 8.694 290.1V289.182C8.322 289.794 7.818 290.28 7.182 290.64C6.546 291 5.886 291.18 5.202 291.18C4.554 291.18 3.954 291.048 3.402 290.784C2.85 290.52 2.37 290.16 1.962 289.704C1.566 289.248 1.26 288.732 1.044 288.156C0.828 287.568 0.72 286.962 0.72 286.338ZM8.55 287.778V284.88C8.394 284.448 8.142 284.058 7.794 283.71C7.446 283.35 7.05 283.068 6.606 282.864C6.174 282.648 5.742 282.54 5.31 282.54C4.638 282.54 4.05 282.726 3.546 283.098C3.054 283.458 2.67 283.932 2.394 284.52C2.118 285.096 1.98 285.702 1.98 286.338C1.98 287.01 2.13 287.634 2.43 288.21C2.742 288.786 3.162 289.248 3.69 289.596C4.218 289.932 4.812 290.1 5.472 290.1C5.88 290.1 6.306 289.998 6.75 289.794C7.206 289.578 7.602 289.296 7.938 288.948C8.286 288.6 8.49 288.21 8.55 287.778ZM12.5473 279.66V277.86H13.7713V279.66H12.5473ZM12.5473 291V281.622H13.7713V291H12.5473ZM19.5452 291.18C18.7772 291.18 18.0632 291.054 17.4032 290.802C16.7552 290.538 16.1852 290.154 15.6932 289.65L16.1972 288.786C16.7252 289.278 17.2532 289.638 17.7812 289.866C18.3212 290.082 18.8912 290.19 19.4912 290.19C20.2112 290.19 20.7992 290.046 21.2552 289.758C21.7232 289.458 21.9572 289.032 21.9572 288.48C21.9572 288.108 21.8432 287.826 21.6152 287.634C21.3992 287.43 21.0812 287.268 20.6612 287.148C20.2532 287.028 19.7612 286.89 19.1852 286.734C18.5372 286.554 17.9912 286.368 17.5472 286.176C17.1152 285.972 16.7852 285.72 16.5572 285.42C16.3412 285.108 16.2332 284.706 16.2332 284.214C16.2332 283.614 16.3832 283.11 16.6832 282.702C16.9952 282.294 17.4152 281.988 17.9432 281.784C18.4832 281.568 19.0832 281.46 19.7432 281.46C20.4632 281.46 21.0992 281.574 21.6512 281.802C22.2032 282.03 22.6532 282.348 23.0012 282.756L22.4072 283.584C22.0832 283.2 21.6812 282.918 21.2012 282.738C20.7332 282.546 20.2232 282.45 19.6712 282.45C19.2872 282.45 18.9212 282.504 18.5732 282.612C18.2252 282.708 17.9372 282.876 17.7092 283.116C17.4932 283.344 17.3852 283.662 17.3852 284.07C17.3852 284.574 17.5712 284.922 17.9432 285.114C18.3152 285.306 18.8792 285.51 19.6352 285.726C20.3432 285.918 20.9612 286.11 21.4892 286.302C22.0172 286.494 22.4252 286.752 22.7132 287.076C23.0012 287.388 23.1452 287.826 23.1452 288.39C23.1452 289.266 22.8152 289.95 22.1552 290.442C21.4952 290.934 20.6252 291.18 19.5452 291.18ZM29.2184 291.18C28.3184 291.18 27.5144 290.958 26.8064 290.514C26.0984 290.07 25.5404 289.476 25.1324 288.732C24.7244 287.988 24.5204 287.172 24.5204 286.284C24.5204 285.408 24.7184 284.604 25.1144 283.872C25.5224 283.14 26.0804 282.558 26.7884 282.126C27.4964 281.682 28.3004 281.46 29.2004 281.46C30.1244 281.46 30.9344 281.682 31.6304 282.126C32.3264 282.57 32.8664 283.158 33.2504 283.89C33.6464 284.61 33.8444 285.402 33.8444 286.266C33.8444 286.458 33.8384 286.62 33.8264 286.752H25.7984C25.8584 287.424 26.0504 288.024 26.3744 288.552C26.6984 289.068 27.1124 289.482 27.6164 289.794C28.1204 290.094 28.6724 290.244 29.2724 290.244C29.8844 290.244 30.4604 290.088 31.0004 289.776C31.5404 289.464 31.9244 289.056 32.1524 288.552L33.2144 288.84C33.0224 289.296 32.7224 289.704 32.3144 290.064C31.9184 290.412 31.4564 290.688 30.9284 290.892C30.4004 291.084 29.8304 291.18 29.2184 291.18ZM25.7624 285.87H32.6924C32.6444 285.198 32.4584 284.604 32.1344 284.088C31.8104 283.56 31.3964 283.152 30.8924 282.864C30.3884 282.564 29.8304 282.414 29.2184 282.414C28.6064 282.414 28.0484 282.564 27.5444 282.864C27.0404 283.152 26.6264 283.56 26.3024 284.088C25.9904 284.604 25.8104 285.198 25.7624 285.87ZM43.6168 291H42.3928V285.762C42.3928 284.658 42.2248 283.854 41.8888 283.35C41.5648 282.834 41.0608 282.576 40.3768 282.576C39.8968 282.576 39.4228 282.696 38.9548 282.936C38.4868 283.164 38.0728 283.482 37.7128 283.89C37.3648 284.286 37.1128 284.742 36.9568 285.258V291H35.7328V281.622H36.8488V283.746C37.2208 283.062 37.7668 282.51 38.4868 282.09C39.2068 281.67 39.9868 281.46 40.8268 281.46C41.5228 281.46 42.0748 281.628 42.4828 281.964C42.8908 282.288 43.1788 282.756 43.3468 283.368C43.5268 283.968 43.6168 284.682 43.6168 285.51V291ZM40.8088 279.516C40.4488 279.516 40.1428 279.456 39.8908 279.336C39.6508 279.216 39.4228 279.096 39.2068 278.976C38.9908 278.856 38.7568 278.796 38.5048 278.796C38.2408 278.796 38.0428 278.862 37.9108 278.994C37.7908 279.126 37.7068 279.264 37.6588 279.408C37.6228 279.54 37.6048 279.624 37.6048 279.66H36.8488C36.8488 279.588 36.8668 279.468 36.9028 279.3C36.9508 279.12 37.0348 278.928 37.1548 278.724C37.2748 278.52 37.4428 278.346 37.6588 278.202C37.8748 278.058 38.1508 277.986 38.4868 277.986C38.8228 277.986 39.1048 278.052 39.3328 278.184C39.5608 278.304 39.7828 278.43 39.9988 278.562C40.2268 278.682 40.4908 278.742 40.7908 278.742C41.1028 278.742 41.3308 278.676 41.4748 278.544C41.6188 278.4 41.7088 278.256 41.7448 278.112C41.7928 277.968 41.8168 277.884 41.8168 277.86H42.5728C42.5728 277.92 42.5488 278.04 42.5008 278.22C42.4528 278.388 42.3628 278.574 42.2308 278.778C42.1108 278.982 41.9308 279.156 41.6908 279.3C41.4628 279.444 41.1688 279.516 40.8088 279.516ZM50.223 291.18C49.323 291.18 48.519 290.958 47.811 290.514C47.115 290.07 46.569 289.482 46.173 288.75C45.777 288.006 45.579 287.202 45.579 286.338C45.579 285.462 45.777 284.658 46.173 283.926C46.581 283.182 47.133 282.588 47.829 282.144C48.537 281.688 49.335 281.46 50.223 281.46C51.123 281.46 51.921 281.688 52.617 282.144C53.325 282.588 53.877 283.182 54.273 283.926C54.681 284.658 54.885 285.462 54.885 286.338C54.885 287.202 54.687 288.006 54.291 288.75C53.895 289.482 53.343 290.07 52.635 290.514C51.939 290.958 51.135 291.18 50.223 291.18ZM46.821 286.356C46.821 287.052 46.971 287.688 47.271 288.264C47.583 288.828 47.997 289.278 48.513 289.614C49.029 289.938 49.599 290.1 50.223 290.1C50.847 290.1 51.417 289.932 51.933 289.596C52.449 289.26 52.863 288.804 53.175 288.228C53.487 287.652 53.643 287.016 53.643 286.32C53.643 285.624 53.487 284.988 53.175 284.412C52.863 283.836 52.449 283.38 51.933 283.044C51.417 282.708 50.847 282.54 50.223 282.54C49.611 282.54 49.047 282.714 48.531 283.062C48.015 283.398 47.601 283.854 47.289 284.43C46.977 285.006 46.821 285.648 46.821 286.356ZM61.4299 287.13V281.622H62.6539V286.914C62.6539 289.038 63.3799 290.1 64.8319 290.1C65.5519 290.1 66.2239 289.866 66.8479 289.398C67.4839 288.93 67.9399 288.306 68.2159 287.526V281.622H69.4399V289.524C69.4399 289.848 69.5839 290.016 69.8719 290.028V291C69.7279 291.024 69.6139 291.036 69.5299 291.036C69.4579 291.036 69.3799 291.036 69.2959 291.036C69.0439 291.012 68.8279 290.916 68.6479 290.748C68.4799 290.58 68.3959 290.376 68.3959 290.136L68.3599 288.876C67.9519 289.608 67.3939 290.178 66.6859 290.586C65.9899 290.982 65.2339 291.18 64.4179 291.18C62.4259 291.18 61.4299 289.83 61.4299 287.13ZM80.0914 291H78.8674V285.762C78.8674 284.658 78.6994 283.854 78.3634 283.35C78.0394 282.834 77.5354 282.576 76.8514 282.576C76.3714 282.576 75.8974 282.696 75.4294 282.936C74.9614 283.164 74.5474 283.482 74.1874 283.89C73.8394 284.286 73.5874 284.742 73.4314 285.258V291H72.2074V281.622H73.3234V283.746C73.6954 283.062 74.2414 282.51 74.9614 282.09C75.6814 281.67 76.4614 281.46 77.3014 281.46C77.9974 281.46 78.5494 281.628 78.9574 281.964C79.3654 282.288 79.6534 282.756 79.8214 283.368C80.0014 283.968 80.0914 284.682 80.0914 285.51V291ZM82.7016 279.66V277.86H83.9256V279.66H82.7016ZM82.7016 291V281.622H83.9256V291H82.7016ZM90.6895 291.18C89.7775 291.18 88.9675 290.958 88.2595 290.514C87.5515 290.058 86.9935 289.464 86.5855 288.732C86.1775 287.988 85.9735 287.172 85.9735 286.284C85.9735 285.396 86.1715 284.592 86.5675 283.872C86.9635 283.14 87.5155 282.558 88.2235 282.126C88.9315 281.682 89.7475 281.46 90.6715 281.46C91.5475 281.46 92.3155 281.664 92.9755 282.072C93.6475 282.468 94.1515 283.008 94.4875 283.692L93.2995 284.07C93.0355 283.59 92.6635 283.218 92.1835 282.954C91.7155 282.678 91.1935 282.54 90.6175 282.54C89.9815 282.54 89.4055 282.702 88.8895 283.026C88.3855 283.35 87.9775 283.8 87.6655 284.376C87.3655 284.94 87.2155 285.576 87.2155 286.284C87.2155 286.992 87.3715 287.634 87.6835 288.21C87.9955 288.786 88.4095 289.248 88.9255 289.596C89.4415 289.932 90.0115 290.1 90.6355 290.1C91.0435 290.1 91.4395 290.028 91.8235 289.884C92.2075 289.74 92.5375 289.548 92.8135 289.308C93.0895 289.056 93.2755 288.786 93.3715 288.498L94.5775 288.858C94.4095 289.302 94.1335 289.704 93.7495 290.064C93.3655 290.412 92.9095 290.688 92.3815 290.892C91.8535 291.084 91.2895 291.18 90.6895 291.18ZM100.409 291.18C99.5085 291.18 98.7045 290.958 97.9965 290.514C97.3005 290.07 96.7545 289.482 96.3585 288.75C95.9625 288.006 95.7645 287.202 95.7645 286.338C95.7645 285.462 95.9625 284.658 96.3585 283.926C96.7665 283.182 97.3185 282.588 98.0145 282.144C98.7225 281.688 99.5205 281.46 100.409 281.46C101.309 281.46 102.107 281.688 102.803 282.144C103.511 282.588 104.063 283.182 104.459 283.926C104.867 284.658 105.071 285.462 105.071 286.338C105.071 287.202 104.873 288.006 104.477 288.75C104.081 289.482 103.529 290.07 102.821 290.514C102.125 290.958 101.321 291.18 100.409 291.18ZM97.0065 286.356C97.0065 287.052 97.1565 287.688 97.4565 288.264C97.7685 288.828 98.1825 289.278 98.6985 289.614C99.2145 289.938 99.7845 290.1 100.409 290.1C101.033 290.1 101.603 289.932 102.119 289.596C102.635 289.26 103.049 288.804 103.361 288.228C103.673 287.652 103.829 287.016 103.829 286.32C103.829 285.624 103.673 284.988 103.361 284.412C103.049 283.836 102.635 283.38 102.119 283.044C101.603 282.708 101.033 282.54 100.409 282.54C99.7965 282.54 99.2325 282.714 98.7165 283.062C98.2005 283.398 97.7865 283.854 97.4745 284.43C97.1625 285.006 97.0065 285.648 97.0065 286.356ZM111.753 293.88C111.921 293.892 112.083 293.898 112.239 293.898C112.395 293.91 112.509 293.904 112.581 293.88C112.725 293.868 112.857 293.784 112.977 293.628C113.109 293.484 113.265 293.208 113.445 292.8C113.637 292.404 113.895 291.804 114.219 291L110.133 281.622H111.429L114.867 289.74L118.035 281.622H119.259L114.399 293.718C114.267 294.066 114.045 294.366 113.733 294.618C113.421 294.87 113.007 295.002 112.491 295.014C112.383 295.026 112.269 295.026 112.149 295.014C112.029 295.014 111.897 295.002 111.753 294.978V293.88ZM129.115 291.18C128.215 291.18 127.411 290.958 126.703 290.514C125.995 290.07 125.437 289.476 125.029 288.732C124.621 287.988 124.417 287.172 124.417 286.284C124.417 285.408 124.615 284.604 125.011 283.872C125.419 283.14 125.977 282.558 126.685 282.126C127.393 281.682 128.197 281.46 129.097 281.46C130.021 281.46 130.831 281.682 131.527 282.126C132.223 282.57 132.763 283.158 133.147 283.89C133.543 284.61 133.741 285.402 133.741 286.266C133.741 286.458 133.735 286.62 133.723 286.752H125.695C125.755 287.424 125.947 288.024 126.271 288.552C126.595 289.068 127.009 289.482 127.513 289.794C128.017 290.094 128.569 290.244 129.169 290.244C129.781 290.244 130.357 290.088 130.897 289.776C131.437 289.464 131.821 289.056 132.049 288.552L133.111 288.84C132.919 289.296 132.619 289.704 132.211 290.064C131.815 290.412 131.353 290.688 130.825 290.892C130.297 291.084 129.727 291.18 129.115 291.18ZM125.659 285.87H132.589C132.541 285.198 132.355 284.604 132.031 284.088C131.707 283.56 131.293 283.152 130.789 282.864C130.285 282.564 129.727 282.414 129.115 282.414C128.503 282.414 127.945 282.564 127.441 282.864C126.937 283.152 126.523 283.56 126.199 284.088C125.887 284.604 125.707 285.198 125.659 285.87ZM138.707 291.18C137.939 291.18 137.225 291.054 136.565 290.802C135.917 290.538 135.347 290.154 134.855 289.65L135.359 288.786C135.887 289.278 136.415 289.638 136.943 289.866C137.483 290.082 138.053 290.19 138.653 290.19C139.373 290.19 139.961 290.046 140.417 289.758C140.885 289.458 141.119 289.032 141.119 288.48C141.119 288.108 141.005 287.826 140.777 287.634C140.561 287.43 140.243 287.268 139.823 287.148C139.415 287.028 138.923 286.89 138.347 286.734C137.699 286.554 137.153 286.368 136.709 286.176C136.277 285.972 135.947 285.72 135.719 285.42C135.503 285.108 135.395 284.706 135.395 284.214C135.395 283.614 135.545 283.11 135.845 282.702C136.157 282.294 136.577 281.988 137.105 281.784C137.645 281.568 138.245 281.46 138.905 281.46C139.625 281.46 140.261 281.574 140.813 281.802C141.365 282.03 141.815 282.348 142.163 282.756L141.569 283.584C141.245 283.2 140.843 282.918 140.363 282.738C139.895 282.546 139.385 282.45 138.833 282.45C138.449 282.45 138.083 282.504 137.735 282.612C137.387 282.708 137.099 282.876 136.871 283.116C136.655 283.344 136.547 283.662 136.547 284.07C136.547 284.574 136.733 284.922 137.105 285.114C137.477 285.306 138.041 285.51 138.797 285.726C139.505 285.918 140.123 286.11 140.651 286.302C141.179 286.494 141.587 286.752 141.875 287.076C142.163 287.388 142.307 287.826 142.307 288.39C142.307 289.266 141.977 289.95 141.317 290.442C140.657 290.934 139.787 291.18 138.707 291.18ZM149.118 291.18C148.338 291.18 147.636 290.976 147.012 290.568C146.4 290.16 145.914 289.656 145.554 289.056V294.834H144.33V281.622H145.428V283.44C145.8 282.852 146.292 282.378 146.904 282.018C147.528 281.646 148.2 281.46 148.92 281.46C149.568 281.46 150.162 281.598 150.702 281.874C151.242 282.138 151.71 282.498 152.106 282.954C152.514 283.41 152.826 283.932 153.042 284.52C153.258 285.096 153.366 285.696 153.366 286.32C153.366 287.196 153.186 288.006 152.826 288.75C152.478 289.482 151.98 290.07 151.332 290.514C150.696 290.958 149.958 291.18 149.118 291.18ZM148.776 290.1C149.46 290.1 150.048 289.92 150.54 289.56C151.044 289.188 151.434 288.714 151.71 288.138C151.986 287.562 152.124 286.956 152.124 286.32C152.124 285.648 151.968 285.024 151.656 284.448C151.344 283.872 150.924 283.41 150.396 283.062C149.88 282.714 149.292 282.54 148.632 282.54C148.224 282.54 147.792 282.648 147.336 282.864C146.892 283.068 146.496 283.35 146.148 283.71C145.812 284.058 145.614 284.442 145.554 284.862V287.742C145.83 288.402 146.262 288.96 146.85 289.416C147.438 289.872 148.08 290.1 148.776 290.1ZM159.49 291.18C158.59 291.18 157.786 290.958 157.078 290.514C156.37 290.07 155.812 289.476 155.404 288.732C154.996 287.988 154.792 287.172 154.792 286.284C154.792 285.408 154.99 284.604 155.386 283.872C155.794 283.14 156.352 282.558 157.06 282.126C157.768 281.682 158.572 281.46 159.472 281.46C160.396 281.46 161.206 281.682 161.902 282.126C162.598 282.57 163.138 283.158 163.522 283.89C163.918 284.61 164.116 285.402 164.116 286.266C164.116 286.458 164.11 286.62 164.098 286.752H156.07C156.13 287.424 156.322 288.024 156.646 288.552C156.97 289.068 157.384 289.482 157.888 289.794C158.392 290.094 158.944 290.244 159.544 290.244C160.156 290.244 160.732 290.088 161.272 289.776C161.812 289.464 162.196 289.056 162.424 288.552L163.486 288.84C163.294 289.296 162.994 289.704 162.586 290.064C162.19 290.412 161.728 290.688 161.2 290.892C160.672 291.084 160.102 291.18 159.49 291.18ZM156.034 285.87H162.964C162.916 285.198 162.73 284.604 162.406 284.088C162.082 283.56 161.668 283.152 161.164 282.864C160.66 282.564 160.102 282.414 159.49 282.414C158.878 282.414 158.32 282.564 157.816 282.864C157.312 283.152 156.898 283.56 156.574 284.088C156.262 284.604 156.082 285.198 156.034 285.87ZM170.072 291.18C169.16 291.18 168.35 290.958 167.642 290.514C166.934 290.058 166.376 289.464 165.968 288.732C165.56 287.988 165.356 287.172 165.356 286.284C165.356 285.396 165.554 284.592 165.95 283.872C166.346 283.14 166.898 282.558 167.606 282.126C168.314 281.682 169.13 281.46 170.054 281.46C170.93 281.46 171.698 281.664 172.358 282.072C173.03 282.468 173.534 283.008 173.87 283.692L172.682 284.07C172.418 283.59 172.046 283.218 171.566 282.954C171.098 282.678 170.576 282.54 170 282.54C169.364 282.54 168.788 282.702 168.272 283.026C167.768 283.35 167.36 283.8 167.048 284.376C166.748 284.94 166.598 285.576 166.598 286.284C166.598 286.992 166.754 287.634 167.066 288.21C167.378 288.786 167.792 289.248 168.308 289.596C168.824 289.932 169.394 290.1 170.018 290.1C170.426 290.1 170.822 290.028 171.206 289.884C171.59 289.74 171.92 289.548 172.196 289.308C172.472 289.056 172.658 288.786 172.754 288.498L173.96 288.858C173.792 289.302 173.516 289.704 173.132 290.064C172.748 290.412 172.292 290.688 171.764 290.892C171.236 291.084 170.672 291.18 170.072 291.18ZM175.883 279.66V277.86H177.107V279.66H175.883ZM175.883 291V281.622H177.107V291H175.883ZM179.047 288.3C179.047 287.724 179.215 287.226 179.551 286.806C179.887 286.374 180.349 286.038 180.937 285.798C181.537 285.558 182.227 285.438 183.007 285.438C183.463 285.438 183.937 285.48 184.429 285.564C184.921 285.636 185.359 285.738 185.743 285.87V285.078C185.743 284.286 185.509 283.656 185.041 283.188C184.573 282.72 183.925 282.486 183.097 282.486C182.605 282.486 182.113 282.582 181.621 282.774C181.129 282.954 180.619 283.224 180.091 283.584L179.623 282.72C180.235 282.3 180.835 281.988 181.423 281.784C182.011 281.568 182.611 281.46 183.223 281.46C184.375 281.46 185.287 281.79 185.959 282.45C186.631 283.11 186.967 284.022 186.967 285.186V289.524C186.967 289.848 187.117 290.016 187.417 290.028V291C187.153 291.036 186.967 291.048 186.859 291.036C186.559 291.024 186.331 290.928 186.175 290.748C186.019 290.568 185.935 290.376 185.923 290.172L185.905 289.488C185.485 290.028 184.939 290.448 184.267 290.748C183.595 291.036 182.911 291.18 182.215 291.18C181.603 291.18 181.057 291.054 180.577 290.802C180.097 290.538 179.719 290.19 179.443 289.758C179.179 289.314 179.047 288.828 179.047 288.3ZM185.329 289.02C185.605 288.696 185.743 288.396 185.743 288.12V286.752C184.915 286.428 184.051 286.266 183.151 286.266C182.275 286.266 181.567 286.44 181.027 286.788C180.487 287.136 180.217 287.61 180.217 288.21C180.217 288.726 180.415 289.194 180.811 289.614C181.219 290.034 181.783 290.244 182.503 290.244C183.091 290.244 183.637 290.13 184.141 289.902C184.657 289.674 185.053 289.38 185.329 289.02ZM189.666 277.86H190.89V288.876C190.89 289.344 190.968 289.65 191.124 289.794C191.292 289.938 191.502 290.01 191.754 290.01C191.97 290.01 192.186 289.986 192.402 289.938C192.63 289.89 192.816 289.842 192.96 289.794L193.176 290.784C192.948 290.88 192.666 290.958 192.33 291.018C192.006 291.078 191.724 291.108 191.484 291.108C190.932 291.108 190.488 290.946 190.152 290.622C189.828 290.298 189.666 289.854 189.666 289.29V277.86ZM194.516 279.66V277.86H195.74V279.66H194.516ZM194.516 291V281.622H195.74V291H194.516ZM197.644 290.172L203.926 282.54H197.788V281.622H205.312V282.45L199.066 290.082H205.294V291H197.644V290.172ZM206.539 288.3C206.539 287.724 206.707 287.226 207.043 286.806C207.379 286.374 207.841 286.038 208.429 285.798C209.029 285.558 209.719 285.438 210.499 285.438C210.955 285.438 211.429 285.48 211.921 285.564C212.413 285.636 212.851 285.738 213.235 285.87V285.078C213.235 284.286 213.001 283.656 212.533 283.188C212.065 282.72 211.417 282.486 210.589 282.486C210.097 282.486 209.605 282.582 209.113 282.774C208.621 282.954 208.111 283.224 207.583 283.584L207.115 282.72C207.727 282.3 208.327 281.988 208.915 281.784C209.503 281.568 210.103 281.46 210.715 281.46C211.867 281.46 212.779 281.79 213.451 282.45C214.123 283.11 214.459 284.022 214.459 285.186V289.524C214.459 289.848 214.609 290.016 214.909 290.028V291C214.645 291.036 214.459 291.048 214.351 291.036C214.051 291.024 213.823 290.928 213.667 290.748C213.511 290.568 213.427 290.376 213.415 290.172L213.397 289.488C212.977 290.028 212.431 290.448 211.759 290.748C211.087 291.036 210.403 291.18 209.707 291.18C209.095 291.18 208.549 291.054 208.069 290.802C207.589 290.538 207.211 290.19 206.935 289.758C206.671 289.314 206.539 288.828 206.539 288.3ZM212.821 289.02C213.097 288.696 213.235 288.396 213.235 288.12V286.752C212.407 286.428 211.543 286.266 210.643 286.266C209.767 286.266 209.059 286.44 208.519 286.788C207.979 287.136 207.709 287.61 207.709 288.21C207.709 288.726 207.907 289.194 208.303 289.614C208.711 290.034 209.275 290.244 209.995 290.244C210.583 290.244 211.129 290.13 211.633 289.902C212.149 289.674 212.545 289.38 212.821 289.02ZM216.474 286.338C216.474 285.45 216.654 284.64 217.014 283.908C217.386 283.164 217.896 282.57 218.544 282.126C219.192 281.682 219.93 281.46 220.758 281.46C221.538 281.46 222.234 281.67 222.846 282.09C223.47 282.498 223.956 282.996 224.304 283.584V277.86H225.528V289.524C225.528 289.848 225.672 290.016 225.96 290.028V291C225.72 291.036 225.534 291.048 225.402 291.036C225.138 291.024 224.91 290.928 224.718 290.748C224.538 290.556 224.448 290.34 224.448 290.1V289.182C224.076 289.794 223.572 290.28 222.936 290.64C222.3 291 221.64 291.18 220.956 291.18C220.308 291.18 219.708 291.048 219.156 290.784C218.604 290.52 218.124 290.16 217.716 289.704C217.32 289.248 217.014 288.732 216.798 288.156C216.582 287.568 216.474 286.962 216.474 286.338ZM224.304 287.778V284.88C224.148 284.448 223.896 284.058 223.548 283.71C223.2 283.35 222.804 283.068 222.36 282.864C221.928 282.648 221.496 282.54 221.064 282.54C220.392 282.54 219.804 282.726 219.3 283.098C218.808 283.458 218.424 283.932 218.148 284.52C217.872 285.096 217.734 285.702 217.734 286.338C217.734 287.01 217.884 287.634 218.184 288.21C218.496 288.786 218.916 289.248 219.444 289.596C219.972 289.932 220.566 290.1 221.226 290.1C221.634 290.1 222.06 289.998 222.504 289.794C222.96 289.578 223.356 289.296 223.692 288.948C224.04 288.6 224.244 288.21 224.304 287.778ZM232.297 291.18C231.397 291.18 230.593 290.958 229.885 290.514C229.189 290.07 228.643 289.482 228.247 288.75C227.851 288.006 227.653 287.202 227.653 286.338C227.653 285.462 227.851 284.658 228.247 283.926C228.655 283.182 229.207 282.588 229.903 282.144C230.611 281.688 231.409 281.46 232.297 281.46C233.197 281.46 233.995 281.688 234.691 282.144C235.399 282.588 235.951 283.182 236.347 283.926C236.755 284.658 236.959 285.462 236.959 286.338C236.959 287.202 236.761 288.006 236.365 288.75C235.969 289.482 235.417 290.07 234.709 290.514C234.013 290.958 233.209 291.18 232.297 291.18ZM228.895 286.356C228.895 287.052 229.045 287.688 229.345 288.264C229.657 288.828 230.071 289.278 230.587 289.614C231.103 289.938 231.673 290.1 232.297 290.1C232.921 290.1 233.491 289.932 234.007 289.596C234.523 289.26 234.937 288.804 235.249 288.228C235.561 287.652 235.717 287.016 235.717 286.32C235.717 285.624 235.561 284.988 235.249 284.412C234.937 283.836 234.523 283.38 234.007 283.044C233.491 282.708 232.921 282.54 232.297 282.54C231.685 282.54 231.121 282.714 230.605 283.062C230.089 283.398 229.675 283.854 229.363 284.43C229.051 285.006 228.895 285.648 228.895 286.356ZM5.418 312.18C4.506 312.18 3.696 311.958 2.988 311.514C2.28 311.058 1.722 310.464 1.314 309.732C0.906 308.988 0.702 308.172 0.702 307.284C0.702 306.396 0.9 305.592 1.296 304.872C1.692 304.14 2.244 303.558 2.952 303.126C3.66 302.682 4.476 302.46 5.4 302.46C6.276 302.46 7.044 302.664 7.704 303.072C8.376 303.468 8.88 304.008 9.216 304.692L8.028 305.07C7.764 304.59 7.392 304.218 6.912 303.954C6.444 303.678 5.922 303.54 5.346 303.54C4.71 303.54 4.134 303.702 3.618 304.026C3.114 304.35 2.706 304.8 2.394 305.376C2.094 305.94 1.944 306.576 1.944 307.284C1.944 307.992 2.1 308.634 2.412 309.21C2.724 309.786 3.138 310.248 3.654 310.596C4.17 310.932 4.74 311.1 5.364 311.1C5.772 311.1 6.168 311.028 6.552 310.884C6.936 310.74 7.266 310.548 7.542 310.308C7.818 310.056 8.004 309.786 8.1 309.498L9.306 309.858C9.138 310.302 8.862 310.704 8.478 311.064C8.094 311.412 7.638 311.688 7.11 311.892C6.582 312.084 6.018 312.18 5.418 312.18ZM15.137 312.18C14.237 312.18 13.433 311.958 12.725 311.514C12.029 311.07 11.483 310.482 11.087 309.75C10.691 309.006 10.493 308.202 10.493 307.338C10.493 306.462 10.691 305.658 11.087 304.926C11.495 304.182 12.047 303.588 12.743 303.144C13.451 302.688 14.249 302.46 15.137 302.46C16.037 302.46 16.835 302.688 17.531 303.144C18.239 303.588 18.791 304.182 19.187 304.926C19.595 305.658 19.799 306.462 19.799 307.338C19.799 308.202 19.601 309.006 19.205 309.75C18.809 310.482 18.257 311.07 17.549 311.514C16.853 311.958 16.049 312.18 15.137 312.18ZM11.735 307.356C11.735 308.052 11.885 308.688 12.185 309.264C12.497 309.828 12.911 310.278 13.427 310.614C13.943 310.938 14.513 311.1 15.137 311.1C15.761 311.1 16.331 310.932 16.847 310.596C17.363 310.26 17.777 309.804 18.089 309.228C18.401 308.652 18.557 308.016 18.557 307.32C18.557 306.624 18.401 305.988 18.089 305.412C17.777 304.836 17.363 304.38 16.847 304.044C16.331 303.708 15.761 303.54 15.137 303.54C14.525 303.54 13.961 303.714 13.445 304.062C12.929 304.398 12.515 304.854 12.203 305.43C11.891 306.006 11.735 306.648 11.735 307.356ZM29.7301 312H28.5061V306.762C28.5061 305.658 28.3381 304.854 28.0021 304.35C27.6781 303.834 27.1741 303.576 26.4901 303.576C26.0101 303.576 25.5361 303.696 25.0681 303.936C24.6001 304.164 24.1861 304.482 23.8261 304.89C23.4781 305.286 23.2261 305.742 23.0701 306.258V312H21.8461V302.622H22.9621V304.746C23.3341 304.062 23.8801 303.51 24.6001 303.09C25.3201 302.67 26.1001 302.46 26.9401 302.46C27.6361 302.46 28.1881 302.628 28.5961 302.964C29.0041 303.288 29.2921 303.756 29.4601 304.368C29.6401 304.968 29.7301 305.682 29.7301 306.51V312ZM40.9781 312.18C40.0781 312.18 39.2741 311.958 38.5661 311.514C37.8581 311.07 37.3001 310.476 36.8921 309.732C36.4841 308.988 36.2801 308.172 36.2801 307.284C36.2801 306.408 36.4781 305.604 36.8741 304.872C37.2821 304.14 37.8401 303.558 38.5481 303.126C39.2561 302.682 40.0601 302.46 40.9601 302.46C41.8841 302.46 42.6941 302.682 43.3901 303.126C44.0861 303.57 44.6261 304.158 45.0101 304.89C45.4061 305.61 45.6041 306.402 45.6041 307.266C45.6041 307.458 45.5981 307.62 45.5861 307.752H37.5581C37.6181 308.424 37.8101 309.024 38.1341 309.552C38.4581 310.068 38.8721 310.482 39.3761 310.794C39.8801 311.094 40.4321 311.244 41.0321 311.244C41.6441 311.244 42.2201 311.088 42.7601 310.776C43.3001 310.464 43.6841 310.056 43.9121 309.552L44.9741 309.84C44.7821 310.296 44.4821 310.704 44.0741 311.064C43.6781 311.412 43.2161 311.688 42.6881 311.892C42.1601 312.084 41.5901 312.18 40.9781 312.18ZM37.5221 306.87H44.4521C44.4041 306.198 44.2181 305.604 43.8941 305.088C43.5701 304.56 43.1561 304.152 42.6521 303.864C42.1481 303.564 41.5901 303.414 40.9781 303.414C40.3661 303.414 39.8081 303.564 39.3041 303.864C38.8001 304.152 38.3861 304.56 38.0621 305.088C37.7501 305.604 37.5701 306.198 37.5221 306.87ZM47.5466 298.86H48.7706V309.876C48.7706 310.344 48.8486 310.65 49.0046 310.794C49.1726 310.938 49.3826 311.01 49.6346 311.01C49.8506 311.01 50.0666 310.986 50.2826 310.938C50.5106 310.89 50.6966 310.842 50.8406 310.794L51.0566 311.784C50.8286 311.88 50.5466 311.958 50.2106 312.018C49.8866 312.078 49.6046 312.108 49.3646 312.108C48.8126 312.108 48.3686 311.946 48.0326 311.622C47.7086 311.298 47.5466 310.854 47.5466 310.29V298.86ZM56.8898 303.594H55.5938V302.622H56.8898V302.37C56.8898 301.782 57.0038 301.206 57.2318 300.642C57.4718 300.078 57.8318 299.61 58.3118 299.238C58.8038 298.866 59.4338 298.68 60.2018 298.68C60.8618 298.68 61.4258 298.782 61.8938 298.986C62.3738 299.19 62.7158 299.37 62.9198 299.526L62.3618 300.408C62.1578 300.228 61.8698 300.078 61.4978 299.958C61.1258 299.826 60.7178 299.76 60.2738 299.76C59.7578 299.76 59.3438 299.892 59.0318 300.156C58.7198 300.408 58.4858 300.732 58.3298 301.128C58.1858 301.524 58.1138 301.926 58.1138 302.334V302.622H62.8118V312H61.5878V303.594H58.1138V312H56.8898V303.594ZM73.3942 312H72.1702V306.762C72.1702 305.658 72.0022 304.854 71.6662 304.35C71.3422 303.834 70.8382 303.576 70.1542 303.576C69.6742 303.576 69.2002 303.696 68.7322 303.936C68.2642 304.164 67.8502 304.482 67.4902 304.89C67.1422 305.286 66.8902 305.742 66.7342 306.258V312H65.5102V302.622H66.6262V304.746C66.9982 304.062 67.5442 303.51 68.2642 303.09C68.9842 302.67 69.7642 302.46 70.6042 302.46C71.3002 302.46 71.8522 302.628 72.2602 302.964C72.6682 303.288 72.9562 303.756 73.1242 304.368C73.3042 304.968 73.3942 305.682 73.3942 306.51V312ZM79.9622 307.338C79.9622 306.45 80.1422 305.64 80.5022 304.908C80.8742 304.164 81.3842 303.57 82.0322 303.126C82.6802 302.682 83.4182 302.46 84.2462 302.46C85.0262 302.46 85.7222 302.67 86.3342 303.09C86.9582 303.498 87.4442 303.996 87.7922 304.584V298.86H89.0162V310.524C89.0162 310.848 89.1602 311.016 89.4482 311.028V312C89.2082 312.036 89.0222 312.048 88.8902 312.036C88.6262 312.024 88.3982 311.928 88.2062 311.748C88.0262 311.556 87.9362 311.34 87.9362 311.1V310.182C87.5642 310.794 87.0602 311.28 86.4242 311.64C85.7882 312 85.1282 312.18 84.4442 312.18C83.7962 312.18 83.1962 312.048 82.6442 311.784C82.0922 311.52 81.6122 311.16 81.2042 310.704C80.8082 310.248 80.5022 309.732 80.2862 309.156C80.0702 308.568 79.9622 307.962 79.9622 307.338ZM87.7922 308.778V305.88C87.6362 305.448 87.3842 305.058 87.0362 304.71C86.6882 304.35 86.2922 304.068 85.8482 303.864C85.4162 303.648 84.9842 303.54 84.5522 303.54C83.8802 303.54 83.2922 303.726 82.7882 304.098C82.2962 304.458 81.9122 304.932 81.6362 305.52C81.3602 306.096 81.2222 306.702 81.2222 307.338C81.2222 308.01 81.3722 308.634 81.6722 309.21C81.9842 309.786 82.4042 310.248 82.9322 310.596C83.4602 310.932 84.0542 311.1 84.7142 311.1C85.1222 311.1 85.5482 310.998 85.9922 310.794C86.4482 310.578 86.8442 310.296 87.1802 309.948C87.5282 309.6 87.7322 309.21 87.7922 308.778ZM95.8395 312.18C94.9395 312.18 94.1355 311.958 93.4275 311.514C92.7195 311.07 92.1615 310.476 91.7535 309.732C91.3455 308.988 91.1415 308.172 91.1415 307.284C91.1415 306.408 91.3395 305.604 91.7355 304.872C92.1435 304.14 92.7015 303.558 93.4095 303.126C94.1175 302.682 94.9215 302.46 95.8215 302.46C96.7455 302.46 97.5555 302.682 98.2515 303.126C98.9475 303.57 99.4875 304.158 99.8715 304.89C100.267 305.61 100.465 306.402 100.465 307.266C100.465 307.458 100.459 307.62 100.447 307.752H92.4195C92.4795 308.424 92.6715 309.024 92.9955 309.552C93.3195 310.068 93.7335 310.482 94.2375 310.794C94.7415 311.094 95.2935 311.244 95.8935 311.244C96.5055 311.244 97.0815 311.088 97.6215 310.776C98.1615 310.464 98.5455 310.056 98.7735 309.552L99.8355 309.84C99.6435 310.296 99.3435 310.704 98.9355 311.064C98.5395 311.412 98.0775 311.688 97.5495 311.892C97.0215 312.084 96.4515 312.18 95.8395 312.18ZM92.3835 306.87H99.3135C99.2655 306.198 99.0795 305.604 98.7555 305.088C98.4315 304.56 98.0175 304.152 97.5135 303.864C97.0095 303.564 96.4515 303.414 95.8395 303.414C95.2275 303.414 94.6695 303.564 94.1655 303.864C93.6615 304.152 93.2475 304.56 92.9235 305.088C92.6115 305.604 92.4315 306.198 92.3835 306.87ZM120.892 312H119.668V306.762C119.668 305.682 119.494 304.884 119.146 304.368C118.798 303.84 118.282 303.576 117.598 303.576C116.878 303.576 116.242 303.828 115.69 304.332C115.138 304.836 114.748 305.484 114.52 306.276V312H113.296V306.762C113.296 305.658 113.122 304.854 112.774 304.35C112.438 303.834 111.928 303.576 111.244 303.576C110.536 303.576 109.9 303.822 109.336 304.314C108.784 304.806 108.394 305.454 108.166 306.258V312H106.942V302.622H108.058V304.746C108.442 304.026 108.946 303.468 109.57 303.072C110.194 302.664 110.884 302.46 111.64 302.46C112.42 302.46 113.05 302.688 113.53 303.144C114.01 303.588 114.304 304.164 114.412 304.872C115.276 303.264 116.482 302.46 118.03 302.46C119.086 302.46 119.824 302.832 120.244 303.576C120.676 304.308 120.892 305.286 120.892 306.51V312ZM127.533 312.18C126.633 312.18 125.829 311.958 125.121 311.514C124.413 311.07 123.855 310.476 123.447 309.732C123.039 308.988 122.835 308.172 122.835 307.284C122.835 306.408 123.033 305.604 123.429 304.872C123.837 304.14 124.395 303.558 125.103 303.126C125.811 302.682 126.615 302.46 127.515 302.46C128.439 302.46 129.249 302.682 129.945 303.126C130.641 303.57 131.181 304.158 131.565 304.89C131.961 305.61 132.159 306.402 132.159 307.266C132.159 307.458 132.153 307.62 132.141 307.752H124.113C124.173 308.424 124.365 309.024 124.689 309.552C125.013 310.068 125.427 310.482 125.931 310.794C126.435 311.094 126.987 311.244 127.587 311.244C128.199 311.244 128.775 311.088 129.315 310.776C129.855 310.464 130.239 310.056 130.467 309.552L131.529 309.84C131.337 310.296 131.037 310.704 130.629 311.064C130.233 311.412 129.771 311.688 129.243 311.892C128.715 312.084 128.145 312.18 127.533 312.18ZM124.077 306.87H131.007C130.959 306.198 130.773 305.604 130.449 305.088C130.125 304.56 129.711 304.152 129.207 303.864C128.703 303.564 128.145 303.414 127.533 303.414C126.921 303.414 126.363 303.564 125.859 303.864C125.355 304.152 124.941 304.56 124.617 305.088C124.305 305.604 124.125 306.198 124.077 306.87ZM134.173 300.66V298.86H135.397V300.66H134.173ZM132.643 315.258C132.247 315.258 131.875 315.204 131.527 315.096C131.167 314.988 130.855 314.808 130.591 314.556L131.185 313.728C131.377 313.896 131.587 314.01 131.815 314.07C132.043 314.13 132.271 314.16 132.499 314.16C132.919 314.16 133.303 313.998 133.651 313.674C133.999 313.362 134.173 312.966 134.173 312.486V302.622H135.397V312.414C135.397 312.966 135.265 313.458 135.001 313.89C134.737 314.322 134.395 314.658 133.975 314.898C133.555 315.138 133.111 315.258 132.643 315.258ZM142.086 312.18C141.186 312.18 140.382 311.958 139.674 311.514C138.978 311.07 138.432 310.482 138.036 309.75C137.64 309.006 137.442 308.202 137.442 307.338C137.442 306.462 137.64 305.658 138.036 304.926C138.444 304.182 138.996 303.588 139.692 303.144C140.4 302.688 141.198 302.46 142.086 302.46C142.986 302.46 143.784 302.688 144.48 303.144C145.188 303.588 145.74 304.182 146.136 304.926C146.544 305.658 146.748 306.462 146.748 307.338C146.748 308.202 146.55 309.006 146.154 309.75C145.758 310.482 145.206 311.07 144.498 311.514C143.802 311.958 142.998 312.18 142.086 312.18ZM138.684 307.356C138.684 308.052 138.834 308.688 139.134 309.264C139.446 309.828 139.86 310.278 140.376 310.614C140.892 310.938 141.462 311.1 142.086 311.1C142.71 311.1 143.28 310.932 143.796 310.596C144.312 310.26 144.726 309.804 145.038 309.228C145.35 308.652 145.506 308.016 145.506 307.32C145.506 306.624 145.35 305.988 145.038 305.412C144.726 304.836 144.312 304.38 143.796 304.044C143.28 303.708 142.71 303.54 142.086 303.54C141.474 303.54 140.91 303.714 140.394 304.062C139.878 304.398 139.464 304.854 139.152 305.43C138.84 306.006 138.684 306.648 138.684 307.356ZM153.475 303.702C152.659 303.726 151.939 303.954 151.315 304.386C150.703 304.818 150.271 305.412 150.019 306.168V312H148.795V302.622H149.947V304.872C150.271 304.212 150.697 303.678 151.225 303.27C151.765 302.862 152.335 302.634 152.935 302.586C153.055 302.574 153.157 302.568 153.241 302.568C153.325 302.568 153.403 302.574 153.475 302.586V303.702ZM154.315 309.3C154.315 308.724 154.483 308.226 154.819 307.806C155.155 307.374 155.617 307.038 156.205 306.798C156.805 306.558 157.495 306.438 158.275 306.438C158.731 306.438 159.205 306.48 159.697 306.564C160.189 306.636 160.627 306.738 161.011 306.87V306.078C161.011 305.286 160.777 304.656 160.309 304.188C159.841 303.72 159.193 303.486 158.365 303.486C157.873 303.486 157.381 303.582 156.889 303.774C156.397 303.954 155.887 304.224 155.359 304.584L154.891 303.72C155.503 303.3 156.103 302.988 156.691 302.784C157.279 302.568 157.879 302.46 158.491 302.46C159.643 302.46 160.555 302.79 161.227 303.45C161.899 304.11 162.235 305.022 162.235 306.186V310.524C162.235 310.848 162.385 311.016 162.685 311.028V312C162.421 312.036 162.235 312.048 162.127 312.036C161.827 312.024 161.599 311.928 161.443 311.748C161.287 311.568 161.203 311.376 161.191 311.172L161.173 310.488C160.753 311.028 160.207 311.448 159.535 311.748C158.863 312.036 158.179 312.18 157.483 312.18C156.871 312.18 156.325 312.054 155.845 311.802C155.365 311.538 154.987 311.19 154.711 310.758C154.447 310.314 154.315 309.828 154.315 309.3ZM160.597 310.02C160.873 309.696 161.011 309.396 161.011 309.12V307.752C160.183 307.428 159.319 307.266 158.419 307.266C157.543 307.266 156.835 307.44 156.295 307.788C155.755 308.136 155.485 308.61 155.485 309.21C155.485 309.726 155.683 310.194 156.079 310.614C156.487 311.034 157.051 311.244 157.771 311.244C158.359 311.244 158.905 311.13 159.409 310.902C159.925 310.674 160.321 310.38 160.597 310.02ZM169.559 303.702C168.743 303.726 168.023 303.954 167.399 304.386C166.787 304.818 166.355 305.412 166.103 306.168V312H164.879V302.622H166.031V304.872C166.355 304.212 166.781 303.678 167.309 303.27C167.849 302.862 168.419 302.634 169.019 302.586C169.139 302.574 169.241 302.568 169.325 302.568C169.409 302.568 169.487 302.574 169.559 302.586V303.702ZM175.41 298.86H176.634V309.876C176.634 310.344 176.712 310.65 176.868 310.794C177.036 310.938 177.246 311.01 177.498 311.01C177.714 311.01 177.93 310.986 178.146 310.938C178.374 310.89 178.56 310.842 178.704 310.794L178.92 311.784C178.692 311.88 178.41 311.958 178.074 312.018C177.75 312.078 177.468 312.108 177.228 312.108C176.676 312.108 176.232 311.946 175.896 311.622C175.572 311.298 175.41 310.854 175.41 310.29V298.86ZM179.504 309.3C179.504 308.724 179.672 308.226 180.008 307.806C180.344 307.374 180.806 307.038 181.394 306.798C181.994 306.558 182.684 306.438 183.464 306.438C183.92 306.438 184.394 306.48 184.886 306.564C185.378 306.636 185.816 306.738 186.2 306.87V306.078C186.2 305.286 185.966 304.656 185.498 304.188C185.03 303.72 184.382 303.486 183.554 303.486C183.062 303.486 182.57 303.582 182.078 303.774C181.586 303.954 181.076 304.224 180.548 304.584L180.08 303.72C180.692 303.3 181.292 302.988 181.88 302.784C182.468 302.568 183.068 302.46 183.68 302.46C184.832 302.46 185.744 302.79 186.416 303.45C187.088 304.11 187.424 305.022 187.424 306.186V310.524C187.424 310.848 187.574 311.016 187.874 311.028V312C187.61 312.036 187.424 312.048 187.316 312.036C187.016 312.024 186.788 311.928 186.632 311.748C186.476 311.568 186.392 311.376 186.38 311.172L186.362 310.488C185.942 311.028 185.396 311.448 184.724 311.748C184.052 312.036 183.368 312.18 182.672 312.18C182.06 312.18 181.514 312.054 181.034 311.802C180.554 311.538 180.176 311.19 179.9 310.758C179.636 310.314 179.504 309.828 179.504 309.3ZM185.786 310.02C186.062 309.696 186.2 309.396 186.2 309.12V307.752C185.372 307.428 184.508 307.266 183.608 307.266C182.732 307.266 182.024 307.44 181.484 307.788C180.944 308.136 180.674 308.61 180.674 309.21C180.674 309.726 180.872 310.194 181.268 310.614C181.676 311.034 182.24 311.244 182.96 311.244C183.548 311.244 184.094 311.13 184.598 310.902C185.114 310.674 185.51 310.38 185.786 310.02ZM1.8 333V324.594H0.504V323.622H1.8V323.37C1.8 322.218 2.046 321.318 2.538 320.67C3.042 320.01 3.714 319.68 4.554 319.68C4.914 319.68 5.268 319.734 5.616 319.842C5.976 319.95 6.282 320.094 6.534 320.274L6.156 321.156C5.796 320.88 5.34 320.742 4.788 320.742C4.224 320.742 3.786 320.964 3.474 321.408C3.174 321.852 3.024 322.494 3.024 323.334V323.622H5.616V324.594H3.024V333H1.8ZM7.20141 329.13V323.622H8.42541V328.914C8.42541 331.038 9.15141 332.1 10.6034 332.1C11.3234 332.1 11.9954 331.866 12.6194 331.398C13.2554 330.93 13.7114 330.306 13.9874 329.526V323.622H15.2114V331.524C15.2114 331.848 15.3554 332.016 15.6434 332.028V333C15.4994 333.024 15.3854 333.036 15.3014 333.036C15.2294 333.036 15.1514 333.036 15.0674 333.036C14.8154 333.012 14.5994 332.916 14.4194 332.748C14.2514 332.58 14.1674 332.376 14.1674 332.136L14.1314 330.876C13.7234 331.608 13.1654 332.178 12.4574 332.586C11.7614 332.982 11.0054 333.18 10.1894 333.18C8.19741 333.18 7.20141 331.83 7.20141 329.13ZM25.8629 333H24.6389V327.762C24.6389 326.658 24.4709 325.854 24.1349 325.35C23.8109 324.834 23.3069 324.576 22.6229 324.576C22.1429 324.576 21.6689 324.696 21.2009 324.936C20.7329 325.164 20.3189 325.482 19.9589 325.89C19.6109 326.286 19.3589 326.742 19.2029 327.258V333H17.9789V323.622H19.0949V325.746C19.4669 325.062 20.0129 324.51 20.7329 324.09C21.4529 323.67 22.2329 323.46 23.0729 323.46C23.7689 323.46 24.3209 323.628 24.7289 323.964C25.1369 324.288 25.4249 324.756 25.5929 325.368C25.7729 325.968 25.8629 326.682 25.8629 327.51V333ZM32.541 333.18C31.629 333.18 30.819 332.958 30.111 332.514C29.403 332.058 28.845 331.464 28.437 330.732C28.029 329.988 27.825 329.172 27.825 328.284C27.825 327.396 28.023 326.592 28.419 325.872C28.815 325.14 29.367 324.558 30.075 324.126C30.783 323.682 31.599 323.46 32.523 323.46C33.399 323.46 34.167 323.664 34.827 324.072C35.499 324.468 36.003 325.008 36.339 325.692L35.151 326.07C34.887 325.59 34.515 325.218 34.035 324.954C33.567 324.678 33.045 324.54 32.469 324.54C31.833 324.54 31.257 324.702 30.741 325.026C30.237 325.35 29.829 325.8 29.517 326.376C29.217 326.94 29.067 327.576 29.067 328.284C29.067 328.992 29.223 329.634 29.535 330.21C29.847 330.786 30.261 331.248 30.777 331.596C31.293 331.932 31.863 332.1 32.487 332.1C32.895 332.1 33.291 332.028 33.675 331.884C34.059 331.74 34.389 331.548 34.665 331.308C34.941 331.056 35.127 330.786 35.223 330.498L36.429 330.858C36.261 331.302 35.985 331.704 35.601 332.064C35.217 332.412 34.761 332.688 34.233 332.892C33.705 333.084 33.141 333.18 32.541 333.18ZM38.352 321.66V319.86H39.576V321.66H38.352ZM38.352 333V323.622H39.576V333H38.352ZM46.2679 333.18C45.3679 333.18 44.5639 332.958 43.8559 332.514C43.1599 332.07 42.6139 331.482 42.2179 330.75C41.8219 330.006 41.6239 329.202 41.6239 328.338C41.6239 327.462 41.8219 326.658 42.2179 325.926C42.6259 325.182 43.1779 324.588 43.8739 324.144C44.5819 323.688 45.3799 323.46 46.2679 323.46C47.1679 323.46 47.9659 323.688 48.6619 324.144C49.3699 324.588 49.9219 325.182 50.3179 325.926C50.7259 326.658 50.9299 327.462 50.9299 328.338C50.9299 329.202 50.7319 330.006 50.3359 330.75C49.9399 331.482 49.3879 332.07 48.6799 332.514C47.9839 332.958 47.1799 333.18 46.2679 333.18ZM42.8659 328.356C42.8659 329.052 43.0159 329.688 43.3159 330.264C43.6279 330.828 44.0419 331.278 44.5579 331.614C45.0739 331.938 45.6439 332.1 46.2679 332.1C46.8919 332.1 47.4619 331.932 47.9779 331.596C48.4939 331.26 48.9079 330.804 49.2199 330.228C49.5319 329.652 49.6879 329.016 49.6879 328.32C49.6879 327.624 49.5319 326.988 49.2199 326.412C48.9079 325.836 48.4939 325.38 47.9779 325.044C47.4619 324.708 46.8919 324.54 46.2679 324.54C45.6559 324.54 45.0919 324.714 44.5759 325.062C44.0599 325.398 43.6459 325.854 43.3339 326.43C43.0219 327.006 42.8659 327.648 42.8659 328.356ZM60.861 333H59.637V327.762C59.637 326.658 59.469 325.854 59.133 325.35C58.809 324.834 58.305 324.576 57.621 324.576C57.141 324.576 56.667 324.696 56.199 324.936C55.731 325.164 55.317 325.482 54.957 325.89C54.609 326.286 54.357 326.742 54.201 327.258V333H52.977V323.622H54.093V325.746C54.465 325.062 55.011 324.51 55.731 324.09C56.451 323.67 57.231 323.46 58.071 323.46C58.767 323.46 59.319 323.628 59.727 323.964C60.135 324.288 60.423 324.756 60.591 325.368C60.771 325.968 60.861 326.682 60.861 327.51V333ZM62.7151 330.3C62.7151 329.724 62.8831 329.226 63.2191 328.806C63.5551 328.374 64.0171 328.038 64.6051 327.798C65.2051 327.558 65.8951 327.438 66.6751 327.438C67.1311 327.438 67.6051 327.48 68.0971 327.564C68.5891 327.636 69.0271 327.738 69.4111 327.87V327.078C69.4111 326.286 69.1771 325.656 68.7091 325.188C68.2411 324.72 67.5931 324.486 66.7651 324.486C66.2731 324.486 65.7811 324.582 65.2891 324.774C64.7971 324.954 64.2871 325.224 63.7591 325.584L63.2911 324.72C63.9031 324.3 64.5031 323.988 65.0911 323.784C65.6791 323.568 66.2791 323.46 66.8911 323.46C68.0431 323.46 68.9551 323.79 69.6271 324.45C70.2991 325.11 70.6351 326.022 70.6351 327.186V331.524C70.6351 331.848 70.7851 332.016 71.0851 332.028V333C70.8211 333.036 70.6351 333.048 70.5271 333.036C70.2271 333.024 69.9991 332.928 69.8431 332.748C69.6871 332.568 69.6031 332.376 69.5911 332.172L69.5731 331.488C69.1531 332.028 68.6071 332.448 67.9351 332.748C67.2631 333.036 66.5791 333.18 65.8831 333.18C65.2711 333.18 64.7251 333.054 64.2451 332.802C63.7651 332.538 63.3871 332.19 63.1111 331.758C62.8471 331.314 62.7151 330.828 62.7151 330.3ZM68.9971 331.02C69.2731 330.696 69.4111 330.396 69.4111 330.12V328.752C68.5831 328.428 67.7191 328.266 66.8191 328.266C65.9431 328.266 65.2351 328.44 64.6951 328.788C64.1551 329.136 63.8851 329.61 63.8851 330.21C63.8851 330.726 64.0831 331.194 64.4791 331.614C64.8871 332.034 65.4511 332.244 66.1711 332.244C66.7591 332.244 67.3051 332.13 67.8091 331.902C68.3251 331.674 68.7211 331.38 68.9971 331.02ZM73.3337 319.86H74.5577V330.876C74.5577 331.344 74.6357 331.65 74.7917 331.794C74.9597 331.938 75.1697 332.01 75.4217 332.01C75.6377 332.01 75.8537 331.986 76.0697 331.938C76.2977 331.89 76.4837 331.842 76.6277 331.794L76.8437 332.784C76.6157 332.88 76.3337 332.958 75.9977 333.018C75.6737 333.078 75.3917 333.108 75.1517 333.108C74.5997 333.108 74.1557 332.946 73.8197 332.622C73.4957 332.298 73.3337 331.854 73.3337 331.29V319.86ZM78.184 321.66V319.86H79.408V321.66H78.184ZM78.184 333V323.622H79.408V333H78.184ZM81.4739 328.338C81.4739 327.45 81.6539 326.64 82.0139 325.908C82.3859 325.164 82.8959 324.57 83.5439 324.126C84.1919 323.682 84.9299 323.46 85.7579 323.46C86.5379 323.46 87.2339 323.67 87.8459 324.09C88.4699 324.498 88.9559 324.996 89.3039 325.584V319.86H90.5279V331.524C90.5279 331.848 90.6719 332.016 90.9599 332.028V333C90.7199 333.036 90.5339 333.048 90.4019 333.036C90.1379 333.024 89.9099 332.928 89.7179 332.748C89.5379 332.556 89.4479 332.34 89.4479 332.1V331.182C89.0759 331.794 88.5719 332.28 87.9359 332.64C87.2999 333 86.6399 333.18 85.9559 333.18C85.3079 333.18 84.7079 333.048 84.1559 332.784C83.6039 332.52 83.1239 332.16 82.7159 331.704C82.3199 331.248 82.0139 330.732 81.7979 330.156C81.5819 329.568 81.4739 328.962 81.4739 328.338ZM89.3039 329.778V326.88C89.1479 326.448 88.8959 326.058 88.5479 325.71C88.1999 325.35 87.8039 325.068 87.3599 324.864C86.9279 324.648 86.4959 324.54 86.0639 324.54C85.3919 324.54 84.8039 324.726 84.2999 325.098C83.8079 325.458 83.4239 325.932 83.1479 326.52C82.8719 327.096 82.7339 327.702 82.7339 328.338C82.7339 329.01 82.8839 329.634 83.1839 330.21C83.4959 330.786 83.9159 331.248 84.4439 331.596C84.9719 331.932 85.5659 332.1 86.2259 332.1C86.6339 332.1 87.0599 331.998 87.5039 331.794C87.9599 331.578 88.3559 331.296 88.6919 330.948C89.0399 330.6 89.2439 330.21 89.3039 329.778ZM92.5452 330.3C92.5452 329.724 92.7132 329.226 93.0492 328.806C93.3852 328.374 93.8472 328.038 94.4352 327.798C95.0352 327.558 95.7252 327.438 96.5052 327.438C96.9612 327.438 97.4352 327.48 97.9272 327.564C98.4192 327.636 98.8572 327.738 99.2412 327.87V327.078C99.2412 326.286 99.0072 325.656 98.5392 325.188C98.0712 324.72 97.4232 324.486 96.5952 324.486C96.1032 324.486 95.6112 324.582 95.1192 324.774C94.6272 324.954 94.1172 325.224 93.5892 325.584L93.1212 324.72C93.7332 324.3 94.3332 323.988 94.9212 323.784C95.5092 323.568 96.1092 323.46 96.7212 323.46C97.8732 323.46 98.7852 323.79 99.4572 324.45C100.129 325.11 100.465 326.022 100.465 327.186V331.524C100.465 331.848 100.615 332.016 100.915 332.028V333C100.651 333.036 100.465 333.048 100.357 333.036C100.057 333.024 99.8292 332.928 99.6732 332.748C99.5172 332.568 99.4332 332.376 99.4212 332.172L99.4032 331.488C98.9832 332.028 98.4372 332.448 97.7652 332.748C97.0932 333.036 96.4092 333.18 95.7132 333.18C95.1012 333.18 94.5552 333.054 94.0752 332.802C93.5952 332.538 93.2172 332.19 92.9412 331.758C92.6772 331.314 92.5452 330.828 92.5452 330.3ZM98.8272 331.02C99.1032 330.696 99.2412 330.396 99.2412 330.12V328.752C98.4132 328.428 97.5492 328.266 96.6492 328.266C95.7732 328.266 95.0652 328.44 94.5252 328.788C93.9852 329.136 93.7152 329.61 93.7152 330.21C93.7152 330.726 93.9132 331.194 94.3092 331.614C94.7172 332.034 95.2812 332.244 96.0012 332.244C96.5892 332.244 97.1352 332.13 97.6392 331.902C98.1552 331.674 98.5512 331.38 98.8272 331.02ZM102.48 328.338C102.48 327.45 102.66 326.64 103.02 325.908C103.392 325.164 103.902 324.57 104.55 324.126C105.198 323.682 105.936 323.46 106.764 323.46C107.544 323.46 108.24 323.67 108.852 324.09C109.476 324.498 109.962 324.996 110.31 325.584V319.86H111.534V331.524C111.534 331.848 111.678 332.016 111.966 332.028V333C111.726 333.036 111.54 333.048 111.408 333.036C111.144 333.024 110.916 332.928 110.724 332.748C110.544 332.556 110.454 332.34 110.454 332.1V331.182C110.082 331.794 109.578 332.28 108.942 332.64C108.306 333 107.646 333.18 106.962 333.18C106.314 333.18 105.714 333.048 105.162 332.784C104.61 332.52 104.13 332.16 103.722 331.704C103.326 331.248 103.02 330.732 102.804 330.156C102.588 329.568 102.48 328.962 102.48 328.338ZM110.31 329.778V326.88C110.154 326.448 109.902 326.058 109.554 325.71C109.206 325.35 108.81 325.068 108.366 324.864C107.934 324.648 107.502 324.54 107.07 324.54C106.398 324.54 105.81 324.726 105.306 325.098C104.814 325.458 104.43 325.932 104.154 326.52C103.878 327.096 103.74 327.702 103.74 328.338C103.74 329.01 103.89 329.634 104.19 330.21C104.502 330.786 104.922 331.248 105.45 331.596C105.978 331.932 106.572 332.1 107.232 332.1C107.64 332.1 108.066 331.998 108.51 331.794C108.966 331.578 109.362 331.296 109.698 330.948C110.046 330.6 110.25 330.21 110.31 329.778ZM118.265 328.338C118.265 327.45 118.445 326.64 118.805 325.908C119.177 325.164 119.687 324.57 120.335 324.126C120.983 323.682 121.721 323.46 122.549 323.46C123.329 323.46 124.025 323.67 124.637 324.09C125.261 324.498 125.747 324.996 126.095 325.584V319.86H127.319V331.524C127.319 331.848 127.463 332.016 127.751 332.028V333C127.511 333.036 127.325 333.048 127.193 333.036C126.929 333.024 126.701 332.928 126.509 332.748C126.329 332.556 126.239 332.34 126.239 332.1V331.182C125.867 331.794 125.363 332.28 124.727 332.64C124.091 333 123.431 333.18 122.747 333.18C122.099 333.18 121.499 333.048 120.947 332.784C120.395 332.52 119.915 332.16 119.507 331.704C119.111 331.248 118.805 330.732 118.589 330.156C118.373 329.568 118.265 328.962 118.265 328.338ZM126.095 329.778V326.88C125.939 326.448 125.687 326.058 125.339 325.71C124.991 325.35 124.595 325.068 124.151 324.864C123.719 324.648 123.287 324.54 122.855 324.54C122.183 324.54 121.595 324.726 121.091 325.098C120.599 325.458 120.215 325.932 119.939 326.52C119.663 327.096 119.525 327.702 119.525 328.338C119.525 329.01 119.675 329.634 119.975 330.21C120.287 330.786 120.707 331.248 121.235 331.596C121.763 331.932 122.357 332.1 123.017 332.1C123.425 332.1 123.851 331.998 124.295 331.794C124.751 331.578 125.147 331.296 125.483 330.948C125.831 330.6 126.035 330.21 126.095 329.778ZM134.142 333.18C133.242 333.18 132.438 332.958 131.73 332.514C131.022 332.07 130.464 331.476 130.056 330.732C129.648 329.988 129.444 329.172 129.444 328.284C129.444 327.408 129.642 326.604 130.038 325.872C130.446 325.14 131.004 324.558 131.712 324.126C132.42 323.682 133.224 323.46 134.124 323.46C135.048 323.46 135.858 323.682 136.554 324.126C137.25 324.57 137.79 325.158 138.174 325.89C138.57 326.61 138.768 327.402 138.768 328.266C138.768 328.458 138.762 328.62 138.75 328.752H130.722C130.782 329.424 130.974 330.024 131.298 330.552C131.622 331.068 132.036 331.482 132.54 331.794C133.044 332.094 133.596 332.244 134.196 332.244C134.808 332.244 135.384 332.088 135.924 331.776C136.464 331.464 136.848 331.056 137.076 330.552L138.138 330.84C137.946 331.296 137.646 331.704 137.238 332.064C136.842 332.412 136.38 332.688 135.852 332.892C135.324 333.084 134.754 333.18 134.142 333.18ZM130.686 327.87H137.616C137.568 327.198 137.382 326.604 137.058 326.088C136.734 325.56 136.32 325.152 135.816 324.864C135.312 324.564 134.754 324.414 134.142 324.414C133.53 324.414 132.972 324.564 132.468 324.864C131.964 325.152 131.55 325.56 131.226 326.088C130.914 326.604 130.734 327.198 130.686 327.87ZM148.323 333.18C147.555 333.18 146.841 333.054 146.181 332.802C145.533 332.538 144.963 332.154 144.471 331.65L144.975 330.786C145.503 331.278 146.031 331.638 146.559 331.866C147.099 332.082 147.669 332.19 148.269 332.19C148.989 332.19 149.577 332.046 150.033 331.758C150.501 331.458 150.735 331.032 150.735 330.48C150.735 330.108 150.621 329.826 150.393 329.634C150.177 329.43 149.859 329.268 149.439 329.148C149.031 329.028 148.539 328.89 147.963 328.734C147.315 328.554 146.769 328.368 146.325 328.176C145.893 327.972 145.563 327.72 145.335 327.42C145.119 327.108 145.011 326.706 145.011 326.214C145.011 325.614 145.161 325.11 145.461 324.702C145.773 324.294 146.193 323.988 146.721 323.784C147.261 323.568 147.861 323.46 148.521 323.46C149.241 323.46 149.877 323.574 150.429 323.802C150.981 324.03 151.431 324.348 151.779 324.756L151.185 325.584C150.861 325.2 150.459 324.918 149.979 324.738C149.511 324.546 149.001 324.45 148.449 324.45C148.065 324.45 147.699 324.504 147.351 324.612C147.003 324.708 146.715 324.876 146.487 325.116C146.271 325.344 146.163 325.662 146.163 326.07C146.163 326.574 146.349 326.922 146.721 327.114C147.093 327.306 147.657 327.51 148.413 327.726C149.121 327.918 149.739 328.11 150.267 328.302C150.795 328.494 151.203 328.752 151.491 329.076C151.779 329.388 151.923 329.826 151.923 330.39C151.923 331.266 151.593 331.95 150.933 332.442C150.273 332.934 149.403 333.18 148.323 333.18ZM153.856 329.13V323.622H155.08V328.914C155.08 331.038 155.806 332.1 157.258 332.1C157.978 332.1 158.65 331.866 159.274 331.398C159.91 330.93 160.366 330.306 160.642 329.526V323.622H161.866V331.524C161.866 331.848 162.01 332.016 162.298 332.028V333C162.154 333.024 162.04 333.036 161.956 333.036C161.884 333.036 161.806 333.036 161.722 333.036C161.47 333.012 161.254 332.916 161.074 332.748C160.906 332.58 160.822 332.376 160.822 332.136L160.786 330.876C160.378 331.608 159.82 332.178 159.112 332.586C158.416 332.982 157.66 333.18 156.844 333.18C154.852 333.18 153.856 331.83 153.856 329.13ZM173.271 333.18C172.371 333.18 171.567 332.958 170.859 332.514C170.151 332.07 169.593 331.476 169.185 330.732C168.777 329.988 168.573 329.172 168.573 328.284C168.573 327.408 168.771 326.604 169.167 325.872C169.575 325.14 170.133 324.558 170.841 324.126C171.549 323.682 172.353 323.46 173.253 323.46C174.177 323.46 174.987 323.682 175.683 324.126C176.379 324.57 176.919 325.158 177.303 325.89C177.699 326.61 177.897 327.402 177.897 328.266C177.897 328.458 177.891 328.62 177.879 328.752H169.851C169.911 329.424 170.103 330.024 170.427 330.552C170.751 331.068 171.165 331.482 171.669 331.794C172.173 332.094 172.725 332.244 173.325 332.244C173.937 332.244 174.513 332.088 175.053 331.776C175.593 331.464 175.977 331.056 176.205 330.552L177.267 330.84C177.075 331.296 176.775 331.704 176.367 332.064C175.971 332.412 175.509 332.688 174.981 332.892C174.453 333.084 173.883 333.18 173.271 333.18ZM169.815 327.87H176.745C176.697 327.198 176.511 326.604 176.187 326.088C175.863 325.56 175.449 325.152 174.945 324.864C174.441 324.564 173.883 324.414 173.271 324.414C172.659 324.414 172.101 324.564 171.597 324.864C171.093 325.152 170.679 325.56 170.355 326.088C170.043 326.604 169.863 327.198 169.815 327.87ZM193.736 333H192.512V327.762C192.512 326.682 192.338 325.884 191.99 325.368C191.642 324.84 191.126 324.576 190.442 324.576C189.722 324.576 189.086 324.828 188.534 325.332C187.982 325.836 187.592 326.484 187.364 327.276V333H186.14V327.762C186.14 326.658 185.966 325.854 185.618 325.35C185.282 324.834 184.772 324.576 184.088 324.576C183.38 324.576 182.744 324.822 182.18 325.314C181.628 325.806 181.238 326.454 181.01 327.258V333H179.786V323.622H180.902V325.746C181.286 325.026 181.79 324.468 182.414 324.072C183.038 323.664 183.728 323.46 184.484 323.46C185.264 323.46 185.894 323.688 186.374 324.144C186.854 324.588 187.148 325.164 187.256 325.872C188.12 324.264 189.326 323.46 190.874 323.46C191.93 323.46 192.668 323.832 193.088 324.576C193.52 325.308 193.736 326.286 193.736 327.51V333ZM201.115 333.18C200.335 333.18 199.633 332.976 199.009 332.568C198.397 332.16 197.911 331.656 197.551 331.056V336.834H196.327V323.622H197.425V325.44C197.797 324.852 198.289 324.378 198.901 324.018C199.525 323.646 200.197 323.46 200.917 323.46C201.565 323.46 202.159 323.598 202.699 323.874C203.239 324.138 203.707 324.498 204.103 324.954C204.511 325.41 204.823 325.932 205.039 326.52C205.255 327.096 205.363 327.696 205.363 328.32C205.363 329.196 205.183 330.006 204.823 330.75C204.475 331.482 203.977 332.07 203.329 332.514C202.693 332.958 201.955 333.18 201.115 333.18ZM200.773 332.1C201.457 332.1 202.045 331.92 202.537 331.56C203.041 331.188 203.431 330.714 203.707 330.138C203.983 329.562 204.121 328.956 204.121 328.32C204.121 327.648 203.965 327.024 203.653 326.448C203.341 325.872 202.921 325.41 202.393 325.062C201.877 324.714 201.289 324.54 200.629 324.54C200.221 324.54 199.789 324.648 199.333 324.864C198.889 325.068 198.493 325.35 198.145 325.71C197.809 326.058 197.611 326.442 197.551 326.862V329.742C197.827 330.402 198.259 330.96 198.847 331.416C199.435 331.872 200.077 332.1 200.773 332.1ZM212.116 324.702C211.3 324.726 210.58 324.954 209.956 325.386C209.344 325.818 208.912 326.412 208.66 327.168V333H207.436V323.622H208.588V325.872C208.912 325.212 209.338 324.678 209.866 324.27C210.406 323.862 210.976 323.634 211.576 323.586C211.696 323.574 211.798 323.568 211.882 323.568C211.966 323.568 212.044 323.574 212.116 323.586V324.702ZM217.515 333.18C216.615 333.18 215.811 332.958 215.103 332.514C214.395 332.07 213.837 331.476 213.429 330.732C213.021 329.988 212.817 329.172 212.817 328.284C212.817 327.408 213.015 326.604 213.411 325.872C213.819 325.14 214.377 324.558 215.085 324.126C215.793 323.682 216.597 323.46 217.497 323.46C218.421 323.46 219.231 323.682 219.927 324.126C220.623 324.57 221.163 325.158 221.547 325.89C221.943 326.61 222.141 327.402 222.141 328.266C222.141 328.458 222.135 328.62 222.123 328.752H214.095C214.155 329.424 214.347 330.024 214.671 330.552C214.995 331.068 215.409 331.482 215.913 331.794C216.417 332.094 216.969 332.244 217.569 332.244C218.181 332.244 218.757 332.088 219.297 331.776C219.837 331.464 220.221 331.056 220.449 330.552L221.511 330.84C221.319 331.296 221.019 331.704 220.611 332.064C220.215 332.412 219.753 332.688 219.225 332.892C218.697 333.084 218.127 333.18 217.515 333.18ZM214.059 327.87H220.989C220.941 327.198 220.755 326.604 220.431 326.088C220.107 325.56 219.693 325.152 219.189 324.864C218.685 324.564 218.127 324.414 217.515 324.414C216.903 324.414 216.345 324.564 215.841 324.864C215.337 325.152 214.923 325.56 214.599 326.088C214.287 326.604 214.107 327.198 214.059 327.87ZM227.108 333.18C226.34 333.18 225.626 333.054 224.966 332.802C224.318 332.538 223.748 332.154 223.256 331.65L223.76 330.786C224.288 331.278 224.816 331.638 225.344 331.866C225.884 332.082 226.454 332.19 227.054 332.19C227.774 332.19 228.362 332.046 228.818 331.758C229.286 331.458 229.52 331.032 229.52 330.48C229.52 330.108 229.406 329.826 229.178 329.634C228.962 329.43 228.644 329.268 228.224 329.148C227.816 329.028 227.324 328.89 226.748 328.734C226.1 328.554 225.554 328.368 225.11 328.176C224.678 327.972 224.348 327.72 224.12 327.42C223.904 327.108 223.796 326.706 223.796 326.214C223.796 325.614 223.946 325.11 224.246 324.702C224.558 324.294 224.978 323.988 225.506 323.784C226.046 323.568 226.646 323.46 227.306 323.46C228.026 323.46 228.662 323.574 229.214 323.802C229.766 324.03 230.216 324.348 230.564 324.756L229.97 325.584C229.646 325.2 229.244 324.918 228.764 324.738C228.296 324.546 227.786 324.45 227.234 324.45C226.85 324.45 226.484 324.504 226.136 324.612C225.788 324.708 225.5 324.876 225.272 325.116C225.056 325.344 224.948 325.662 224.948 326.07C224.948 326.574 225.134 326.922 225.506 327.114C225.878 327.306 226.442 327.51 227.198 327.726C227.906 327.918 228.524 328.11 229.052 328.302C229.58 328.494 229.988 328.752 230.276 329.076C230.564 329.388 230.708 329.826 230.708 330.39C230.708 331.266 230.378 331.95 229.718 332.442C229.058 332.934 228.188 333.18 227.108 333.18ZM231.975 330.3C231.975 329.724 232.143 329.226 232.479 328.806C232.815 328.374 233.277 328.038 233.865 327.798C234.465 327.558 235.155 327.438 235.935 327.438C236.391 327.438 236.865 327.48 237.357 327.564C237.849 327.636 238.287 327.738 238.671 327.87V327.078C238.671 326.286 238.437 325.656 237.969 325.188C237.501 324.72 236.853 324.486 236.025 324.486C235.533 324.486 235.041 324.582 234.549 324.774C234.057 324.954 233.547 325.224 233.019 325.584L232.551 324.72C233.163 324.3 233.763 323.988 234.351 323.784C234.939 323.568 235.539 323.46 236.151 323.46C237.303 323.46 238.215 323.79 238.887 324.45C239.559 325.11 239.895 326.022 239.895 327.186V331.524C239.895 331.848 240.045 332.016 240.345 332.028V333C240.081 333.036 239.895 333.048 239.787 333.036C239.487 333.024 239.259 332.928 239.103 332.748C238.947 332.568 238.863 332.376 238.851 332.172L238.833 331.488C238.413 332.028 237.867 332.448 237.195 332.748C236.523 333.036 235.839 333.18 235.143 333.18C234.531 333.18 233.985 333.054 233.505 332.802C233.025 332.538 232.647 332.19 232.371 331.758C232.107 331.314 231.975 330.828 231.975 330.3ZM238.257 331.02C238.533 330.696 238.671 330.396 238.671 330.12V328.752C237.843 328.428 236.979 328.266 236.079 328.266C235.203 328.266 234.495 328.44 233.955 328.788C233.415 329.136 233.145 329.61 233.145 330.21C233.145 330.726 233.343 331.194 233.739 331.614C234.147 332.034 234.711 332.244 235.431 332.244C236.019 332.244 236.565 332.13 237.069 331.902C237.585 331.674 237.981 331.38 238.257 331.02Z" fill="black"/>
<path d="M174.435 52.836H173.412V24.7672C173.412 22.6339 172.992 20.5214 172.177 18.5504C171.362 16.5794 170.167 14.7885 168.661 13.28C167.155 11.7715 165.367 10.5748 163.4 9.75842C161.432 8.94201 159.323 8.5218 157.193 8.5218H97.8225C95.6926 8.5218 93.5836 8.94199 91.6158 9.7584C89.648 10.5748 87.8601 11.7714 86.354 13.28C84.8479 14.7885 83.6533 16.5794 82.8382 18.5503C82.0231 20.5213 81.6036 22.6338 81.6036 24.7672V178.755C81.6036 183.063 83.3123 187.195 86.354 190.242C89.3956 193.288 93.5209 195 97.8225 195H157.193C161.494 195 165.62 193.288 168.661 190.242C171.703 187.195 173.412 183.063 173.412 178.755V72.8158H174.435L174.435 52.836Z" fill="#3F3D56"/>
<path d="M169.961 24.8806V178.641C169.96 181.859 168.684 184.945 166.413 187.22C164.141 189.496 161.06 190.774 157.848 190.774H98.1901C96.5996 190.774 95.0247 190.46 93.5553 189.85C92.0859 189.24 90.7508 188.347 89.6263 187.22C88.5017 186.093 87.6097 184.756 87.0013 183.284C86.3928 181.812 86.0798 180.234 86.08 178.641V24.8806C86.0798 23.2875 86.3928 21.7099 87.0013 20.238C87.6097 18.7661 88.5017 17.4286 89.6263 16.302C90.7508 15.1754 92.0859 14.2816 93.5553 13.6719C95.0247 13.0621 96.5996 12.7482 98.1901 12.7481H105.43C105.073 13.6233 104.936 14.5731 105.032 15.5136C105.128 16.4541 105.454 17.3565 105.981 18.1412C106.507 18.9258 107.218 19.5686 108.052 20.0129C108.885 20.4572 109.814 20.6893 110.758 20.6887H144.771C145.715 20.6892 146.644 20.457 147.477 20.0126C148.31 19.5683 149.021 18.9254 149.547 18.1407C150.074 17.356 150.399 16.4536 150.495 15.5132C150.591 14.5727 150.454 13.6231 150.097 12.7481H157.848C161.06 12.7482 164.141 14.0264 166.413 16.3017C168.684 18.577 169.96 21.6629 169.961 24.8806V24.8806Z" fill="white"/>
<path d="M113.045 54.0497C121.805 54.0497 128.905 46.9372 128.905 38.1635C128.905 29.3898 121.805 22.2773 113.045 22.2773C104.286 22.2773 97.1848 29.3898 97.1848 38.1635C97.1848 46.9372 104.286 54.0497 113.045 54.0497Z" fill="#FF6584"/>
<path d="M153.166 114.287C154.33 102.466 150.585 92.4202 144.801 91.849C139.017 91.2778 133.385 100.397 132.221 112.218C131.058 124.039 134.803 134.085 140.587 134.656C146.371 135.227 152.003 126.107 153.166 114.287Z" fill="#3F3D56"/>
<path d="M140.212 148.382C138.499 122.761 145.124 98.0551 145.191 97.8087L145.993 98.0278C145.926 98.2729 139.338 122.849 141.042 148.326L140.212 148.382Z" fill="#3073FF"/>
<path d="M152.367 109.561L142.397 113.699L142.716 114.469L152.685 110.33L152.367 109.561Z" fill="#3073FF"/>
<path d="M133.043 110.219L132.58 110.912L141.549 116.923L142.012 116.231L133.043 110.219Z" fill="#3073FF"/>
<path d="M116.323 146.441C112.977 96.3954 125.916 48.1392 126.047 47.6576L126.85 47.8766C126.719 48.357 113.816 96.4836 117.153 146.386L116.323 146.441Z" fill="#3F3D56"/>
<path d="M139.852 70.9053L120.353 78.9998L120.671 79.7694L140.171 71.6749L139.852 70.9053Z" fill="#3F3D56"/>
<path d="M101.682 72.1553L101.22 72.8476L118.762 84.6056L119.225 83.9132L101.682 72.1553Z" fill="#3F3D56"/>
<path d="M86.08 150.468L85.5684 179.295C85.5684 186.115 91.5007 191.645 98.1902 191.645H157.848C164.537 191.645 170.472 186.115 170.472 179.295L169.961 150.721C139.884 139.044 112.073 139.777 86.08 150.468Z" fill="#3073FF"/>
<path d="M135.736 27.7821L138.912 25.2381C136.445 24.9655 135.431 26.3131 135.016 27.3798C133.089 26.5782 130.991 27.6287 130.991 27.6287L137.345 29.939C137.024 29.0815 136.466 28.3333 135.736 27.7821V27.7821Z" fill="#3F3D56"/>
</svg>
