<svg width="273" height="324" viewBox="0 0 273 324" fill="none" xmlns="http://www.w3.org/2000/svg">
<path d="M4.04 227V209.96H9.944C11.768 209.96 13.288 210.344 14.504 211.112C15.736 211.864 16.656 212.888 17.264 214.184C17.872 215.464 18.176 216.888 18.176 218.456C18.176 220.184 17.84 221.688 17.168 222.968C16.496 224.248 15.544 225.24 14.312 225.944C13.08 226.648 11.624 227 9.944 227H4.04ZM15.992 218.456C15.992 217.176 15.752 216.04 15.272 215.048C14.808 214.056 14.128 213.28 13.232 212.72C12.336 212.16 11.24 211.88 9.944 211.88H6.2V225.08H9.944C11.256 225.08 12.36 224.792 13.256 224.216C14.152 223.624 14.832 222.832 15.296 221.84C15.76 220.832 15.992 219.704 15.992 218.456ZM26.4277 227.24C25.1797 227.24 24.0757 226.944 23.1157 226.352C22.1557 225.76 21.4037 224.968 20.8597 223.976C20.3157 222.984 20.0437 221.904 20.0437 220.736C20.0437 219.552 20.3157 218.472 20.8597 217.496C21.4037 216.52 22.1557 215.736 23.1157 215.144C24.0917 214.552 25.2037 214.256 26.4517 214.256C27.7157 214.256 28.8117 214.56 29.7397 215.168C30.6837 215.76 31.4117 216.544 31.9237 217.52C32.4517 218.48 32.7157 219.52 32.7157 220.64C32.7157 220.992 32.6997 221.264 32.6677 221.456H22.2757C22.3397 222.272 22.5637 223 22.9477 223.64C23.3477 224.264 23.8597 224.76 24.4837 225.128C25.1077 225.48 25.7797 225.656 26.4997 225.656C27.2677 225.656 27.9877 225.464 28.6597 225.08C29.3477 224.696 29.8197 224.192 30.0757 223.568L31.8997 224.072C31.4997 225 30.8037 225.76 29.8117 226.352C28.8197 226.944 27.6917 227.24 26.4277 227.24ZM22.2037 219.992H30.7477C30.6837 219.176 30.4517 218.456 30.0517 217.832C29.6517 217.208 29.1397 216.72 28.5157 216.368C27.8917 216.016 27.2037 215.84 26.4517 215.84C25.7157 215.84 25.0357 216.016 24.4117 216.368C23.7877 216.72 23.2757 217.208 22.8757 217.832C22.4917 218.456 22.2677 219.176 22.2037 219.992ZM39.3594 227.24C38.3194 227.24 37.3434 227.072 36.4314 226.736C35.5194 226.384 34.7354 225.864 34.0794 225.176L34.8954 223.688C35.6154 224.36 36.3354 224.84 37.0554 225.128C37.7754 225.416 38.5114 225.56 39.2634 225.56C40.1274 225.56 40.8314 225.4 41.3754 225.08C41.9194 224.744 42.1914 224.256 42.1914 223.616C42.1914 223.152 42.0474 222.808 41.7594 222.584C41.4874 222.36 41.0954 222.176 40.5834 222.032C40.0714 221.872 39.4634 221.696 38.7594 221.504C37.4634 221.136 36.4714 220.704 35.7834 220.208C35.1114 219.696 34.7754 218.952 34.7754 217.976C34.7754 216.792 35.2234 215.88 36.1194 215.24C37.0314 214.584 38.1914 214.256 39.5994 214.256C41.4874 214.256 42.9754 214.824 44.0634 215.96L43.1034 217.424C42.1274 216.416 40.9194 215.912 39.4794 215.912C39.0474 215.912 38.6234 215.968 38.2074 216.08C37.7914 216.176 37.4474 216.36 37.1754 216.632C36.9034 216.888 36.7674 217.256 36.7674 217.736C36.7674 218.328 37.0074 218.752 37.4874 219.008C37.9674 219.264 38.6714 219.528 39.5994 219.8C40.5434 220.072 41.3594 220.344 42.0474 220.616C42.7514 220.888 43.2954 221.24 43.6794 221.672C44.0634 222.104 44.2554 222.704 44.2554 223.472C44.2554 224.656 43.8074 225.584 42.9114 226.256C42.0154 226.912 40.8314 227.24 39.3594 227.24ZM45.7981 223.376C45.7981 222.576 46.0221 221.888 46.4701 221.312C46.9341 220.72 47.5661 220.264 48.3661 219.944C49.1661 219.624 50.0941 219.464 51.1501 219.464C51.7101 219.464 52.3021 219.512 52.9261 219.608C53.5501 219.688 54.1021 219.816 54.5821 219.992V219.08C54.5821 218.12 54.2941 217.368 53.7181 216.824C53.1421 216.264 52.3261 215.984 51.2701 215.984C50.5821 215.984 49.9181 216.112 49.2781 216.368C48.6541 216.608 47.9901 216.96 47.2861 217.424L46.5181 215.936C47.3341 215.376 48.1501 214.96 48.9661 214.688C49.7821 214.4 50.6301 214.256 51.5101 214.256C53.1101 214.256 54.3741 214.704 55.3021 215.6C56.2301 216.48 56.6941 217.712 56.6941 219.296V224.6C56.6941 225.096 56.9181 225.352 57.3661 225.368V227C57.1581 227.032 56.9741 227.056 56.8141 227.072C56.6701 227.088 56.5501 227.096 56.4541 227.096C55.9581 227.096 55.5821 226.96 55.3261 226.688C55.0861 226.416 54.9501 226.128 54.9181 225.824L54.8701 225.032C54.3261 225.736 53.6141 226.28 52.7341 226.664C51.8541 227.048 50.9821 227.24 50.1181 227.24C49.2861 227.24 48.5421 227.072 47.8861 226.736C47.2301 226.384 46.7181 225.92 46.3501 225.344C45.9821 224.752 45.7981 224.096 45.7981 223.376ZM53.9581 224.264C54.1501 224.04 54.3021 223.816 54.4141 223.592C54.5261 223.352 54.5821 223.152 54.5821 222.992V221.432C53.5581 221.032 52.5021 220.832 51.4141 220.832C50.3421 220.832 49.4701 221.048 48.7981 221.48C48.1421 221.896 47.8141 222.472 47.8141 223.208C47.8141 223.608 47.9181 224 48.1261 224.384C48.3501 224.752 48.6701 225.056 49.0861 225.296C49.5181 225.536 50.0461 225.656 50.6701 225.656C51.3261 225.656 51.9501 225.528 52.5421 225.272C53.1341 225 53.6061 224.664 53.9581 224.264ZM66.6952 216.32C65.6392 216.336 64.7032 216.608 63.8872 217.136C63.0872 217.648 62.5192 218.36 62.1832 219.272V227H60.0712V214.472H62.0392V217.376C62.4712 216.512 63.0392 215.816 63.7432 215.288C64.4632 214.744 65.2152 214.44 65.9992 214.376C66.1592 214.376 66.2952 214.376 66.4072 214.376C66.5192 214.376 66.6152 214.384 66.6952 214.4V216.32ZM75.4139 216.32C74.3579 216.336 73.4219 216.608 72.6059 217.136C71.8059 217.648 71.2379 218.36 70.9019 219.272V227H68.7899V214.472H70.7579V217.376C71.1899 216.512 71.7579 215.816 72.4619 215.288C73.1819 214.744 73.9339 214.44 74.7179 214.376C74.8779 214.376 75.0139 214.376 75.1259 214.376C75.2379 214.376 75.3339 214.384 75.4139 214.4V216.32ZM82.6994 227.24C81.4514 227.24 80.3474 226.944 79.3874 226.352C78.4434 225.744 77.7074 224.952 77.1794 223.976C76.6514 222.984 76.3874 221.912 76.3874 220.76C76.3874 219.592 76.6514 218.52 77.1794 217.544C77.7234 216.552 78.4674 215.76 79.4114 215.168C80.3714 214.56 81.4674 214.256 82.6994 214.256C83.9474 214.256 85.0434 214.56 85.9874 215.168C86.9474 215.76 87.6914 216.552 88.2194 217.544C88.7634 218.52 89.0354 219.592 89.0354 220.76C89.0354 221.912 88.7634 222.984 88.2194 223.976C87.6914 224.952 86.9554 225.744 86.0114 226.352C85.0674 226.944 83.9634 227.24 82.6994 227.24ZM78.5474 220.784C78.5474 221.648 78.7314 222.432 79.0994 223.136C79.4834 223.84 79.9874 224.4 80.6114 224.816C81.2354 225.216 81.9314 225.416 82.6994 225.416C83.4674 225.416 84.1634 225.208 84.7874 224.792C85.4274 224.376 85.9314 223.816 86.2994 223.112C86.6834 222.392 86.8754 221.6 86.8754 220.736C86.8754 219.872 86.6834 219.088 86.2994 218.384C85.9314 217.68 85.4274 217.12 84.7874 216.704C84.1634 216.288 83.4674 216.08 82.6994 216.08C81.9314 216.08 81.2354 216.296 80.6114 216.728C79.9874 217.144 79.4834 217.704 79.0994 218.408C78.7314 219.112 78.5474 219.904 78.5474 220.784ZM91.6426 209.48H93.7546V223.76C93.7546 224.448 93.8506 224.872 94.0426 225.032C94.2346 225.192 94.4666 225.272 94.7386 225.272C95.0746 225.272 95.3946 225.24 95.6986 225.176C96.0026 225.096 96.2586 225.016 96.4666 224.936L96.8026 226.664C96.4506 226.808 96.0346 226.928 95.5546 227.024C95.0746 227.12 94.6506 227.168 94.2826 227.168C93.4666 227.168 92.8186 226.936 92.3386 226.472C91.8746 226.008 91.6426 225.36 91.6426 224.528V209.48ZM98.5098 209.48H100.622V223.76C100.622 224.448 100.718 224.872 100.91 225.032C101.102 225.192 101.334 225.272 101.606 225.272C101.942 225.272 102.262 225.24 102.566 225.176C102.87 225.096 103.126 225.016 103.334 224.936L103.67 226.664C103.318 226.808 102.902 226.928 102.422 227.024C101.942 227.12 101.518 227.168 101.15 227.168C100.334 227.168 99.6858 226.936 99.2058 226.472C98.7418 226.008 98.5098 225.36 98.5098 224.528V209.48ZM110.801 227.24C109.553 227.24 108.449 226.944 107.489 226.352C106.545 225.744 105.809 224.952 105.281 223.976C104.753 222.984 104.489 221.912 104.489 220.76C104.489 219.592 104.753 218.52 105.281 217.544C105.825 216.552 106.569 215.76 107.513 215.168C108.473 214.56 109.569 214.256 110.801 214.256C112.049 214.256 113.145 214.56 114.089 215.168C115.049 215.76 115.793 216.552 116.321 217.544C116.865 218.52 117.137 219.592 117.137 220.76C117.137 221.912 116.865 222.984 116.321 223.976C115.793 224.952 115.057 225.744 114.113 226.352C113.169 226.944 112.065 227.24 110.801 227.24ZM106.649 220.784C106.649 221.648 106.833 222.432 107.201 223.136C107.585 223.84 108.089 224.4 108.713 224.816C109.337 225.216 110.033 225.416 110.801 225.416C111.569 225.416 112.265 225.208 112.889 224.792C113.529 224.376 114.033 223.816 114.401 223.112C114.785 222.392 114.977 221.6 114.977 220.736C114.977 219.872 114.785 219.088 114.401 218.384C114.033 217.68 113.529 217.12 112.889 216.704C112.265 216.288 111.569 216.08 110.801 216.08C110.033 216.08 109.337 216.296 108.713 216.728C108.089 217.144 107.585 217.704 107.201 218.408C106.833 219.112 106.649 219.904 106.649 220.784ZM140.839 227V213.992L135.223 224H133.903L128.263 213.992V227H126.103V209.96H128.383L134.551 221.024L140.743 209.96H142.999V227H140.839ZM152.004 227.24C150.756 227.24 149.652 226.944 148.692 226.352C147.748 225.744 147.012 224.952 146.484 223.976C145.956 222.984 145.692 221.912 145.692 220.76C145.692 219.592 145.956 218.52 146.484 217.544C147.028 216.552 147.772 215.76 148.716 215.168C149.676 214.56 150.772 214.256 152.004 214.256C153.252 214.256 154.348 214.56 155.292 215.168C156.252 215.76 156.996 216.552 157.524 217.544C158.068 218.52 158.34 219.592 158.34 220.76C158.34 221.912 158.068 222.984 157.524 223.976C156.996 224.952 156.26 225.744 155.316 226.352C154.372 226.944 153.268 227.24 152.004 227.24ZM147.852 220.784C147.852 221.648 148.036 222.432 148.404 223.136C148.788 223.84 149.292 224.4 149.916 224.816C150.54 225.216 151.236 225.416 152.004 225.416C152.772 225.416 153.468 225.208 154.092 224.792C154.732 224.376 155.236 223.816 155.604 223.112C155.988 222.392 156.18 221.6 156.18 220.736C156.18 219.872 155.988 219.088 155.604 218.384C155.236 217.68 154.732 217.12 154.092 216.704C153.468 216.288 152.772 216.08 152.004 216.08C151.236 216.08 150.54 216.296 149.916 216.728C149.292 217.144 148.788 217.704 148.404 218.408C148.036 219.112 147.852 219.904 147.852 220.784ZM164.077 227L159.157 214.472H161.365L165.301 224.984L169.237 214.472H171.301L166.381 227H164.077ZM173.415 212.12V209.48H175.527V212.12H173.415ZM173.415 227V214.472H175.527V227H173.415ZM178.994 209.48H181.106V223.76C181.106 224.448 181.202 224.872 181.394 225.032C181.586 225.192 181.818 225.272 182.09 225.272C182.426 225.272 182.746 225.24 183.05 225.176C183.354 225.096 183.61 225.016 183.818 224.936L184.154 226.664C183.802 226.808 183.386 226.928 182.906 227.024C182.426 227.12 182.002 227.168 181.634 227.168C180.818 227.168 180.17 226.936 179.69 226.472C179.226 226.008 178.994 225.36 178.994 224.528V209.48Z" fill="black"/>
<path d="M0.756 250.52C0.756 249.752 0.888 248.99 1.152 248.234C1.428 247.478 1.824 246.794 2.34 246.182C2.856 245.558 3.492 245.066 4.248 244.706C5.004 244.334 5.862 244.148 6.822 244.148C7.95 244.148 8.922 244.412 9.738 244.94C10.554 245.456 11.154 246.122 11.538 246.938L10.548 247.55C10.272 246.986 9.924 246.542 9.504 246.218C9.084 245.882 8.634 245.642 8.154 245.498C7.686 245.354 7.218 245.282 6.75 245.282C5.982 245.282 5.304 245.438 4.716 245.75C4.128 246.05 3.63 246.458 3.222 246.974C2.826 247.49 2.526 248.06 2.322 248.684C2.118 249.308 2.016 249.944 2.016 250.592C2.016 251.3 2.136 251.978 2.376 252.626C2.616 253.262 2.952 253.832 3.384 254.336C3.816 254.84 4.32 255.242 4.896 255.542C5.484 255.83 6.12 255.974 6.804 255.974C7.284 255.974 7.776 255.89 8.28 255.722C8.784 255.554 9.252 255.296 9.684 254.948C10.116 254.6 10.47 254.15 10.746 253.598L11.79 254.138C11.514 254.774 11.1 255.314 10.548 255.758C10.008 256.202 9.396 256.538 8.712 256.766C8.04 256.994 7.38 257.108 6.732 257.108C5.856 257.108 5.052 256.922 4.32 256.55C3.588 256.166 2.952 255.662 2.412 255.038C1.884 254.402 1.476 253.694 1.188 252.914C0.9 252.122 0.756 251.324 0.756 250.52ZM18.3698 248.702C17.5538 248.726 16.8338 248.954 16.2098 249.386C15.5978 249.818 15.1658 250.412 14.9138 251.168V257H13.6898V247.622H14.8418V249.872C15.1658 249.212 15.5918 248.678 16.1198 248.27C16.6598 247.862 17.2298 247.634 17.8298 247.586C17.9498 247.574 18.0518 247.568 18.1358 247.568C18.2198 247.568 18.2978 247.574 18.3698 247.586V248.702ZM23.7691 257.18C22.8691 257.18 22.0651 256.958 21.3571 256.514C20.6491 256.07 20.0911 255.476 19.6831 254.732C19.2751 253.988 19.0711 253.172 19.0711 252.284C19.0711 251.408 19.2691 250.604 19.6651 249.872C20.0731 249.14 20.6311 248.558 21.3391 248.126C22.0471 247.682 22.8511 247.46 23.7511 247.46C24.6751 247.46 25.4851 247.682 26.1811 248.126C26.8771 248.57 27.4171 249.158 27.8011 249.89C28.1971 250.61 28.3951 251.402 28.3951 252.266C28.3951 252.458 28.3891 252.62 28.3771 252.752H20.3491C20.4091 253.424 20.6011 254.024 20.9251 254.552C21.2491 255.068 21.6631 255.482 22.1671 255.794C22.6711 256.094 23.2231 256.244 23.8231 256.244C24.4351 256.244 25.0111 256.088 25.5511 255.776C26.0911 255.464 26.4751 255.056 26.7031 254.552L27.7651 254.84C27.5731 255.296 27.2731 255.704 26.8651 256.064C26.4691 256.412 26.0071 256.688 25.4791 256.892C24.9511 257.084 24.3811 257.18 23.7691 257.18ZM20.3131 251.87H27.2431C27.1951 251.198 27.0091 250.604 26.6851 250.088C26.3611 249.56 25.9471 249.152 25.4431 248.864C24.9391 248.564 24.3811 248.414 23.7691 248.414C23.1571 248.414 22.5991 248.564 22.0951 248.864C21.5911 249.152 21.1771 249.56 20.8531 250.088C20.5411 250.604 20.3611 251.198 20.3131 251.87ZM29.5276 254.3C29.5276 253.724 29.6956 253.226 30.0316 252.806C30.3676 252.374 30.8296 252.038 31.4176 251.798C32.0176 251.558 32.7076 251.438 33.4876 251.438C33.9436 251.438 34.4176 251.48 34.9096 251.564C35.4016 251.636 35.8396 251.738 36.2236 251.87V251.078C36.2236 250.286 35.9896 249.656 35.5216 249.188C35.0536 248.72 34.4056 248.486 33.5776 248.486C33.0856 248.486 32.5936 248.582 32.1016 248.774C31.6096 248.954 31.0996 249.224 30.5716 249.584L30.1036 248.72C30.7156 248.3 31.3156 247.988 31.9036 247.784C32.4916 247.568 33.0916 247.46 33.7036 247.46C34.8556 247.46 35.7676 247.79 36.4396 248.45C37.1116 249.11 37.4476 250.022 37.4476 251.186V255.524C37.4476 255.848 37.5976 256.016 37.8976 256.028V257C37.6336 257.036 37.4476 257.048 37.3396 257.036C37.0396 257.024 36.8116 256.928 36.6556 256.748C36.4996 256.568 36.4156 256.376 36.4036 256.172L36.3856 255.488C35.9656 256.028 35.4196 256.448 34.7476 256.748C34.0756 257.036 33.3916 257.18 32.6956 257.18C32.0836 257.18 31.5376 257.054 31.0576 256.802C30.5776 256.538 30.1996 256.19 29.9236 255.758C29.6596 255.314 29.5276 254.828 29.5276 254.3ZM35.8096 255.02C36.0856 254.696 36.2236 254.396 36.2236 254.12V252.752C35.3956 252.428 34.5316 252.266 33.6316 252.266C32.7556 252.266 32.0476 252.44 31.5076 252.788C30.9676 253.136 30.6976 253.61 30.6976 254.21C30.6976 254.726 30.8956 255.194 31.2916 255.614C31.6996 256.034 32.2636 256.244 32.9836 256.244C33.5716 256.244 34.1176 256.13 34.6216 255.902C35.1376 255.674 35.5336 255.38 35.8096 255.02ZM54.0422 257H52.8182V251.762C52.8182 250.682 52.6442 249.884 52.2962 249.368C51.9482 248.84 51.4322 248.576 50.7482 248.576C50.0282 248.576 49.3922 248.828 48.8402 249.332C48.2882 249.836 47.8982 250.484 47.6702 251.276V257H46.4462V251.762C46.4462 250.658 46.2722 249.854 45.9242 249.35C45.5882 248.834 45.0782 248.576 44.3942 248.576C43.6862 248.576 43.0502 248.822 42.4862 249.314C41.9342 249.806 41.5442 250.454 41.3162 251.258V257H40.0922V247.622H41.2082V249.746C41.5922 249.026 42.0962 248.468 42.7202 248.072C43.3442 247.664 44.0342 247.46 44.7902 247.46C45.5702 247.46 46.2002 247.688 46.6802 248.144C47.1602 248.588 47.4542 249.164 47.5622 249.872C48.4262 248.264 49.6322 247.46 51.1802 247.46C52.2362 247.46 52.9742 247.832 53.3942 248.576C53.8262 249.308 54.0422 250.286 54.0422 251.51V257ZM60.6292 257.18C59.7292 257.18 58.9252 256.958 58.2172 256.514C57.5212 256.07 56.9752 255.482 56.5792 254.75C56.1832 254.006 55.9852 253.202 55.9852 252.338C55.9852 251.462 56.1832 250.658 56.5792 249.926C56.9872 249.182 57.5392 248.588 58.2352 248.144C58.9432 247.688 59.7412 247.46 60.6292 247.46C61.5292 247.46 62.3272 247.688 63.0232 248.144C63.7312 248.588 64.2832 249.182 64.6792 249.926C65.0872 250.658 65.2912 251.462 65.2912 252.338C65.2912 253.202 65.0932 254.006 64.6972 254.75C64.3012 255.482 63.7492 256.07 63.0412 256.514C62.3452 256.958 61.5412 257.18 60.6292 257.18ZM57.2272 252.356C57.2272 253.052 57.3772 253.688 57.6772 254.264C57.9892 254.828 58.4032 255.278 58.9192 255.614C59.4352 255.938 60.0052 256.1 60.6292 256.1C61.2532 256.1 61.8232 255.932 62.3392 255.596C62.8552 255.26 63.2692 254.804 63.5812 254.228C63.8932 253.652 64.0492 253.016 64.0492 252.32C64.0492 251.624 63.8932 250.988 63.5812 250.412C63.2692 249.836 62.8552 249.38 62.3392 249.044C61.8232 248.708 61.2532 248.54 60.6292 248.54C60.0172 248.54 59.4532 248.714 58.9372 249.062C58.4212 249.398 58.0072 249.854 57.6952 250.43C57.3832 251.006 57.2272 251.648 57.2272 252.356ZM70.4163 257.18C69.6483 257.18 68.9343 257.054 68.2743 256.802C67.6263 256.538 67.0563 256.154 66.5643 255.65L67.0683 254.786C67.5963 255.278 68.1243 255.638 68.6523 255.866C69.1923 256.082 69.7623 256.19 70.3623 256.19C71.0823 256.19 71.6703 256.046 72.1263 255.758C72.5943 255.458 72.8283 255.032 72.8283 254.48C72.8283 254.108 72.7143 253.826 72.4863 253.634C72.2703 253.43 71.9523 253.268 71.5323 253.148C71.1243 253.028 70.6323 252.89 70.0563 252.734C69.4083 252.554 68.8623 252.368 68.4183 252.176C67.9863 251.972 67.6563 251.72 67.4283 251.42C67.2123 251.108 67.1043 250.706 67.1043 250.214C67.1043 249.614 67.2543 249.11 67.5543 248.702C67.8663 248.294 68.2863 247.988 68.8143 247.784C69.3543 247.568 69.9543 247.46 70.6143 247.46C71.3343 247.46 71.9703 247.574 72.5223 247.802C73.0743 248.03 73.5243 248.348 73.8723 248.756L73.2783 249.584C72.9543 249.2 72.5523 248.918 72.0723 248.738C71.6043 248.546 71.0943 248.45 70.5423 248.45C70.1583 248.45 69.7923 248.504 69.4443 248.612C69.0963 248.708 68.8083 248.876 68.5803 249.116C68.3643 249.344 68.2563 249.662 68.2563 250.07C68.2563 250.574 68.4423 250.922 68.8143 251.114C69.1863 251.306 69.7503 251.51 70.5063 251.726C71.2143 251.918 71.8323 252.11 72.3603 252.302C72.8883 252.494 73.2963 252.752 73.5843 253.076C73.8723 253.388 74.0163 253.826 74.0163 254.39C74.0163 255.266 73.6863 255.95 73.0263 256.442C72.3663 256.934 71.4963 257.18 70.4163 257.18ZM80.5373 253.13V247.622H81.7613V252.914C81.7613 255.038 82.4873 256.1 83.9393 256.1C84.6593 256.1 85.3313 255.866 85.9553 255.398C86.5913 254.93 87.0473 254.306 87.3233 253.526V247.622H88.5473V255.524C88.5473 255.848 88.6913 256.016 88.9793 256.028V257C88.8353 257.024 88.7213 257.036 88.6373 257.036C88.5653 257.036 88.4873 257.036 88.4033 257.036C88.1513 257.012 87.9353 256.916 87.7553 256.748C87.5873 256.58 87.5033 256.376 87.5033 256.136L87.4673 254.876C87.0593 255.608 86.5013 256.178 85.7933 256.586C85.0973 256.982 84.3413 257.18 83.5253 257.18C81.5333 257.18 80.5373 255.83 80.5373 253.13ZM99.1988 257H97.9748V251.762C97.9748 250.658 97.8068 249.854 97.4708 249.35C97.1468 248.834 96.6428 248.576 95.9588 248.576C95.4788 248.576 95.0048 248.696 94.5368 248.936C94.0688 249.164 93.6548 249.482 93.2948 249.89C92.9468 250.286 92.6948 250.742 92.5388 251.258V257H91.3148V247.622H92.4308V249.746C92.8028 249.062 93.3488 248.51 94.0688 248.09C94.7888 247.67 95.5688 247.46 96.4088 247.46C97.1048 247.46 97.6568 247.628 98.0648 247.964C98.4728 248.288 98.7608 248.756 98.9288 249.368C99.1088 249.968 99.1988 250.682 99.1988 251.51V257ZM101.053 254.3C101.053 253.724 101.221 253.226 101.557 252.806C101.893 252.374 102.355 252.038 102.943 251.798C103.543 251.558 104.233 251.438 105.013 251.438C105.469 251.438 105.943 251.48 106.435 251.564C106.927 251.636 107.365 251.738 107.749 251.87V251.078C107.749 250.286 107.515 249.656 107.047 249.188C106.579 248.72 105.931 248.486 105.103 248.486C104.611 248.486 104.119 248.582 103.627 248.774C103.135 248.954 102.625 249.224 102.097 249.584L101.629 248.72C102.241 248.3 102.841 247.988 103.429 247.784C104.017 247.568 104.617 247.46 105.229 247.46C106.381 247.46 107.293 247.79 107.965 248.45C108.637 249.11 108.973 250.022 108.973 251.186V255.524C108.973 255.848 109.123 256.016 109.423 256.028V257C109.159 257.036 108.973 257.048 108.865 257.036C108.565 257.024 108.337 256.928 108.181 256.748C108.025 256.568 107.941 256.376 107.929 256.172L107.911 255.488C107.491 256.028 106.945 256.448 106.273 256.748C105.601 257.036 104.917 257.18 104.221 257.18C103.609 257.18 103.063 257.054 102.583 256.802C102.103 256.538 101.725 256.19 101.449 255.758C101.185 255.314 101.053 254.828 101.053 254.3ZM107.335 255.02C107.611 254.696 107.749 254.396 107.749 254.12V252.752C106.921 252.428 106.057 252.266 105.157 252.266C104.281 252.266 103.573 252.44 103.033 252.788C102.493 253.136 102.223 253.61 102.223 254.21C102.223 254.726 102.421 255.194 102.817 255.614C103.225 256.034 103.789 256.244 104.509 256.244C105.097 256.244 105.643 256.13 106.147 255.902C106.663 255.674 107.059 255.38 107.335 255.02ZM119.855 244.22H120.917L126.227 257H124.895L123.239 253.004H117.497L115.859 257H114.509L119.855 244.22ZM122.951 252.014L120.377 245.696L117.767 252.014H122.951ZM132.595 257.18C131.815 257.18 131.113 256.976 130.489 256.568C129.877 256.16 129.391 255.656 129.031 255.056V260.834H127.807V247.622H128.905V249.44C129.277 248.852 129.769 248.378 130.381 248.018C131.005 247.646 131.677 247.46 132.397 247.46C133.045 247.46 133.639 247.598 134.179 247.874C134.719 248.138 135.187 248.498 135.583 248.954C135.991 249.41 136.303 249.932 136.519 250.52C136.735 251.096 136.843 251.696 136.843 252.32C136.843 253.196 136.663 254.006 136.303 254.75C135.955 255.482 135.457 256.07 134.809 256.514C134.173 256.958 133.435 257.18 132.595 257.18ZM132.253 256.1C132.937 256.1 133.525 255.92 134.017 255.56C134.521 255.188 134.911 254.714 135.187 254.138C135.463 253.562 135.601 252.956 135.601 252.32C135.601 251.648 135.445 251.024 135.133 250.448C134.821 249.872 134.401 249.41 133.873 249.062C133.357 248.714 132.769 248.54 132.109 248.54C131.701 248.54 131.269 248.648 130.813 248.864C130.369 249.068 129.973 249.35 129.625 249.71C129.289 250.058 129.091 250.442 129.031 250.862V253.742C129.307 254.402 129.739 254.96 130.327 255.416C130.915 255.872 131.557 256.1 132.253 256.1ZM143.704 257.18C142.924 257.18 142.222 256.976 141.598 256.568C140.986 256.16 140.5 255.656 140.14 255.056V260.834H138.916V247.622H140.014V249.44C140.386 248.852 140.878 248.378 141.49 248.018C142.114 247.646 142.786 247.46 143.506 247.46C144.154 247.46 144.748 247.598 145.288 247.874C145.828 248.138 146.296 248.498 146.692 248.954C147.1 249.41 147.412 249.932 147.628 250.52C147.844 251.096 147.952 251.696 147.952 252.32C147.952 253.196 147.772 254.006 147.412 254.75C147.064 255.482 146.566 256.07 145.918 256.514C145.282 256.958 144.544 257.18 143.704 257.18ZM143.362 256.1C144.046 256.1 144.634 255.92 145.126 255.56C145.63 255.188 146.02 254.714 146.296 254.138C146.572 253.562 146.71 252.956 146.71 252.32C146.71 251.648 146.554 251.024 146.242 250.448C145.93 249.872 145.51 249.41 144.982 249.062C144.466 248.714 143.878 248.54 143.218 248.54C142.81 248.54 142.378 248.648 141.922 248.864C141.478 249.068 141.082 249.35 140.734 249.71C140.398 250.058 140.2 250.442 140.14 250.862V253.742C140.416 254.402 140.848 254.96 141.436 255.416C142.024 255.872 142.666 256.1 143.362 256.1ZM158.682 257.18C157.77 257.18 156.96 256.958 156.252 256.514C155.544 256.058 154.986 255.464 154.578 254.732C154.17 253.988 153.966 253.172 153.966 252.284C153.966 251.396 154.164 250.592 154.56 249.872C154.956 249.14 155.508 248.558 156.216 248.126C156.924 247.682 157.74 247.46 158.664 247.46C159.54 247.46 160.308 247.664 160.968 248.072C161.64 248.468 162.144 249.008 162.48 249.692L161.292 250.07C161.028 249.59 160.656 249.218 160.176 248.954C159.708 248.678 159.186 248.54 158.61 248.54C157.974 248.54 157.398 248.702 156.882 249.026C156.378 249.35 155.97 249.8 155.658 250.376C155.358 250.94 155.208 251.576 155.208 252.284C155.208 252.992 155.364 253.634 155.676 254.21C155.988 254.786 156.402 255.248 156.918 255.596C157.434 255.932 158.004 256.1 158.628 256.1C159.036 256.1 159.432 256.028 159.816 255.884C160.2 255.74 160.53 255.548 160.806 255.308C161.082 255.056 161.268 254.786 161.364 254.498L162.57 254.858C162.402 255.302 162.126 255.704 161.742 256.064C161.358 256.412 160.902 256.688 160.374 256.892C159.846 257.084 159.282 257.18 158.682 257.18ZM168.401 257.18C167.501 257.18 166.697 256.958 165.989 256.514C165.293 256.07 164.747 255.482 164.351 254.75C163.955 254.006 163.757 253.202 163.757 252.338C163.757 251.462 163.955 250.658 164.351 249.926C164.759 249.182 165.311 248.588 166.007 248.144C166.715 247.688 167.513 247.46 168.401 247.46C169.301 247.46 170.099 247.688 170.795 248.144C171.503 248.588 172.055 249.182 172.451 249.926C172.859 250.658 173.063 251.462 173.063 252.338C173.063 253.202 172.865 254.006 172.469 254.75C172.073 255.482 171.521 256.07 170.813 256.514C170.117 256.958 169.313 257.18 168.401 257.18ZM164.999 252.356C164.999 253.052 165.149 253.688 165.449 254.264C165.761 254.828 166.175 255.278 166.691 255.614C167.207 255.938 167.777 256.1 168.401 256.1C169.025 256.1 169.595 255.932 170.111 255.596C170.627 255.26 171.041 254.804 171.353 254.228C171.665 253.652 171.821 253.016 171.821 252.32C171.821 251.624 171.665 250.988 171.353 250.412C171.041 249.836 170.627 249.38 170.111 249.044C169.595 248.708 169.025 248.54 168.401 248.54C167.789 248.54 167.225 248.714 166.709 249.062C166.193 249.398 165.779 249.854 165.467 250.43C165.155 251.006 164.999 251.648 164.999 252.356ZM182.994 257H181.77V251.762C181.77 250.658 181.602 249.854 181.266 249.35C180.942 248.834 180.438 248.576 179.754 248.576C179.274 248.576 178.8 248.696 178.332 248.936C177.864 249.164 177.45 249.482 177.09 249.89C176.742 250.286 176.49 250.742 176.334 251.258V257H175.11V247.622H176.226V249.746C176.598 249.062 177.144 248.51 177.864 248.09C178.584 247.67 179.364 247.46 180.204 247.46C180.9 247.46 181.452 247.628 181.86 247.964C182.268 248.288 182.556 248.756 182.724 249.368C182.904 249.968 182.994 250.682 182.994 251.51V257ZM190.102 253.13V247.622H191.326V252.914C191.326 255.038 192.052 256.1 193.504 256.1C194.224 256.1 194.896 255.866 195.52 255.398C196.156 254.93 196.612 254.306 196.888 253.526V247.622H198.112V255.524C198.112 255.848 198.256 256.016 198.544 256.028V257C198.4 257.024 198.286 257.036 198.202 257.036C198.13 257.036 198.052 257.036 197.968 257.036C197.716 257.012 197.5 256.916 197.32 256.748C197.152 256.58 197.068 256.376 197.068 256.136L197.032 254.876C196.624 255.608 196.066 256.178 195.358 256.586C194.662 256.982 193.906 257.18 193.09 257.18C191.098 257.18 190.102 255.83 190.102 253.13ZM208.763 257H207.539V251.762C207.539 250.658 207.371 249.854 207.035 249.35C206.711 248.834 206.207 248.576 205.523 248.576C205.043 248.576 204.569 248.696 204.101 248.936C203.633 249.164 203.219 249.482 202.859 249.89C202.511 250.286 202.259 250.742 202.103 251.258V257H200.879V247.622H201.995V249.746C202.367 249.062 202.913 248.51 203.633 248.09C204.353 247.67 205.133 247.46 205.973 247.46C206.669 247.46 207.221 247.628 207.629 247.964C208.037 248.288 208.325 248.756 208.493 249.368C208.673 249.968 208.763 250.682 208.763 251.51V257ZM215.331 252.338C215.331 251.45 215.511 250.64 215.871 249.908C216.243 249.164 216.753 248.57 217.401 248.126C218.049 247.682 218.787 247.46 219.615 247.46C220.395 247.46 221.091 247.67 221.703 248.09C222.327 248.498 222.813 248.996 223.161 249.584V243.86H224.385V255.524C224.385 255.848 224.529 256.016 224.817 256.028V257C224.577 257.036 224.391 257.048 224.259 257.036C223.995 257.024 223.767 256.928 223.575 256.748C223.395 256.556 223.305 256.34 223.305 256.1V255.182C222.933 255.794 222.429 256.28 221.793 256.64C221.157 257 220.497 257.18 219.813 257.18C219.165 257.18 218.565 257.048 218.013 256.784C217.461 256.52 216.981 256.16 216.573 255.704C216.177 255.248 215.871 254.732 215.655 254.156C215.439 253.568 215.331 252.962 215.331 252.338ZM223.161 253.778V250.88C223.005 250.448 222.753 250.058 222.405 249.71C222.057 249.35 221.661 249.068 221.217 248.864C220.785 248.648 220.353 248.54 219.921 248.54C219.249 248.54 218.661 248.726 218.157 249.098C217.665 249.458 217.281 249.932 217.005 250.52C216.729 251.096 216.591 251.702 216.591 252.338C216.591 253.01 216.741 253.634 217.041 254.21C217.353 254.786 217.773 255.248 218.301 255.596C218.829 255.932 219.423 256.1 220.083 256.1C220.491 256.1 220.917 255.998 221.361 255.794C221.817 255.578 222.213 255.296 222.549 254.948C222.897 254.6 223.101 254.21 223.161 253.778ZM227.159 245.66V243.86H228.383V245.66H227.159ZM227.159 257V247.622H228.383V257H227.159ZM234.157 257.18C233.389 257.18 232.675 257.054 232.015 256.802C231.367 256.538 230.797 256.154 230.305 255.65L230.809 254.786C231.337 255.278 231.865 255.638 232.393 255.866C232.933 256.082 233.503 256.19 234.103 256.19C234.823 256.19 235.411 256.046 235.867 255.758C236.335 255.458 236.569 255.032 236.569 254.48C236.569 254.108 236.455 253.826 236.227 253.634C236.011 253.43 235.693 253.268 235.273 253.148C234.865 253.028 234.373 252.89 233.797 252.734C233.149 252.554 232.603 252.368 232.159 252.176C231.727 251.972 231.397 251.72 231.169 251.42C230.953 251.108 230.845 250.706 230.845 250.214C230.845 249.614 230.995 249.11 231.295 248.702C231.607 248.294 232.027 247.988 232.555 247.784C233.095 247.568 233.695 247.46 234.355 247.46C235.075 247.46 235.711 247.574 236.263 247.802C236.815 248.03 237.265 248.348 237.613 248.756L237.019 249.584C236.695 249.2 236.293 248.918 235.813 248.738C235.345 248.546 234.835 248.45 234.283 248.45C233.899 248.45 233.533 248.504 233.185 248.612C232.837 248.708 232.549 248.876 232.321 249.116C232.105 249.344 231.997 249.662 231.997 250.07C231.997 250.574 232.183 250.922 232.555 251.114C232.927 251.306 233.491 251.51 234.247 251.726C234.955 251.918 235.573 252.11 236.101 252.302C236.629 252.494 237.037 252.752 237.325 253.076C237.613 253.388 237.757 253.826 237.757 254.39C237.757 255.266 237.427 255.95 236.767 256.442C236.107 256.934 235.237 257.18 234.157 257.18ZM243.83 257.18C242.93 257.18 242.126 256.958 241.418 256.514C240.71 256.07 240.152 255.476 239.744 254.732C239.336 253.988 239.132 253.172 239.132 252.284C239.132 251.408 239.33 250.604 239.726 249.872C240.134 249.14 240.692 248.558 241.4 248.126C242.108 247.682 242.912 247.46 243.812 247.46C244.736 247.46 245.546 247.682 246.242 248.126C246.938 248.57 247.478 249.158 247.862 249.89C248.258 250.61 248.456 251.402 248.456 252.266C248.456 252.458 248.45 252.62 248.438 252.752H240.41C240.47 253.424 240.662 254.024 240.986 254.552C241.31 255.068 241.724 255.482 242.228 255.794C242.732 256.094 243.284 256.244 243.884 256.244C244.496 256.244 245.072 256.088 245.612 255.776C246.152 255.464 246.536 255.056 246.764 254.552L247.826 254.84C247.634 255.296 247.334 255.704 246.926 256.064C246.53 256.412 246.068 256.688 245.54 256.892C245.012 257.084 244.442 257.18 243.83 257.18ZM240.374 251.87H247.304C247.256 251.198 247.07 250.604 246.746 250.088C246.422 249.56 246.008 249.152 245.504 248.864C245 248.564 244.442 248.414 243.83 248.414C243.218 248.414 242.66 248.564 242.156 248.864C241.652 249.152 241.238 249.56 240.914 250.088C240.602 250.604 240.422 251.198 240.374 251.87ZM258.228 257H257.004V251.762C257.004 250.658 256.836 249.854 256.5 249.35C256.176 248.834 255.672 248.576 254.988 248.576C254.508 248.576 254.034 248.696 253.566 248.936C253.098 249.164 252.684 249.482 252.324 249.89C251.976 250.286 251.724 250.742 251.568 251.258V257H250.344V247.622H251.46V249.746C251.832 249.062 252.378 248.51 253.098 248.09C253.818 247.67 254.598 247.46 255.438 247.46C256.134 247.46 256.686 247.628 257.094 247.964C257.502 248.288 257.79 248.756 257.958 249.368C258.138 249.968 258.228 250.682 258.228 251.51V257ZM255.42 245.516C255.06 245.516 254.754 245.456 254.502 245.336C254.262 245.216 254.034 245.096 253.818 244.976C253.602 244.856 253.368 244.796 253.116 244.796C252.852 244.796 252.654 244.862 252.522 244.994C252.402 245.126 252.318 245.264 252.27 245.408C252.234 245.54 252.216 245.624 252.216 245.66H251.46C251.46 245.588 251.478 245.468 251.514 245.3C251.562 245.12 251.646 244.928 251.766 244.724C251.886 244.52 252.054 244.346 252.27 244.202C252.486 244.058 252.762 243.986 253.098 243.986C253.434 243.986 253.716 244.052 253.944 244.184C254.172 244.304 254.394 244.43 254.61 244.562C254.838 244.682 255.102 244.742 255.402 244.742C255.714 244.742 255.942 244.676 256.086 244.544C256.23 244.4 256.32 244.256 256.356 244.112C256.404 243.968 256.428 243.884 256.428 243.86H257.184C257.184 243.92 257.16 244.04 257.112 244.22C257.064 244.388 256.974 244.574 256.842 244.778C256.722 244.982 256.542 245.156 256.302 245.3C256.074 245.444 255.78 245.516 255.42 245.516ZM264.834 257.18C263.934 257.18 263.13 256.958 262.422 256.514C261.726 256.07 261.18 255.482 260.784 254.75C260.388 254.006 260.19 253.202 260.19 252.338C260.19 251.462 260.388 250.658 260.784 249.926C261.192 249.182 261.744 248.588 262.44 248.144C263.148 247.688 263.946 247.46 264.834 247.46C265.734 247.46 266.532 247.688 267.228 248.144C267.936 248.588 268.488 249.182 268.884 249.926C269.292 250.658 269.496 251.462 269.496 252.338C269.496 253.202 269.298 254.006 268.902 254.75C268.506 255.482 267.954 256.07 267.246 256.514C266.55 256.958 265.746 257.18 264.834 257.18ZM261.432 252.356C261.432 253.052 261.582 253.688 261.882 254.264C262.194 254.828 262.608 255.278 263.124 255.614C263.64 255.938 264.21 256.1 264.834 256.1C265.458 256.1 266.028 255.932 266.544 255.596C267.06 255.26 267.474 254.804 267.786 254.228C268.098 253.652 268.254 253.016 268.254 252.32C268.254 251.624 268.098 250.988 267.786 250.412C267.474 249.836 267.06 249.38 266.544 249.044C266.028 248.708 265.458 248.54 264.834 248.54C264.222 248.54 263.658 248.714 263.142 249.062C262.626 249.398 262.212 249.854 261.9 250.43C261.588 251.006 261.432 251.648 261.432 252.356ZM1.26 274.13V268.622H2.484V273.914C2.484 276.038 3.21 277.1 4.662 277.1C5.382 277.1 6.054 276.866 6.678 276.398C7.314 275.93 7.77 275.306 8.046 274.526V268.622H9.27V276.524C9.27 276.848 9.414 277.016 9.702 277.028V278C9.558 278.024 9.444 278.036 9.36 278.036C9.288 278.036 9.21 278.036 9.126 278.036C8.874 278.012 8.658 277.916 8.478 277.748C8.31 277.58 8.226 277.376 8.226 277.136L8.19 275.876C7.782 276.608 7.224 277.178 6.516 277.586C5.82 277.982 5.064 278.18 4.248 278.18C2.256 278.18 1.26 276.83 1.26 274.13ZM5.652 266.84L4.842 266.534L5.904 264.86H7.2L5.652 266.84ZM19.9215 278H18.6975V272.762C18.6975 271.658 18.5295 270.854 18.1935 270.35C17.8695 269.834 17.3655 269.576 16.6815 269.576C16.2015 269.576 15.7275 269.696 15.2595 269.936C14.7915 270.164 14.3775 270.482 14.0175 270.89C13.6695 271.286 13.4175 271.742 13.2615 272.258V278H12.0375V268.622H13.1535V270.746C13.5255 270.062 14.0715 269.51 14.7915 269.09C15.5115 268.67 16.2915 268.46 17.1315 268.46C17.8275 268.46 18.3795 268.628 18.7875 268.964C19.1955 269.288 19.4835 269.756 19.6515 270.368C19.8315 270.968 19.9215 271.682 19.9215 272.51V278ZM22.5316 266.66V264.86H23.7556V266.66H22.5316ZM22.5316 278V268.622H23.7556V278H22.5316ZM30.5196 278.18C29.6076 278.18 28.7976 277.958 28.0896 277.514C27.3816 277.058 26.8236 276.464 26.4156 275.732C26.0076 274.988 25.8036 274.172 25.8036 273.284C25.8036 272.396 26.0016 271.592 26.3976 270.872C26.7936 270.14 27.3456 269.558 28.0536 269.126C28.7616 268.682 29.5776 268.46 30.5016 268.46C31.3776 268.46 32.1456 268.664 32.8056 269.072C33.4776 269.468 33.9816 270.008 34.3176 270.692L33.1296 271.07C32.8656 270.59 32.4936 270.218 32.0136 269.954C31.5456 269.678 31.0236 269.54 30.4476 269.54C29.8116 269.54 29.2356 269.702 28.7196 270.026C28.2156 270.35 27.8076 270.8 27.4956 271.376C27.1956 271.94 27.0456 272.576 27.0456 273.284C27.0456 273.992 27.2016 274.634 27.5136 275.21C27.8256 275.786 28.2396 276.248 28.7556 276.596C29.2716 276.932 29.8416 277.1 30.4656 277.1C30.8736 277.1 31.2696 277.028 31.6536 276.884C32.0376 276.74 32.3676 276.548 32.6436 276.308C32.9196 276.056 33.1056 275.786 33.2016 275.498L34.4076 275.858C34.2396 276.302 33.9636 276.704 33.5796 277.064C33.1956 277.412 32.7396 277.688 32.2116 277.892C31.6836 278.084 31.1196 278.18 30.5196 278.18ZM40.2386 278.18C39.3386 278.18 38.5346 277.958 37.8266 277.514C37.1306 277.07 36.5846 276.482 36.1886 275.75C35.7926 275.006 35.5946 274.202 35.5946 273.338C35.5946 272.462 35.7926 271.658 36.1886 270.926C36.5966 270.182 37.1486 269.588 37.8446 269.144C38.5526 268.688 39.3506 268.46 40.2386 268.46C41.1386 268.46 41.9366 268.688 42.6326 269.144C43.3406 269.588 43.8926 270.182 44.2886 270.926C44.6966 271.658 44.9006 272.462 44.9006 273.338C44.9006 274.202 44.7026 275.006 44.3066 275.75C43.9106 276.482 43.3586 277.07 42.6506 277.514C41.9546 277.958 41.1506 278.18 40.2386 278.18ZM36.8366 273.356C36.8366 274.052 36.9866 274.688 37.2866 275.264C37.5986 275.828 38.0126 276.278 38.5286 276.614C39.0446 276.938 39.6146 277.1 40.2386 277.1C40.8626 277.1 41.4326 276.932 41.9486 276.596C42.4646 276.26 42.8786 275.804 43.1906 275.228C43.5026 274.652 43.6586 274.016 43.6586 273.32C43.6586 272.624 43.5026 271.988 43.1906 271.412C42.8786 270.836 42.4646 270.38 41.9486 270.044C41.4326 269.708 40.8626 269.54 40.2386 269.54C39.6266 269.54 39.0626 269.714 38.5466 270.062C38.0306 270.398 37.6166 270.854 37.3046 271.43C36.9926 272.006 36.8366 272.648 36.8366 273.356ZM51.5834 280.88C51.7514 280.892 51.9134 280.898 52.0694 280.898C52.2254 280.91 52.3394 280.904 52.4114 280.88C52.5554 280.868 52.6874 280.784 52.8074 280.628C52.9394 280.484 53.0954 280.208 53.2754 279.8C53.4674 279.404 53.7254 278.804 54.0494 278L49.9634 268.622H51.2594L54.6974 276.74L57.8654 268.622H59.0894L54.2294 280.718C54.0974 281.066 53.8754 281.366 53.5634 281.618C53.2514 281.87 52.8374 282.002 52.3214 282.014C52.2134 282.026 52.0994 282.026 51.9794 282.014C51.8594 282.014 51.7274 282.002 51.5834 281.978V280.88ZM68.9449 278.18C68.0449 278.18 67.2409 277.958 66.5329 277.514C65.8249 277.07 65.2669 276.476 64.8589 275.732C64.4509 274.988 64.2469 274.172 64.2469 273.284C64.2469 272.408 64.4449 271.604 64.8409 270.872C65.2489 270.14 65.8069 269.558 66.5149 269.126C67.2229 268.682 68.0269 268.46 68.9269 268.46C69.8509 268.46 70.6609 268.682 71.3569 269.126C72.0529 269.57 72.5929 270.158 72.9769 270.89C73.3729 271.61 73.5709 272.402 73.5709 273.266C73.5709 273.458 73.5649 273.62 73.5529 273.752H65.5249C65.5849 274.424 65.7769 275.024 66.1009 275.552C66.4249 276.068 66.8389 276.482 67.3429 276.794C67.8469 277.094 68.3989 277.244 68.9989 277.244C69.6109 277.244 70.1869 277.088 70.7269 276.776C71.2669 276.464 71.6509 276.056 71.8789 275.552L72.9409 275.84C72.7489 276.296 72.4489 276.704 72.0409 277.064C71.6449 277.412 71.1829 277.688 70.6549 277.892C70.1269 278.084 69.5569 278.18 68.9449 278.18ZM65.4889 272.87H72.4189C72.3709 272.198 72.1849 271.604 71.8609 271.088C71.5369 270.56 71.1229 270.152 70.6189 269.864C70.1149 269.564 69.5569 269.414 68.9449 269.414C68.3329 269.414 67.7749 269.564 67.2709 269.864C66.7669 270.152 66.3529 270.56 66.0289 271.088C65.7169 271.604 65.5369 272.198 65.4889 272.87ZM78.5374 278.18C77.7694 278.18 77.0554 278.054 76.3954 277.802C75.7474 277.538 75.1774 277.154 74.6854 276.65L75.1894 275.786C75.7174 276.278 76.2454 276.638 76.7734 276.866C77.3134 277.082 77.8834 277.19 78.4834 277.19C79.2034 277.19 79.7914 277.046 80.2474 276.758C80.7154 276.458 80.9494 276.032 80.9494 275.48C80.9494 275.108 80.8354 274.826 80.6074 274.634C80.3914 274.43 80.0734 274.268 79.6534 274.148C79.2454 274.028 78.7534 273.89 78.1774 273.734C77.5294 273.554 76.9834 273.368 76.5394 273.176C76.1074 272.972 75.7774 272.72 75.5494 272.42C75.3334 272.108 75.2254 271.706 75.2254 271.214C75.2254 270.614 75.3754 270.11 75.6754 269.702C75.9874 269.294 76.4074 268.988 76.9354 268.784C77.4754 268.568 78.0754 268.46 78.7354 268.46C79.4554 268.46 80.0914 268.574 80.6434 268.802C81.1954 269.03 81.6454 269.348 81.9934 269.756L81.3994 270.584C81.0754 270.2 80.6734 269.918 80.1934 269.738C79.7254 269.546 79.2154 269.45 78.6634 269.45C78.2794 269.45 77.9134 269.504 77.5654 269.612C77.2174 269.708 76.9294 269.876 76.7014 270.116C76.4854 270.344 76.3774 270.662 76.3774 271.07C76.3774 271.574 76.5634 271.922 76.9354 272.114C77.3074 272.306 77.8714 272.51 78.6274 272.726C79.3354 272.918 79.9534 273.11 80.4814 273.302C81.0094 273.494 81.4174 273.752 81.7054 274.076C81.9934 274.388 82.1374 274.826 82.1374 275.39C82.1374 276.266 81.8074 276.95 81.1474 277.442C80.4874 277.934 79.6174 278.18 78.5374 278.18ZM88.9485 278.18C88.1685 278.18 87.4665 277.976 86.8425 277.568C86.2305 277.16 85.7445 276.656 85.3845 276.056V281.834H84.1605V268.622H85.2585V270.44C85.6305 269.852 86.1225 269.378 86.7345 269.018C87.3585 268.646 88.0305 268.46 88.7505 268.46C89.3985 268.46 89.9925 268.598 90.5325 268.874C91.0725 269.138 91.5405 269.498 91.9365 269.954C92.3445 270.41 92.6565 270.932 92.8725 271.52C93.0885 272.096 93.1965 272.696 93.1965 273.32C93.1965 274.196 93.0165 275.006 92.6565 275.75C92.3085 276.482 91.8105 277.07 91.1625 277.514C90.5265 277.958 89.7885 278.18 88.9485 278.18ZM88.6065 277.1C89.2905 277.1 89.8785 276.92 90.3705 276.56C90.8745 276.188 91.2645 275.714 91.5405 275.138C91.8165 274.562 91.9545 273.956 91.9545 273.32C91.9545 272.648 91.7985 272.024 91.4865 271.448C91.1745 270.872 90.7545 270.41 90.2265 270.062C89.7105 269.714 89.1225 269.54 88.4625 269.54C88.0545 269.54 87.6225 269.648 87.1665 269.864C86.7225 270.068 86.3265 270.35 85.9785 270.71C85.6425 271.058 85.4445 271.442 85.3845 271.862V274.742C85.6605 275.402 86.0925 275.96 86.6805 276.416C87.2685 276.872 87.9105 277.1 88.6065 277.1ZM99.3199 278.18C98.4199 278.18 97.6159 277.958 96.9079 277.514C96.1999 277.07 95.6419 276.476 95.2339 275.732C94.8259 274.988 94.6219 274.172 94.6219 273.284C94.6219 272.408 94.8199 271.604 95.2159 270.872C95.6239 270.14 96.1819 269.558 96.8899 269.126C97.5979 268.682 98.4019 268.46 99.3019 268.46C100.226 268.46 101.036 268.682 101.732 269.126C102.428 269.57 102.968 270.158 103.352 270.89C103.748 271.61 103.946 272.402 103.946 273.266C103.946 273.458 103.94 273.62 103.928 273.752H95.8999C95.9599 274.424 96.1519 275.024 96.4759 275.552C96.7999 276.068 97.2139 276.482 97.7179 276.794C98.2219 277.094 98.7739 277.244 99.3739 277.244C99.9859 277.244 100.562 277.088 101.102 276.776C101.642 276.464 102.026 276.056 102.254 275.552L103.316 275.84C103.124 276.296 102.824 276.704 102.416 277.064C102.02 277.412 101.558 277.688 101.03 277.892C100.502 278.084 99.9319 278.18 99.3199 278.18ZM95.8639 272.87H102.794C102.746 272.198 102.56 271.604 102.236 271.088C101.912 270.56 101.498 270.152 100.994 269.864C100.49 269.564 99.9319 269.414 99.3199 269.414C98.7079 269.414 98.1499 269.564 97.6459 269.864C97.1419 270.152 96.7279 270.56 96.4039 271.088C96.0919 271.604 95.9119 272.198 95.8639 272.87ZM109.902 278.18C108.99 278.18 108.18 277.958 107.472 277.514C106.764 277.058 106.206 276.464 105.798 275.732C105.39 274.988 105.186 274.172 105.186 273.284C105.186 272.396 105.384 271.592 105.78 270.872C106.176 270.14 106.728 269.558 107.436 269.126C108.144 268.682 108.96 268.46 109.884 268.46C110.76 268.46 111.528 268.664 112.188 269.072C112.86 269.468 113.364 270.008 113.7 270.692L112.512 271.07C112.248 270.59 111.876 270.218 111.396 269.954C110.928 269.678 110.406 269.54 109.83 269.54C109.194 269.54 108.618 269.702 108.102 270.026C107.598 270.35 107.19 270.8 106.878 271.376C106.578 271.94 106.428 272.576 106.428 273.284C106.428 273.992 106.584 274.634 106.896 275.21C107.208 275.786 107.622 276.248 108.138 276.596C108.654 276.932 109.224 277.1 109.848 277.1C110.256 277.1 110.652 277.028 111.036 276.884C111.42 276.74 111.75 276.548 112.026 276.308C112.302 276.056 112.488 275.786 112.584 275.498L113.79 275.858C113.622 276.302 113.346 276.704 112.962 277.064C112.578 277.412 112.122 277.688 111.594 277.892C111.066 278.084 110.502 278.18 109.902 278.18ZM115.713 266.66V264.86H116.937V266.66H115.713ZM115.713 278V268.622H116.937V278H115.713ZM118.877 275.3C118.877 274.724 119.045 274.226 119.381 273.806C119.717 273.374 120.179 273.038 120.767 272.798C121.367 272.558 122.057 272.438 122.837 272.438C123.293 272.438 123.767 272.48 124.259 272.564C124.751 272.636 125.189 272.738 125.573 272.87V272.078C125.573 271.286 125.339 270.656 124.871 270.188C124.403 269.72 123.755 269.486 122.927 269.486C122.435 269.486 121.943 269.582 121.451 269.774C120.959 269.954 120.449 270.224 119.921 270.584L119.453 269.72C120.065 269.3 120.665 268.988 121.253 268.784C121.841 268.568 122.441 268.46 123.053 268.46C124.205 268.46 125.117 268.79 125.789 269.45C126.461 270.11 126.797 271.022 126.797 272.186V276.524C126.797 276.848 126.947 277.016 127.247 277.028V278C126.983 278.036 126.797 278.048 126.689 278.036C126.389 278.024 126.161 277.928 126.005 277.748C125.849 277.568 125.765 277.376 125.753 277.172L125.735 276.488C125.315 277.028 124.769 277.448 124.097 277.748C123.425 278.036 122.741 278.18 122.045 278.18C121.433 278.18 120.887 278.054 120.407 277.802C119.927 277.538 119.549 277.19 119.273 276.758C119.009 276.314 118.877 275.828 118.877 275.3ZM125.159 276.02C125.435 275.696 125.573 275.396 125.573 275.12V273.752C124.745 273.428 123.881 273.266 122.981 273.266C122.105 273.266 121.397 273.44 120.857 273.788C120.317 274.136 120.047 274.61 120.047 275.21C120.047 275.726 120.245 276.194 120.641 276.614C121.049 277.034 121.613 277.244 122.333 277.244C122.921 277.244 123.467 277.13 123.971 276.902C124.487 276.674 124.883 276.38 125.159 276.02ZM129.496 264.86H130.72V275.876C130.72 276.344 130.798 276.65 130.954 276.794C131.122 276.938 131.332 277.01 131.584 277.01C131.8 277.01 132.016 276.986 132.232 276.938C132.46 276.89 132.646 276.842 132.79 276.794L133.006 277.784C132.778 277.88 132.496 277.958 132.16 278.018C131.836 278.078 131.554 278.108 131.314 278.108C130.762 278.108 130.318 277.946 129.982 277.622C129.658 277.298 129.496 276.854 129.496 276.29V264.86ZM134.346 266.66V264.86H135.57V266.66H134.346ZM134.346 278V268.622H135.57V278H134.346ZM137.474 277.172L143.756 269.54H137.618V268.622H145.142V269.45L138.896 277.082H145.124V278H137.474V277.172ZM146.369 275.3C146.369 274.724 146.537 274.226 146.873 273.806C147.209 273.374 147.671 273.038 148.259 272.798C148.859 272.558 149.549 272.438 150.329 272.438C150.785 272.438 151.259 272.48 151.751 272.564C152.243 272.636 152.681 272.738 153.065 272.87V272.078C153.065 271.286 152.831 270.656 152.363 270.188C151.895 269.72 151.247 269.486 150.419 269.486C149.927 269.486 149.435 269.582 148.943 269.774C148.451 269.954 147.941 270.224 147.413 270.584L146.945 269.72C147.557 269.3 148.157 268.988 148.745 268.784C149.333 268.568 149.933 268.46 150.545 268.46C151.697 268.46 152.609 268.79 153.281 269.45C153.953 270.11 154.289 271.022 154.289 272.186V276.524C154.289 276.848 154.439 277.016 154.739 277.028V278C154.475 278.036 154.289 278.048 154.181 278.036C153.881 278.024 153.653 277.928 153.497 277.748C153.341 277.568 153.257 277.376 153.245 277.172L153.227 276.488C152.807 277.028 152.261 277.448 151.589 277.748C150.917 278.036 150.233 278.18 149.537 278.18C148.925 278.18 148.379 278.054 147.899 277.802C147.419 277.538 147.041 277.19 146.765 276.758C146.501 276.314 146.369 275.828 146.369 275.3ZM152.651 276.02C152.927 275.696 153.065 275.396 153.065 275.12V273.752C152.237 273.428 151.373 273.266 150.473 273.266C149.597 273.266 148.889 273.44 148.349 273.788C147.809 274.136 147.539 274.61 147.539 275.21C147.539 275.726 147.737 276.194 148.133 276.614C148.541 277.034 149.105 277.244 149.825 277.244C150.413 277.244 150.959 277.13 151.463 276.902C151.979 276.674 152.375 276.38 152.651 276.02ZM156.304 273.338C156.304 272.45 156.484 271.64 156.844 270.908C157.216 270.164 157.726 269.57 158.374 269.126C159.022 268.682 159.76 268.46 160.588 268.46C161.368 268.46 162.064 268.67 162.676 269.09C163.3 269.498 163.786 269.996 164.134 270.584V264.86H165.358V276.524C165.358 276.848 165.502 277.016 165.79 277.028V278C165.55 278.036 165.364 278.048 165.232 278.036C164.968 278.024 164.74 277.928 164.548 277.748C164.368 277.556 164.278 277.34 164.278 277.1V276.182C163.906 276.794 163.402 277.28 162.766 277.64C162.13 278 161.47 278.18 160.786 278.18C160.138 278.18 159.538 278.048 158.986 277.784C158.434 277.52 157.954 277.16 157.546 276.704C157.15 276.248 156.844 275.732 156.628 275.156C156.412 274.568 156.304 273.962 156.304 273.338ZM164.134 274.778V271.88C163.978 271.448 163.726 271.058 163.378 270.71C163.03 270.35 162.634 270.068 162.19 269.864C161.758 269.648 161.326 269.54 160.894 269.54C160.222 269.54 159.634 269.726 159.13 270.098C158.638 270.458 158.254 270.932 157.978 271.52C157.702 272.096 157.564 272.702 157.564 273.338C157.564 274.01 157.714 274.634 158.014 275.21C158.326 275.786 158.746 276.248 159.274 276.596C159.802 276.932 160.396 277.1 161.056 277.1C161.464 277.1 161.89 276.998 162.334 276.794C162.79 276.578 163.186 276.296 163.522 275.948C163.87 275.6 164.074 275.21 164.134 274.778ZM172.127 278.18C171.227 278.18 170.423 277.958 169.715 277.514C169.019 277.07 168.473 276.482 168.077 275.75C167.681 275.006 167.483 274.202 167.483 273.338C167.483 272.462 167.681 271.658 168.077 270.926C168.485 270.182 169.037 269.588 169.733 269.144C170.441 268.688 171.239 268.46 172.127 268.46C173.027 268.46 173.825 268.688 174.521 269.144C175.229 269.588 175.781 270.182 176.177 270.926C176.585 271.658 176.789 272.462 176.789 273.338C176.789 274.202 176.591 275.006 176.195 275.75C175.799 276.482 175.247 277.07 174.539 277.514C173.843 277.958 173.039 278.18 172.127 278.18ZM168.725 273.356C168.725 274.052 168.875 274.688 169.175 275.264C169.487 275.828 169.901 276.278 170.417 276.614C170.933 276.938 171.503 277.1 172.127 277.1C172.751 277.1 173.321 276.932 173.837 276.596C174.353 276.26 174.767 275.804 175.079 275.228C175.391 274.652 175.547 274.016 175.547 273.32C175.547 272.624 175.391 271.988 175.079 271.412C174.767 270.836 174.353 270.38 173.837 270.044C173.321 269.708 172.751 269.54 172.127 269.54C171.515 269.54 170.951 269.714 170.435 270.062C169.919 270.398 169.505 270.854 169.193 271.43C168.881 272.006 168.725 272.648 168.725 273.356ZM187.492 278.18C186.58 278.18 185.77 277.958 185.062 277.514C184.354 277.058 183.796 276.464 183.388 275.732C182.98 274.988 182.776 274.172 182.776 273.284C182.776 272.396 182.974 271.592 183.37 270.872C183.766 270.14 184.318 269.558 185.026 269.126C185.734 268.682 186.55 268.46 187.474 268.46C188.35 268.46 189.118 268.664 189.778 269.072C190.45 269.468 190.954 270.008 191.29 270.692L190.102 271.07C189.838 270.59 189.466 270.218 188.986 269.954C188.518 269.678 187.996 269.54 187.42 269.54C186.784 269.54 186.208 269.702 185.692 270.026C185.188 270.35 184.78 270.8 184.468 271.376C184.168 271.94 184.018 272.576 184.018 273.284C184.018 273.992 184.174 274.634 184.486 275.21C184.798 275.786 185.212 276.248 185.728 276.596C186.244 276.932 186.814 277.1 187.438 277.1C187.846 277.1 188.242 277.028 188.626 276.884C189.01 276.74 189.34 276.548 189.616 276.308C189.892 276.056 190.078 275.786 190.174 275.498L191.38 275.858C191.212 276.302 190.936 276.704 190.552 277.064C190.168 277.412 189.712 277.688 189.184 277.892C188.656 278.084 188.092 278.18 187.492 278.18ZM197.211 278.18C196.311 278.18 195.507 277.958 194.799 277.514C194.103 277.07 193.557 276.482 193.161 275.75C192.765 275.006 192.567 274.202 192.567 273.338C192.567 272.462 192.765 271.658 193.161 270.926C193.569 270.182 194.121 269.588 194.817 269.144C195.525 268.688 196.323 268.46 197.211 268.46C198.111 268.46 198.909 268.688 199.605 269.144C200.313 269.588 200.865 270.182 201.261 270.926C201.669 271.658 201.873 272.462 201.873 273.338C201.873 274.202 201.675 275.006 201.279 275.75C200.883 276.482 200.331 277.07 199.623 277.514C198.927 277.958 198.123 278.18 197.211 278.18ZM193.809 273.356C193.809 274.052 193.959 274.688 194.259 275.264C194.571 275.828 194.985 276.278 195.501 276.614C196.017 276.938 196.587 277.1 197.211 277.1C197.835 277.1 198.405 276.932 198.921 276.596C199.437 276.26 199.851 275.804 200.163 275.228C200.475 274.652 200.631 274.016 200.631 273.32C200.631 272.624 200.475 271.988 200.163 271.412C199.851 270.836 199.437 270.38 198.921 270.044C198.405 269.708 197.835 269.54 197.211 269.54C196.599 269.54 196.035 269.714 195.519 270.062C195.003 270.398 194.589 270.854 194.277 271.43C193.965 272.006 193.809 272.648 193.809 273.356ZM211.804 278H210.58V272.762C210.58 271.658 210.412 270.854 210.076 270.35C209.752 269.834 209.248 269.576 208.564 269.576C208.084 269.576 207.61 269.696 207.142 269.936C206.674 270.164 206.26 270.482 205.9 270.89C205.552 271.286 205.3 271.742 205.144 272.258V278H203.92V268.622H205.036V270.746C205.408 270.062 205.954 269.51 206.674 269.09C207.394 268.67 208.174 268.46 209.014 268.46C209.71 268.46 210.262 268.628 210.67 268.964C211.078 269.288 211.366 269.756 211.534 270.368C211.714 270.968 211.804 271.682 211.804 272.51V278ZM223.052 278.18C222.152 278.18 221.348 277.958 220.64 277.514C219.932 277.07 219.374 276.476 218.966 275.732C218.558 274.988 218.354 274.172 218.354 273.284C218.354 272.408 218.552 271.604 218.948 270.872C219.356 270.14 219.914 269.558 220.622 269.126C221.33 268.682 222.134 268.46 223.034 268.46C223.958 268.46 224.768 268.682 225.464 269.126C226.16 269.57 226.7 270.158 227.084 270.89C227.48 271.61 227.678 272.402 227.678 273.266C227.678 273.458 227.672 273.62 227.66 273.752H219.632C219.692 274.424 219.884 275.024 220.208 275.552C220.532 276.068 220.946 276.482 221.45 276.794C221.954 277.094 222.506 277.244 223.106 277.244C223.718 277.244 224.294 277.088 224.834 276.776C225.374 276.464 225.758 276.056 225.986 275.552L227.048 275.84C226.856 276.296 226.556 276.704 226.148 277.064C225.752 277.412 225.29 277.688 224.762 277.892C224.234 278.084 223.664 278.18 223.052 278.18ZM219.596 272.87H226.526C226.478 272.198 226.292 271.604 225.968 271.088C225.644 270.56 225.23 270.152 224.726 269.864C224.222 269.564 223.664 269.414 223.052 269.414C222.44 269.414 221.882 269.564 221.378 269.864C220.874 270.152 220.46 270.56 220.136 271.088C219.824 271.604 219.644 272.198 219.596 272.87ZM229.621 264.86H230.845V275.876C230.845 276.344 230.923 276.65 231.079 276.794C231.247 276.938 231.457 277.01 231.709 277.01C231.925 277.01 232.141 276.986 232.357 276.938C232.585 276.89 232.771 276.842 232.915 276.794L233.131 277.784C232.903 277.88 232.621 277.958 232.285 278.018C231.961 278.078 231.679 278.108 231.439 278.108C230.887 278.108 230.443 277.946 230.107 277.622C229.783 277.298 229.621 276.854 229.621 276.29V264.86ZM238.964 269.594H237.668V268.622H238.964V268.37C238.964 267.782 239.078 267.206 239.306 266.642C239.546 266.078 239.906 265.61 240.386 265.238C240.878 264.866 241.508 264.68 242.276 264.68C242.936 264.68 243.5 264.782 243.968 264.986C244.448 265.19 244.79 265.37 244.994 265.526L244.436 266.408C244.232 266.228 243.944 266.078 243.572 265.958C243.2 265.826 242.792 265.76 242.348 265.76C241.832 265.76 241.418 265.892 241.106 266.156C240.794 266.408 240.56 266.732 240.404 267.128C240.26 267.524 240.188 267.926 240.188 268.334V268.622H244.886V278H243.662V269.594H240.188V278H238.964V269.594ZM255.468 278H254.244V272.762C254.244 271.658 254.076 270.854 253.74 270.35C253.416 269.834 252.912 269.576 252.228 269.576C251.748 269.576 251.274 269.696 250.806 269.936C250.338 270.164 249.924 270.482 249.564 270.89C249.216 271.286 248.964 271.742 248.808 272.258V278H247.584V268.622H248.7V270.746C249.072 270.062 249.618 269.51 250.338 269.09C251.058 268.67 251.838 268.46 252.678 268.46C253.374 268.46 253.926 268.628 254.334 268.964C254.742 269.288 255.03 269.756 255.198 270.368C255.378 270.968 255.468 271.682 255.468 272.51V278ZM0.72 294.338C0.72 293.45 0.9 292.64 1.26 291.908C1.632 291.164 2.142 290.57 2.79 290.126C3.438 289.682 4.176 289.46 5.004 289.46C5.784 289.46 6.48 289.67 7.092 290.09C7.716 290.498 8.202 290.996 8.55 291.584V285.86H9.774V297.524C9.774 297.848 9.918 298.016 10.206 298.028V299C9.966 299.036 9.78 299.048 9.648 299.036C9.384 299.024 9.156 298.928 8.964 298.748C8.784 298.556 8.694 298.34 8.694 298.1V297.182C8.322 297.794 7.818 298.28 7.182 298.64C6.546 299 5.886 299.18 5.202 299.18C4.554 299.18 3.954 299.048 3.402 298.784C2.85 298.52 2.37 298.16 1.962 297.704C1.566 297.248 1.26 296.732 1.044 296.156C0.828 295.568 0.72 294.962 0.72 294.338ZM8.55 295.778V292.88C8.394 292.448 8.142 292.058 7.794 291.71C7.446 291.35 7.05 291.068 6.606 290.864C6.174 290.648 5.742 290.54 5.31 290.54C4.638 290.54 4.05 290.726 3.546 291.098C3.054 291.458 2.67 291.932 2.394 292.52C2.118 293.096 1.98 293.702 1.98 294.338C1.98 295.01 2.13 295.634 2.43 296.21C2.742 296.786 3.162 297.248 3.69 297.596C4.218 297.932 4.812 298.1 5.472 298.1C5.88 298.1 6.306 297.998 6.75 297.794C7.206 297.578 7.602 297.296 7.938 296.948C8.286 296.6 8.49 296.21 8.55 295.778ZM16.5973 299.18C15.6973 299.18 14.8933 298.958 14.1853 298.514C13.4773 298.07 12.9193 297.476 12.5113 296.732C12.1033 295.988 11.8993 295.172 11.8993 294.284C11.8993 293.408 12.0973 292.604 12.4933 291.872C12.9013 291.14 13.4593 290.558 14.1673 290.126C14.8753 289.682 15.6793 289.46 16.5793 289.46C17.5033 289.46 18.3133 289.682 19.0093 290.126C19.7053 290.57 20.2453 291.158 20.6293 291.89C21.0253 292.61 21.2233 293.402 21.2233 294.266C21.2233 294.458 21.2173 294.62 21.2053 294.752H13.1773C13.2373 295.424 13.4293 296.024 13.7533 296.552C14.0773 297.068 14.4913 297.482 14.9953 297.794C15.4993 298.094 16.0513 298.244 16.6513 298.244C17.2633 298.244 17.8393 298.088 18.3793 297.776C18.9193 297.464 19.3033 297.056 19.5313 296.552L20.5933 296.84C20.4013 297.296 20.1013 297.704 19.6933 298.064C19.2973 298.412 18.8353 298.688 18.3073 298.892C17.7793 299.084 17.2093 299.18 16.5973 299.18ZM13.1413 293.87H20.0713C20.0233 293.198 19.8373 292.604 19.5133 292.088C19.1893 291.56 18.7753 291.152 18.2713 290.864C17.7673 290.564 17.2093 290.414 16.5973 290.414C15.9853 290.414 15.4273 290.564 14.9233 290.864C14.4193 291.152 14.0053 291.56 13.6813 292.088C13.3693 292.604 13.1893 293.198 13.1413 293.87ZM41.6496 299H40.4256V293.762C40.4256 292.682 40.2516 291.884 39.9036 291.368C39.5556 290.84 39.0396 290.576 38.3556 290.576C37.6356 290.576 36.9996 290.828 36.4476 291.332C35.8956 291.836 35.5056 292.484 35.2776 293.276V299H34.0536V293.762C34.0536 292.658 33.8796 291.854 33.5316 291.35C33.1956 290.834 32.6856 290.576 32.0016 290.576C31.2936 290.576 30.6576 290.822 30.0936 291.314C29.5416 291.806 29.1516 292.454 28.9236 293.258V299H27.6996V289.622H28.8156V291.746C29.1996 291.026 29.7036 290.468 30.3276 290.072C30.9516 289.664 31.6416 289.46 32.3976 289.46C33.1776 289.46 33.8076 289.688 34.2876 290.144C34.7676 290.588 35.0616 291.164 35.1696 291.872C36.0336 290.264 37.2396 289.46 38.7876 289.46C39.8436 289.46 40.5816 289.832 41.0016 290.576C41.4336 291.308 41.6496 292.286 41.6496 293.51V299ZM48.2906 299.18C47.3906 299.18 46.5866 298.958 45.8786 298.514C45.1706 298.07 44.6126 297.476 44.2046 296.732C43.7966 295.988 43.5926 295.172 43.5926 294.284C43.5926 293.408 43.7906 292.604 44.1866 291.872C44.5946 291.14 45.1526 290.558 45.8606 290.126C46.5686 289.682 47.3726 289.46 48.2726 289.46C49.1966 289.46 50.0066 289.682 50.7026 290.126C51.3986 290.57 51.9386 291.158 52.3226 291.89C52.7186 292.61 52.9166 293.402 52.9166 294.266C52.9166 294.458 52.9106 294.62 52.8986 294.752H44.8706C44.9306 295.424 45.1226 296.024 45.4466 296.552C45.7706 297.068 46.1846 297.482 46.6886 297.794C47.1926 298.094 47.7446 298.244 48.3446 298.244C48.9566 298.244 49.5326 298.088 50.0726 297.776C50.6126 297.464 50.9966 297.056 51.2246 296.552L52.2866 296.84C52.0946 297.296 51.7946 297.704 51.3866 298.064C50.9906 298.412 50.5286 298.688 50.0006 298.892C49.4726 299.084 48.9026 299.18 48.2906 299.18ZM44.8346 293.87H51.7646C51.7166 293.198 51.5306 292.604 51.2066 292.088C50.8826 291.56 50.4686 291.152 49.9646 290.864C49.4606 290.564 48.9026 290.414 48.2906 290.414C47.6786 290.414 47.1206 290.564 46.6166 290.864C46.1126 291.152 45.6986 291.56 45.3746 292.088C45.0626 292.604 44.8826 293.198 44.8346 293.87ZM54.9311 287.66V285.86H56.1551V287.66H54.9311ZM53.4011 302.258C53.0051 302.258 52.6331 302.204 52.2851 302.096C51.9251 301.988 51.6131 301.808 51.3491 301.556L51.9431 300.728C52.1351 300.896 52.3451 301.01 52.5731 301.07C52.8011 301.13 53.0291 301.16 53.2571 301.16C53.6771 301.16 54.0611 300.998 54.4091 300.674C54.7571 300.362 54.9311 299.966 54.9311 299.486V289.622H56.1551V299.414C56.1551 299.966 56.0231 300.458 55.7591 300.89C55.4951 301.322 55.1531 301.658 54.7331 301.898C54.3131 302.138 53.8691 302.258 53.4011 302.258ZM62.844 299.18C61.944 299.18 61.14 298.958 60.432 298.514C59.736 298.07 59.19 297.482 58.794 296.75C58.398 296.006 58.2 295.202 58.2 294.338C58.2 293.462 58.398 292.658 58.794 291.926C59.202 291.182 59.754 290.588 60.45 290.144C61.158 289.688 61.956 289.46 62.844 289.46C63.744 289.46 64.542 289.688 65.238 290.144C65.946 290.588 66.498 291.182 66.894 291.926C67.302 292.658 67.506 293.462 67.506 294.338C67.506 295.202 67.308 296.006 66.912 296.75C66.516 297.482 65.964 298.07 65.256 298.514C64.56 298.958 63.756 299.18 62.844 299.18ZM59.442 294.356C59.442 295.052 59.592 295.688 59.892 296.264C60.204 296.828 60.618 297.278 61.134 297.614C61.65 297.938 62.22 298.1 62.844 298.1C63.468 298.1 64.038 297.932 64.554 297.596C65.07 297.26 65.484 296.804 65.796 296.228C66.108 295.652 66.264 295.016 66.264 294.32C66.264 293.624 66.108 292.988 65.796 292.412C65.484 291.836 65.07 291.38 64.554 291.044C64.038 290.708 63.468 290.54 62.844 290.54C62.232 290.54 61.668 290.714 61.152 291.062C60.636 291.398 60.222 291.854 59.91 292.43C59.598 293.006 59.442 293.648 59.442 294.356ZM74.2331 290.702C73.4171 290.726 72.6971 290.954 72.0731 291.386C71.4611 291.818 71.0291 292.412 70.7771 293.168V299H69.5531V289.622H70.7051V291.872C71.0291 291.212 71.4551 290.678 71.9831 290.27C72.5231 289.862 73.0931 289.634 73.6931 289.586C73.8131 289.574 73.9151 289.568 73.9991 289.568C74.0831 289.568 74.1611 289.574 74.2331 289.586V290.702ZM75.0725 296.3C75.0725 295.724 75.2405 295.226 75.5765 294.806C75.9125 294.374 76.3745 294.038 76.9625 293.798C77.5625 293.558 78.2525 293.438 79.0325 293.438C79.4885 293.438 79.9625 293.48 80.4545 293.564C80.9465 293.636 81.3845 293.738 81.7685 293.87V293.078C81.7685 292.286 81.5345 291.656 81.0665 291.188C80.5985 290.72 79.9505 290.486 79.1225 290.486C78.6305 290.486 78.1385 290.582 77.6465 290.774C77.1545 290.954 76.6445 291.224 76.1165 291.584L75.6485 290.72C76.2605 290.3 76.8605 289.988 77.4485 289.784C78.0365 289.568 78.6365 289.46 79.2485 289.46C80.4005 289.46 81.3125 289.79 81.9845 290.45C82.6565 291.11 82.9925 292.022 82.9925 293.186V297.524C82.9925 297.848 83.1425 298.016 83.4425 298.028V299C83.1785 299.036 82.9925 299.048 82.8845 299.036C82.5845 299.024 82.3565 298.928 82.2005 298.748C82.0445 298.568 81.9605 298.376 81.9485 298.172L81.9305 297.488C81.5105 298.028 80.9645 298.448 80.2925 298.748C79.6205 299.036 78.9365 299.18 78.2405 299.18C77.6285 299.18 77.0825 299.054 76.6025 298.802C76.1225 298.538 75.7445 298.19 75.4685 297.758C75.2045 297.314 75.0725 296.828 75.0725 296.3ZM81.3545 297.02C81.6305 296.696 81.7685 296.396 81.7685 296.12V294.752C80.9405 294.428 80.0765 294.266 79.1765 294.266C78.3005 294.266 77.5925 294.44 77.0525 294.788C76.5125 295.136 76.2425 295.61 76.2425 296.21C76.2425 296.726 76.4405 297.194 76.8365 297.614C77.2445 298.034 77.8085 298.244 78.5285 298.244C79.1165 298.244 79.6625 298.13 80.1665 297.902C80.6825 297.674 81.0785 297.38 81.3545 297.02ZM90.3171 290.702C89.5011 290.726 88.7811 290.954 88.1571 291.386C87.5451 291.818 87.1131 292.412 86.8611 293.168V299H85.6371V289.622H86.7891V291.872C87.1131 291.212 87.5391 290.678 88.0671 290.27C88.6071 289.862 89.1771 289.634 89.7771 289.586C89.8971 289.574 89.9991 289.568 90.0831 289.568C90.1671 289.568 90.2451 289.574 90.3171 289.586V290.702ZM96.1677 285.86H97.3917V296.876C97.3917 297.344 97.4697 297.65 97.6257 297.794C97.7937 297.938 98.0037 298.01 98.2557 298.01C98.4717 298.01 98.6877 297.986 98.9037 297.938C99.1317 297.89 99.3177 297.842 99.4617 297.794L99.6777 298.784C99.4497 298.88 99.1677 298.958 98.8317 299.018C98.5077 299.078 98.2257 299.108 97.9857 299.108C97.4337 299.108 96.9897 298.946 96.6537 298.622C96.3297 298.298 96.1677 297.854 96.1677 297.29V285.86ZM100.262 296.3C100.262 295.724 100.43 295.226 100.766 294.806C101.102 294.374 101.564 294.038 102.152 293.798C102.752 293.558 103.442 293.438 104.222 293.438C104.678 293.438 105.152 293.48 105.644 293.564C106.136 293.636 106.574 293.738 106.958 293.87V293.078C106.958 292.286 106.724 291.656 106.256 291.188C105.788 290.72 105.14 290.486 104.312 290.486C103.82 290.486 103.328 290.582 102.836 290.774C102.344 290.954 101.834 291.224 101.306 291.584L100.838 290.72C101.45 290.3 102.05 289.988 102.638 289.784C103.226 289.568 103.826 289.46 104.438 289.46C105.59 289.46 106.502 289.79 107.174 290.45C107.846 291.11 108.182 292.022 108.182 293.186V297.524C108.182 297.848 108.332 298.016 108.632 298.028V299C108.368 299.036 108.182 299.048 108.074 299.036C107.774 299.024 107.546 298.928 107.39 298.748C107.234 298.568 107.15 298.376 107.138 298.172L107.12 297.488C106.7 298.028 106.154 298.448 105.482 298.748C104.81 299.036 104.126 299.18 103.43 299.18C102.818 299.18 102.272 299.054 101.792 298.802C101.312 298.538 100.934 298.19 100.658 297.758C100.394 297.314 100.262 296.828 100.262 296.3ZM106.544 297.02C106.82 296.696 106.958 296.396 106.958 296.12V294.752C106.13 294.428 105.266 294.266 104.366 294.266C103.49 294.266 102.782 294.44 102.242 294.788C101.702 295.136 101.432 295.61 101.432 296.21C101.432 296.726 101.63 297.194 102.026 297.614C102.434 298.034 102.998 298.244 103.718 298.244C104.306 298.244 104.852 298.13 105.356 297.902C105.872 297.674 106.268 297.38 106.544 297.02ZM115.864 299V290.594H114.568V289.622H115.864V289.37C115.864 288.218 116.11 287.318 116.602 286.67C117.106 286.01 117.778 285.68 118.618 285.68C118.978 285.68 119.332 285.734 119.68 285.842C120.04 285.95 120.346 286.094 120.598 286.274L120.22 287.156C119.86 286.88 119.404 286.742 118.852 286.742C118.288 286.742 117.85 286.964 117.538 287.408C117.238 287.852 117.088 288.494 117.088 289.334V289.622H119.68V290.594H117.088V299H115.864ZM121.266 295.13V289.622H122.49V294.914C122.49 297.038 123.216 298.1 124.668 298.1C125.388 298.1 126.06 297.866 126.684 297.398C127.32 296.93 127.776 296.306 128.052 295.526V289.622H129.276V297.524C129.276 297.848 129.42 298.016 129.708 298.028V299C129.564 299.024 129.45 299.036 129.366 299.036C129.294 299.036 129.216 299.036 129.132 299.036C128.88 299.012 128.664 298.916 128.484 298.748C128.316 298.58 128.232 298.376 128.232 298.136L128.196 296.876C127.788 297.608 127.23 298.178 126.522 298.586C125.826 298.982 125.07 299.18 124.254 299.18C122.262 299.18 121.266 297.83 121.266 295.13ZM139.927 299H138.703V293.762C138.703 292.658 138.535 291.854 138.199 291.35C137.875 290.834 137.371 290.576 136.687 290.576C136.207 290.576 135.733 290.696 135.265 290.936C134.797 291.164 134.383 291.482 134.023 291.89C133.675 292.286 133.423 292.742 133.267 293.258V299H132.043V289.622H133.159V291.746C133.531 291.062 134.077 290.51 134.797 290.09C135.517 289.67 136.297 289.46 137.137 289.46C137.833 289.46 138.385 289.628 138.793 289.964C139.201 290.288 139.489 290.756 139.657 291.368C139.837 291.968 139.927 292.682 139.927 293.51V299ZM146.606 299.18C145.694 299.18 144.884 298.958 144.176 298.514C143.468 298.058 142.91 297.464 142.502 296.732C142.094 295.988 141.89 295.172 141.89 294.284C141.89 293.396 142.088 292.592 142.484 291.872C142.88 291.14 143.432 290.558 144.14 290.126C144.848 289.682 145.664 289.46 146.588 289.46C147.464 289.46 148.232 289.664 148.892 290.072C149.564 290.468 150.068 291.008 150.404 291.692L149.216 292.07C148.952 291.59 148.58 291.218 148.1 290.954C147.632 290.678 147.11 290.54 146.534 290.54C145.898 290.54 145.322 290.702 144.806 291.026C144.302 291.35 143.894 291.8 143.582 292.376C143.282 292.94 143.132 293.576 143.132 294.284C143.132 294.992 143.288 295.634 143.6 296.21C143.912 296.786 144.326 297.248 144.842 297.596C145.358 297.932 145.928 298.1 146.552 298.1C146.96 298.1 147.356 298.028 147.74 297.884C148.124 297.74 148.454 297.548 148.73 297.308C149.006 297.056 149.192 296.786 149.288 296.498L150.494 296.858C150.326 297.302 150.05 297.704 149.666 298.064C149.282 298.412 148.826 298.688 148.298 298.892C147.77 299.084 147.206 299.18 146.606 299.18ZM152.416 287.66V285.86H153.64V287.66H152.416ZM152.416 299V289.622H153.64V299H152.416ZM160.332 299.18C159.432 299.18 158.628 298.958 157.92 298.514C157.224 298.07 156.678 297.482 156.282 296.75C155.886 296.006 155.688 295.202 155.688 294.338C155.688 293.462 155.886 292.658 156.282 291.926C156.69 291.182 157.242 290.588 157.938 290.144C158.646 289.688 159.444 289.46 160.332 289.46C161.232 289.46 162.03 289.688 162.726 290.144C163.434 290.588 163.986 291.182 164.382 291.926C164.79 292.658 164.994 293.462 164.994 294.338C164.994 295.202 164.796 296.006 164.4 296.75C164.004 297.482 163.452 298.07 162.744 298.514C162.048 298.958 161.244 299.18 160.332 299.18ZM156.93 294.356C156.93 295.052 157.08 295.688 157.38 296.264C157.692 296.828 158.106 297.278 158.622 297.614C159.138 297.938 159.708 298.1 160.332 298.1C160.956 298.1 161.526 297.932 162.042 297.596C162.558 297.26 162.972 296.804 163.284 296.228C163.596 295.652 163.752 295.016 163.752 294.32C163.752 293.624 163.596 292.988 163.284 292.412C162.972 291.836 162.558 291.38 162.042 291.044C161.526 290.708 160.956 290.54 160.332 290.54C159.72 290.54 159.156 290.714 158.64 291.062C158.124 291.398 157.71 291.854 157.398 292.43C157.086 293.006 156.93 293.648 156.93 294.356ZM174.925 299H173.701V293.762C173.701 292.658 173.533 291.854 173.197 291.35C172.873 290.834 172.369 290.576 171.685 290.576C171.205 290.576 170.731 290.696 170.263 290.936C169.795 291.164 169.381 291.482 169.021 291.89C168.673 292.286 168.421 292.742 168.265 293.258V299H167.041V289.622H168.157V291.746C168.529 291.062 169.075 290.51 169.795 290.09C170.515 289.67 171.295 289.46 172.135 289.46C172.831 289.46 173.383 289.628 173.791 289.964C174.199 290.288 174.487 290.756 174.655 291.368C174.835 291.968 174.925 292.682 174.925 293.51V299ZM176.78 296.3C176.78 295.724 176.948 295.226 177.284 294.806C177.62 294.374 178.082 294.038 178.67 293.798C179.27 293.558 179.96 293.438 180.74 293.438C181.196 293.438 181.67 293.48 182.162 293.564C182.654 293.636 183.092 293.738 183.476 293.87V293.078C183.476 292.286 183.242 291.656 182.774 291.188C182.306 290.72 181.658 290.486 180.83 290.486C180.338 290.486 179.846 290.582 179.354 290.774C178.862 290.954 178.352 291.224 177.824 291.584L177.356 290.72C177.968 290.3 178.568 289.988 179.156 289.784C179.744 289.568 180.344 289.46 180.956 289.46C182.108 289.46 183.02 289.79 183.692 290.45C184.364 291.11 184.7 292.022 184.7 293.186V297.524C184.7 297.848 184.85 298.016 185.15 298.028V299C184.886 299.036 184.7 299.048 184.592 299.036C184.292 299.024 184.064 298.928 183.908 298.748C183.752 298.568 183.668 298.376 183.656 298.172L183.638 297.488C183.218 298.028 182.672 298.448 182 298.748C181.328 299.036 180.644 299.18 179.948 299.18C179.336 299.18 178.79 299.054 178.31 298.802C177.83 298.538 177.452 298.19 177.176 297.758C176.912 297.314 176.78 296.828 176.78 296.3ZM183.062 297.02C183.338 296.696 183.476 296.396 183.476 296.12V294.752C182.648 294.428 181.784 294.266 180.884 294.266C180.008 294.266 179.3 294.44 178.76 294.788C178.22 295.136 177.95 295.61 177.95 296.21C177.95 296.726 178.148 297.194 178.544 297.614C178.952 298.034 179.516 298.244 180.236 298.244C180.824 298.244 181.37 298.13 181.874 297.902C182.39 297.674 182.786 297.38 183.062 297.02ZM187.398 285.86H188.622V296.876C188.622 297.344 188.7 297.65 188.856 297.794C189.024 297.938 189.234 298.01 189.486 298.01C189.702 298.01 189.918 297.986 190.134 297.938C190.362 297.89 190.548 297.842 190.692 297.794L190.908 298.784C190.68 298.88 190.398 298.958 190.062 299.018C189.738 299.078 189.456 299.108 189.216 299.108C188.664 299.108 188.22 298.946 187.884 298.622C187.56 298.298 187.398 297.854 187.398 297.29V285.86ZM192.248 287.66V285.86H193.472V287.66H192.248ZM192.248 299V289.622H193.472V299H192.248ZM195.538 294.338C195.538 293.45 195.718 292.64 196.078 291.908C196.45 291.164 196.96 290.57 197.608 290.126C198.256 289.682 198.994 289.46 199.822 289.46C200.602 289.46 201.298 289.67 201.91 290.09C202.534 290.498 203.02 290.996 203.368 291.584V285.86H204.592V297.524C204.592 297.848 204.736 298.016 205.024 298.028V299C204.784 299.036 204.598 299.048 204.466 299.036C204.202 299.024 203.974 298.928 203.782 298.748C203.602 298.556 203.512 298.34 203.512 298.1V297.182C203.14 297.794 202.636 298.28 202 298.64C201.364 299 200.704 299.18 200.02 299.18C199.372 299.18 198.772 299.048 198.22 298.784C197.668 298.52 197.188 298.16 196.78 297.704C196.384 297.248 196.078 296.732 195.862 296.156C195.646 295.568 195.538 294.962 195.538 294.338ZM203.368 295.778V292.88C203.212 292.448 202.96 292.058 202.612 291.71C202.264 291.35 201.868 291.068 201.424 290.864C200.992 290.648 200.56 290.54 200.128 290.54C199.456 290.54 198.868 290.726 198.364 291.098C197.872 291.458 197.488 291.932 197.212 292.52C196.936 293.096 196.798 293.702 196.798 294.338C196.798 295.01 196.948 295.634 197.248 296.21C197.56 296.786 197.98 297.248 198.508 297.596C199.036 297.932 199.63 298.1 200.29 298.1C200.698 298.1 201.124 297.998 201.568 297.794C202.024 297.578 202.42 297.296 202.756 296.948C203.104 296.6 203.308 296.21 203.368 295.778ZM206.61 296.3C206.61 295.724 206.778 295.226 207.114 294.806C207.45 294.374 207.912 294.038 208.5 293.798C209.1 293.558 209.79 293.438 210.57 293.438C211.026 293.438 211.5 293.48 211.992 293.564C212.484 293.636 212.922 293.738 213.306 293.87V293.078C213.306 292.286 213.072 291.656 212.604 291.188C212.136 290.72 211.488 290.486 210.66 290.486C210.168 290.486 209.676 290.582 209.184 290.774C208.692 290.954 208.182 291.224 207.654 291.584L207.186 290.72C207.798 290.3 208.398 289.988 208.986 289.784C209.574 289.568 210.174 289.46 210.786 289.46C211.938 289.46 212.85 289.79 213.522 290.45C214.194 291.11 214.53 292.022 214.53 293.186V297.524C214.53 297.848 214.68 298.016 214.98 298.028V299C214.716 299.036 214.53 299.048 214.422 299.036C214.122 299.024 213.894 298.928 213.738 298.748C213.582 298.568 213.498 298.376 213.486 298.172L213.468 297.488C213.048 298.028 212.502 298.448 211.83 298.748C211.158 299.036 210.474 299.18 209.778 299.18C209.166 299.18 208.62 299.054 208.14 298.802C207.66 298.538 207.282 298.19 207.006 297.758C206.742 297.314 206.61 296.828 206.61 296.3ZM212.892 297.02C213.168 296.696 213.306 296.396 213.306 296.12V294.752C212.478 294.428 211.614 294.266 210.714 294.266C209.838 294.266 209.13 294.44 208.59 294.788C208.05 295.136 207.78 295.61 207.78 296.21C207.78 296.726 207.978 297.194 208.374 297.614C208.782 298.034 209.346 298.244 210.066 298.244C210.654 298.244 211.2 298.13 211.704 297.902C212.22 297.674 212.616 297.38 212.892 297.02ZM216.544 294.338C216.544 293.45 216.724 292.64 217.084 291.908C217.456 291.164 217.966 290.57 218.614 290.126C219.262 289.682 220 289.46 220.828 289.46C221.608 289.46 222.304 289.67 222.916 290.09C223.54 290.498 224.026 290.996 224.374 291.584V285.86H225.598V297.524C225.598 297.848 225.742 298.016 226.03 298.028V299C225.79 299.036 225.604 299.048 225.472 299.036C225.208 299.024 224.98 298.928 224.788 298.748C224.608 298.556 224.518 298.34 224.518 298.1V297.182C224.146 297.794 223.642 298.28 223.006 298.64C222.37 299 221.71 299.18 221.026 299.18C220.378 299.18 219.778 299.048 219.226 298.784C218.674 298.52 218.194 298.16 217.786 297.704C217.39 297.248 217.084 296.732 216.868 296.156C216.652 295.568 216.544 294.962 216.544 294.338ZM224.374 295.778V292.88C224.218 292.448 223.966 292.058 223.618 291.71C223.27 291.35 222.874 291.068 222.43 290.864C221.998 290.648 221.566 290.54 221.134 290.54C220.462 290.54 219.874 290.726 219.37 291.098C218.878 291.458 218.494 291.932 218.218 292.52C217.942 293.096 217.804 293.702 217.804 294.338C217.804 295.01 217.954 295.634 218.254 296.21C218.566 296.786 218.986 297.248 219.514 297.596C220.042 297.932 220.636 298.1 221.296 298.1C221.704 298.1 222.13 297.998 222.574 297.794C223.03 297.578 223.426 297.296 223.762 296.948C224.11 296.6 224.314 296.21 224.374 295.778ZM232.329 294.338C232.329 293.45 232.509 292.64 232.869 291.908C233.241 291.164 233.751 290.57 234.399 290.126C235.047 289.682 235.785 289.46 236.613 289.46C237.393 289.46 238.089 289.67 238.701 290.09C239.325 290.498 239.811 290.996 240.159 291.584V285.86H241.383V297.524C241.383 297.848 241.527 298.016 241.815 298.028V299C241.575 299.036 241.389 299.048 241.257 299.036C240.993 299.024 240.765 298.928 240.573 298.748C240.393 298.556 240.303 298.34 240.303 298.1V297.182C239.931 297.794 239.427 298.28 238.791 298.64C238.155 299 237.495 299.18 236.811 299.18C236.163 299.18 235.563 299.048 235.011 298.784C234.459 298.52 233.979 298.16 233.571 297.704C233.175 297.248 232.869 296.732 232.653 296.156C232.437 295.568 232.329 294.962 232.329 294.338ZM240.159 295.778V292.88C240.003 292.448 239.751 292.058 239.403 291.71C239.055 291.35 238.659 291.068 238.215 290.864C237.783 290.648 237.351 290.54 236.919 290.54C236.247 290.54 235.659 290.726 235.155 291.098C234.663 291.458 234.279 291.932 234.003 292.52C233.727 293.096 233.589 293.702 233.589 294.338C233.589 295.01 233.739 295.634 234.039 296.21C234.351 296.786 234.771 297.248 235.299 297.596C235.827 297.932 236.421 298.1 237.081 298.1C237.489 298.1 237.915 297.998 238.359 297.794C238.815 297.578 239.211 297.296 239.547 296.948C239.895 296.6 240.099 296.21 240.159 295.778ZM248.207 299.18C247.307 299.18 246.503 298.958 245.795 298.514C245.087 298.07 244.529 297.476 244.121 296.732C243.713 295.988 243.509 295.172 243.509 294.284C243.509 293.408 243.707 292.604 244.103 291.872C244.511 291.14 245.069 290.558 245.777 290.126C246.485 289.682 247.289 289.46 248.189 289.46C249.113 289.46 249.923 289.682 250.619 290.126C251.315 290.57 251.855 291.158 252.239 291.89C252.635 292.61 252.833 293.402 252.833 294.266C252.833 294.458 252.827 294.62 252.815 294.752H244.787C244.847 295.424 245.039 296.024 245.363 296.552C245.687 297.068 246.101 297.482 246.605 297.794C247.109 298.094 247.661 298.244 248.261 298.244C248.873 298.244 249.449 298.088 249.989 297.776C250.529 297.464 250.913 297.056 251.141 296.552L252.203 296.84C252.011 297.296 251.711 297.704 251.303 298.064C250.907 298.412 250.445 298.688 249.917 298.892C249.389 299.084 248.819 299.18 248.207 299.18ZM244.751 293.87H251.681C251.633 293.198 251.447 292.604 251.123 292.088C250.799 291.56 250.385 291.152 249.881 290.864C249.377 290.564 248.819 290.414 248.207 290.414C247.595 290.414 247.037 290.564 246.533 290.864C246.029 291.152 245.615 291.56 245.291 292.088C244.979 292.604 244.799 293.198 244.751 293.87ZM4.428 320.18C3.66 320.18 2.946 320.054 2.286 319.802C1.638 319.538 1.068 319.154 0.576 318.65L1.08 317.786C1.608 318.278 2.136 318.638 2.664 318.866C3.204 319.082 3.774 319.19 4.374 319.19C5.094 319.19 5.682 319.046 6.138 318.758C6.606 318.458 6.84 318.032 6.84 317.48C6.84 317.108 6.726 316.826 6.498 316.634C6.282 316.43 5.964 316.268 5.544 316.148C5.136 316.028 4.644 315.89 4.068 315.734C3.42 315.554 2.874 315.368 2.43 315.176C1.998 314.972 1.668 314.72 1.44 314.42C1.224 314.108 1.116 313.706 1.116 313.214C1.116 312.614 1.266 312.11 1.566 311.702C1.878 311.294 2.298 310.988 2.826 310.784C3.366 310.568 3.966 310.46 4.626 310.46C5.346 310.46 5.982 310.574 6.534 310.802C7.086 311.03 7.536 311.348 7.884 311.756L7.29 312.584C6.966 312.2 6.564 311.918 6.084 311.738C5.616 311.546 5.106 311.45 4.554 311.45C4.17 311.45 3.804 311.504 3.456 311.612C3.108 311.708 2.82 311.876 2.592 312.116C2.376 312.344 2.268 312.662 2.268 313.07C2.268 313.574 2.454 313.922 2.826 314.114C3.198 314.306 3.762 314.51 4.518 314.726C5.226 314.918 5.844 315.11 6.372 315.302C6.9 315.494 7.308 315.752 7.596 316.076C7.884 316.388 8.028 316.826 8.028 317.39C8.028 318.266 7.698 318.95 7.038 319.442C6.378 319.934 5.508 320.18 4.428 320.18ZM9.96117 316.13V310.622H11.1852V315.914C11.1852 318.038 11.9112 319.1 13.3632 319.1C14.0832 319.1 14.7552 318.866 15.3792 318.398C16.0152 317.93 16.4712 317.306 16.7472 316.526V310.622H17.9712V318.524C17.9712 318.848 18.1152 319.016 18.4032 319.028V320C18.2592 320.024 18.1452 320.036 18.0612 320.036C17.9892 320.036 17.9112 320.036 17.8272 320.036C17.5752 320.012 17.3592 319.916 17.1792 319.748C17.0112 319.58 16.9272 319.376 16.9272 319.136L16.8912 317.876C16.4832 318.608 15.9252 319.178 15.2172 319.586C14.5212 319.982 13.7652 320.18 12.9492 320.18C10.9572 320.18 9.96117 318.83 9.96117 316.13ZM29.3766 320.18C28.4766 320.18 27.6726 319.958 26.9646 319.514C26.2566 319.07 25.6986 318.476 25.2906 317.732C24.8826 316.988 24.6786 316.172 24.6786 315.284C24.6786 314.408 24.8766 313.604 25.2726 312.872C25.6806 312.14 26.2386 311.558 26.9466 311.126C27.6546 310.682 28.4586 310.46 29.3586 310.46C30.2826 310.46 31.0926 310.682 31.7886 311.126C32.4846 311.57 33.0246 312.158 33.4086 312.89C33.8046 313.61 34.0026 314.402 34.0026 315.266C34.0026 315.458 33.9966 315.62 33.9846 315.752H25.9566C26.0166 316.424 26.2086 317.024 26.5326 317.552C26.8566 318.068 27.2706 318.482 27.7746 318.794C28.2786 319.094 28.8306 319.244 29.4306 319.244C30.0426 319.244 30.6186 319.088 31.1586 318.776C31.6986 318.464 32.0826 318.056 32.3106 317.552L33.3726 317.84C33.1806 318.296 32.8806 318.704 32.4726 319.064C32.0766 319.412 31.6146 319.688 31.0866 319.892C30.5586 320.084 29.9886 320.18 29.3766 320.18ZM25.9206 314.87H32.8506C32.8026 314.198 32.6166 313.604 32.2926 313.088C31.9686 312.56 31.5546 312.152 31.0506 311.864C30.5466 311.564 29.9886 311.414 29.3766 311.414C28.7646 311.414 28.2066 311.564 27.7026 311.864C27.1986 312.152 26.7846 312.56 26.4606 313.088C26.1486 313.604 25.9686 314.198 25.9206 314.87ZM49.841 320H48.617V314.762C48.617 313.682 48.443 312.884 48.095 312.368C47.747 311.84 47.231 311.576 46.547 311.576C45.827 311.576 45.191 311.828 44.639 312.332C44.087 312.836 43.697 313.484 43.469 314.276V320H42.245V314.762C42.245 313.658 42.071 312.854 41.723 312.35C41.387 311.834 40.877 311.576 40.193 311.576C39.485 311.576 38.849 311.822 38.285 312.314C37.733 312.806 37.343 313.454 37.115 314.258V320H35.891V310.622H37.007V312.746C37.391 312.026 37.895 311.468 38.519 311.072C39.143 310.664 39.833 310.46 40.589 310.46C41.369 310.46 41.999 310.688 42.479 311.144C42.959 311.588 43.253 312.164 43.361 312.872C44.225 311.264 45.431 310.46 46.979 310.46C48.035 310.46 48.773 310.832 49.193 311.576C49.625 312.308 49.841 313.286 49.841 314.51V320ZM57.22 320.18C56.44 320.18 55.738 319.976 55.114 319.568C54.502 319.16 54.016 318.656 53.656 318.056V323.834H52.432V310.622H53.53V312.44C53.902 311.852 54.394 311.378 55.006 311.018C55.63 310.646 56.302 310.46 57.022 310.46C57.67 310.46 58.264 310.598 58.804 310.874C59.344 311.138 59.812 311.498 60.208 311.954C60.616 312.41 60.928 312.932 61.144 313.52C61.36 314.096 61.468 314.696 61.468 315.32C61.468 316.196 61.288 317.006 60.928 317.75C60.58 318.482 60.082 319.07 59.434 319.514C58.798 319.958 58.06 320.18 57.22 320.18ZM56.878 319.1C57.562 319.1 58.15 318.92 58.642 318.56C59.146 318.188 59.536 317.714 59.812 317.138C60.088 316.562 60.226 315.956 60.226 315.32C60.226 314.648 60.07 314.024 59.758 313.448C59.446 312.872 59.026 312.41 58.498 312.062C57.982 311.714 57.394 311.54 56.734 311.54C56.326 311.54 55.894 311.648 55.438 311.864C54.994 312.068 54.598 312.35 54.25 312.71C53.914 313.058 53.716 313.442 53.656 313.862V316.742C53.932 317.402 54.364 317.96 54.952 318.416C55.54 318.872 56.182 319.1 56.878 319.1ZM68.2214 311.702C67.4054 311.726 66.6854 311.954 66.0614 312.386C65.4494 312.818 65.0174 313.412 64.7654 314.168V320H63.5414V310.622H64.6934V312.872C65.0174 312.212 65.4434 311.678 65.9714 311.27C66.5114 310.862 67.0814 310.634 67.6814 310.586C67.8014 310.574 67.9034 310.568 67.9874 310.568C68.0714 310.568 68.1494 310.574 68.2214 310.586V311.702ZM73.6207 320.18C72.7207 320.18 71.9167 319.958 71.2087 319.514C70.5007 319.07 69.9427 318.476 69.5347 317.732C69.1267 316.988 68.9227 316.172 68.9227 315.284C68.9227 314.408 69.1207 313.604 69.5167 312.872C69.9247 312.14 70.4827 311.558 71.1907 311.126C71.8987 310.682 72.7027 310.46 73.6027 310.46C74.5267 310.46 75.3367 310.682 76.0327 311.126C76.7287 311.57 77.2687 312.158 77.6527 312.89C78.0487 313.61 78.2467 314.402 78.2467 315.266C78.2467 315.458 78.2407 315.62 78.2287 315.752H70.2007C70.2607 316.424 70.4527 317.024 70.7767 317.552C71.1007 318.068 71.5147 318.482 72.0187 318.794C72.5227 319.094 73.0747 319.244 73.6747 319.244C74.2867 319.244 74.8627 319.088 75.4027 318.776C75.9427 318.464 76.3267 318.056 76.5547 317.552L77.6167 317.84C77.4247 318.296 77.1247 318.704 76.7167 319.064C76.3207 319.412 75.8587 319.688 75.3307 319.892C74.8027 320.084 74.2327 320.18 73.6207 320.18ZM70.1647 314.87H77.0947C77.0467 314.198 76.8607 313.604 76.5367 313.088C76.2127 312.56 75.7987 312.152 75.2947 311.864C74.7907 311.564 74.2327 311.414 73.6207 311.414C73.0087 311.414 72.4507 311.564 71.9467 311.864C71.4427 312.152 71.0287 312.56 70.7047 313.088C70.3927 313.604 70.2127 314.198 70.1647 314.87ZM83.2132 320.18C82.4452 320.18 81.7312 320.054 81.0712 319.802C80.4232 319.538 79.8532 319.154 79.3612 318.65L79.8652 317.786C80.3932 318.278 80.9212 318.638 81.4492 318.866C81.9892 319.082 82.5592 319.19 83.1592 319.19C83.8792 319.19 84.4672 319.046 84.9232 318.758C85.3912 318.458 85.6252 318.032 85.6252 317.48C85.6252 317.108 85.5112 316.826 85.2832 316.634C85.0672 316.43 84.7492 316.268 84.3292 316.148C83.9212 316.028 83.4292 315.89 82.8532 315.734C82.2052 315.554 81.6592 315.368 81.2152 315.176C80.7832 314.972 80.4532 314.72 80.2252 314.42C80.0092 314.108 79.9012 313.706 79.9012 313.214C79.9012 312.614 80.0512 312.11 80.3512 311.702C80.6632 311.294 81.0832 310.988 81.6112 310.784C82.1512 310.568 82.7512 310.46 83.4112 310.46C84.1312 310.46 84.7672 310.574 85.3192 310.802C85.8712 311.03 86.3212 311.348 86.6692 311.756L86.0752 312.584C85.7512 312.2 85.3492 311.918 84.8692 311.738C84.4012 311.546 83.8912 311.45 83.3392 311.45C82.9552 311.45 82.5892 311.504 82.2412 311.612C81.8932 311.708 81.6052 311.876 81.3772 312.116C81.1612 312.344 81.0532 312.662 81.0532 313.07C81.0532 313.574 81.2392 313.922 81.6112 314.114C81.9832 314.306 82.5472 314.51 83.3032 314.726C84.0112 314.918 84.6292 315.11 85.1572 315.302C85.6852 315.494 86.0932 315.752 86.3812 316.076C86.6692 316.388 86.8132 316.826 86.8132 317.39C86.8132 318.266 86.4832 318.95 85.8232 319.442C85.1632 319.934 84.2932 320.18 83.2132 320.18ZM88.0803 317.3C88.0803 316.724 88.2483 316.226 88.5843 315.806C88.9203 315.374 89.3823 315.038 89.9703 314.798C90.5703 314.558 91.2603 314.438 92.0403 314.438C92.4963 314.438 92.9703 314.48 93.4623 314.564C93.9543 314.636 94.3923 314.738 94.7763 314.87V314.078C94.7763 313.286 94.5423 312.656 94.0743 312.188C93.6063 311.72 92.9583 311.486 92.1303 311.486C91.6383 311.486 91.1463 311.582 90.6543 311.774C90.1623 311.954 89.6523 312.224 89.1243 312.584L88.6563 311.72C89.2683 311.3 89.8683 310.988 90.4563 310.784C91.0443 310.568 91.6443 310.46 92.2563 310.46C93.4083 310.46 94.3203 310.79 94.9923 311.45C95.6643 312.11 96.0003 313.022 96.0003 314.186V318.524C96.0003 318.848 96.1503 319.016 96.4503 319.028V320C96.1863 320.036 96.0003 320.048 95.8923 320.036C95.5923 320.024 95.3643 319.928 95.2083 319.748C95.0523 319.568 94.9683 319.376 94.9563 319.172L94.9383 318.488C94.5183 319.028 93.9723 319.448 93.3003 319.748C92.6283 320.036 91.9443 320.18 91.2483 320.18C90.6363 320.18 90.0903 320.054 89.6103 319.802C89.1303 319.538 88.7523 319.19 88.4763 318.758C88.2123 318.314 88.0803 317.828 88.0803 317.3ZM94.3623 318.02C94.6383 317.696 94.7763 317.396 94.7763 317.12V315.752C93.9483 315.428 93.0843 315.266 92.1843 315.266C91.3083 315.266 90.6003 315.44 90.0603 315.788C89.5203 316.136 89.2503 316.61 89.2503 317.21C89.2503 317.726 89.4483 318.194 89.8443 318.614C90.2523 319.034 90.8163 319.244 91.5363 319.244C92.1243 319.244 92.6703 319.13 93.1743 318.902C93.6903 318.674 94.0863 318.38 94.3623 318.02Z" fill="black"/>
<g clip-path="url(#clip0)">
<path d="M181.479 47.6879H180.558V22.354C180.558 20.4285 180.18 18.5219 179.446 16.7429C178.712 14.964 177.637 13.3476 176.281 11.986C174.925 10.6245 173.315 9.54446 171.543 8.8076C169.771 8.07073 167.872 7.69147 165.955 7.69147H112.499C110.581 7.69147 108.682 8.07072 106.911 8.80758C105.139 9.54444 103.529 10.6245 102.173 11.986C100.817 13.3475 99.7412 14.9639 99.0074 16.7429C98.2735 18.5218 97.8958 20.4285 97.8958 22.354V161.337C97.8957 165.226 99.4343 168.956 102.173 171.705C104.912 174.455 108.626 176 112.499 176H165.955C169.828 176 173.542 174.455 176.281 171.705C179.019 168.956 180.558 165.226 180.558 161.338V65.7209H181.479L181.479 47.6879Z" fill="#3F3D56"/>
<path d="M177.45 22.4563V161.235C177.45 164.139 176.301 166.925 174.256 168.978C172.211 171.032 169.437 172.186 166.544 172.186H112.83C111.398 172.186 109.98 171.902 108.657 171.352C107.334 170.802 106.132 169.995 105.119 168.978C104.107 167.961 103.304 166.754 102.756 165.426C102.208 164.097 101.926 162.673 101.926 161.235V22.4563C101.926 21.0184 102.208 19.5946 102.756 18.2661C103.304 16.9376 104.107 15.7304 105.119 14.7136C106.132 13.6967 107.334 12.8901 108.657 12.3397C109.98 11.7894 111.398 11.5061 112.83 11.506H119.348C119.027 12.2959 118.904 13.1531 118.99 14.002C119.077 14.8509 119.37 15.6654 119.844 16.3736C120.318 17.0818 120.959 17.6619 121.709 18.0629C122.459 18.4639 123.296 18.6734 124.146 18.6729H154.77C155.62 18.6733 156.457 18.4638 157.207 18.0627C157.957 17.6616 158.597 17.0814 159.071 16.3731C159.545 15.6649 159.838 14.8505 159.924 14.0016C160.01 13.1528 159.887 12.2957 159.565 11.506H166.544C169.437 11.5061 172.211 12.6598 174.256 14.7133C176.301 16.7669 177.45 19.5521 177.45 22.4563Z" fill="white"/>
<path d="M126.205 48.7833C134.092 48.7833 140.485 42.3638 140.485 34.445C140.485 26.5262 134.092 20.1067 126.205 20.1067C118.318 20.1067 111.925 26.5262 111.925 34.445C111.925 42.3638 118.318 48.7833 126.205 48.7833Z" fill="#FF6584"/>
<path d="M162.329 103.151C163.377 92.4821 160.005 83.4152 154.797 82.8996C149.589 82.3841 144.518 90.6151 143.471 101.284C142.423 111.953 145.795 121.02 151.003 121.536C156.211 122.051 161.282 113.82 162.329 103.151Z" fill="#3F3D56"/>
<path d="M150.666 133.924C149.123 110.799 155.088 88.501 155.148 88.2787L155.87 88.4763C155.81 88.6976 149.879 110.879 151.413 133.874L150.666 133.924Z" fill="#3073FF"/>
<path d="M161.61 98.8855L152.633 102.621L152.92 103.315L161.896 99.58L161.61 98.8855Z" fill="#3073FF"/>
<path d="M144.21 99.4799L143.794 100.105L151.87 105.531L152.286 104.906L144.21 99.4799Z" fill="#3073FF"/>
<path d="M129.157 132.172C126.144 87.003 137.794 43.4487 137.912 43.014L138.634 43.2117C138.516 43.6453 126.899 87.0826 129.904 132.122L129.157 132.172Z" fill="#3F3D56"/>
<path d="M150.342 63.9966L132.785 71.3024L133.071 71.997L150.628 64.6912L150.342 63.9966Z" fill="#3F3D56"/>
<path d="M115.974 65.1248L115.558 65.7497L131.353 76.3619L131.769 75.7371L115.974 65.1248Z" fill="#3F3D56"/>
<path d="M101.464 135.521L101 161.759C101 167.967 106.38 173 112.447 173H166.551C172.618 173 178 167.967 178 161.759L177.536 135.751C150.26 125.123 125.038 125.789 101.464 135.521Z" fill="#3073FF"/>
<path d="M146.636 25.0751L149.495 22.779C147.274 22.533 146.361 23.7493 145.987 24.712C144.252 23.9885 142.363 24.9367 142.363 24.9367L148.084 27.0219C147.795 26.2479 147.293 25.5726 146.636 25.0751Z" fill="#3F3D56"/>
</g>
<defs>
<clipPath id="clip0">
<rect width="120" height="176" fill="white" transform="translate(76)"/>
</clipPath>
</defs>
</svg>
