<svg width="269" height="340" viewBox="0 0 269 340" fill="none" xmlns="http://www.w3.org/2000/svg">
<g clip-path="url(#clip0)">
<path d="M139.138 170C204.784 170 258 166.663 258 162.547C258 158.431 204.784 155.094 139.138 155.094C73.4926 155.094 20.2764 158.431 20.2764 162.547C20.2764 166.663 73.4926 170 139.138 170Z" fill="#3F3D56"/>
<path d="M25.1304 155.24C27.856 160.292 33.6407 162.461 33.6407 162.461C33.6407 162.461 35.0063 156.439 32.2807 151.386C29.5551 146.334 23.7705 144.165 23.7705 144.165C23.7705 144.165 22.4048 150.188 25.1304 155.24Z" fill="#3F3D56"/>
<path d="M27.0038 153.578C31.9246 156.537 33.8198 162.415 33.8198 162.415C33.8198 162.415 27.7367 163.495 22.8159 160.536C17.8952 157.576 16 151.699 16 151.699C16 151.699 22.083 150.619 27.0038 153.578Z" fill="#3073FF"/>
<path d="M234.764 20.8381H40.0035V27.0316H234.764V20.8381Z" fill="#F2F2F2"/>
<path d="M234.764 160.691H40.0034V118.911L61.5047 100.435L234.764 87.3034V160.691Z" fill="#3073FF"/>
<path d="M45.2153 25.4464C46.1009 25.4464 46.8189 24.7288 46.8189 23.8435C46.8189 22.9583 46.1009 22.2406 45.2153 22.2406C44.3296 22.2406 43.6117 22.9583 43.6117 23.8435C43.6117 24.7288 44.3296 25.4464 45.2153 25.4464Z" fill="#3073FF"/>
<path d="M50.427 25.4464C51.3127 25.4464 52.0306 24.7288 52.0306 23.8435C52.0306 22.9583 51.3127 22.2406 50.427 22.2406C49.5414 22.2406 48.8234 22.9583 48.8234 23.8435C48.8234 24.7288 49.5414 25.4464 50.427 25.4464Z" fill="#3073FF"/>
<path d="M55.6387 25.4464C56.5244 25.4464 57.2423 24.7288 57.2423 23.8435C57.2423 22.9583 56.5244 22.2406 55.6387 22.2406C54.7531 22.2406 54.0351 22.9583 54.0351 23.8435C54.0351 24.7288 54.7531 25.4464 55.6387 25.4464Z" fill="#3073FF"/>
<path d="M40.0034 118.815L234.764 87.1015V27.0316H40.0034V118.815Z" fill="white"/>
<path d="M212.96 132.157C207.702 131.267 202.646 130.502 197.791 129.863L199.71 126.144C199.063 125.919 196.22 128.049 196.22 128.049L198.739 117.252C195.484 117.644 193.829 128.669 193.829 128.669L190.192 124.942L191.953 129.132C177.093 127.383 164.26 126.734 153.466 126.711L155.109 123.527C154.462 123.303 151.618 125.433 151.618 125.433L154.137 114.636C150.882 115.028 149.227 126.053 149.227 126.053L145.59 122.325L147.455 126.764C140.06 126.886 132.675 127.387 125.331 128.266C126.993 123.306 132.637 118.59 132.637 118.59C128.326 119.871 126.065 122.018 124.884 124.02C124.778 113.787 126.48 103.616 129.912 93.9742C129.912 93.9742 121.002 113.354 122.139 126.363L122.275 128.673C114.722 129.754 110.924 130.879 110.924 130.879L212.96 132.157Z" fill="#3F3D56"/>
<path d="M108.446 62.2678H54.059V64.4599H108.446V62.2678Z" fill="#3F3D56"/>
<path d="M108.446 67.0903H54.059V69.2823H108.446V67.0903Z" fill="#3F3D56"/>
<path d="M72.4804 71.9129H54.059V74.1049H72.4804V71.9129Z" fill="#3F3D56"/>
<path d="M131.18 158.67C132.361 158.67 133.319 157.712 133.319 156.531C133.319 155.35 132.361 154.393 131.18 154.393C129.998 154.393 129.04 155.35 129.04 156.531C129.04 157.712 129.998 158.67 131.18 158.67Z" fill="#F2F2F2"/>
<path d="M137.384 158.883C138.565 158.883 139.523 157.926 139.523 156.745C139.523 155.564 138.565 154.607 137.384 154.607C136.202 154.607 135.244 155.564 135.244 156.745C135.244 157.926 136.202 158.883 137.384 158.883Z" fill="#F2F2F2"/>
<path d="M143.588 159.097C144.769 159.097 145.727 158.14 145.727 156.959C145.727 155.778 144.769 154.82 143.588 154.82C142.406 154.82 141.449 155.778 141.449 156.959C141.449 158.14 142.406 159.097 143.588 159.097Z" fill="#F2F2F2"/>
<path d="M137.403 158.456C138.349 158.456 139.115 157.69 139.115 156.745C139.115 155.8 138.349 155.034 137.403 155.034C136.458 155.034 135.692 155.8 135.692 156.745C135.692 157.69 136.458 158.456 137.403 158.456Z" fill="#3F3D56"/>
<path d="M198.489 51.2378C209.434 51.2378 218.306 42.3691 218.306 31.429C218.306 20.489 209.434 11.6203 198.489 11.6203C187.544 11.6203 178.671 20.489 178.671 31.429C178.671 42.3691 187.544 51.2378 198.489 51.2378Z" fill="#FF6584"/>
<path d="M212.283 55.2903C216.185 81.9047 201.718 93.5147 182.193 96.3744C181.74 96.4408 181.288 96.5018 180.837 96.5575C179.929 96.6705 179.028 96.7605 178.133 96.8273C160.329 98.1612 145.205 90.3979 141.576 65.6466C137.821 40.0321 165.834 2.90997 167.94 0.160089C167.942 0.159775 167.942 0.159775 167.944 0.157287C168.024 0.0525289 168.065 -3.8147e-06 168.065 -3.8147e-06C168.065 -3.8147e-06 208.382 28.6781 212.283 55.2903Z" fill="#3073FF"/>
<path d="M180.31 92.4918L190.593 72.5398L180.568 94.4789L180.837 96.5574C179.929 96.6705 179.028 96.7604 178.133 96.8273L175.623 69.998L175.582 69.7936L175.6 69.751L175.363 67.2157L159.423 49.0288L175.126 65.3253L175.237 65.854L173.34 45.5835L159.172 26.4524L172.958 42.0282L167.94 0.160054L167.924 0.0206223L167.944 0.157252L172.584 33.0751L181.745 18.4139L172.951 35.9146L175.299 53.9701L183.108 35.1691L175.646 56.6244L176.951 66.6641L188.435 40.4039L177.405 70.1668L180.31 92.4918Z" fill="#3F3D56"/>
</g>
<path d="M2.04 221V203.96H7.944C9.768 203.96 11.288 204.344 12.504 205.112C13.736 205.864 14.656 206.888 15.264 208.184C15.872 209.464 16.176 210.888 16.176 212.456C16.176 214.184 15.84 215.688 15.168 216.968C14.496 218.248 13.544 219.24 12.312 219.944C11.08 220.648 9.624 221 7.944 221H2.04ZM13.992 212.456C13.992 211.176 13.752 210.04 13.272 209.048C12.808 208.056 12.128 207.28 11.232 206.72C10.336 206.16 9.24 205.88 7.944 205.88H4.2V219.08H7.944C9.256 219.08 10.36 218.792 11.256 218.216C12.152 217.624 12.832 216.832 13.296 215.84C13.76 214.832 13.992 213.704 13.992 212.456ZM24.4277 221.24C23.1797 221.24 22.0757 220.944 21.1157 220.352C20.1557 219.76 19.4037 218.968 18.8597 217.976C18.3157 216.984 18.0437 215.904 18.0437 214.736C18.0437 213.552 18.3157 212.472 18.8597 211.496C19.4037 210.52 20.1557 209.736 21.1157 209.144C22.0917 208.552 23.2037 208.256 24.4517 208.256C25.7157 208.256 26.8117 208.56 27.7397 209.168C28.6837 209.76 29.4117 210.544 29.9237 211.52C30.4517 212.48 30.7157 213.52 30.7157 214.64C30.7157 214.992 30.6997 215.264 30.6677 215.456H20.2757C20.3397 216.272 20.5637 217 20.9477 217.64C21.3477 218.264 21.8597 218.76 22.4837 219.128C23.1077 219.48 23.7797 219.656 24.4997 219.656C25.2677 219.656 25.9877 219.464 26.6597 219.08C27.3477 218.696 27.8197 218.192 28.0757 217.568L29.8997 218.072C29.4997 219 28.8037 219.76 27.8117 220.352C26.8197 220.944 25.6917 221.24 24.4277 221.24ZM20.2037 213.992H28.7477C28.6837 213.176 28.4517 212.456 28.0517 211.832C27.6517 211.208 27.1397 210.72 26.5157 210.368C25.8917 210.016 25.2037 209.84 24.4517 209.84C23.7157 209.84 23.0357 210.016 22.4117 210.368C21.7877 210.72 21.2757 211.208 20.8757 211.832C20.4917 212.456 20.2677 213.176 20.2037 213.992ZM37.3594 221.24C36.3194 221.24 35.3434 221.072 34.4314 220.736C33.5194 220.384 32.7354 219.864 32.0794 219.176L32.8954 217.688C33.6154 218.36 34.3354 218.84 35.0554 219.128C35.7754 219.416 36.5114 219.56 37.2634 219.56C38.1274 219.56 38.8314 219.4 39.3754 219.08C39.9194 218.744 40.1914 218.256 40.1914 217.616C40.1914 217.152 40.0474 216.808 39.7594 216.584C39.4874 216.36 39.0954 216.176 38.5834 216.032C38.0714 215.872 37.4634 215.696 36.7594 215.504C35.4634 215.136 34.4714 214.704 33.7834 214.208C33.1114 213.696 32.7754 212.952 32.7754 211.976C32.7754 210.792 33.2234 209.88 34.1194 209.24C35.0314 208.584 36.1914 208.256 37.5994 208.256C39.4874 208.256 40.9754 208.824 42.0634 209.96L41.1034 211.424C40.1274 210.416 38.9194 209.912 37.4794 209.912C37.0474 209.912 36.6234 209.968 36.2074 210.08C35.7914 210.176 35.4474 210.36 35.1754 210.632C34.9034 210.888 34.7674 211.256 34.7674 211.736C34.7674 212.328 35.0074 212.752 35.4874 213.008C35.9674 213.264 36.6714 213.528 37.5994 213.8C38.5434 214.072 39.3594 214.344 40.0474 214.616C40.7514 214.888 41.2954 215.24 41.6794 215.672C42.0634 216.104 42.2554 216.704 42.2554 217.472C42.2554 218.656 41.8074 219.584 40.9114 220.256C40.0154 220.912 38.8314 221.24 37.3594 221.24ZM43.7981 217.376C43.7981 216.576 44.0221 215.888 44.4701 215.312C44.9341 214.72 45.5661 214.264 46.3661 213.944C47.1661 213.624 48.0941 213.464 49.1501 213.464C49.7101 213.464 50.3021 213.512 50.9261 213.608C51.5501 213.688 52.1021 213.816 52.5821 213.992V213.08C52.5821 212.12 52.2941 211.368 51.7181 210.824C51.1421 210.264 50.3261 209.984 49.2701 209.984C48.5821 209.984 47.9181 210.112 47.2781 210.368C46.6541 210.608 45.9901 210.96 45.2861 211.424L44.5181 209.936C45.3341 209.376 46.1501 208.96 46.9661 208.688C47.7821 208.4 48.6301 208.256 49.5101 208.256C51.1101 208.256 52.3741 208.704 53.3021 209.6C54.2301 210.48 54.6941 211.712 54.6941 213.296V218.6C54.6941 219.096 54.9181 219.352 55.3661 219.368V221C55.1581 221.032 54.9741 221.056 54.8141 221.072C54.6701 221.088 54.5501 221.096 54.4541 221.096C53.9581 221.096 53.5821 220.96 53.3261 220.688C53.0861 220.416 52.9501 220.128 52.9181 219.824L52.8701 219.032C52.3261 219.736 51.6141 220.28 50.7341 220.664C49.8541 221.048 48.9821 221.24 48.1181 221.24C47.2861 221.24 46.5421 221.072 45.8861 220.736C45.2301 220.384 44.7181 219.92 44.3501 219.344C43.9821 218.752 43.7981 218.096 43.7981 217.376ZM51.9581 218.264C52.1501 218.04 52.3021 217.816 52.4141 217.592C52.5261 217.352 52.5821 217.152 52.5821 216.992V215.432C51.5581 215.032 50.5021 214.832 49.4141 214.832C48.3421 214.832 47.4701 215.048 46.7981 215.48C46.1421 215.896 45.8141 216.472 45.8141 217.208C45.8141 217.608 45.9181 218 46.1261 218.384C46.3501 218.752 46.6701 219.056 47.0861 219.296C47.5181 219.536 48.0461 219.656 48.6701 219.656C49.3261 219.656 49.9501 219.528 50.5421 219.272C51.1341 219 51.6061 218.664 51.9581 218.264ZM64.6952 210.32C63.6392 210.336 62.7032 210.608 61.8872 211.136C61.0872 211.648 60.5192 212.36 60.1832 213.272V221H58.0712V208.472H60.0392V211.376C60.4712 210.512 61.0392 209.816 61.7432 209.288C62.4632 208.744 63.2152 208.44 63.9992 208.376C64.1592 208.376 64.2952 208.376 64.4072 208.376C64.5192 208.376 64.6152 208.384 64.6952 208.4V210.32ZM73.4139 210.32C72.3579 210.336 71.4219 210.608 70.6059 211.136C69.8059 211.648 69.2379 212.36 68.9019 213.272V221H66.7899V208.472H68.7579V211.376C69.1899 210.512 69.7579 209.816 70.4619 209.288C71.1819 208.744 71.9339 208.44 72.7179 208.376C72.8779 208.376 73.0139 208.376 73.1259 208.376C73.2379 208.376 73.3339 208.384 73.4139 208.4V210.32ZM80.6994 221.24C79.4514 221.24 78.3474 220.944 77.3874 220.352C76.4434 219.744 75.7074 218.952 75.1794 217.976C74.6514 216.984 74.3874 215.912 74.3874 214.76C74.3874 213.592 74.6514 212.52 75.1794 211.544C75.7234 210.552 76.4674 209.76 77.4114 209.168C78.3714 208.56 79.4674 208.256 80.6994 208.256C81.9474 208.256 83.0434 208.56 83.9874 209.168C84.9474 209.76 85.6914 210.552 86.2194 211.544C86.7634 212.52 87.0354 213.592 87.0354 214.76C87.0354 215.912 86.7634 216.984 86.2194 217.976C85.6914 218.952 84.9554 219.744 84.0114 220.352C83.0674 220.944 81.9634 221.24 80.6994 221.24ZM76.5474 214.784C76.5474 215.648 76.7314 216.432 77.0994 217.136C77.4834 217.84 77.9874 218.4 78.6114 218.816C79.2354 219.216 79.9314 219.416 80.6994 219.416C81.4674 219.416 82.1634 219.208 82.7874 218.792C83.4274 218.376 83.9314 217.816 84.2994 217.112C84.6834 216.392 84.8754 215.6 84.8754 214.736C84.8754 213.872 84.6834 213.088 84.2994 212.384C83.9314 211.68 83.4274 211.12 82.7874 210.704C82.1634 210.288 81.4674 210.08 80.6994 210.08C79.9314 210.08 79.2354 210.296 78.6114 210.728C77.9874 211.144 77.4834 211.704 77.0994 212.408C76.7314 213.112 76.5474 213.904 76.5474 214.784ZM89.6426 203.48H91.7546V217.76C91.7546 218.448 91.8506 218.872 92.0426 219.032C92.2346 219.192 92.4666 219.272 92.7386 219.272C93.0746 219.272 93.3946 219.24 93.6986 219.176C94.0026 219.096 94.2586 219.016 94.4666 218.936L94.8026 220.664C94.4506 220.808 94.0346 220.928 93.5546 221.024C93.0746 221.12 92.6506 221.168 92.2826 221.168C91.4666 221.168 90.8186 220.936 90.3386 220.472C89.8746 220.008 89.6426 219.36 89.6426 218.528V203.48ZM96.5098 203.48H98.6218V217.76C98.6218 218.448 98.7178 218.872 98.9098 219.032C99.1018 219.192 99.3338 219.272 99.6058 219.272C99.9418 219.272 100.262 219.24 100.566 219.176C100.87 219.096 101.126 219.016 101.334 218.936L101.67 220.664C101.318 220.808 100.902 220.928 100.422 221.024C99.9418 221.12 99.5178 221.168 99.1498 221.168C98.3338 221.168 97.6858 220.936 97.2058 220.472C96.7418 220.008 96.5098 219.36 96.5098 218.528V203.48ZM108.801 221.24C107.553 221.24 106.449 220.944 105.489 220.352C104.545 219.744 103.809 218.952 103.281 217.976C102.753 216.984 102.489 215.912 102.489 214.76C102.489 213.592 102.753 212.52 103.281 211.544C103.825 210.552 104.569 209.76 105.513 209.168C106.473 208.56 107.569 208.256 108.801 208.256C110.049 208.256 111.145 208.56 112.089 209.168C113.049 209.76 113.793 210.552 114.321 211.544C114.865 212.52 115.137 213.592 115.137 214.76C115.137 215.912 114.865 216.984 114.321 217.976C113.793 218.952 113.057 219.744 112.113 220.352C111.169 220.944 110.065 221.24 108.801 221.24ZM104.649 214.784C104.649 215.648 104.833 216.432 105.201 217.136C105.585 217.84 106.089 218.4 106.713 218.816C107.337 219.216 108.033 219.416 108.801 219.416C109.569 219.416 110.265 219.208 110.889 218.792C111.529 218.376 112.033 217.816 112.401 217.112C112.785 216.392 112.977 215.6 112.977 214.736C112.977 213.872 112.785 213.088 112.401 212.384C112.033 211.68 111.529 211.12 110.889 210.704C110.265 210.288 109.569 210.08 108.801 210.08C108.033 210.08 107.337 210.296 106.713 210.728C106.089 211.144 105.585 211.704 105.201 212.408C104.833 213.112 104.649 213.904 104.649 214.784ZM129.499 204.056H131.539L133.795 209.984L136.075 204.056H138.115L135.163 211.472L138.091 218.504L143.851 203.96H146.203L139.075 221H137.203L133.819 212.96L130.411 221H128.539L121.435 203.96H123.763L129.547 218.504L132.451 211.472L129.499 204.056ZM151.998 221.24C150.75 221.24 149.646 220.944 148.686 220.352C147.726 219.76 146.974 218.968 146.43 217.976C145.886 216.984 145.614 215.904 145.614 214.736C145.614 213.552 145.886 212.472 146.43 211.496C146.974 210.52 147.726 209.736 148.686 209.144C149.662 208.552 150.774 208.256 152.022 208.256C153.286 208.256 154.382 208.56 155.31 209.168C156.254 209.76 156.982 210.544 157.494 211.52C158.022 212.48 158.286 213.52 158.286 214.64C158.286 214.992 158.27 215.264 158.238 215.456H147.846C147.91 216.272 148.134 217 148.518 217.64C148.918 218.264 149.43 218.76 150.054 219.128C150.678 219.48 151.35 219.656 152.07 219.656C152.838 219.656 153.558 219.464 154.23 219.08C154.918 218.696 155.39 218.192 155.646 217.568L157.47 218.072C157.07 219 156.374 219.76 155.382 220.352C154.39 220.944 153.262 221.24 151.998 221.24ZM147.774 213.992H156.318C156.254 213.176 156.022 212.456 155.622 211.832C155.222 211.208 154.71 210.72 154.086 210.368C153.462 210.016 152.774 209.84 152.022 209.84C151.286 209.84 150.606 210.016 149.982 210.368C149.358 210.72 148.846 211.208 148.446 211.832C148.062 212.456 147.838 213.176 147.774 213.992ZM167.066 221.24C166.09 221.24 165.202 221 164.402 220.52C163.602 220.04 162.97 219.416 162.506 218.648V221H160.634V203.48H162.746V210.968C163.274 210.152 163.922 209.496 164.69 209C165.458 208.504 166.354 208.256 167.378 208.256C168.242 208.256 169.018 208.44 169.706 208.808C170.394 209.16 170.978 209.648 171.458 210.272C171.954 210.88 172.33 211.576 172.586 212.36C172.858 213.128 172.994 213.936 172.994 214.784C172.994 215.952 172.73 217.032 172.202 218.024C171.69 219 170.986 219.784 170.09 220.376C169.194 220.952 168.186 221.24 167.066 221.24ZM166.538 219.416C167.386 219.416 168.13 219.2 168.77 218.768C169.41 218.32 169.914 217.744 170.282 217.04C170.65 216.336 170.834 215.584 170.834 214.784C170.834 213.968 170.658 213.2 170.306 212.48C169.97 211.76 169.49 211.184 168.866 210.752C168.258 210.304 167.546 210.08 166.73 210.08C165.834 210.08 165.034 210.368 164.33 210.944C163.642 211.52 163.114 212.208 162.746 213.008V216.632C162.858 217.16 163.114 217.64 163.514 218.072C163.93 218.488 164.41 218.816 164.954 219.056C165.514 219.296 166.042 219.416 166.538 219.416Z" fill="black"/>
<path d="M3.602 257V244.22H7.94C9.296 244.22 10.424 244.508 11.324 245.084C12.236 245.648 12.92 246.416 13.376 247.388C13.832 248.348 14.06 249.416 14.06 250.592C14.06 251.888 13.808 253.016 13.304 253.976C12.8 254.936 12.092 255.68 11.18 256.208C10.268 256.736 9.188 257 7.94 257H3.602ZM12.8 250.592C12.8 249.572 12.608 248.666 12.224 247.874C11.852 247.082 11.3 246.464 10.568 246.02C9.848 245.564 8.972 245.336 7.94 245.336H4.862V255.884H7.94C8.996 255.884 9.884 255.65 10.604 255.182C11.324 254.714 11.87 254.084 12.242 253.292C12.614 252.5 12.8 251.6 12.8 250.592ZM20.2672 257.18C19.3672 257.18 18.5632 256.958 17.8552 256.514C17.1472 256.07 16.5892 255.476 16.1812 254.732C15.7732 253.988 15.5692 253.172 15.5692 252.284C15.5692 251.408 15.7672 250.604 16.1632 249.872C16.5712 249.14 17.1292 248.558 17.8372 248.126C18.5452 247.682 19.3492 247.46 20.2492 247.46C21.1732 247.46 21.9832 247.682 22.6792 248.126C23.3752 248.57 23.9152 249.158 24.2992 249.89C24.6952 250.61 24.8932 251.402 24.8932 252.266C24.8932 252.458 24.8872 252.62 24.8752 252.752H16.8472C16.9072 253.424 17.0992 254.024 17.4232 254.552C17.7472 255.068 18.1612 255.482 18.6652 255.794C19.1692 256.094 19.7212 256.244 20.3212 256.244C20.9332 256.244 21.5092 256.088 22.0492 255.776C22.5892 255.464 22.9732 255.056 23.2012 254.552L24.2632 254.84C24.0712 255.296 23.7712 255.704 23.3632 256.064C22.9672 256.412 22.5052 256.688 21.9772 256.892C21.4492 257.084 20.8792 257.18 20.2672 257.18ZM16.8112 251.87H23.7412C23.6932 251.198 23.5072 250.604 23.1832 250.088C22.8592 249.56 22.4452 249.152 21.9412 248.864C21.4372 248.564 20.8792 248.414 20.2672 248.414C19.6552 248.414 19.0972 248.564 18.5932 248.864C18.0892 249.152 17.6752 249.56 17.3512 250.088C17.0392 250.604 16.8592 251.198 16.8112 251.87ZM29.8596 257.18C29.0916 257.18 28.3776 257.054 27.7176 256.802C27.0696 256.538 26.4996 256.154 26.0076 255.65L26.5116 254.786C27.0396 255.278 27.5676 255.638 28.0956 255.866C28.6356 256.082 29.2056 256.19 29.8056 256.19C30.5256 256.19 31.1136 256.046 31.5696 255.758C32.0376 255.458 32.2716 255.032 32.2716 254.48C32.2716 254.108 32.1576 253.826 31.9296 253.634C31.7136 253.43 31.3956 253.268 30.9756 253.148C30.5676 253.028 30.0756 252.89 29.4996 252.734C28.8516 252.554 28.3056 252.368 27.8616 252.176C27.4296 251.972 27.0996 251.72 26.8716 251.42C26.6556 251.108 26.5476 250.706 26.5476 250.214C26.5476 249.614 26.6976 249.11 26.9976 248.702C27.3096 248.294 27.7296 247.988 28.2576 247.784C28.7976 247.568 29.3976 247.46 30.0576 247.46C30.7776 247.46 31.4136 247.574 31.9656 247.802C32.5176 248.03 32.9676 248.348 33.3156 248.756L32.7216 249.584C32.3976 249.2 31.9956 248.918 31.5156 248.738C31.0476 248.546 30.5376 248.45 29.9856 248.45C29.6016 248.45 29.2356 248.504 28.8876 248.612C28.5396 248.708 28.2516 248.876 28.0236 249.116C27.8076 249.344 27.6996 249.662 27.6996 250.07C27.6996 250.574 27.8856 250.922 28.2576 251.114C28.6296 251.306 29.1936 251.51 29.9496 251.726C30.6576 251.918 31.2756 252.11 31.8036 252.302C32.3316 252.494 32.7396 252.752 33.0276 253.076C33.3156 253.388 33.4596 253.826 33.4596 254.39C33.4596 255.266 33.1296 255.95 32.4696 256.442C31.8096 256.934 30.9396 257.18 29.8596 257.18ZM34.7268 254.3C34.7268 253.724 34.8948 253.226 35.2308 252.806C35.5668 252.374 36.0288 252.038 36.6168 251.798C37.2168 251.558 37.9068 251.438 38.6868 251.438C39.1428 251.438 39.6168 251.48 40.1088 251.564C40.6008 251.636 41.0388 251.738 41.4228 251.87V251.078C41.4228 250.286 41.1888 249.656 40.7208 249.188C40.2528 248.72 39.6048 248.486 38.7768 248.486C38.2848 248.486 37.7928 248.582 37.3008 248.774C36.8088 248.954 36.2988 249.224 35.7708 249.584L35.3028 248.72C35.9148 248.3 36.5148 247.988 37.1028 247.784C37.6908 247.568 38.2908 247.46 38.9028 247.46C40.0548 247.46 40.9668 247.79 41.6388 248.45C42.3108 249.11 42.6468 250.022 42.6468 251.186V255.524C42.6468 255.848 42.7968 256.016 43.0968 256.028V257C42.8328 257.036 42.6468 257.048 42.5388 257.036C42.2388 257.024 42.0108 256.928 41.8548 256.748C41.6988 256.568 41.6148 256.376 41.6028 256.172L41.5848 255.488C41.1648 256.028 40.6188 256.448 39.9468 256.748C39.2748 257.036 38.5908 257.18 37.8948 257.18C37.2828 257.18 36.7368 257.054 36.2568 256.802C35.7768 256.538 35.3988 256.19 35.1228 255.758C34.8588 255.314 34.7268 254.828 34.7268 254.3ZM41.0088 255.02C41.2848 254.696 41.4228 254.396 41.4228 254.12V252.752C40.5948 252.428 39.7308 252.266 38.8308 252.266C37.9548 252.266 37.2468 252.44 36.7068 252.788C36.1668 253.136 35.8968 253.61 35.8968 254.21C35.8968 254.726 36.0948 255.194 36.4908 255.614C36.8988 256.034 37.4628 256.244 38.1828 256.244C38.7708 256.244 39.3168 256.13 39.8208 255.902C40.3368 255.674 40.7328 255.38 41.0088 255.02ZM49.9714 248.702C49.1554 248.726 48.4354 248.954 47.8114 249.386C47.1994 249.818 46.7674 250.412 46.5154 251.168V257H45.2914V247.622H46.4434V249.872C46.7674 249.212 47.1934 248.678 47.7214 248.27C48.2614 247.862 48.8314 247.634 49.4314 247.586C49.5514 247.574 49.6534 247.568 49.7374 247.568C49.8214 247.568 49.8994 247.574 49.9714 247.586V248.702ZM56.282 248.702C55.466 248.726 54.746 248.954 54.122 249.386C53.51 249.818 53.078 250.412 52.826 251.168V257H51.602V247.622H52.754V249.872C53.078 249.212 53.504 248.678 54.032 248.27C54.572 247.862 55.142 247.634 55.742 247.586C55.862 247.574 55.964 247.568 56.048 247.568C56.132 247.568 56.21 247.574 56.282 247.586V248.702ZM61.6273 257.18C60.7273 257.18 59.9233 256.958 59.2153 256.514C58.5193 256.07 57.9733 255.482 57.5773 254.75C57.1813 254.006 56.9833 253.202 56.9833 252.338C56.9833 251.462 57.1813 250.658 57.5773 249.926C57.9853 249.182 58.5373 248.588 59.2333 248.144C59.9413 247.688 60.7393 247.46 61.6273 247.46C62.5273 247.46 63.3253 247.688 64.0213 248.144C64.7293 248.588 65.2813 249.182 65.6773 249.926C66.0853 250.658 66.2893 251.462 66.2893 252.338C66.2893 253.202 66.0913 254.006 65.6953 254.75C65.2993 255.482 64.7473 256.07 64.0393 256.514C63.3433 256.958 62.5393 257.18 61.6273 257.18ZM58.2253 252.356C58.2253 253.052 58.3753 253.688 58.6753 254.264C58.9873 254.828 59.4013 255.278 59.9173 255.614C60.4333 255.938 61.0033 256.1 61.6273 256.1C62.2513 256.1 62.8213 255.932 63.3373 255.596C63.8533 255.26 64.2673 254.804 64.5793 254.228C64.8913 253.652 65.0473 253.016 65.0473 252.32C65.0473 251.624 64.8913 250.988 64.5793 250.412C64.2673 249.836 63.8533 249.38 63.3373 249.044C62.8213 248.708 62.2513 248.54 61.6273 248.54C61.0153 248.54 60.4513 248.714 59.9353 249.062C59.4193 249.398 59.0053 249.854 58.6933 250.43C58.3813 251.006 58.2253 251.648 58.2253 252.356ZM68.3903 243.86H69.6143V254.876C69.6143 255.344 69.6923 255.65 69.8483 255.794C70.0163 255.938 70.2263 256.01 70.4783 256.01C70.6943 256.01 70.9103 255.986 71.1263 255.938C71.3543 255.89 71.5403 255.842 71.6843 255.794L71.9003 256.784C71.6723 256.88 71.3903 256.958 71.0543 257.018C70.7303 257.078 70.4483 257.108 70.2083 257.108C69.6563 257.108 69.2123 256.946 68.8763 256.622C68.5523 256.298 68.3903 255.854 68.3903 255.29V243.86ZM73.2946 243.86H74.5186V254.876C74.5186 255.344 74.5966 255.65 74.7526 255.794C74.9206 255.938 75.1306 256.01 75.3826 256.01C75.5986 256.01 75.8146 255.986 76.0306 255.938C76.2586 255.89 76.4446 255.842 76.5886 255.794L76.8046 256.784C76.5766 256.88 76.2946 256.958 75.9586 257.018C75.6346 257.078 75.3526 257.108 75.1126 257.108C74.5606 257.108 74.1166 256.946 73.7806 256.622C73.4566 256.298 73.2946 255.854 73.2946 255.29V243.86ZM77.3889 254.3C77.3889 253.724 77.5569 253.226 77.8929 252.806C78.2289 252.374 78.6909 252.038 79.2789 251.798C79.8789 251.558 80.5689 251.438 81.3489 251.438C81.8049 251.438 82.2789 251.48 82.7709 251.564C83.2629 251.636 83.7009 251.738 84.0849 251.87V251.078C84.0849 250.286 83.8509 249.656 83.3829 249.188C82.9149 248.72 82.2669 248.486 81.4389 248.486C80.9469 248.486 80.4549 248.582 79.9629 248.774C79.4709 248.954 78.9609 249.224 78.4329 249.584L77.9649 248.72C78.5769 248.3 79.1769 247.988 79.7649 247.784C80.3529 247.568 80.9529 247.46 81.5649 247.46C82.7169 247.46 83.6289 247.79 84.3009 248.45C84.9729 249.11 85.3089 250.022 85.3089 251.186V255.524C85.3089 255.848 85.4589 256.016 85.7589 256.028V257C85.4949 257.036 85.3089 257.048 85.2009 257.036C84.9009 257.024 84.6729 256.928 84.5169 256.748C84.3609 256.568 84.2769 256.376 84.2649 256.172L84.2469 255.488C83.8269 256.028 83.2809 256.448 82.6089 256.748C81.9369 257.036 81.2529 257.18 80.5569 257.18C79.9449 257.18 79.3989 257.054 78.9189 256.802C78.4389 256.538 78.0609 256.19 77.7849 255.758C77.5209 255.314 77.3889 254.828 77.3889 254.3ZM83.6709 255.02C83.9469 254.696 84.0849 254.396 84.0849 254.12V252.752C83.2569 252.428 82.3929 252.266 81.4929 252.266C80.6169 252.266 79.9089 252.44 79.3689 252.788C78.8289 253.136 78.5589 253.61 78.5589 254.21C78.5589 254.726 78.7569 255.194 79.1529 255.614C79.5609 256.034 80.1249 256.244 80.8449 256.244C81.4329 256.244 81.9789 256.13 82.4829 255.902C82.9989 255.674 83.3949 255.38 83.6709 255.02ZM101.904 257H100.68V251.762C100.68 250.682 100.506 249.884 100.158 249.368C99.8095 248.84 99.2935 248.576 98.6095 248.576C97.8895 248.576 97.2535 248.828 96.7015 249.332C96.1495 249.836 95.7595 250.484 95.5315 251.276V257H94.3075V251.762C94.3075 250.658 94.1335 249.854 93.7855 249.35C93.4495 248.834 92.9395 248.576 92.2555 248.576C91.5475 248.576 90.9115 248.822 90.3475 249.314C89.7955 249.806 89.4055 250.454 89.1775 251.258V257H87.9535V247.622H89.0695V249.746C89.4535 249.026 89.9575 248.468 90.5815 248.072C91.2055 247.664 91.8955 247.46 92.6515 247.46C93.4315 247.46 94.0615 247.688 94.5415 248.144C95.0215 248.588 95.3155 249.164 95.4235 249.872C96.2875 248.264 97.4935 247.46 99.0415 247.46C100.098 247.46 100.836 247.832 101.256 248.576C101.688 249.308 101.904 250.286 101.904 251.51V257ZM108.491 257.18C107.591 257.18 106.787 256.958 106.079 256.514C105.383 256.07 104.837 255.482 104.441 254.75C104.045 254.006 103.847 253.202 103.847 252.338C103.847 251.462 104.045 250.658 104.441 249.926C104.849 249.182 105.401 248.588 106.097 248.144C106.805 247.688 107.603 247.46 108.491 247.46C109.391 247.46 110.189 247.688 110.885 248.144C111.593 248.588 112.145 249.182 112.541 249.926C112.949 250.658 113.153 251.462 113.153 252.338C113.153 253.202 112.955 254.006 112.559 254.75C112.163 255.482 111.611 256.07 110.903 256.514C110.207 256.958 109.403 257.18 108.491 257.18ZM105.089 252.356C105.089 253.052 105.239 253.688 105.539 254.264C105.851 254.828 106.265 255.278 106.781 255.614C107.297 255.938 107.867 256.1 108.491 256.1C109.115 256.1 109.685 255.932 110.201 255.596C110.717 255.26 111.131 254.804 111.443 254.228C111.755 253.652 111.911 253.016 111.911 252.32C111.911 251.624 111.755 250.988 111.443 250.412C111.131 249.836 110.717 249.38 110.201 249.044C109.685 248.708 109.115 248.54 108.491 248.54C107.879 248.54 107.315 248.714 106.799 249.062C106.283 249.398 105.869 249.854 105.557 250.43C105.245 251.006 105.089 251.648 105.089 252.356ZM118.278 257.18C117.51 257.18 116.796 257.054 116.136 256.802C115.488 256.538 114.918 256.154 114.426 255.65L114.93 254.786C115.458 255.278 115.986 255.638 116.514 255.866C117.054 256.082 117.624 256.19 118.224 256.19C118.944 256.19 119.532 256.046 119.988 255.758C120.456 255.458 120.69 255.032 120.69 254.48C120.69 254.108 120.576 253.826 120.348 253.634C120.132 253.43 119.814 253.268 119.394 253.148C118.986 253.028 118.494 252.89 117.918 252.734C117.27 252.554 116.724 252.368 116.28 252.176C115.848 251.972 115.518 251.72 115.29 251.42C115.074 251.108 114.966 250.706 114.966 250.214C114.966 249.614 115.116 249.11 115.416 248.702C115.728 248.294 116.148 247.988 116.676 247.784C117.216 247.568 117.816 247.46 118.476 247.46C119.196 247.46 119.832 247.574 120.384 247.802C120.936 248.03 121.386 248.348 121.734 248.756L121.14 249.584C120.816 249.2 120.414 248.918 119.934 248.738C119.466 248.546 118.956 248.45 118.404 248.45C118.02 248.45 117.654 248.504 117.306 248.612C116.958 248.708 116.67 248.876 116.442 249.116C116.226 249.344 116.118 249.662 116.118 250.07C116.118 250.574 116.304 250.922 116.676 251.114C117.048 251.306 117.612 251.51 118.368 251.726C119.076 251.918 119.694 252.11 120.222 252.302C120.75 252.494 121.158 252.752 121.446 253.076C121.734 253.388 121.878 253.826 121.878 254.39C121.878 255.266 121.548 255.95 120.888 256.442C120.228 256.934 119.358 257.18 118.278 257.18ZM131.567 257.18C130.799 257.18 130.085 257.054 129.425 256.802C128.777 256.538 128.207 256.154 127.715 255.65L128.219 254.786C128.747 255.278 129.275 255.638 129.803 255.866C130.343 256.082 130.913 256.19 131.513 256.19C132.233 256.19 132.821 256.046 133.277 255.758C133.745 255.458 133.979 255.032 133.979 254.48C133.979 254.108 133.865 253.826 133.637 253.634C133.421 253.43 133.103 253.268 132.683 253.148C132.275 253.028 131.783 252.89 131.207 252.734C130.559 252.554 130.013 252.368 129.569 252.176C129.137 251.972 128.807 251.72 128.579 251.42C128.363 251.108 128.255 250.706 128.255 250.214C128.255 249.614 128.405 249.11 128.705 248.702C129.017 248.294 129.437 247.988 129.965 247.784C130.505 247.568 131.105 247.46 131.765 247.46C132.485 247.46 133.121 247.574 133.673 247.802C134.225 248.03 134.675 248.348 135.023 248.756L134.429 249.584C134.105 249.2 133.703 248.918 133.223 248.738C132.755 248.546 132.245 248.45 131.693 248.45C131.309 248.45 130.943 248.504 130.595 248.612C130.247 248.708 129.959 248.876 129.731 249.116C129.515 249.344 129.407 249.662 129.407 250.07C129.407 250.574 129.593 250.922 129.965 251.114C130.337 251.306 130.901 251.51 131.657 251.726C132.365 251.918 132.983 252.11 133.511 252.302C134.039 252.494 134.447 252.752 134.735 253.076C135.023 253.388 135.167 253.826 135.167 254.39C135.167 255.266 134.837 255.95 134.177 256.442C133.517 256.934 132.647 257.18 131.567 257.18ZM137.1 253.13V247.622H138.324V252.914C138.324 255.038 139.05 256.1 140.502 256.1C141.222 256.1 141.894 255.866 142.518 255.398C143.154 254.93 143.61 254.306 143.886 253.526V247.622H145.11V255.524C145.11 255.848 145.254 256.016 145.542 256.028V257C145.398 257.024 145.284 257.036 145.2 257.036C145.128 257.036 145.05 257.036 144.966 257.036C144.714 257.012 144.498 256.916 144.318 256.748C144.15 256.58 144.066 256.376 144.066 256.136L144.03 254.876C143.622 255.608 143.064 256.178 142.356 256.586C141.66 256.982 140.904 257.18 140.088 257.18C138.096 257.18 137.1 255.83 137.1 253.13ZM155.543 257.18C154.775 257.18 154.061 257.054 153.401 256.802C152.753 256.538 152.183 256.154 151.691 255.65L152.195 254.786C152.723 255.278 153.251 255.638 153.779 255.866C154.319 256.082 154.889 256.19 155.489 256.19C156.209 256.19 156.797 256.046 157.253 255.758C157.721 255.458 157.955 255.032 157.955 254.48C157.955 254.108 157.841 253.826 157.613 253.634C157.397 253.43 157.079 253.268 156.659 253.148C156.251 253.028 155.759 252.89 155.183 252.734C154.535 252.554 153.989 252.368 153.545 252.176C153.113 251.972 152.783 251.72 152.555 251.42C152.339 251.108 152.231 250.706 152.231 250.214C152.231 249.614 152.381 249.11 152.681 248.702C152.993 248.294 153.413 247.988 153.941 247.784C154.481 247.568 155.081 247.46 155.741 247.46C156.461 247.46 157.097 247.574 157.649 247.802C158.201 248.03 158.651 248.348 158.999 248.756L158.405 249.584C158.081 249.2 157.679 248.918 157.199 248.738C156.731 248.546 156.221 248.45 155.669 248.45C155.285 248.45 154.919 248.504 154.571 248.612C154.223 248.708 153.935 248.876 153.707 249.116C153.491 249.344 153.383 249.662 153.383 250.07C153.383 250.574 153.569 250.922 153.941 251.114C154.313 251.306 154.877 251.51 155.633 251.726C156.341 251.918 156.959 252.11 157.487 252.302C158.015 252.494 158.423 252.752 158.711 253.076C158.999 253.388 159.143 253.826 159.143 254.39C159.143 255.266 158.813 255.95 158.153 256.442C157.493 256.934 156.623 257.18 155.543 257.18ZM161.166 245.66V243.86H162.39V245.66H161.166ZM161.166 257V247.622H162.39V257H161.166ZM169.586 256.55C169.442 256.61 169.178 256.718 168.794 256.874C168.41 257.03 167.966 257.108 167.462 257.108C166.934 257.108 166.472 256.958 166.076 256.658C165.68 256.358 165.482 255.908 165.482 255.308V248.594H164.186V247.622H165.482V244.454H166.706V247.622H168.866V248.594H166.706V254.966C166.73 255.314 166.85 255.572 167.066 255.74C167.294 255.896 167.552 255.974 167.84 255.974C168.176 255.974 168.476 255.92 168.74 255.812C169.016 255.692 169.19 255.608 169.262 255.56L169.586 256.55ZM171.116 245.66V243.86H172.34V245.66H171.116ZM171.116 257V247.622H172.34V257H171.116ZM179.032 257.18C178.132 257.18 177.328 256.958 176.62 256.514C175.924 256.07 175.378 255.482 174.982 254.75C174.586 254.006 174.388 253.202 174.388 252.338C174.388 251.462 174.586 250.658 174.982 249.926C175.39 249.182 175.942 248.588 176.638 248.144C177.346 247.688 178.144 247.46 179.032 247.46C179.932 247.46 180.73 247.688 181.426 248.144C182.134 248.588 182.686 249.182 183.082 249.926C183.49 250.658 183.694 251.462 183.694 252.338C183.694 253.202 183.496 254.006 183.1 254.75C182.704 255.482 182.152 256.07 181.444 256.514C180.748 256.958 179.944 257.18 179.032 257.18ZM175.63 252.356C175.63 253.052 175.78 253.688 176.08 254.264C176.392 254.828 176.806 255.278 177.322 255.614C177.838 255.938 178.408 256.1 179.032 256.1C179.656 256.1 180.226 255.932 180.742 255.596C181.258 255.26 181.672 254.804 181.984 254.228C182.296 253.652 182.452 253.016 182.452 252.32C182.452 251.624 182.296 250.988 181.984 250.412C181.672 249.836 181.258 249.38 180.742 249.044C180.226 248.708 179.656 248.54 179.032 248.54C178.42 248.54 177.856 248.714 177.34 249.062C176.824 249.398 176.41 249.854 176.098 250.43C175.786 251.006 175.63 251.648 175.63 252.356ZM201.627 247.622H202.833L198.801 257H197.739L195.777 252.338L193.833 257H192.771L188.739 247.622H189.927L193.347 255.74L195.075 251.51L193.491 247.64H194.589L195.777 250.682L196.983 247.64H198.063L196.497 251.51L198.225 255.74L201.627 247.622ZM208.195 257.18C207.295 257.18 206.491 256.958 205.783 256.514C205.075 256.07 204.517 255.476 204.109 254.732C203.701 253.988 203.497 253.172 203.497 252.284C203.497 251.408 203.695 250.604 204.091 249.872C204.499 249.14 205.057 248.558 205.765 248.126C206.473 247.682 207.277 247.46 208.177 247.46C209.101 247.46 209.911 247.682 210.607 248.126C211.303 248.57 211.843 249.158 212.227 249.89C212.623 250.61 212.821 251.402 212.821 252.266C212.821 252.458 212.815 252.62 212.803 252.752H204.775C204.835 253.424 205.027 254.024 205.351 254.552C205.675 255.068 206.089 255.482 206.593 255.794C207.097 256.094 207.649 256.244 208.249 256.244C208.861 256.244 209.437 256.088 209.977 255.776C210.517 255.464 210.901 255.056 211.129 254.552L212.191 254.84C211.999 255.296 211.699 255.704 211.291 256.064C210.895 256.412 210.433 256.688 209.905 256.892C209.377 257.084 208.807 257.18 208.195 257.18ZM204.739 251.87H211.669C211.621 251.198 211.435 250.604 211.111 250.088C210.787 249.56 210.373 249.152 209.869 248.864C209.365 248.564 208.807 248.414 208.195 248.414C207.583 248.414 207.025 248.564 206.521 248.864C206.017 249.152 205.603 249.56 205.279 250.088C204.967 250.604 204.787 251.198 204.739 251.87ZM219.299 257.18C218.567 257.18 217.889 256.994 217.265 256.622C216.641 256.238 216.155 255.758 215.807 255.182V257H214.709V243.86H215.933V249.584C216.353 248.948 216.857 248.438 217.445 248.054C218.033 247.658 218.717 247.46 219.497 247.46C220.157 247.46 220.745 247.598 221.261 247.874C221.789 248.15 222.239 248.522 222.611 248.99C222.983 249.446 223.265 249.968 223.457 250.556C223.649 251.132 223.745 251.726 223.745 252.338C223.745 253.214 223.547 254.018 223.151 254.75C222.767 255.482 222.239 256.07 221.567 256.514C220.895 256.958 220.139 257.18 219.299 257.18ZM219.011 256.1C219.695 256.1 220.295 255.92 220.811 255.56C221.339 255.2 221.753 254.738 222.053 254.174C222.353 253.598 222.503 252.986 222.503 252.338C222.503 251.678 222.359 251.06 222.071 250.484C221.795 249.908 221.405 249.44 220.901 249.08C220.397 248.72 219.815 248.54 219.155 248.54C218.423 248.54 217.775 248.774 217.211 249.242C216.659 249.71 216.233 250.256 215.933 250.88V253.796C215.993 254.228 216.191 254.618 216.527 254.966C216.863 255.314 217.259 255.59 217.715 255.794C218.171 255.998 218.603 256.1 219.011 256.1ZM229.777 252.338C229.777 251.45 229.957 250.64 230.317 249.908C230.689 249.164 231.199 248.57 231.847 248.126C232.495 247.682 233.233 247.46 234.061 247.46C234.841 247.46 235.537 247.67 236.149 248.09C236.773 248.498 237.259 248.996 237.607 249.584V243.86H238.831V255.524C238.831 255.848 238.975 256.016 239.263 256.028V257C239.023 257.036 238.837 257.048 238.705 257.036C238.441 257.024 238.213 256.928 238.021 256.748C237.841 256.556 237.751 256.34 237.751 256.1V255.182C237.379 255.794 236.875 256.28 236.239 256.64C235.603 257 234.943 257.18 234.259 257.18C233.611 257.18 233.011 257.048 232.459 256.784C231.907 256.52 231.427 256.16 231.019 255.704C230.623 255.248 230.317 254.732 230.101 254.156C229.885 253.568 229.777 252.962 229.777 252.338ZM237.607 253.778V250.88C237.451 250.448 237.199 250.058 236.851 249.71C236.503 249.35 236.107 249.068 235.663 248.864C235.231 248.648 234.799 248.54 234.367 248.54C233.695 248.54 233.107 248.726 232.603 249.098C232.111 249.458 231.727 249.932 231.451 250.52C231.175 251.096 231.037 251.702 231.037 252.338C231.037 253.01 231.187 253.634 231.487 254.21C231.799 254.786 232.219 255.248 232.747 255.596C233.275 255.932 233.869 256.1 234.529 256.1C234.937 256.1 235.363 255.998 235.807 255.794C236.263 255.578 236.659 255.296 236.995 254.948C237.343 254.6 237.547 254.21 237.607 253.778ZM245.654 257.18C244.754 257.18 243.95 256.958 243.242 256.514C242.534 256.07 241.976 255.476 241.568 254.732C241.16 253.988 240.956 253.172 240.956 252.284C240.956 251.408 241.154 250.604 241.55 249.872C241.958 249.14 242.516 248.558 243.224 248.126C243.932 247.682 244.736 247.46 245.636 247.46C246.56 247.46 247.37 247.682 248.066 248.126C248.762 248.57 249.302 249.158 249.686 249.89C250.082 250.61 250.28 251.402 250.28 252.266C250.28 252.458 250.274 252.62 250.262 252.752H242.234C242.294 253.424 242.486 254.024 242.81 254.552C243.134 255.068 243.548 255.482 244.052 255.794C244.556 256.094 245.108 256.244 245.708 256.244C246.32 256.244 246.896 256.088 247.436 255.776C247.976 255.464 248.36 255.056 248.588 254.552L249.65 254.84C249.458 255.296 249.158 255.704 248.75 256.064C248.354 256.412 247.892 256.688 247.364 256.892C246.836 257.084 246.266 257.18 245.654 257.18ZM242.198 251.87H249.128C249.08 251.198 248.894 250.604 248.57 250.088C248.246 249.56 247.832 249.152 247.328 248.864C246.824 248.564 246.266 248.414 245.654 248.414C245.042 248.414 244.484 248.564 243.98 248.864C243.476 249.152 243.062 249.56 242.738 250.088C242.426 250.604 242.246 251.198 242.198 251.87ZM2.594 275.3C2.594 274.724 2.762 274.226 3.098 273.806C3.434 273.374 3.896 273.038 4.484 272.798C5.084 272.558 5.774 272.438 6.554 272.438C7.01 272.438 7.484 272.48 7.976 272.564C8.468 272.636 8.906 272.738 9.29 272.87V272.078C9.29 271.286 9.056 270.656 8.588 270.188C8.12 269.72 7.472 269.486 6.644 269.486C6.152 269.486 5.66 269.582 5.168 269.774C4.676 269.954 4.166 270.224 3.638 270.584L3.17 269.72C3.782 269.3 4.382 268.988 4.97 268.784C5.558 268.568 6.158 268.46 6.77 268.46C7.922 268.46 8.834 268.79 9.506 269.45C10.178 270.11 10.514 271.022 10.514 272.186V276.524C10.514 276.848 10.664 277.016 10.964 277.028V278C10.7 278.036 10.514 278.048 10.406 278.036C10.106 278.024 9.878 277.928 9.722 277.748C9.566 277.568 9.482 277.376 9.47 277.172L9.452 276.488C9.032 277.028 8.486 277.448 7.814 277.748C7.142 278.036 6.458 278.18 5.762 278.18C5.15 278.18 4.604 278.054 4.124 277.802C3.644 277.538 3.266 277.19 2.99 276.758C2.726 276.314 2.594 275.828 2.594 275.3ZM8.876 276.02C9.152 275.696 9.29 275.396 9.29 275.12V273.752C8.462 273.428 7.598 273.266 6.698 273.266C5.822 273.266 5.114 273.44 4.574 273.788C4.034 274.136 3.764 274.61 3.764 275.21C3.764 275.726 3.962 276.194 4.358 276.614C4.766 277.034 5.33 277.244 6.05 277.244C6.638 277.244 7.184 277.13 7.688 276.902C8.204 276.674 8.6 276.38 8.876 276.02ZM17.2266 278.18C16.3146 278.18 15.5046 277.958 14.7966 277.514C14.0886 277.058 13.5306 276.464 13.1226 275.732C12.7146 274.988 12.5106 274.172 12.5106 273.284C12.5106 272.396 12.7086 271.592 13.1046 270.872C13.5006 270.14 14.0526 269.558 14.7606 269.126C15.4686 268.682 16.2846 268.46 17.2086 268.46C18.0846 268.46 18.8526 268.664 19.5126 269.072C20.1846 269.468 20.6886 270.008 21.0246 270.692L19.8366 271.07C19.5726 270.59 19.2006 270.218 18.7206 269.954C18.2526 269.678 17.7306 269.54 17.1546 269.54C16.5186 269.54 15.9426 269.702 15.4266 270.026C14.9226 270.35 14.5146 270.8 14.2026 271.376C13.9026 271.94 13.7526 272.576 13.7526 273.284C13.7526 273.992 13.9086 274.634 14.2206 275.21C14.5326 275.786 14.9466 276.248 15.4626 276.596C15.9786 276.932 16.5486 277.1 17.1726 277.1C17.5806 277.1 17.9766 277.028 18.3606 276.884C18.7446 276.74 19.0746 276.548 19.3506 276.308C19.6266 276.056 19.8126 275.786 19.9086 275.498L21.1146 275.858C20.9466 276.302 20.6706 276.704 20.2866 277.064C19.9026 277.412 19.4466 277.688 18.9186 277.892C18.3906 278.084 17.8266 278.18 17.2266 278.18ZM22.9475 274.13V268.622H24.1715V273.914C24.1715 276.038 24.8975 277.1 26.3495 277.1C27.0695 277.1 27.7415 276.866 28.3655 276.398C29.0015 275.93 29.4575 275.306 29.7335 274.526V268.622H30.9575V276.524C30.9575 276.848 31.1015 277.016 31.3895 277.028V278C31.2455 278.024 31.1315 278.036 31.0475 278.036C30.9755 278.036 30.8975 278.036 30.8135 278.036C30.5615 278.012 30.3455 277.916 30.1655 277.748C29.9975 277.58 29.9135 277.376 29.9135 277.136L29.8775 275.876C29.4695 276.608 28.9115 277.178 28.2035 277.586C27.5075 277.982 26.7515 278.18 25.9355 278.18C23.9435 278.18 22.9475 276.83 22.9475 274.13ZM37.775 278.18C36.875 278.18 36.071 277.958 35.363 277.514C34.655 277.07 34.097 276.476 33.689 275.732C33.281 274.988 33.077 274.172 33.077 273.284C33.077 272.408 33.275 271.604 33.671 270.872C34.079 270.14 34.637 269.558 35.345 269.126C36.053 268.682 36.857 268.46 37.757 268.46C38.681 268.46 39.491 268.682 40.187 269.126C40.883 269.57 41.423 270.158 41.807 270.89C42.203 271.61 42.401 272.402 42.401 273.266C42.401 273.458 42.395 273.62 42.383 273.752H34.355C34.415 274.424 34.607 275.024 34.931 275.552C35.255 276.068 35.669 276.482 36.173 276.794C36.677 277.094 37.229 277.244 37.829 277.244C38.441 277.244 39.017 277.088 39.557 276.776C40.097 276.464 40.481 276.056 40.709 275.552L41.771 275.84C41.579 276.296 41.279 276.704 40.871 277.064C40.475 277.412 40.013 277.688 39.485 277.892C38.957 278.084 38.387 278.18 37.775 278.18ZM34.319 272.87H41.249C41.201 272.198 41.015 271.604 40.691 271.088C40.367 270.56 39.953 270.152 39.449 269.864C38.945 269.564 38.387 269.414 37.775 269.414C37.163 269.414 36.605 269.564 36.101 269.864C35.597 270.152 35.183 270.56 34.859 271.088C34.547 271.604 34.367 272.198 34.319 272.87ZM48.9695 269.702C48.1535 269.726 47.4335 269.954 46.8095 270.386C46.1975 270.818 45.7655 271.412 45.5135 272.168V278H44.2895V268.622H45.4415V270.872C45.7655 270.212 46.1915 269.678 46.7195 269.27C47.2595 268.862 47.8295 268.634 48.4295 268.586C48.5495 268.574 48.6515 268.568 48.7355 268.568C48.8195 268.568 48.8975 268.574 48.9695 268.586V269.702ZM49.7239 273.338C49.7239 272.45 49.9039 271.64 50.2639 270.908C50.6359 270.164 51.1459 269.57 51.7939 269.126C52.4419 268.682 53.1799 268.46 54.0079 268.46C54.7879 268.46 55.4839 268.67 56.0959 269.09C56.7199 269.498 57.2059 269.996 57.5539 270.584V264.86H58.7779V276.524C58.7779 276.848 58.9219 277.016 59.2099 277.028V278C58.9699 278.036 58.7839 278.048 58.6519 278.036C58.3879 278.024 58.1599 277.928 57.9679 277.748C57.7879 277.556 57.6979 277.34 57.6979 277.1V276.182C57.3259 276.794 56.8219 277.28 56.1859 277.64C55.5499 278 54.8899 278.18 54.2059 278.18C53.5579 278.18 52.9579 278.048 52.4059 277.784C51.8539 277.52 51.3739 277.16 50.9659 276.704C50.5699 276.248 50.2639 275.732 50.0479 275.156C49.8319 274.568 49.7239 273.962 49.7239 273.338ZM57.5539 274.778V271.88C57.3979 271.448 57.1459 271.058 56.7979 270.71C56.4499 270.35 56.0539 270.068 55.6099 269.864C55.1779 269.648 54.7459 269.54 54.3139 269.54C53.6419 269.54 53.0539 269.726 52.5499 270.098C52.0579 270.458 51.6739 270.932 51.3979 271.52C51.1219 272.096 50.9839 272.702 50.9839 273.338C50.9839 274.01 51.1339 274.634 51.4339 275.21C51.7459 275.786 52.1659 276.248 52.6939 276.596C53.2219 276.932 53.8159 277.1 54.4759 277.1C54.8839 277.1 55.3099 276.998 55.7539 276.794C56.2099 276.578 56.6059 276.296 56.9419 275.948C57.2899 275.6 57.4939 275.21 57.5539 274.778ZM65.5472 278.18C64.6472 278.18 63.8432 277.958 63.1352 277.514C62.4392 277.07 61.8932 276.482 61.4972 275.75C61.1012 275.006 60.9032 274.202 60.9032 273.338C60.9032 272.462 61.1012 271.658 61.4972 270.926C61.9052 270.182 62.4572 269.588 63.1532 269.144C63.8612 268.688 64.6592 268.46 65.5472 268.46C66.4472 268.46 67.2452 268.688 67.9412 269.144C68.6492 269.588 69.2012 270.182 69.5972 270.926C70.0052 271.658 70.2092 272.462 70.2092 273.338C70.2092 274.202 70.0112 275.006 69.6152 275.75C69.2192 276.482 68.6672 277.07 67.9592 277.514C67.2632 277.958 66.4592 278.18 65.5472 278.18ZM62.1452 273.356C62.1452 274.052 62.2952 274.688 62.5952 275.264C62.9072 275.828 63.3212 276.278 63.8372 276.614C64.3532 276.938 64.9232 277.1 65.5472 277.1C66.1712 277.1 66.7412 276.932 67.2572 276.596C67.7732 276.26 68.1872 275.804 68.4992 275.228C68.8112 274.652 68.9672 274.016 68.9672 273.32C68.9672 272.624 68.8112 271.988 68.4992 271.412C68.1872 270.836 67.7732 270.38 67.2572 270.044C66.7412 269.708 66.1712 269.54 65.5472 269.54C64.9352 269.54 64.3712 269.714 63.8552 270.062C63.3392 270.398 62.9252 270.854 62.6132 271.43C62.3012 272.006 62.1452 272.648 62.1452 273.356ZM80.9121 278.18C80.0001 278.18 79.1901 277.958 78.4821 277.514C77.7741 277.058 77.2161 276.464 76.8081 275.732C76.4001 274.988 76.1961 274.172 76.1961 273.284C76.1961 272.396 76.3941 271.592 76.7901 270.872C77.1861 270.14 77.7381 269.558 78.4461 269.126C79.1541 268.682 79.9701 268.46 80.8941 268.46C81.7701 268.46 82.5381 268.664 83.1981 269.072C83.8701 269.468 84.3741 270.008 84.7101 270.692L83.5221 271.07C83.2581 270.59 82.8861 270.218 82.4061 269.954C81.9381 269.678 81.4161 269.54 80.8401 269.54C80.2041 269.54 79.6281 269.702 79.1121 270.026C78.6081 270.35 78.2001 270.8 77.8881 271.376C77.5881 271.94 77.4381 272.576 77.4381 273.284C77.4381 273.992 77.5941 274.634 77.9061 275.21C78.2181 275.786 78.6321 276.248 79.1481 276.596C79.6641 276.932 80.2341 277.1 80.8581 277.1C81.2661 277.1 81.6621 277.028 82.0461 276.884C82.4301 276.74 82.7601 276.548 83.0361 276.308C83.3121 276.056 83.4981 275.786 83.5941 275.498L84.8001 275.858C84.6321 276.302 84.3561 276.704 83.9721 277.064C83.5881 277.412 83.1321 277.688 82.6041 277.892C82.0761 278.084 81.5121 278.18 80.9121 278.18ZM90.6312 278.18C89.7312 278.18 88.9272 277.958 88.2192 277.514C87.5232 277.07 86.9772 276.482 86.5812 275.75C86.1852 275.006 85.9872 274.202 85.9872 273.338C85.9872 272.462 86.1852 271.658 86.5812 270.926C86.9892 270.182 87.5412 269.588 88.2372 269.144C88.9452 268.688 89.7432 268.46 90.6312 268.46C91.5312 268.46 92.3292 268.688 93.0252 269.144C93.7332 269.588 94.2852 270.182 94.6812 270.926C95.0892 271.658 95.2932 272.462 95.2932 273.338C95.2932 274.202 95.0952 275.006 94.6992 275.75C94.3032 276.482 93.7512 277.07 93.0432 277.514C92.3472 277.958 91.5432 278.18 90.6312 278.18ZM87.2292 273.356C87.2292 274.052 87.3792 274.688 87.6792 275.264C87.9912 275.828 88.4052 276.278 88.9212 276.614C89.4372 276.938 90.0072 277.1 90.6312 277.1C91.2552 277.1 91.8252 276.932 92.3412 276.596C92.8572 276.26 93.2712 275.804 93.5832 275.228C93.8952 274.652 94.0512 274.016 94.0512 273.32C94.0512 272.624 93.8952 271.988 93.5832 271.412C93.2712 270.836 92.8572 270.38 92.3412 270.044C91.8252 269.708 91.2552 269.54 90.6312 269.54C90.0192 269.54 89.4552 269.714 88.9392 270.062C88.4232 270.398 88.0092 270.854 87.6972 271.43C87.3852 272.006 87.2292 272.648 87.2292 273.356ZM105.224 278H104V272.762C104 271.658 103.832 270.854 103.496 270.35C103.172 269.834 102.668 269.576 101.984 269.576C101.504 269.576 101.03 269.696 100.562 269.936C100.094 270.164 99.6802 270.482 99.3202 270.89C98.9722 271.286 98.7202 271.742 98.5642 272.258V278H97.3402V268.622H98.4562V270.746C98.8282 270.062 99.3742 269.51 100.094 269.09C100.814 268.67 101.594 268.46 102.434 268.46C103.13 268.46 103.682 268.628 104.09 268.964C104.498 269.288 104.786 269.756 104.954 270.368C105.134 270.968 105.224 271.682 105.224 272.51V278ZM112.476 264.86H113.7V275.876C113.7 276.344 113.778 276.65 113.934 276.794C114.102 276.938 114.312 277.01 114.564 277.01C114.78 277.01 114.996 276.986 115.212 276.938C115.44 276.89 115.626 276.842 115.77 276.794L115.986 277.784C115.758 277.88 115.476 277.958 115.14 278.018C114.816 278.078 114.534 278.108 114.294 278.108C113.742 278.108 113.298 277.946 112.962 277.622C112.638 277.298 112.476 276.854 112.476 276.29V264.86ZM116.571 275.3C116.571 274.724 116.739 274.226 117.075 273.806C117.411 273.374 117.873 273.038 118.461 272.798C119.061 272.558 119.751 272.438 120.531 272.438C120.987 272.438 121.461 272.48 121.953 272.564C122.445 272.636 122.883 272.738 123.267 272.87V272.078C123.267 271.286 123.033 270.656 122.565 270.188C122.097 269.72 121.449 269.486 120.621 269.486C120.129 269.486 119.637 269.582 119.145 269.774C118.653 269.954 118.143 270.224 117.615 270.584L117.147 269.72C117.759 269.3 118.359 268.988 118.947 268.784C119.535 268.568 120.135 268.46 120.747 268.46C121.899 268.46 122.811 268.79 123.483 269.45C124.155 270.11 124.491 271.022 124.491 272.186V276.524C124.491 276.848 124.641 277.016 124.941 277.028V278C124.677 278.036 124.491 278.048 124.383 278.036C124.083 278.024 123.855 277.928 123.699 277.748C123.543 277.568 123.459 277.376 123.447 277.172L123.429 276.488C123.009 277.028 122.463 277.448 121.791 277.748C121.119 278.036 120.435 278.18 119.739 278.18C119.127 278.18 118.581 278.054 118.101 277.802C117.621 277.538 117.243 277.19 116.967 276.758C116.703 276.314 116.571 275.828 116.571 275.3ZM122.853 276.02C123.129 275.696 123.267 275.396 123.267 275.12V273.752C122.439 273.428 121.575 273.266 120.675 273.266C119.799 273.266 119.091 273.44 118.551 273.788C118.011 274.136 117.741 274.61 117.741 275.21C117.741 275.726 117.939 276.194 118.335 276.614C118.743 277.034 119.307 277.244 120.027 277.244C120.615 277.244 121.161 277.13 121.665 276.902C122.181 276.674 122.577 276.38 122.853 276.02ZM130.213 278.18C129.445 278.18 128.731 278.054 128.071 277.802C127.423 277.538 126.853 277.154 126.361 276.65L126.865 275.786C127.393 276.278 127.921 276.638 128.449 276.866C128.989 277.082 129.559 277.19 130.159 277.19C130.879 277.19 131.467 277.046 131.923 276.758C132.391 276.458 132.625 276.032 132.625 275.48C132.625 275.108 132.511 274.826 132.283 274.634C132.067 274.43 131.749 274.268 131.329 274.148C130.921 274.028 130.429 273.89 129.853 273.734C129.205 273.554 128.659 273.368 128.215 273.176C127.783 272.972 127.453 272.72 127.225 272.42C127.009 272.108 126.901 271.706 126.901 271.214C126.901 270.614 127.051 270.11 127.351 269.702C127.663 269.294 128.083 268.988 128.611 268.784C129.151 268.568 129.751 268.46 130.411 268.46C131.131 268.46 131.767 268.574 132.319 268.802C132.871 269.03 133.321 269.348 133.669 269.756L133.075 270.584C132.751 270.2 132.349 269.918 131.869 269.738C131.401 269.546 130.891 269.45 130.339 269.45C129.955 269.45 129.589 269.504 129.241 269.612C128.893 269.708 128.605 269.876 128.377 270.116C128.161 270.344 128.053 270.662 128.053 271.07C128.053 271.574 128.239 271.922 128.611 272.114C128.983 272.306 129.547 272.51 130.303 272.726C131.011 272.918 131.629 273.11 132.157 273.302C132.685 273.494 133.093 273.752 133.381 274.076C133.669 274.388 133.813 274.826 133.813 275.39C133.813 276.266 133.483 276.95 132.823 277.442C132.163 277.934 131.293 278.18 130.213 278.18ZM7.4 299.18C6.5 299.18 5.696 298.958 4.988 298.514C4.28 298.07 3.722 297.476 3.314 296.732C2.906 295.988 2.702 295.172 2.702 294.284C2.702 293.408 2.9 292.604 3.296 291.872C3.704 291.14 4.262 290.558 4.97 290.126C5.678 289.682 6.482 289.46 7.382 289.46C8.306 289.46 9.116 289.682 9.812 290.126C10.508 290.57 11.048 291.158 11.432 291.89C11.828 292.61 12.026 293.402 12.026 294.266C12.026 294.458 12.02 294.62 12.008 294.752H3.98C4.04 295.424 4.232 296.024 4.556 296.552C4.88 297.068 5.294 297.482 5.798 297.794C6.302 298.094 6.854 298.244 7.454 298.244C8.066 298.244 8.642 298.088 9.182 297.776C9.722 297.464 10.106 297.056 10.334 296.552L11.396 296.84C11.204 297.296 10.904 297.704 10.496 298.064C10.1 298.412 9.638 298.688 9.11 298.892C8.582 299.084 8.012 299.18 7.4 299.18ZM3.944 293.87H10.874C10.826 293.198 10.64 292.604 10.316 292.088C9.992 291.56 9.578 291.152 9.074 290.864C8.57 290.564 8.012 290.414 7.4 290.414C6.788 290.414 6.23 290.564 5.726 290.864C5.222 291.152 4.808 291.56 4.484 292.088C4.172 292.604 3.992 293.198 3.944 293.87ZM16.9925 299.18C16.2245 299.18 15.5105 299.054 14.8505 298.802C14.2025 298.538 13.6325 298.154 13.1405 297.65L13.6445 296.786C14.1725 297.278 14.7005 297.638 15.2285 297.866C15.7685 298.082 16.3385 298.19 16.9385 298.19C17.6585 298.19 18.2465 298.046 18.7025 297.758C19.1705 297.458 19.4045 297.032 19.4045 296.48C19.4045 296.108 19.2905 295.826 19.0625 295.634C18.8465 295.43 18.5285 295.268 18.1085 295.148C17.7005 295.028 17.2085 294.89 16.6325 294.734C15.9845 294.554 15.4385 294.368 14.9945 294.176C14.5625 293.972 14.2325 293.72 14.0045 293.42C13.7885 293.108 13.6805 292.706 13.6805 292.214C13.6805 291.614 13.8305 291.11 14.1305 290.702C14.4425 290.294 14.8625 289.988 15.3905 289.784C15.9305 289.568 16.5305 289.46 17.1905 289.46C17.9105 289.46 18.5465 289.574 19.0985 289.802C19.6505 290.03 20.1005 290.348 20.4485 290.756L19.8545 291.584C19.5305 291.2 19.1285 290.918 18.6485 290.738C18.1805 290.546 17.6705 290.45 17.1185 290.45C16.7345 290.45 16.3685 290.504 16.0205 290.612C15.6725 290.708 15.3845 290.876 15.1565 291.116C14.9405 291.344 14.8325 291.662 14.8325 292.07C14.8325 292.574 15.0185 292.922 15.3905 293.114C15.7625 293.306 16.3265 293.51 17.0825 293.726C17.7905 293.918 18.4085 294.11 18.9365 294.302C19.4645 294.494 19.8725 294.752 20.1605 295.076C20.4485 295.388 20.5925 295.826 20.5925 296.39C20.5925 297.266 20.2625 297.95 19.6025 298.442C18.9425 298.934 18.0725 299.18 16.9925 299.18ZM27.4036 299.18C26.6236 299.18 25.9216 298.976 25.2976 298.568C24.6856 298.16 24.1996 297.656 23.8396 297.056V302.834H22.6156V289.622H23.7136V291.44C24.0856 290.852 24.5776 290.378 25.1896 290.018C25.8136 289.646 26.4856 289.46 27.2056 289.46C27.8536 289.46 28.4476 289.598 28.9876 289.874C29.5276 290.138 29.9956 290.498 30.3916 290.954C30.7996 291.41 31.1116 291.932 31.3276 292.52C31.5436 293.096 31.6516 293.696 31.6516 294.32C31.6516 295.196 31.4716 296.006 31.1116 296.75C30.7636 297.482 30.2656 298.07 29.6176 298.514C28.9816 298.958 28.2436 299.18 27.4036 299.18ZM27.0616 298.1C27.7456 298.1 28.3336 297.92 28.8256 297.56C29.3296 297.188 29.7196 296.714 29.9956 296.138C30.2716 295.562 30.4096 294.956 30.4096 294.32C30.4096 293.648 30.2536 293.024 29.9416 292.448C29.6296 291.872 29.2096 291.41 28.6816 291.062C28.1656 290.714 27.5776 290.54 26.9176 290.54C26.5096 290.54 26.0776 290.648 25.6216 290.864C25.1776 291.068 24.7816 291.35 24.4336 291.71C24.0976 292.058 23.8996 292.442 23.8396 292.862V295.742C24.1156 296.402 24.5476 296.96 25.1356 297.416C25.7236 297.872 26.3656 298.1 27.0616 298.1ZM37.775 299.18C36.875 299.18 36.071 298.958 35.363 298.514C34.655 298.07 34.097 297.476 33.689 296.732C33.281 295.988 33.077 295.172 33.077 294.284C33.077 293.408 33.275 292.604 33.671 291.872C34.079 291.14 34.637 290.558 35.345 290.126C36.053 289.682 36.857 289.46 37.757 289.46C38.681 289.46 39.491 289.682 40.187 290.126C40.883 290.57 41.423 291.158 41.807 291.89C42.203 292.61 42.401 293.402 42.401 294.266C42.401 294.458 42.395 294.62 42.383 294.752H34.355C34.415 295.424 34.607 296.024 34.931 296.552C35.255 297.068 35.669 297.482 36.173 297.794C36.677 298.094 37.229 298.244 37.829 298.244C38.441 298.244 39.017 298.088 39.557 297.776C40.097 297.464 40.481 297.056 40.709 296.552L41.771 296.84C41.579 297.296 41.279 297.704 40.871 298.064C40.475 298.412 40.013 298.688 39.485 298.892C38.957 299.084 38.387 299.18 37.775 299.18ZM34.319 293.87H41.249C41.201 293.198 41.015 292.604 40.691 292.088C40.367 291.56 39.953 291.152 39.449 290.864C38.945 290.564 38.387 290.414 37.775 290.414C37.163 290.414 36.605 290.564 36.101 290.864C35.597 291.152 35.183 291.56 34.859 292.088C34.547 292.604 34.367 293.198 34.319 293.87ZM48.3575 299.18C47.4455 299.18 46.6355 298.958 45.9275 298.514C45.2195 298.058 44.6615 297.464 44.2535 296.732C43.8455 295.988 43.6415 295.172 43.6415 294.284C43.6415 293.396 43.8395 292.592 44.2355 291.872C44.6315 291.14 45.1835 290.558 45.8915 290.126C46.5995 289.682 47.4155 289.46 48.3395 289.46C49.2155 289.46 49.9835 289.664 50.6435 290.072C51.3155 290.468 51.8195 291.008 52.1555 291.692L50.9675 292.07C50.7035 291.59 50.3315 291.218 49.8515 290.954C49.3835 290.678 48.8615 290.54 48.2855 290.54C47.6495 290.54 47.0735 290.702 46.5575 291.026C46.0535 291.35 45.6455 291.8 45.3335 292.376C45.0335 292.94 44.8835 293.576 44.8835 294.284C44.8835 294.992 45.0395 295.634 45.3515 296.21C45.6635 296.786 46.0775 297.248 46.5935 297.596C47.1095 297.932 47.6795 298.1 48.3035 298.1C48.7115 298.1 49.1075 298.028 49.4915 297.884C49.8755 297.74 50.2055 297.548 50.4815 297.308C50.7575 297.056 50.9435 296.786 51.0395 296.498L52.2455 296.858C52.0775 297.302 51.8015 297.704 51.4175 298.064C51.0335 298.412 50.5775 298.688 50.0495 298.892C49.5215 299.084 48.9575 299.18 48.3575 299.18ZM54.1684 287.66V285.86H55.3924V287.66H54.1684ZM54.1684 299V289.622H55.3924V299H54.1684ZM58.5383 290.594H57.2423V289.622H58.5383V289.37C58.5383 288.782 58.6523 288.206 58.8803 287.642C59.1203 287.078 59.4803 286.61 59.9603 286.238C60.4523 285.866 61.0823 285.68 61.8503 285.68C62.5103 285.68 63.0743 285.782 63.5423 285.986C64.0223 286.19 64.3643 286.37 64.5683 286.526L64.0103 287.408C63.8063 287.228 63.5183 287.078 63.1463 286.958C62.7743 286.826 62.3663 286.76 61.9223 286.76C61.4063 286.76 60.9923 286.892 60.6803 287.156C60.3683 287.408 60.1343 287.732 59.9783 288.128C59.8343 288.524 59.7623 288.926 59.7623 289.334V289.622H64.4603V299H63.2363V290.594H59.7623V299H58.5383V290.594ZM71.2266 299.18C70.3146 299.18 69.5046 298.958 68.7966 298.514C68.0886 298.058 67.5306 297.464 67.1226 296.732C66.7146 295.988 66.5106 295.172 66.5106 294.284C66.5106 293.396 66.7086 292.592 67.1046 291.872C67.5006 291.14 68.0526 290.558 68.7606 290.126C69.4686 289.682 70.2846 289.46 71.2086 289.46C72.0846 289.46 72.8526 289.664 73.5126 290.072C74.1846 290.468 74.6886 291.008 75.0246 291.692L73.8366 292.07C73.5726 291.59 73.2006 291.218 72.7206 290.954C72.2526 290.678 71.7306 290.54 71.1546 290.54C70.5186 290.54 69.9426 290.702 69.4266 291.026C68.9226 291.35 68.5146 291.8 68.2026 292.376C67.9026 292.94 67.7526 293.576 67.7526 294.284C67.7526 294.992 67.9086 295.634 68.2206 296.21C68.5326 296.786 68.9466 297.248 69.4626 297.596C69.9786 297.932 70.5486 298.1 71.1726 298.1C71.5806 298.1 71.9766 298.028 72.3606 297.884C72.7446 297.74 73.0746 297.548 73.3506 297.308C73.6266 297.056 73.8126 296.786 73.9086 296.498L75.1146 296.858C74.9466 297.302 74.6706 297.704 74.2866 298.064C73.9026 298.412 73.4466 298.688 72.9186 298.892C72.3906 299.084 71.8266 299.18 71.2266 299.18ZM76.2815 296.3C76.2815 295.724 76.4495 295.226 76.7855 294.806C77.1215 294.374 77.5835 294.038 78.1715 293.798C78.7715 293.558 79.4615 293.438 80.2415 293.438C80.6975 293.438 81.1715 293.48 81.6635 293.564C82.1555 293.636 82.5935 293.738 82.9775 293.87V293.078C82.9775 292.286 82.7435 291.656 82.2755 291.188C81.8075 290.72 81.1595 290.486 80.3315 290.486C79.8395 290.486 79.3475 290.582 78.8555 290.774C78.3635 290.954 77.8535 291.224 77.3255 291.584L76.8575 290.72C77.4695 290.3 78.0695 289.988 78.6575 289.784C79.2455 289.568 79.8455 289.46 80.4575 289.46C81.6095 289.46 82.5215 289.79 83.1935 290.45C83.8655 291.11 84.2015 292.022 84.2015 293.186V297.524C84.2015 297.848 84.3515 298.016 84.6515 298.028V299C84.3875 299.036 84.2015 299.048 84.0935 299.036C83.7935 299.024 83.5655 298.928 83.4095 298.748C83.2535 298.568 83.1695 298.376 83.1575 298.172L83.1395 297.488C82.7195 298.028 82.1735 298.448 81.5015 298.748C80.8295 299.036 80.1455 299.18 79.4495 299.18C78.8375 299.18 78.2915 299.054 77.8115 298.802C77.3315 298.538 76.9535 298.19 76.6775 297.758C76.4135 297.314 76.2815 296.828 76.2815 296.3ZM82.5635 297.02C82.8395 296.696 82.9775 296.396 82.9775 296.12V294.752C82.1495 294.428 81.2855 294.266 80.3855 294.266C79.5095 294.266 78.8015 294.44 78.2615 294.788C77.7215 295.136 77.4515 295.61 77.4515 296.21C77.4515 296.726 77.6495 297.194 78.0455 297.614C78.4535 298.034 79.0175 298.244 79.7375 298.244C80.3255 298.244 80.8715 298.13 81.3755 297.902C81.8915 297.674 82.2875 297.38 82.5635 297.02ZM90.9141 299.18C90.0021 299.18 89.1921 298.958 88.4841 298.514C87.7761 298.058 87.2181 297.464 86.8101 296.732C86.4021 295.988 86.1981 295.172 86.1981 294.284C86.1981 293.396 86.3961 292.592 86.7921 291.872C87.1881 291.14 87.7401 290.558 88.4481 290.126C89.1561 289.682 89.9721 289.46 90.8961 289.46C91.7721 289.46 92.5401 289.664 93.2001 290.072C93.8721 290.468 94.3761 291.008 94.7121 291.692L93.5241 292.07C93.2601 291.59 92.8881 291.218 92.4081 290.954C91.9401 290.678 91.4181 290.54 90.8421 290.54C90.2061 290.54 89.6301 290.702 89.1141 291.026C88.6101 291.35 88.2021 291.8 87.8901 292.376C87.5901 292.94 87.4401 293.576 87.4401 294.284C87.4401 294.992 87.5961 295.634 87.9081 296.21C88.2201 296.786 88.6341 297.248 89.1501 297.596C89.6661 297.932 90.2361 298.1 90.8601 298.1C91.2681 298.1 91.6641 298.028 92.0481 297.884C92.4321 297.74 92.7621 297.548 93.0381 297.308C93.3141 297.056 93.5001 296.786 93.5961 296.498L94.8021 296.858C94.6341 297.302 94.3581 297.704 93.9741 298.064C93.5901 298.412 93.1341 298.688 92.6061 298.892C92.0781 299.084 91.5141 299.18 90.9141 299.18ZM96.725 287.66V285.86H97.949V287.66H96.725ZM96.725 299V289.622H97.949V299H96.725ZM104.641 299.18C103.741 299.18 102.937 298.958 102.229 298.514C101.533 298.07 100.987 297.482 100.591 296.75C100.195 296.006 99.9969 295.202 99.9969 294.338C99.9969 293.462 100.195 292.658 100.591 291.926C100.999 291.182 101.551 290.588 102.247 290.144C102.955 289.688 103.753 289.46 104.641 289.46C105.541 289.46 106.339 289.688 107.035 290.144C107.743 290.588 108.295 291.182 108.691 291.926C109.099 292.658 109.303 293.462 109.303 294.338C109.303 295.202 109.105 296.006 108.709 296.75C108.313 297.482 107.761 298.07 107.053 298.514C106.357 298.958 105.553 299.18 104.641 299.18ZM101.239 294.356C101.239 295.052 101.389 295.688 101.689 296.264C102.001 296.828 102.415 297.278 102.931 297.614C103.447 297.938 104.017 298.1 104.641 298.1C105.265 298.1 105.835 297.932 106.351 297.596C106.867 297.26 107.281 296.804 107.593 296.228C107.905 295.652 108.061 295.016 108.061 294.32C108.061 293.624 107.905 292.988 107.593 292.412C107.281 291.836 106.867 291.38 106.351 291.044C105.835 290.708 105.265 290.54 104.641 290.54C104.029 290.54 103.465 290.714 102.949 291.062C102.433 291.398 102.019 291.854 101.707 292.43C101.395 293.006 101.239 293.648 101.239 294.356ZM119.234 299H118.01V293.762C118.01 292.658 117.842 291.854 117.506 291.35C117.182 290.834 116.678 290.576 115.994 290.576C115.514 290.576 115.04 290.696 114.572 290.936C114.104 291.164 113.69 291.482 113.33 291.89C112.982 292.286 112.73 292.742 112.574 293.258V299H111.35V289.622H112.466V291.746C112.838 291.062 113.384 290.51 114.104 290.09C114.824 289.67 115.604 289.46 116.444 289.46C117.14 289.46 117.692 289.628 118.1 289.964C118.508 290.288 118.796 290.756 118.964 291.368C119.144 291.968 119.234 292.682 119.234 293.51V299ZM125.894 299.18C124.994 299.18 124.19 298.958 123.482 298.514C122.774 298.07 122.216 297.476 121.808 296.732C121.4 295.988 121.196 295.172 121.196 294.284C121.196 293.408 121.394 292.604 121.79 291.872C122.198 291.14 122.756 290.558 123.464 290.126C124.172 289.682 124.976 289.46 125.876 289.46C126.8 289.46 127.61 289.682 128.306 290.126C129.002 290.57 129.542 291.158 129.926 291.89C130.322 292.61 130.52 293.402 130.52 294.266C130.52 294.458 130.514 294.62 130.502 294.752H122.474C122.534 295.424 122.726 296.024 123.05 296.552C123.374 297.068 123.788 297.482 124.292 297.794C124.796 298.094 125.348 298.244 125.948 298.244C126.56 298.244 127.136 298.088 127.676 297.776C128.216 297.464 128.6 297.056 128.828 296.552L129.89 296.84C129.698 297.296 129.398 297.704 128.99 298.064C128.594 298.412 128.132 298.688 127.604 298.892C127.076 299.084 126.506 299.18 125.894 299.18ZM122.438 293.87H129.368C129.32 293.198 129.134 292.604 128.81 292.088C128.486 291.56 128.072 291.152 127.568 290.864C127.064 290.564 126.506 290.414 125.894 290.414C125.282 290.414 124.724 290.564 124.22 290.864C123.716 291.152 123.302 291.56 122.978 292.088C122.666 292.604 122.486 293.198 122.438 293.87ZM135.487 299.18C134.719 299.18 134.005 299.054 133.345 298.802C132.697 298.538 132.127 298.154 131.635 297.65L132.139 296.786C132.667 297.278 133.195 297.638 133.723 297.866C134.263 298.082 134.833 298.19 135.433 298.19C136.153 298.19 136.741 298.046 137.197 297.758C137.665 297.458 137.899 297.032 137.899 296.48C137.899 296.108 137.785 295.826 137.557 295.634C137.341 295.43 137.023 295.268 136.603 295.148C136.195 295.028 135.703 294.89 135.127 294.734C134.479 294.554 133.933 294.368 133.489 294.176C133.057 293.972 132.727 293.72 132.499 293.42C132.283 293.108 132.175 292.706 132.175 292.214C132.175 291.614 132.325 291.11 132.625 290.702C132.937 290.294 133.357 289.988 133.885 289.784C134.425 289.568 135.025 289.46 135.685 289.46C136.405 289.46 137.041 289.574 137.593 289.802C138.145 290.03 138.595 290.348 138.943 290.756L138.349 291.584C138.025 291.2 137.623 290.918 137.143 290.738C136.675 290.546 136.165 290.45 135.613 290.45C135.229 290.45 134.863 290.504 134.515 290.612C134.167 290.708 133.879 290.876 133.651 291.116C133.435 291.344 133.327 291.662 133.327 292.07C133.327 292.574 133.513 292.922 133.885 293.114C134.257 293.306 134.821 293.51 135.577 293.726C136.285 293.918 136.903 294.11 137.431 294.302C137.959 294.494 138.367 294.752 138.655 295.076C138.943 295.388 139.087 295.826 139.087 296.39C139.087 297.266 138.757 297.95 138.097 298.442C137.437 298.934 136.567 299.18 135.487 299.18ZM150.198 298.55C150.054 298.61 149.79 298.718 149.406 298.874C149.022 299.03 148.578 299.108 148.074 299.108C147.546 299.108 147.084 298.958 146.688 298.658C146.292 298.358 146.094 297.908 146.094 297.308V290.594H144.798V289.622H146.094V286.454H147.318V289.622H149.478V290.594H147.318V296.966C147.342 297.314 147.462 297.572 147.678 297.74C147.906 297.896 148.164 297.974 148.452 297.974C148.788 297.974 149.088 297.92 149.352 297.812C149.628 297.692 149.802 297.608 149.874 297.56L150.198 298.55ZM155.619 299.18C154.719 299.18 153.915 298.958 153.207 298.514C152.499 298.07 151.941 297.476 151.533 296.732C151.125 295.988 150.921 295.172 150.921 294.284C150.921 293.408 151.119 292.604 151.515 291.872C151.923 291.14 152.481 290.558 153.189 290.126C153.897 289.682 154.701 289.46 155.601 289.46C156.525 289.46 157.335 289.682 158.031 290.126C158.727 290.57 159.267 291.158 159.651 291.89C160.047 292.61 160.245 293.402 160.245 294.266C160.245 294.458 160.239 294.62 160.227 294.752H152.199C152.259 295.424 152.451 296.024 152.775 296.552C153.099 297.068 153.513 297.482 154.017 297.794C154.521 298.094 155.073 298.244 155.673 298.244C156.285 298.244 156.861 298.088 157.401 297.776C157.941 297.464 158.325 297.056 158.553 296.552L159.615 296.84C159.423 297.296 159.123 297.704 158.715 298.064C158.319 298.412 157.857 298.688 157.329 298.892C156.801 299.084 156.231 299.18 155.619 299.18ZM152.163 293.87H159.093C159.045 293.198 158.859 292.604 158.535 292.088C158.211 291.56 157.797 291.152 157.293 290.864C156.789 290.564 156.231 290.414 155.619 290.414C155.007 290.414 154.449 290.564 153.945 290.864C153.441 291.152 153.027 291.56 152.703 292.088C152.391 292.604 152.211 293.198 152.163 293.87ZM166.201 299.18C165.289 299.18 164.479 298.958 163.771 298.514C163.063 298.058 162.505 297.464 162.097 296.732C161.689 295.988 161.485 295.172 161.485 294.284C161.485 293.396 161.683 292.592 162.079 291.872C162.475 291.14 163.027 290.558 163.735 290.126C164.443 289.682 165.259 289.46 166.183 289.46C167.059 289.46 167.827 289.664 168.487 290.072C169.159 290.468 169.663 291.008 169.999 291.692L168.811 292.07C168.547 291.59 168.175 291.218 167.695 290.954C167.227 290.678 166.705 290.54 166.129 290.54C165.493 290.54 164.917 290.702 164.401 291.026C163.897 291.35 163.489 291.8 163.177 292.376C162.877 292.94 162.727 293.576 162.727 294.284C162.727 294.992 162.883 295.634 163.195 296.21C163.507 296.786 163.921 297.248 164.437 297.596C164.953 297.932 165.523 298.1 166.147 298.1C166.555 298.1 166.951 298.028 167.335 297.884C167.719 297.74 168.049 297.548 168.325 297.308C168.601 297.056 168.787 296.786 168.883 296.498L170.089 296.858C169.921 297.302 169.645 297.704 169.261 298.064C168.877 298.412 168.421 298.688 167.893 298.892C167.365 299.084 166.801 299.18 166.201 299.18ZM179.896 299H178.672V293.762C178.672 292.658 178.504 291.854 178.168 291.35C177.844 290.834 177.34 290.576 176.656 290.576C176.176 290.576 175.702 290.696 175.234 290.936C174.766 291.164 174.352 291.482 173.992 291.89C173.644 292.286 173.392 292.742 173.236 293.258V299H172.012V289.622H173.128V291.746C173.5 291.062 174.046 290.51 174.766 290.09C175.486 289.67 176.266 289.46 177.106 289.46C177.802 289.46 178.354 289.628 178.762 289.964C179.17 290.288 179.458 290.756 179.626 291.368C179.806 291.968 179.896 292.682 179.896 293.51V299ZM182.506 287.66V285.86H183.73V287.66H182.506ZM182.506 299V289.622H183.73V299H182.506ZM190.494 299.18C189.582 299.18 188.772 298.958 188.064 298.514C187.356 298.058 186.798 297.464 186.39 296.732C185.982 295.988 185.778 295.172 185.778 294.284C185.778 293.396 185.976 292.592 186.372 291.872C186.768 291.14 187.32 290.558 188.028 290.126C188.736 289.682 189.552 289.46 190.476 289.46C191.352 289.46 192.12 289.664 192.78 290.072C193.452 290.468 193.956 291.008 194.292 291.692L193.104 292.07C192.84 291.59 192.468 291.218 191.988 290.954C191.52 290.678 190.998 290.54 190.422 290.54C189.786 290.54 189.21 290.702 188.694 291.026C188.19 291.35 187.782 291.8 187.47 292.376C187.17 292.94 187.02 293.576 187.02 294.284C187.02 294.992 187.176 295.634 187.488 296.21C187.8 296.786 188.214 297.248 188.73 297.596C189.246 297.932 189.816 298.1 190.44 298.1C190.848 298.1 191.244 298.028 191.628 297.884C192.012 297.74 192.342 297.548 192.618 297.308C192.894 297.056 193.08 296.786 193.176 296.498L194.382 296.858C194.214 297.302 193.938 297.704 193.554 298.064C193.17 298.412 192.714 298.688 192.186 298.892C191.658 299.084 191.094 299.18 190.494 299.18ZM195.549 296.3C195.549 295.724 195.717 295.226 196.053 294.806C196.389 294.374 196.851 294.038 197.439 293.798C198.039 293.558 198.729 293.438 199.509 293.438C199.965 293.438 200.439 293.48 200.931 293.564C201.423 293.636 201.861 293.738 202.245 293.87V293.078C202.245 292.286 202.011 291.656 201.543 291.188C201.075 290.72 200.427 290.486 199.599 290.486C199.107 290.486 198.615 290.582 198.123 290.774C197.631 290.954 197.121 291.224 196.593 291.584L196.125 290.72C196.737 290.3 197.337 289.988 197.925 289.784C198.513 289.568 199.113 289.46 199.725 289.46C200.877 289.46 201.789 289.79 202.461 290.45C203.133 291.11 203.469 292.022 203.469 293.186V297.524C203.469 297.848 203.619 298.016 203.919 298.028V299C203.655 299.036 203.469 299.048 203.361 299.036C203.061 299.024 202.833 298.928 202.677 298.748C202.521 298.568 202.437 298.376 202.425 298.172L202.407 297.488C201.987 298.028 201.441 298.448 200.769 298.748C200.097 299.036 199.413 299.18 198.717 299.18C198.105 299.18 197.559 299.054 197.079 298.802C196.599 298.538 196.221 298.19 195.945 297.758C195.681 297.314 195.549 296.828 195.549 296.3ZM201.831 297.02C202.107 296.696 202.245 296.396 202.245 296.12V294.752C201.417 294.428 200.553 294.266 199.653 294.266C198.777 294.266 198.069 294.44 197.529 294.788C196.989 295.136 196.719 295.61 196.719 296.21C196.719 296.726 196.917 297.194 197.313 297.614C197.721 298.034 198.285 298.244 199.005 298.244C199.593 298.244 200.139 298.13 200.643 297.902C201.159 297.674 201.555 297.38 201.831 297.02ZM209.192 299.18C208.424 299.18 207.71 299.054 207.05 298.802C206.402 298.538 205.832 298.154 205.34 297.65L205.844 296.786C206.372 297.278 206.9 297.638 207.428 297.866C207.968 298.082 208.538 298.19 209.138 298.19C209.858 298.19 210.446 298.046 210.902 297.758C211.37 297.458 211.604 297.032 211.604 296.48C211.604 296.108 211.49 295.826 211.262 295.634C211.046 295.43 210.728 295.268 210.308 295.148C209.9 295.028 209.408 294.89 208.832 294.734C208.184 294.554 207.638 294.368 207.194 294.176C206.762 293.972 206.432 293.72 206.204 293.42C205.988 293.108 205.88 292.706 205.88 292.214C205.88 291.614 206.03 291.11 206.33 290.702C206.642 290.294 207.062 289.988 207.59 289.784C208.13 289.568 208.73 289.46 209.39 289.46C210.11 289.46 210.746 289.574 211.298 289.802C211.85 290.03 212.3 290.348 212.648 290.756L212.054 291.584C211.73 291.2 211.328 290.918 210.848 290.738C210.38 290.546 209.87 290.45 209.318 290.45C208.934 290.45 208.568 290.504 208.22 290.612C207.872 290.708 207.584 290.876 207.356 291.116C207.14 291.344 207.032 291.662 207.032 292.07C207.032 292.574 207.218 292.922 207.59 293.114C207.962 293.306 208.526 293.51 209.282 293.726C209.99 293.918 210.608 294.11 211.136 294.302C211.664 294.494 212.072 294.752 212.36 295.076C212.648 295.388 212.792 295.826 212.792 296.39C212.792 297.266 212.462 297.95 211.802 298.442C211.142 298.934 210.272 299.18 209.192 299.18ZM218.773 294.338C218.773 293.45 218.953 292.64 219.313 291.908C219.685 291.164 220.195 290.57 220.843 290.126C221.491 289.682 222.229 289.46 223.057 289.46C223.837 289.46 224.533 289.67 225.145 290.09C225.769 290.498 226.255 290.996 226.603 291.584V285.86H227.827V297.524C227.827 297.848 227.971 298.016 228.259 298.028V299C228.019 299.036 227.833 299.048 227.701 299.036C227.437 299.024 227.209 298.928 227.017 298.748C226.837 298.556 226.747 298.34 226.747 298.1V297.182C226.375 297.794 225.871 298.28 225.235 298.64C224.599 299 223.939 299.18 223.255 299.18C222.607 299.18 222.007 299.048 221.455 298.784C220.903 298.52 220.423 298.16 220.015 297.704C219.619 297.248 219.313 296.732 219.097 296.156C218.881 295.568 218.773 294.962 218.773 294.338ZM226.603 295.778V292.88C226.447 292.448 226.195 292.058 225.847 291.71C225.499 291.35 225.103 291.068 224.659 290.864C224.227 290.648 223.795 290.54 223.363 290.54C222.691 290.54 222.103 290.726 221.599 291.098C221.107 291.458 220.723 291.932 220.447 292.52C220.171 293.096 220.033 293.702 220.033 294.338C220.033 295.01 220.183 295.634 220.483 296.21C220.795 296.786 221.215 297.248 221.743 297.596C222.271 297.932 222.865 298.1 223.525 298.1C223.933 298.1 224.359 297.998 224.803 297.794C225.259 297.578 225.655 297.296 225.991 296.948C226.339 296.6 226.543 296.21 226.603 295.778ZM234.65 299.18C233.75 299.18 232.946 298.958 232.238 298.514C231.53 298.07 230.972 297.476 230.564 296.732C230.156 295.988 229.952 295.172 229.952 294.284C229.952 293.408 230.15 292.604 230.546 291.872C230.954 291.14 231.512 290.558 232.22 290.126C232.928 289.682 233.732 289.46 234.632 289.46C235.556 289.46 236.366 289.682 237.062 290.126C237.758 290.57 238.298 291.158 238.682 291.89C239.078 292.61 239.276 293.402 239.276 294.266C239.276 294.458 239.27 294.62 239.258 294.752H231.23C231.29 295.424 231.482 296.024 231.806 296.552C232.13 297.068 232.544 297.482 233.048 297.794C233.552 298.094 234.104 298.244 234.704 298.244C235.316 298.244 235.892 298.088 236.432 297.776C236.972 297.464 237.356 297.056 237.584 296.552L238.646 296.84C238.454 297.296 238.154 297.704 237.746 298.064C237.35 298.412 236.888 298.688 236.36 298.892C235.832 299.084 235.262 299.18 234.65 299.18ZM231.194 293.87H238.124C238.076 293.198 237.89 292.604 237.566 292.088C237.242 291.56 236.828 291.152 236.324 290.864C235.82 290.564 235.262 290.414 234.65 290.414C234.038 290.414 233.48 290.564 232.976 290.864C232.472 291.152 232.058 291.56 231.734 292.088C231.422 292.604 231.242 293.198 231.194 293.87ZM248.83 299.18C248.062 299.18 247.348 299.054 246.688 298.802C246.04 298.538 245.47 298.154 244.978 297.65L245.482 296.786C246.01 297.278 246.538 297.638 247.066 297.866C247.606 298.082 248.176 298.19 248.776 298.19C249.496 298.19 250.084 298.046 250.54 297.758C251.008 297.458 251.242 297.032 251.242 296.48C251.242 296.108 251.128 295.826 250.9 295.634C250.684 295.43 250.366 295.268 249.946 295.148C249.538 295.028 249.046 294.89 248.47 294.734C247.822 294.554 247.276 294.368 246.832 294.176C246.4 293.972 246.07 293.72 245.842 293.42C245.626 293.108 245.518 292.706 245.518 292.214C245.518 291.614 245.668 291.11 245.968 290.702C246.28 290.294 246.7 289.988 247.228 289.784C247.768 289.568 248.368 289.46 249.028 289.46C249.748 289.46 250.384 289.574 250.936 289.802C251.488 290.03 251.938 290.348 252.286 290.756L251.692 291.584C251.368 291.2 250.966 290.918 250.486 290.738C250.018 290.546 249.508 290.45 248.956 290.45C248.572 290.45 248.206 290.504 247.858 290.612C247.51 290.708 247.222 290.876 246.994 291.116C246.778 291.344 246.67 291.662 246.67 292.07C246.67 292.574 246.856 292.922 247.228 293.114C247.6 293.306 248.164 293.51 248.92 293.726C249.628 293.918 250.246 294.11 250.774 294.302C251.302 294.494 251.71 294.752 251.998 295.076C252.286 295.388 252.43 295.826 252.43 296.39C252.43 297.266 252.1 297.95 251.44 298.442C250.78 298.934 249.91 299.18 248.83 299.18ZM254.364 295.13V289.622H255.588V294.914C255.588 297.038 256.314 298.1 257.766 298.1C258.486 298.1 259.158 297.866 259.782 297.398C260.418 296.93 260.874 296.306 261.15 295.526V289.622H262.374V297.524C262.374 297.848 262.518 298.016 262.806 298.028V299C262.662 299.024 262.548 299.036 262.464 299.036C262.392 299.036 262.314 299.036 262.23 299.036C261.978 299.012 261.762 298.916 261.582 298.748C261.414 298.58 261.33 298.376 261.33 298.136L261.294 296.876C260.886 297.608 260.328 298.178 259.62 298.586C258.924 298.982 258.168 299.18 257.352 299.18C255.36 299.18 254.364 297.83 254.364 295.13ZM7.4 320.18C6.5 320.18 5.696 319.958 4.988 319.514C4.28 319.07 3.722 318.476 3.314 317.732C2.906 316.988 2.702 316.172 2.702 315.284C2.702 314.408 2.9 313.604 3.296 312.872C3.704 312.14 4.262 311.558 4.97 311.126C5.678 310.682 6.482 310.46 7.382 310.46C8.306 310.46 9.116 310.682 9.812 311.126C10.508 311.57 11.048 312.158 11.432 312.89C11.828 313.61 12.026 314.402 12.026 315.266C12.026 315.458 12.02 315.62 12.008 315.752H3.98C4.04 316.424 4.232 317.024 4.556 317.552C4.88 318.068 5.294 318.482 5.798 318.794C6.302 319.094 6.854 319.244 7.454 319.244C8.066 319.244 8.642 319.088 9.182 318.776C9.722 318.464 10.106 318.056 10.334 317.552L11.396 317.84C11.204 318.296 10.904 318.704 10.496 319.064C10.1 319.412 9.638 319.688 9.11 319.892C8.582 320.084 8.012 320.18 7.4 320.18ZM3.944 314.87H10.874C10.826 314.198 10.64 313.604 10.316 313.088C9.992 312.56 9.578 312.152 9.074 311.864C8.57 311.564 8.012 311.414 7.4 311.414C6.788 311.414 6.23 311.564 5.726 311.864C5.222 312.152 4.808 312.56 4.484 313.088C4.172 313.604 3.992 314.198 3.944 314.87ZM27.8645 320H26.6405V314.762C26.6405 313.682 26.4665 312.884 26.1185 312.368C25.7705 311.84 25.2545 311.576 24.5705 311.576C23.8505 311.576 23.2145 311.828 22.6625 312.332C22.1105 312.836 21.7205 313.484 21.4925 314.276V320H20.2685V314.762C20.2685 313.658 20.0945 312.854 19.7465 312.35C19.4105 311.834 18.9005 311.576 18.2165 311.576C17.5085 311.576 16.8725 311.822 16.3085 312.314C15.7565 312.806 15.3665 313.454 15.1385 314.258V320H13.9145V310.622H15.0305V312.746C15.4145 312.026 15.9185 311.468 16.5425 311.072C17.1665 310.664 17.8565 310.46 18.6125 310.46C19.3925 310.46 20.0225 310.688 20.5025 311.144C20.9825 311.588 21.2765 312.164 21.3845 312.872C22.2485 311.264 23.4545 310.46 25.0025 310.46C26.0585 310.46 26.7965 310.832 27.2165 311.576C27.6485 312.308 27.8645 313.286 27.8645 314.51V320ZM35.2435 320.18C34.4635 320.18 33.7615 319.976 33.1375 319.568C32.5255 319.16 32.0395 318.656 31.6795 318.056V323.834H30.4555V310.622H31.5535V312.44C31.9255 311.852 32.4175 311.378 33.0295 311.018C33.6535 310.646 34.3255 310.46 35.0455 310.46C35.6935 310.46 36.2875 310.598 36.8275 310.874C37.3675 311.138 37.8355 311.498 38.2315 311.954C38.6395 312.41 38.9515 312.932 39.1675 313.52C39.3835 314.096 39.4915 314.696 39.4915 315.32C39.4915 316.196 39.3115 317.006 38.9515 317.75C38.6035 318.482 38.1055 319.07 37.4575 319.514C36.8215 319.958 36.0835 320.18 35.2435 320.18ZM34.9015 319.1C35.5855 319.1 36.1735 318.92 36.6655 318.56C37.1695 318.188 37.5595 317.714 37.8355 317.138C38.1115 316.562 38.2495 315.956 38.2495 315.32C38.2495 314.648 38.0935 314.024 37.7815 313.448C37.4695 312.872 37.0495 312.41 36.5215 312.062C36.0055 311.714 35.4175 311.54 34.7575 311.54C34.3495 311.54 33.9175 311.648 33.4615 311.864C33.0175 312.068 32.6215 312.35 32.2735 312.71C31.9375 313.058 31.7395 313.442 31.6795 313.862V316.742C31.9555 317.402 32.3875 317.96 32.9755 318.416C33.5635 318.872 34.2055 319.1 34.9015 319.1ZM46.2448 311.702C45.4288 311.726 44.7088 311.954 44.0848 312.386C43.4728 312.818 43.0408 313.412 42.7888 314.168V320H41.5648V310.622H42.7168V312.872C43.0408 312.212 43.4668 311.678 43.9948 311.27C44.5348 310.862 45.1048 310.634 45.7048 310.586C45.8248 310.574 45.9268 310.568 46.0108 310.568C46.0948 310.568 46.1728 310.574 46.2448 310.586V311.702ZM51.6441 320.18C50.7441 320.18 49.9401 319.958 49.2321 319.514C48.5241 319.07 47.9661 318.476 47.5581 317.732C47.1501 316.988 46.9461 316.172 46.9461 315.284C46.9461 314.408 47.1441 313.604 47.5401 312.872C47.9481 312.14 48.5061 311.558 49.2141 311.126C49.9221 310.682 50.7261 310.46 51.6261 310.46C52.5501 310.46 53.3601 310.682 54.0561 311.126C54.7521 311.57 55.2921 312.158 55.6761 312.89C56.0721 313.61 56.2701 314.402 56.2701 315.266C56.2701 315.458 56.2641 315.62 56.2521 315.752H48.2241C48.2841 316.424 48.4761 317.024 48.8001 317.552C49.1241 318.068 49.5381 318.482 50.0421 318.794C50.5461 319.094 51.0981 319.244 51.6981 319.244C52.3101 319.244 52.8861 319.088 53.4261 318.776C53.9661 318.464 54.3501 318.056 54.5781 317.552L55.6401 317.84C55.4481 318.296 55.1481 318.704 54.7401 319.064C54.3441 319.412 53.8821 319.688 53.3541 319.892C52.8261 320.084 52.2561 320.18 51.6441 320.18ZM48.1881 314.87H55.1181C55.0701 314.198 54.8841 313.604 54.5601 313.088C54.2361 312.56 53.8221 312.152 53.3181 311.864C52.8141 311.564 52.2561 311.414 51.6441 311.414C51.0321 311.414 50.4741 311.564 49.9701 311.864C49.4661 312.152 49.0521 312.56 48.7281 313.088C48.4161 313.604 48.2361 314.198 48.1881 314.87ZM61.2366 320.18C60.4686 320.18 59.7546 320.054 59.0946 319.802C58.4466 319.538 57.8766 319.154 57.3846 318.65L57.8886 317.786C58.4166 318.278 58.9446 318.638 59.4726 318.866C60.0126 319.082 60.5826 319.19 61.1826 319.19C61.9026 319.19 62.4906 319.046 62.9466 318.758C63.4146 318.458 63.6486 318.032 63.6486 317.48C63.6486 317.108 63.5346 316.826 63.3066 316.634C63.0906 316.43 62.7726 316.268 62.3526 316.148C61.9446 316.028 61.4526 315.89 60.8766 315.734C60.2286 315.554 59.6826 315.368 59.2386 315.176C58.8066 314.972 58.4766 314.72 58.2486 314.42C58.0326 314.108 57.9246 313.706 57.9246 313.214C57.9246 312.614 58.0746 312.11 58.3746 311.702C58.6866 311.294 59.1066 310.988 59.6346 310.784C60.1746 310.568 60.7746 310.46 61.4346 310.46C62.1546 310.46 62.7906 310.574 63.3426 310.802C63.8946 311.03 64.3446 311.348 64.6926 311.756L64.0986 312.584C63.7746 312.2 63.3726 311.918 62.8926 311.738C62.4246 311.546 61.9146 311.45 61.3626 311.45C60.9786 311.45 60.6126 311.504 60.2646 311.612C59.9166 311.708 59.6286 311.876 59.4006 312.116C59.1846 312.344 59.0766 312.662 59.0766 313.07C59.0766 313.574 59.2626 313.922 59.6346 314.114C60.0066 314.306 60.5706 314.51 61.3266 314.726C62.0346 314.918 62.6526 315.11 63.1806 315.302C63.7086 315.494 64.1166 315.752 64.4046 316.076C64.6926 316.388 64.8366 316.826 64.8366 317.39C64.8366 318.266 64.5066 318.95 63.8466 319.442C63.1866 319.934 62.3166 320.18 61.2366 320.18ZM66.1038 317.3C66.1038 316.724 66.2718 316.226 66.6078 315.806C66.9438 315.374 67.4058 315.038 67.9938 314.798C68.5938 314.558 69.2838 314.438 70.0638 314.438C70.5198 314.438 70.9938 314.48 71.4858 314.564C71.9778 314.636 72.4158 314.738 72.7998 314.87V314.078C72.7998 313.286 72.5658 312.656 72.0978 312.188C71.6298 311.72 70.9818 311.486 70.1538 311.486C69.6618 311.486 69.1698 311.582 68.6778 311.774C68.1858 311.954 67.6758 312.224 67.1478 312.584L66.6798 311.72C67.2918 311.3 67.8918 310.988 68.4798 310.784C69.0678 310.568 69.6678 310.46 70.2798 310.46C71.4318 310.46 72.3438 310.79 73.0158 311.45C73.6878 312.11 74.0238 313.022 74.0238 314.186V318.524C74.0238 318.848 74.1738 319.016 74.4738 319.028V320C74.2098 320.036 74.0238 320.048 73.9158 320.036C73.6158 320.024 73.3878 319.928 73.2318 319.748C73.0758 319.568 72.9918 319.376 72.9798 319.172L72.9618 318.488C72.5418 319.028 71.9958 319.448 71.3238 319.748C70.6518 320.036 69.9678 320.18 69.2718 320.18C68.6598 320.18 68.1138 320.054 67.6338 319.802C67.1538 319.538 66.7758 319.19 66.4998 318.758C66.2358 318.314 66.1038 317.828 66.1038 317.3ZM72.3858 318.02C72.6618 317.696 72.7998 317.396 72.7998 317.12V315.752C71.9718 315.428 71.1078 315.266 70.2078 315.266C69.3318 315.266 68.6238 315.44 68.0838 315.788C67.5438 316.136 67.2738 316.61 67.2738 317.21C67.2738 317.726 67.4718 318.194 67.8678 318.614C68.2758 319.034 68.8398 319.244 69.5598 319.244C70.1478 319.244 70.6938 319.13 71.1978 318.902C71.7138 318.674 72.1098 318.38 72.3858 318.02Z" fill="black"/>
<defs>
<clipPath id="clip0">
<rect width="242" height="170" fill="white" transform="translate(16)"/>
</clipPath>
</defs>
</svg>
