<svg width="285" height="341" viewBox="0 0 285 341" fill="none" xmlns="http://www.w3.org/2000/svg">
<path d="M3.01937 230V212.96H8.92337C10.7474 212.96 12.2674 213.344 13.4834 214.112C14.7154 214.864 15.6354 215.888 16.2434 217.184C16.8514 218.464 17.1554 219.888 17.1554 221.456C17.1554 223.184 16.8194 224.688 16.1474 225.968C15.4754 227.248 14.5234 228.24 13.2914 228.944C12.0594 229.648 10.6034 230 8.92337 230H3.01937ZM14.9714 221.456C14.9714 220.176 14.7314 219.04 14.2514 218.048C13.7874 217.056 13.1074 216.28 12.2114 215.72C11.3154 215.16 10.2194 214.88 8.92337 214.88H5.17937V228.08H8.92337C10.2354 228.08 11.3394 227.792 12.2354 227.216C13.1314 226.624 13.8114 225.832 14.2754 224.84C14.7394 223.832 14.9714 222.704 14.9714 221.456ZM25.4071 230.24C24.1591 230.24 23.0551 229.944 22.0951 229.352C21.1351 228.76 20.3831 227.968 19.8391 226.976C19.2951 225.984 19.0231 224.904 19.0231 223.736C19.0231 222.552 19.2951 221.472 19.8391 220.496C20.3831 219.52 21.1351 218.736 22.0951 218.144C23.0711 217.552 24.1831 217.256 25.4311 217.256C26.6951 217.256 27.7911 217.56 28.7191 218.168C29.6631 218.76 30.3911 219.544 30.9031 220.52C31.4311 221.48 31.6951 222.52 31.6951 223.64C31.6951 223.992 31.6791 224.264 31.6471 224.456H21.2551C21.3191 225.272 21.5431 226 21.9271 226.64C22.3271 227.264 22.8391 227.76 23.4631 228.128C24.0871 228.48 24.7591 228.656 25.4791 228.656C26.2471 228.656 26.9671 228.464 27.6391 228.08C28.3271 227.696 28.7991 227.192 29.0551 226.568L30.8791 227.072C30.4791 228 29.7831 228.76 28.7911 229.352C27.7991 229.944 26.6711 230.24 25.4071 230.24ZM21.1831 222.992H29.7271C29.6631 222.176 29.4311 221.456 29.0311 220.832C28.6311 220.208 28.1191 219.72 27.4951 219.368C26.8711 219.016 26.1831 218.84 25.4311 218.84C24.6951 218.84 24.0151 219.016 23.3911 219.368C22.7671 219.72 22.2551 220.208 21.8551 220.832C21.4711 221.456 21.2471 222.176 21.1831 222.992ZM38.3387 230.24C37.2987 230.24 36.3227 230.072 35.4107 229.736C34.4987 229.384 33.7147 228.864 33.0587 228.176L33.8747 226.688C34.5947 227.36 35.3147 227.84 36.0347 228.128C36.7547 228.416 37.4907 228.56 38.2427 228.56C39.1067 228.56 39.8107 228.4 40.3547 228.08C40.8987 227.744 41.1707 227.256 41.1707 226.616C41.1707 226.152 41.0267 225.808 40.7387 225.584C40.4667 225.36 40.0747 225.176 39.5627 225.032C39.0507 224.872 38.4427 224.696 37.7387 224.504C36.4427 224.136 35.4507 223.704 34.7627 223.208C34.0907 222.696 33.7547 221.952 33.7547 220.976C33.7547 219.792 34.2027 218.88 35.0987 218.24C36.0107 217.584 37.1707 217.256 38.5787 217.256C40.4667 217.256 41.9547 217.824 43.0427 218.96L42.0827 220.424C41.1067 219.416 39.8987 218.912 38.4587 218.912C38.0267 218.912 37.6027 218.968 37.1867 219.08C36.7707 219.176 36.4267 219.36 36.1547 219.632C35.8827 219.888 35.7467 220.256 35.7467 220.736C35.7467 221.328 35.9867 221.752 36.4667 222.008C36.9467 222.264 37.6507 222.528 38.5787 222.8C39.5227 223.072 40.3387 223.344 41.0267 223.616C41.7307 223.888 42.2747 224.24 42.6587 224.672C43.0427 225.104 43.2347 225.704 43.2347 226.472C43.2347 227.656 42.7867 228.584 41.8907 229.256C40.9947 229.912 39.8107 230.24 38.3387 230.24ZM44.7775 226.376C44.7775 225.576 45.0015 224.888 45.4495 224.312C45.9135 223.72 46.5455 223.264 47.3455 222.944C48.1455 222.624 49.0735 222.464 50.1295 222.464C50.6895 222.464 51.2815 222.512 51.9055 222.608C52.5295 222.688 53.0815 222.816 53.5615 222.992V222.08C53.5615 221.12 53.2735 220.368 52.6975 219.824C52.1215 219.264 51.3055 218.984 50.2495 218.984C49.5615 218.984 48.8975 219.112 48.2575 219.368C47.6335 219.608 46.9695 219.96 46.2655 220.424L45.4975 218.936C46.3135 218.376 47.1295 217.96 47.9455 217.688C48.7615 217.4 49.6095 217.256 50.4895 217.256C52.0895 217.256 53.3535 217.704 54.2815 218.6C55.2095 219.48 55.6735 220.712 55.6735 222.296V227.6C55.6735 228.096 55.8975 228.352 56.3455 228.368V230C56.1375 230.032 55.9535 230.056 55.7935 230.072C55.6495 230.088 55.5295 230.096 55.4335 230.096C54.9375 230.096 54.5615 229.96 54.3055 229.688C54.0655 229.416 53.9295 229.128 53.8975 228.824L53.8495 228.032C53.3055 228.736 52.5935 229.28 51.7135 229.664C50.8335 230.048 49.9615 230.24 49.0975 230.24C48.2655 230.24 47.5215 230.072 46.8655 229.736C46.2095 229.384 45.6975 228.92 45.3295 228.344C44.9615 227.752 44.7775 227.096 44.7775 226.376ZM52.9375 227.264C53.1295 227.04 53.2815 226.816 53.3935 226.592C53.5055 226.352 53.5615 226.152 53.5615 225.992V224.432C52.5375 224.032 51.4815 223.832 50.3935 223.832C49.3215 223.832 48.4495 224.048 47.7775 224.48C47.1215 224.896 46.7935 225.472 46.7935 226.208C46.7935 226.608 46.8975 227 47.1055 227.384C47.3295 227.752 47.6495 228.056 48.0655 228.296C48.4975 228.536 49.0255 228.656 49.6495 228.656C50.3055 228.656 50.9295 228.528 51.5215 228.272C52.1135 228 52.5855 227.664 52.9375 227.264ZM65.6746 219.32C64.6186 219.336 63.6826 219.608 62.8666 220.136C62.0666 220.648 61.4986 221.36 61.1626 222.272V230H59.0506V217.472H61.0186V220.376C61.4506 219.512 62.0186 218.816 62.7226 218.288C63.4426 217.744 64.1946 217.44 64.9786 217.376C65.1386 217.376 65.2746 217.376 65.3866 217.376C65.4986 217.376 65.5946 217.384 65.6746 217.4V219.32ZM74.3933 219.32C73.3373 219.336 72.4013 219.608 71.5853 220.136C70.7853 220.648 70.2173 221.36 69.8813 222.272V230H67.7693V217.472H69.7373V220.376C70.1693 219.512 70.7373 218.816 71.4413 218.288C72.1613 217.744 72.9133 217.44 73.6973 217.376C73.8573 217.376 73.9933 217.376 74.1053 217.376C74.2173 217.376 74.3133 217.384 74.3933 217.4V219.32ZM81.6788 230.24C80.4308 230.24 79.3268 229.944 78.3668 229.352C77.4228 228.744 76.6868 227.952 76.1588 226.976C75.6308 225.984 75.3668 224.912 75.3668 223.76C75.3668 222.592 75.6308 221.52 76.1588 220.544C76.7028 219.552 77.4468 218.76 78.3908 218.168C79.3508 217.56 80.4468 217.256 81.6788 217.256C82.9268 217.256 84.0228 217.56 84.9668 218.168C85.9268 218.76 86.6708 219.552 87.1988 220.544C87.7428 221.52 88.0148 222.592 88.0148 223.76C88.0148 224.912 87.7428 225.984 87.1988 226.976C86.6708 227.952 85.9348 228.744 84.9908 229.352C84.0468 229.944 82.9428 230.24 81.6788 230.24ZM77.5268 223.784C77.5268 224.648 77.7108 225.432 78.0788 226.136C78.4628 226.84 78.9668 227.4 79.5908 227.816C80.2148 228.216 80.9108 228.416 81.6788 228.416C82.4468 228.416 83.1428 228.208 83.7668 227.792C84.4068 227.376 84.9108 226.816 85.2788 226.112C85.6628 225.392 85.8548 224.6 85.8548 223.736C85.8548 222.872 85.6628 222.088 85.2788 221.384C84.9108 220.68 84.4068 220.12 83.7668 219.704C83.1428 219.288 82.4468 219.08 81.6788 219.08C80.9108 219.08 80.2148 219.296 79.5908 219.728C78.9668 220.144 78.4628 220.704 78.0788 221.408C77.7108 222.112 77.5268 222.904 77.5268 223.784ZM90.622 212.48H92.734V226.76C92.734 227.448 92.83 227.872 93.022 228.032C93.214 228.192 93.446 228.272 93.718 228.272C94.054 228.272 94.374 228.24 94.678 228.176C94.982 228.096 95.238 228.016 95.446 227.936L95.782 229.664C95.43 229.808 95.014 229.928 94.534 230.024C94.054 230.12 93.63 230.168 93.262 230.168C92.446 230.168 91.798 229.936 91.318 229.472C90.854 229.008 90.622 228.36 90.622 227.528V212.48ZM97.4892 212.48H99.6012V226.76C99.6012 227.448 99.6972 227.872 99.8892 228.032C100.081 228.192 100.313 228.272 100.585 228.272C100.921 228.272 101.241 228.24 101.545 228.176C101.849 228.096 102.105 228.016 102.313 227.936L102.649 229.664C102.297 229.808 101.881 229.928 101.401 230.024C100.921 230.12 100.497 230.168 100.129 230.168C99.3132 230.168 98.6652 229.936 98.1852 229.472C97.7212 229.008 97.4892 228.36 97.4892 227.528V212.48ZM109.78 230.24C108.532 230.24 107.428 229.944 106.468 229.352C105.524 228.744 104.788 227.952 104.26 226.976C103.732 225.984 103.468 224.912 103.468 223.76C103.468 222.592 103.732 221.52 104.26 220.544C104.804 219.552 105.548 218.76 106.492 218.168C107.452 217.56 108.548 217.256 109.78 217.256C111.028 217.256 112.124 217.56 113.068 218.168C114.028 218.76 114.772 219.552 115.3 220.544C115.844 221.52 116.116 222.592 116.116 223.76C116.116 224.912 115.844 225.984 115.3 226.976C114.772 227.952 114.036 228.744 113.092 229.352C112.148 229.944 111.044 230.24 109.78 230.24ZM105.628 223.784C105.628 224.648 105.812 225.432 106.18 226.136C106.564 226.84 107.068 227.4 107.692 227.816C108.316 228.216 109.012 228.416 109.78 228.416C110.548 228.416 111.244 228.208 111.868 227.792C112.508 227.376 113.012 226.816 113.38 226.112C113.764 225.392 113.956 224.6 113.956 223.736C113.956 222.872 113.764 222.088 113.38 221.384C113.012 220.68 112.508 220.12 111.868 219.704C111.244 219.288 110.548 219.08 109.78 219.08C109.012 219.08 108.316 219.296 107.692 219.728C107.068 220.144 106.564 220.704 106.18 221.408C105.812 222.112 105.628 222.904 105.628 223.784ZM139.818 230V216.992L134.202 227H132.882L127.242 216.992V230H125.082V212.96H127.362L133.53 224.024L139.722 212.96H141.978V230H139.818ZM150.983 230.24C149.735 230.24 148.631 229.944 147.671 229.352C146.727 228.744 145.991 227.952 145.463 226.976C144.935 225.984 144.671 224.912 144.671 223.76C144.671 222.592 144.935 221.52 145.463 220.544C146.007 219.552 146.751 218.76 147.695 218.168C148.655 217.56 149.751 217.256 150.983 217.256C152.231 217.256 153.327 217.56 154.271 218.168C155.231 218.76 155.975 219.552 156.503 220.544C157.047 221.52 157.319 222.592 157.319 223.76C157.319 224.912 157.047 225.984 156.503 226.976C155.975 227.952 155.239 228.744 154.295 229.352C153.351 229.944 152.247 230.24 150.983 230.24ZM146.831 223.784C146.831 224.648 147.015 225.432 147.383 226.136C147.767 226.84 148.271 227.4 148.895 227.816C149.519 228.216 150.215 228.416 150.983 228.416C151.751 228.416 152.447 228.208 153.071 227.792C153.711 227.376 154.215 226.816 154.583 226.112C154.967 225.392 155.159 224.6 155.159 223.736C155.159 222.872 154.967 222.088 154.583 221.384C154.215 220.68 153.711 220.12 153.071 219.704C152.447 219.288 151.751 219.08 150.983 219.08C150.215 219.08 149.519 219.296 148.895 219.728C148.271 220.144 147.767 220.704 147.383 221.408C147.015 222.112 146.831 222.904 146.831 223.784ZM163.057 230L158.137 217.472H160.345L164.281 227.984L168.217 217.472H170.281L165.361 230H163.057ZM172.394 215.12V212.48H174.506V215.12H172.394ZM172.394 230V217.472H174.506V230H172.394ZM177.974 212.48H180.086V226.76C180.086 227.448 180.182 227.872 180.374 228.032C180.566 228.192 180.798 228.272 181.07 228.272C181.406 228.272 181.726 228.24 182.03 228.176C182.334 228.096 182.59 228.016 182.798 227.936L183.134 229.664C182.782 229.808 182.366 229.928 181.886 230.024C181.406 230.12 180.982 230.168 180.614 230.168C179.798 230.168 179.15 229.936 178.67 229.472C178.206 229.008 177.974 228.36 177.974 227.528V212.48Z" fill="black"/>
<path d="M0.756 251.52C0.756 250.752 0.888 249.99 1.152 249.234C1.428 248.478 1.824 247.794 2.34 247.182C2.856 246.558 3.492 246.066 4.248 245.706C5.004 245.334 5.862 245.148 6.822 245.148C7.95 245.148 8.922 245.412 9.738 245.94C10.554 246.456 11.154 247.122 11.538 247.938L10.548 248.55C10.272 247.986 9.924 247.542 9.504 247.218C9.084 246.882 8.634 246.642 8.154 246.498C7.686 246.354 7.218 246.282 6.75 246.282C5.982 246.282 5.304 246.438 4.716 246.75C4.128 247.05 3.63 247.458 3.222 247.974C2.826 248.49 2.526 249.06 2.322 249.684C2.118 250.308 2.016 250.944 2.016 251.592C2.016 252.3 2.136 252.978 2.376 253.626C2.616 254.262 2.952 254.832 3.384 255.336C3.816 255.84 4.32 256.242 4.896 256.542C5.484 256.83 6.12 256.974 6.804 256.974C7.284 256.974 7.776 256.89 8.28 256.722C8.784 256.554 9.252 256.296 9.684 255.948C10.116 255.6 10.47 255.15 10.746 254.598L11.79 255.138C11.514 255.774 11.1 256.314 10.548 256.758C10.008 257.202 9.396 257.538 8.712 257.766C8.04 257.994 7.38 258.108 6.732 258.108C5.856 258.108 5.052 257.922 4.32 257.55C3.588 257.166 2.952 256.662 2.412 256.038C1.884 255.402 1.476 254.694 1.188 253.914C0.9 253.122 0.756 252.324 0.756 251.52ZM18.3698 249.702C17.5538 249.726 16.8338 249.954 16.2098 250.386C15.5978 250.818 15.1658 251.412 14.9138 252.168V258H13.6898V248.622H14.8418V250.872C15.1658 250.212 15.5918 249.678 16.1198 249.27C16.6598 248.862 17.2298 248.634 17.8298 248.586C17.9498 248.574 18.0518 248.568 18.1358 248.568C18.2198 248.568 18.2978 248.574 18.3698 248.586V249.702ZM23.7691 258.18C22.8691 258.18 22.0651 257.958 21.3571 257.514C20.6491 257.07 20.0911 256.476 19.6831 255.732C19.2751 254.988 19.0711 254.172 19.0711 253.284C19.0711 252.408 19.2691 251.604 19.6651 250.872C20.0731 250.14 20.6311 249.558 21.3391 249.126C22.0471 248.682 22.8511 248.46 23.7511 248.46C24.6751 248.46 25.4851 248.682 26.1811 249.126C26.8771 249.57 27.4171 250.158 27.8011 250.89C28.1971 251.61 28.3951 252.402 28.3951 253.266C28.3951 253.458 28.3891 253.62 28.3771 253.752H20.3491C20.4091 254.424 20.6011 255.024 20.9251 255.552C21.2491 256.068 21.6631 256.482 22.1671 256.794C22.6711 257.094 23.2231 257.244 23.8231 257.244C24.4351 257.244 25.0111 257.088 25.5511 256.776C26.0911 256.464 26.4751 256.056 26.7031 255.552L27.7651 255.84C27.5731 256.296 27.2731 256.704 26.8651 257.064C26.4691 257.412 26.0071 257.688 25.4791 257.892C24.9511 258.084 24.3811 258.18 23.7691 258.18ZM20.3131 252.87H27.2431C27.1951 252.198 27.0091 251.604 26.6851 251.088C26.3611 250.56 25.9471 250.152 25.4431 249.864C24.9391 249.564 24.3811 249.414 23.7691 249.414C23.1571 249.414 22.5991 249.564 22.0951 249.864C21.5911 250.152 21.1771 250.56 20.8531 251.088C20.5411 251.604 20.3611 252.198 20.3131 252.87ZM29.5276 255.3C29.5276 254.724 29.6956 254.226 30.0316 253.806C30.3676 253.374 30.8296 253.038 31.4176 252.798C32.0176 252.558 32.7076 252.438 33.4876 252.438C33.9436 252.438 34.4176 252.48 34.9096 252.564C35.4016 252.636 35.8396 252.738 36.2236 252.87V252.078C36.2236 251.286 35.9896 250.656 35.5216 250.188C35.0536 249.72 34.4056 249.486 33.5776 249.486C33.0856 249.486 32.5936 249.582 32.1016 249.774C31.6096 249.954 31.0996 250.224 30.5716 250.584L30.1036 249.72C30.7156 249.3 31.3156 248.988 31.9036 248.784C32.4916 248.568 33.0916 248.46 33.7036 248.46C34.8556 248.46 35.7676 248.79 36.4396 249.45C37.1116 250.11 37.4476 251.022 37.4476 252.186V256.524C37.4476 256.848 37.5976 257.016 37.8976 257.028V258C37.6336 258.036 37.4476 258.048 37.3396 258.036C37.0396 258.024 36.8116 257.928 36.6556 257.748C36.4996 257.568 36.4156 257.376 36.4036 257.172L36.3856 256.488C35.9656 257.028 35.4196 257.448 34.7476 257.748C34.0756 258.036 33.3916 258.18 32.6956 258.18C32.0836 258.18 31.5376 258.054 31.0576 257.802C30.5776 257.538 30.1996 257.19 29.9236 256.758C29.6596 256.314 29.5276 255.828 29.5276 255.3ZM35.8096 256.02C36.0856 255.696 36.2236 255.396 36.2236 255.12V253.752C35.3956 253.428 34.5316 253.266 33.6316 253.266C32.7556 253.266 32.0476 253.44 31.5076 253.788C30.9676 254.136 30.6976 254.61 30.6976 255.21C30.6976 255.726 30.8956 256.194 31.2916 256.614C31.6996 257.034 32.2636 257.244 32.9836 257.244C33.5716 257.244 34.1176 257.13 34.6216 256.902C35.1376 256.674 35.5336 256.38 35.8096 256.02ZM54.0422 258H52.8182V252.762C52.8182 251.682 52.6442 250.884 52.2962 250.368C51.9482 249.84 51.4322 249.576 50.7482 249.576C50.0282 249.576 49.3922 249.828 48.8402 250.332C48.2882 250.836 47.8982 251.484 47.6702 252.276V258H46.4462V252.762C46.4462 251.658 46.2722 250.854 45.9242 250.35C45.5882 249.834 45.0782 249.576 44.3942 249.576C43.6862 249.576 43.0502 249.822 42.4862 250.314C41.9342 250.806 41.5442 251.454 41.3162 252.258V258H40.0922V248.622H41.2082V250.746C41.5922 250.026 42.0962 249.468 42.7202 249.072C43.3442 248.664 44.0342 248.46 44.7902 248.46C45.5702 248.46 46.2002 248.688 46.6802 249.144C47.1602 249.588 47.4542 250.164 47.5622 250.872C48.4262 249.264 49.6322 248.46 51.1802 248.46C52.2362 248.46 52.9742 248.832 53.3942 249.576C53.8262 250.308 54.0422 251.286 54.0422 252.51V258ZM60.6292 258.18C59.7292 258.18 58.9252 257.958 58.2172 257.514C57.5212 257.07 56.9752 256.482 56.5792 255.75C56.1832 255.006 55.9852 254.202 55.9852 253.338C55.9852 252.462 56.1832 251.658 56.5792 250.926C56.9872 250.182 57.5392 249.588 58.2352 249.144C58.9432 248.688 59.7412 248.46 60.6292 248.46C61.5292 248.46 62.3272 248.688 63.0232 249.144C63.7312 249.588 64.2832 250.182 64.6792 250.926C65.0872 251.658 65.2912 252.462 65.2912 253.338C65.2912 254.202 65.0932 255.006 64.6972 255.75C64.3012 256.482 63.7492 257.07 63.0412 257.514C62.3452 257.958 61.5412 258.18 60.6292 258.18ZM57.2272 253.356C57.2272 254.052 57.3772 254.688 57.6772 255.264C57.9892 255.828 58.4032 256.278 58.9192 256.614C59.4352 256.938 60.0052 257.1 60.6292 257.1C61.2532 257.1 61.8232 256.932 62.3392 256.596C62.8552 256.26 63.2692 255.804 63.5812 255.228C63.8932 254.652 64.0492 254.016 64.0492 253.32C64.0492 252.624 63.8932 251.988 63.5812 251.412C63.2692 250.836 62.8552 250.38 62.3392 250.044C61.8232 249.708 61.2532 249.54 60.6292 249.54C60.0172 249.54 59.4532 249.714 58.9372 250.062C58.4212 250.398 58.0072 250.854 57.6952 251.43C57.3832 252.006 57.2272 252.648 57.2272 253.356ZM70.4163 258.18C69.6483 258.18 68.9343 258.054 68.2743 257.802C67.6263 257.538 67.0563 257.154 66.5643 256.65L67.0683 255.786C67.5963 256.278 68.1243 256.638 68.6523 256.866C69.1923 257.082 69.7623 257.19 70.3623 257.19C71.0823 257.19 71.6703 257.046 72.1263 256.758C72.5943 256.458 72.8283 256.032 72.8283 255.48C72.8283 255.108 72.7143 254.826 72.4863 254.634C72.2703 254.43 71.9523 254.268 71.5323 254.148C71.1243 254.028 70.6323 253.89 70.0563 253.734C69.4083 253.554 68.8623 253.368 68.4183 253.176C67.9863 252.972 67.6563 252.72 67.4283 252.42C67.2123 252.108 67.1043 251.706 67.1043 251.214C67.1043 250.614 67.2543 250.11 67.5543 249.702C67.8663 249.294 68.2863 248.988 68.8143 248.784C69.3543 248.568 69.9543 248.46 70.6143 248.46C71.3343 248.46 71.9703 248.574 72.5223 248.802C73.0743 249.03 73.5243 249.348 73.8723 249.756L73.2783 250.584C72.9543 250.2 72.5523 249.918 72.0723 249.738C71.6043 249.546 71.0943 249.45 70.5423 249.45C70.1583 249.45 69.7923 249.504 69.4443 249.612C69.0963 249.708 68.8083 249.876 68.5803 250.116C68.3643 250.344 68.2563 250.662 68.2563 251.07C68.2563 251.574 68.4423 251.922 68.8143 252.114C69.1863 252.306 69.7503 252.51 70.5063 252.726C71.2143 252.918 71.8323 253.11 72.3603 253.302C72.8883 253.494 73.2963 253.752 73.5843 254.076C73.8723 254.388 74.0163 254.826 74.0163 255.39C74.0163 256.266 73.6863 256.95 73.0263 257.442C72.3663 257.934 71.4963 258.18 70.4163 258.18ZM80.5373 254.13V248.622H81.7613V253.914C81.7613 256.038 82.4873 257.1 83.9393 257.1C84.6593 257.1 85.3313 256.866 85.9553 256.398C86.5913 255.93 87.0473 255.306 87.3233 254.526V248.622H88.5473V256.524C88.5473 256.848 88.6913 257.016 88.9793 257.028V258C88.8353 258.024 88.7213 258.036 88.6373 258.036C88.5653 258.036 88.4873 258.036 88.4033 258.036C88.1513 258.012 87.9353 257.916 87.7553 257.748C87.5873 257.58 87.5033 257.376 87.5033 257.136L87.4673 255.876C87.0593 256.608 86.5013 257.178 85.7933 257.586C85.0973 257.982 84.3413 258.18 83.5253 258.18C81.5333 258.18 80.5373 256.83 80.5373 254.13ZM99.1988 258H97.9748V252.762C97.9748 251.658 97.8068 250.854 97.4708 250.35C97.1468 249.834 96.6428 249.576 95.9588 249.576C95.4788 249.576 95.0048 249.696 94.5368 249.936C94.0688 250.164 93.6548 250.482 93.2948 250.89C92.9468 251.286 92.6948 251.742 92.5388 252.258V258H91.3148V248.622H92.4308V250.746C92.8028 250.062 93.3488 249.51 94.0688 249.09C94.7888 248.67 95.5688 248.46 96.4088 248.46C97.1048 248.46 97.6568 248.628 98.0648 248.964C98.4728 249.288 98.7608 249.756 98.9288 250.368C99.1088 250.968 99.1988 251.682 99.1988 252.51V258ZM101.053 255.3C101.053 254.724 101.221 254.226 101.557 253.806C101.893 253.374 102.355 253.038 102.943 252.798C103.543 252.558 104.233 252.438 105.013 252.438C105.469 252.438 105.943 252.48 106.435 252.564C106.927 252.636 107.365 252.738 107.749 252.87V252.078C107.749 251.286 107.515 250.656 107.047 250.188C106.579 249.72 105.931 249.486 105.103 249.486C104.611 249.486 104.119 249.582 103.627 249.774C103.135 249.954 102.625 250.224 102.097 250.584L101.629 249.72C102.241 249.3 102.841 248.988 103.429 248.784C104.017 248.568 104.617 248.46 105.229 248.46C106.381 248.46 107.293 248.79 107.965 249.45C108.637 250.11 108.973 251.022 108.973 252.186V256.524C108.973 256.848 109.123 257.016 109.423 257.028V258C109.159 258.036 108.973 258.048 108.865 258.036C108.565 258.024 108.337 257.928 108.181 257.748C108.025 257.568 107.941 257.376 107.929 257.172L107.911 256.488C107.491 257.028 106.945 257.448 106.273 257.748C105.601 258.036 104.917 258.18 104.221 258.18C103.609 258.18 103.063 258.054 102.583 257.802C102.103 257.538 101.725 257.19 101.449 256.758C101.185 256.314 101.053 255.828 101.053 255.3ZM107.335 256.02C107.611 255.696 107.749 255.396 107.749 255.12V253.752C106.921 253.428 106.057 253.266 105.157 253.266C104.281 253.266 103.573 253.44 103.033 253.788C102.493 254.136 102.223 254.61 102.223 255.21C102.223 255.726 102.421 256.194 102.817 256.614C103.225 257.034 103.789 257.244 104.509 257.244C105.097 257.244 105.643 257.13 106.147 256.902C106.663 256.674 107.059 256.38 107.335 256.02ZM119.855 245.22H120.917L126.227 258H124.895L123.239 254.004H117.497L115.859 258H114.509L119.855 245.22ZM122.951 253.014L120.377 246.696L117.767 253.014H122.951ZM132.595 258.18C131.815 258.18 131.113 257.976 130.489 257.568C129.877 257.16 129.391 256.656 129.031 256.056V261.834H127.807V248.622H128.905V250.44C129.277 249.852 129.769 249.378 130.381 249.018C131.005 248.646 131.677 248.46 132.397 248.46C133.045 248.46 133.639 248.598 134.179 248.874C134.719 249.138 135.187 249.498 135.583 249.954C135.991 250.41 136.303 250.932 136.519 251.52C136.735 252.096 136.843 252.696 136.843 253.32C136.843 254.196 136.663 255.006 136.303 255.75C135.955 256.482 135.457 257.07 134.809 257.514C134.173 257.958 133.435 258.18 132.595 258.18ZM132.253 257.1C132.937 257.1 133.525 256.92 134.017 256.56C134.521 256.188 134.911 255.714 135.187 255.138C135.463 254.562 135.601 253.956 135.601 253.32C135.601 252.648 135.445 252.024 135.133 251.448C134.821 250.872 134.401 250.41 133.873 250.062C133.357 249.714 132.769 249.54 132.109 249.54C131.701 249.54 131.269 249.648 130.813 249.864C130.369 250.068 129.973 250.35 129.625 250.71C129.289 251.058 129.091 251.442 129.031 251.862V254.742C129.307 255.402 129.739 255.96 130.327 256.416C130.915 256.872 131.557 257.1 132.253 257.1ZM143.704 258.18C142.924 258.18 142.222 257.976 141.598 257.568C140.986 257.16 140.5 256.656 140.14 256.056V261.834H138.916V248.622H140.014V250.44C140.386 249.852 140.878 249.378 141.49 249.018C142.114 248.646 142.786 248.46 143.506 248.46C144.154 248.46 144.748 248.598 145.288 248.874C145.828 249.138 146.296 249.498 146.692 249.954C147.1 250.41 147.412 250.932 147.628 251.52C147.844 252.096 147.952 252.696 147.952 253.32C147.952 254.196 147.772 255.006 147.412 255.75C147.064 256.482 146.566 257.07 145.918 257.514C145.282 257.958 144.544 258.18 143.704 258.18ZM143.362 257.1C144.046 257.1 144.634 256.92 145.126 256.56C145.63 256.188 146.02 255.714 146.296 255.138C146.572 254.562 146.71 253.956 146.71 253.32C146.71 252.648 146.554 252.024 146.242 251.448C145.93 250.872 145.51 250.41 144.982 250.062C144.466 249.714 143.878 249.54 143.218 249.54C142.81 249.54 142.378 249.648 141.922 249.864C141.478 250.068 141.082 250.35 140.734 250.71C140.398 251.058 140.2 251.442 140.14 251.862V254.742C140.416 255.402 140.848 255.96 141.436 256.416C142.024 256.872 142.666 257.1 143.362 257.1ZM158.682 258.18C157.77 258.18 156.96 257.958 156.252 257.514C155.544 257.058 154.986 256.464 154.578 255.732C154.17 254.988 153.966 254.172 153.966 253.284C153.966 252.396 154.164 251.592 154.56 250.872C154.956 250.14 155.508 249.558 156.216 249.126C156.924 248.682 157.74 248.46 158.664 248.46C159.54 248.46 160.308 248.664 160.968 249.072C161.64 249.468 162.144 250.008 162.48 250.692L161.292 251.07C161.028 250.59 160.656 250.218 160.176 249.954C159.708 249.678 159.186 249.54 158.61 249.54C157.974 249.54 157.398 249.702 156.882 250.026C156.378 250.35 155.97 250.8 155.658 251.376C155.358 251.94 155.208 252.576 155.208 253.284C155.208 253.992 155.364 254.634 155.676 255.21C155.988 255.786 156.402 256.248 156.918 256.596C157.434 256.932 158.004 257.1 158.628 257.1C159.036 257.1 159.432 257.028 159.816 256.884C160.2 256.74 160.53 256.548 160.806 256.308C161.082 256.056 161.268 255.786 161.364 255.498L162.57 255.858C162.402 256.302 162.126 256.704 161.742 257.064C161.358 257.412 160.902 257.688 160.374 257.892C159.846 258.084 159.282 258.18 158.682 258.18ZM168.401 258.18C167.501 258.18 166.697 257.958 165.989 257.514C165.293 257.07 164.747 256.482 164.351 255.75C163.955 255.006 163.757 254.202 163.757 253.338C163.757 252.462 163.955 251.658 164.351 250.926C164.759 250.182 165.311 249.588 166.007 249.144C166.715 248.688 167.513 248.46 168.401 248.46C169.301 248.46 170.099 248.688 170.795 249.144C171.503 249.588 172.055 250.182 172.451 250.926C172.859 251.658 173.063 252.462 173.063 253.338C173.063 254.202 172.865 255.006 172.469 255.75C172.073 256.482 171.521 257.07 170.813 257.514C170.117 257.958 169.313 258.18 168.401 258.18ZM164.999 253.356C164.999 254.052 165.149 254.688 165.449 255.264C165.761 255.828 166.175 256.278 166.691 256.614C167.207 256.938 167.777 257.1 168.401 257.1C169.025 257.1 169.595 256.932 170.111 256.596C170.627 256.26 171.041 255.804 171.353 255.228C171.665 254.652 171.821 254.016 171.821 253.32C171.821 252.624 171.665 251.988 171.353 251.412C171.041 250.836 170.627 250.38 170.111 250.044C169.595 249.708 169.025 249.54 168.401 249.54C167.789 249.54 167.225 249.714 166.709 250.062C166.193 250.398 165.779 250.854 165.467 251.43C165.155 252.006 164.999 252.648 164.999 253.356ZM182.994 258H181.77V252.762C181.77 251.658 181.602 250.854 181.266 250.35C180.942 249.834 180.438 249.576 179.754 249.576C179.274 249.576 178.8 249.696 178.332 249.936C177.864 250.164 177.45 250.482 177.09 250.89C176.742 251.286 176.49 251.742 176.334 252.258V258H175.11V248.622H176.226V250.746C176.598 250.062 177.144 249.51 177.864 249.09C178.584 248.67 179.364 248.46 180.204 248.46C180.9 248.46 181.452 248.628 181.86 248.964C182.268 249.288 182.556 249.756 182.724 250.368C182.904 250.968 182.994 251.682 182.994 252.51V258ZM190.102 254.13V248.622H191.326V253.914C191.326 256.038 192.052 257.1 193.504 257.1C194.224 257.1 194.896 256.866 195.52 256.398C196.156 255.93 196.612 255.306 196.888 254.526V248.622H198.112V256.524C198.112 256.848 198.256 257.016 198.544 257.028V258C198.4 258.024 198.286 258.036 198.202 258.036C198.13 258.036 198.052 258.036 197.968 258.036C197.716 258.012 197.5 257.916 197.32 257.748C197.152 257.58 197.068 257.376 197.068 257.136L197.032 255.876C196.624 256.608 196.066 257.178 195.358 257.586C194.662 257.982 193.906 258.18 193.09 258.18C191.098 258.18 190.102 256.83 190.102 254.13ZM208.763 258H207.539V252.762C207.539 251.658 207.371 250.854 207.035 250.35C206.711 249.834 206.207 249.576 205.523 249.576C205.043 249.576 204.569 249.696 204.101 249.936C203.633 250.164 203.219 250.482 202.859 250.89C202.511 251.286 202.259 251.742 202.103 252.258V258H200.879V248.622H201.995V250.746C202.367 250.062 202.913 249.51 203.633 249.09C204.353 248.67 205.133 248.46 205.973 248.46C206.669 248.46 207.221 248.628 207.629 248.964C208.037 249.288 208.325 249.756 208.493 250.368C208.673 250.968 208.763 251.682 208.763 252.51V258ZM215.331 253.338C215.331 252.45 215.511 251.64 215.871 250.908C216.243 250.164 216.753 249.57 217.401 249.126C218.049 248.682 218.787 248.46 219.615 248.46C220.395 248.46 221.091 248.67 221.703 249.09C222.327 249.498 222.813 249.996 223.161 250.584V244.86H224.385V256.524C224.385 256.848 224.529 257.016 224.817 257.028V258C224.577 258.036 224.391 258.048 224.259 258.036C223.995 258.024 223.767 257.928 223.575 257.748C223.395 257.556 223.305 257.34 223.305 257.1V256.182C222.933 256.794 222.429 257.28 221.793 257.64C221.157 258 220.497 258.18 219.813 258.18C219.165 258.18 218.565 258.048 218.013 257.784C217.461 257.52 216.981 257.16 216.573 256.704C216.177 256.248 215.871 255.732 215.655 255.156C215.439 254.568 215.331 253.962 215.331 253.338ZM223.161 254.778V251.88C223.005 251.448 222.753 251.058 222.405 250.71C222.057 250.35 221.661 250.068 221.217 249.864C220.785 249.648 220.353 249.54 219.921 249.54C219.249 249.54 218.661 249.726 218.157 250.098C217.665 250.458 217.281 250.932 217.005 251.52C216.729 252.096 216.591 252.702 216.591 253.338C216.591 254.01 216.741 254.634 217.041 255.21C217.353 255.786 217.773 256.248 218.301 256.596C218.829 256.932 219.423 257.1 220.083 257.1C220.491 257.1 220.917 256.998 221.361 256.794C221.817 256.578 222.213 256.296 222.549 255.948C222.897 255.6 223.101 255.21 223.161 254.778ZM227.159 246.66V244.86H228.383V246.66H227.159ZM227.159 258V248.622H228.383V258H227.159ZM234.157 258.18C233.389 258.18 232.675 258.054 232.015 257.802C231.367 257.538 230.797 257.154 230.305 256.65L230.809 255.786C231.337 256.278 231.865 256.638 232.393 256.866C232.933 257.082 233.503 257.19 234.103 257.19C234.823 257.19 235.411 257.046 235.867 256.758C236.335 256.458 236.569 256.032 236.569 255.48C236.569 255.108 236.455 254.826 236.227 254.634C236.011 254.43 235.693 254.268 235.273 254.148C234.865 254.028 234.373 253.89 233.797 253.734C233.149 253.554 232.603 253.368 232.159 253.176C231.727 252.972 231.397 252.72 231.169 252.42C230.953 252.108 230.845 251.706 230.845 251.214C230.845 250.614 230.995 250.11 231.295 249.702C231.607 249.294 232.027 248.988 232.555 248.784C233.095 248.568 233.695 248.46 234.355 248.46C235.075 248.46 235.711 248.574 236.263 248.802C236.815 249.03 237.265 249.348 237.613 249.756L237.019 250.584C236.695 250.2 236.293 249.918 235.813 249.738C235.345 249.546 234.835 249.45 234.283 249.45C233.899 249.45 233.533 249.504 233.185 249.612C232.837 249.708 232.549 249.876 232.321 250.116C232.105 250.344 231.997 250.662 231.997 251.07C231.997 251.574 232.183 251.922 232.555 252.114C232.927 252.306 233.491 252.51 234.247 252.726C234.955 252.918 235.573 253.11 236.101 253.302C236.629 253.494 237.037 253.752 237.325 254.076C237.613 254.388 237.757 254.826 237.757 255.39C237.757 256.266 237.427 256.95 236.767 257.442C236.107 257.934 235.237 258.18 234.157 258.18ZM243.83 258.18C242.93 258.18 242.126 257.958 241.418 257.514C240.71 257.07 240.152 256.476 239.744 255.732C239.336 254.988 239.132 254.172 239.132 253.284C239.132 252.408 239.33 251.604 239.726 250.872C240.134 250.14 240.692 249.558 241.4 249.126C242.108 248.682 242.912 248.46 243.812 248.46C244.736 248.46 245.546 248.682 246.242 249.126C246.938 249.57 247.478 250.158 247.862 250.89C248.258 251.61 248.456 252.402 248.456 253.266C248.456 253.458 248.45 253.62 248.438 253.752H240.41C240.47 254.424 240.662 255.024 240.986 255.552C241.31 256.068 241.724 256.482 242.228 256.794C242.732 257.094 243.284 257.244 243.884 257.244C244.496 257.244 245.072 257.088 245.612 256.776C246.152 256.464 246.536 256.056 246.764 255.552L247.826 255.84C247.634 256.296 247.334 256.704 246.926 257.064C246.53 257.412 246.068 257.688 245.54 257.892C245.012 258.084 244.442 258.18 243.83 258.18ZM240.374 252.87H247.304C247.256 252.198 247.07 251.604 246.746 251.088C246.422 250.56 246.008 250.152 245.504 249.864C245 249.564 244.442 249.414 243.83 249.414C243.218 249.414 242.66 249.564 242.156 249.864C241.652 250.152 241.238 250.56 240.914 251.088C240.602 251.604 240.422 252.198 240.374 252.87ZM258.228 258H257.004V252.762C257.004 251.658 256.836 250.854 256.5 250.35C256.176 249.834 255.672 249.576 254.988 249.576C254.508 249.576 254.034 249.696 253.566 249.936C253.098 250.164 252.684 250.482 252.324 250.89C251.976 251.286 251.724 251.742 251.568 252.258V258H250.344V248.622H251.46V250.746C251.832 250.062 252.378 249.51 253.098 249.09C253.818 248.67 254.598 248.46 255.438 248.46C256.134 248.46 256.686 248.628 257.094 248.964C257.502 249.288 257.79 249.756 257.958 250.368C258.138 250.968 258.228 251.682 258.228 252.51V258ZM255.42 246.516C255.06 246.516 254.754 246.456 254.502 246.336C254.262 246.216 254.034 246.096 253.818 245.976C253.602 245.856 253.368 245.796 253.116 245.796C252.852 245.796 252.654 245.862 252.522 245.994C252.402 246.126 252.318 246.264 252.27 246.408C252.234 246.54 252.216 246.624 252.216 246.66H251.46C251.46 246.588 251.478 246.468 251.514 246.3C251.562 246.12 251.646 245.928 251.766 245.724C251.886 245.52 252.054 245.346 252.27 245.202C252.486 245.058 252.762 244.986 253.098 244.986C253.434 244.986 253.716 245.052 253.944 245.184C254.172 245.304 254.394 245.43 254.61 245.562C254.838 245.682 255.102 245.742 255.402 245.742C255.714 245.742 255.942 245.676 256.086 245.544C256.23 245.4 256.32 245.256 256.356 245.112C256.404 244.968 256.428 244.884 256.428 244.86H257.184C257.184 244.92 257.16 245.04 257.112 245.22C257.064 245.388 256.974 245.574 256.842 245.778C256.722 245.982 256.542 246.156 256.302 246.3C256.074 246.444 255.78 246.516 255.42 246.516ZM264.834 258.18C263.934 258.18 263.13 257.958 262.422 257.514C261.726 257.07 261.18 256.482 260.784 255.75C260.388 255.006 260.19 254.202 260.19 253.338C260.19 252.462 260.388 251.658 260.784 250.926C261.192 250.182 261.744 249.588 262.44 249.144C263.148 248.688 263.946 248.46 264.834 248.46C265.734 248.46 266.532 248.688 267.228 249.144C267.936 249.588 268.488 250.182 268.884 250.926C269.292 251.658 269.496 252.462 269.496 253.338C269.496 254.202 269.298 255.006 268.902 255.75C268.506 256.482 267.954 257.07 267.246 257.514C266.55 257.958 265.746 258.18 264.834 258.18ZM261.432 253.356C261.432 254.052 261.582 254.688 261.882 255.264C262.194 255.828 262.608 256.278 263.124 256.614C263.64 256.938 264.21 257.1 264.834 257.1C265.458 257.1 266.028 256.932 266.544 256.596C267.06 256.26 267.474 255.804 267.786 255.228C268.098 254.652 268.254 254.016 268.254 253.32C268.254 252.624 268.098 251.988 267.786 251.412C267.474 250.836 267.06 250.38 266.544 250.044C266.028 249.708 265.458 249.54 264.834 249.54C264.222 249.54 263.658 249.714 263.142 250.062C262.626 250.398 262.212 250.854 261.9 251.43C261.588 252.006 261.432 252.648 261.432 253.356ZM1.26 275.13V269.622H2.484V274.914C2.484 277.038 3.21 278.1 4.662 278.1C5.382 278.1 6.054 277.866 6.678 277.398C7.314 276.93 7.77 276.306 8.046 275.526V269.622H9.27V277.524C9.27 277.848 9.414 278.016 9.702 278.028V279C9.558 279.024 9.444 279.036 9.36 279.036C9.288 279.036 9.21 279.036 9.126 279.036C8.874 279.012 8.658 278.916 8.478 278.748C8.31 278.58 8.226 278.376 8.226 278.136L8.19 276.876C7.782 277.608 7.224 278.178 6.516 278.586C5.82 278.982 5.064 279.18 4.248 279.18C2.256 279.18 1.26 277.83 1.26 275.13ZM19.9215 279H18.6975V273.762C18.6975 272.658 18.5295 271.854 18.1935 271.35C17.8695 270.834 17.3655 270.576 16.6815 270.576C16.2015 270.576 15.7275 270.696 15.2595 270.936C14.7915 271.164 14.3775 271.482 14.0175 271.89C13.6695 272.286 13.4175 272.742 13.2615 273.258V279H12.0375V269.622H13.1535V271.746C13.5255 271.062 14.0715 270.51 14.7915 270.09C15.5115 269.67 16.2915 269.46 17.1315 269.46C17.8275 269.46 18.3795 269.628 18.7875 269.964C19.1955 270.288 19.4835 270.756 19.6515 271.368C19.8315 271.968 19.9215 272.682 19.9215 273.51V279ZM22.5316 267.66V265.86H23.7556V267.66H22.5316ZM22.5316 279V269.622H23.7556V279H22.5316ZM30.5196 279.18C29.6076 279.18 28.7976 278.958 28.0896 278.514C27.3816 278.058 26.8236 277.464 26.4156 276.732C26.0076 275.988 25.8036 275.172 25.8036 274.284C25.8036 273.396 26.0016 272.592 26.3976 271.872C26.7936 271.14 27.3456 270.558 28.0536 270.126C28.7616 269.682 29.5776 269.46 30.5016 269.46C31.3776 269.46 32.1456 269.664 32.8056 270.072C33.4776 270.468 33.9816 271.008 34.3176 271.692L33.1296 272.07C32.8656 271.59 32.4936 271.218 32.0136 270.954C31.5456 270.678 31.0236 270.54 30.4476 270.54C29.8116 270.54 29.2356 270.702 28.7196 271.026C28.2156 271.35 27.8076 271.8 27.4956 272.376C27.1956 272.94 27.0456 273.576 27.0456 274.284C27.0456 274.992 27.2016 275.634 27.5136 276.21C27.8256 276.786 28.2396 277.248 28.7556 277.596C29.2716 277.932 29.8416 278.1 30.4656 278.1C30.8736 278.1 31.2696 278.028 31.6536 277.884C32.0376 277.74 32.3676 277.548 32.6436 277.308C32.9196 277.056 33.1056 276.786 33.2016 276.498L34.4076 276.858C34.2396 277.302 33.9636 277.704 33.5796 278.064C33.1956 278.412 32.7396 278.688 32.2116 278.892C31.6836 279.084 31.1196 279.18 30.5196 279.18ZM40.2386 279.18C39.3386 279.18 38.5346 278.958 37.8266 278.514C37.1306 278.07 36.5846 277.482 36.1886 276.75C35.7926 276.006 35.5946 275.202 35.5946 274.338C35.5946 273.462 35.7926 272.658 36.1886 271.926C36.5966 271.182 37.1486 270.588 37.8446 270.144C38.5526 269.688 39.3506 269.46 40.2386 269.46C41.1386 269.46 41.9366 269.688 42.6326 270.144C43.3406 270.588 43.8926 271.182 44.2886 271.926C44.6966 272.658 44.9006 273.462 44.9006 274.338C44.9006 275.202 44.7026 276.006 44.3066 276.75C43.9106 277.482 43.3586 278.07 42.6506 278.514C41.9546 278.958 41.1506 279.18 40.2386 279.18ZM36.8366 274.356C36.8366 275.052 36.9866 275.688 37.2866 276.264C37.5986 276.828 38.0126 277.278 38.5286 277.614C39.0446 277.938 39.6146 278.1 40.2386 278.1C40.8626 278.1 41.4326 277.932 41.9486 277.596C42.4646 277.26 42.8786 276.804 43.1906 276.228C43.5026 275.652 43.6586 275.016 43.6586 274.32C43.6586 273.624 43.5026 272.988 43.1906 272.412C42.8786 271.836 42.4646 271.38 41.9486 271.044C41.4326 270.708 40.8626 270.54 40.2386 270.54C39.6266 270.54 39.0626 270.714 38.5466 271.062C38.0306 271.398 37.6166 271.854 37.3046 272.43C36.9926 273.006 36.8366 273.648 36.8366 274.356ZM51.5834 281.88C51.7514 281.892 51.9134 281.898 52.0694 281.898C52.2254 281.91 52.3394 281.904 52.4114 281.88C52.5554 281.868 52.6874 281.784 52.8074 281.628C52.9394 281.484 53.0954 281.208 53.2754 280.8C53.4674 280.404 53.7254 279.804 54.0494 279L49.9634 269.622H51.2594L54.6974 277.74L57.8654 269.622H59.0894L54.2294 281.718C54.0974 282.066 53.8754 282.366 53.5634 282.618C53.2514 282.87 52.8374 283.002 52.3214 283.014C52.2134 283.026 52.0994 283.026 51.9794 283.014C51.8594 283.014 51.7274 283.002 51.5834 282.978V281.88ZM68.9449 279.18C68.0449 279.18 67.2409 278.958 66.5329 278.514C65.8249 278.07 65.2669 277.476 64.8589 276.732C64.4509 275.988 64.2469 275.172 64.2469 274.284C64.2469 273.408 64.4449 272.604 64.8409 271.872C65.2489 271.14 65.8069 270.558 66.5149 270.126C67.2229 269.682 68.0269 269.46 68.9269 269.46C69.8509 269.46 70.6609 269.682 71.3569 270.126C72.0529 270.57 72.5929 271.158 72.9769 271.89C73.3729 272.61 73.5709 273.402 73.5709 274.266C73.5709 274.458 73.5649 274.62 73.5529 274.752H65.5249C65.5849 275.424 65.7769 276.024 66.1009 276.552C66.4249 277.068 66.8389 277.482 67.3429 277.794C67.8469 278.094 68.3989 278.244 68.9989 278.244C69.6109 278.244 70.1869 278.088 70.7269 277.776C71.2669 277.464 71.6509 277.056 71.8789 276.552L72.9409 276.84C72.7489 277.296 72.4489 277.704 72.0409 278.064C71.6449 278.412 71.1829 278.688 70.6549 278.892C70.1269 279.084 69.5569 279.18 68.9449 279.18ZM65.4889 273.87H72.4189C72.3709 273.198 72.1849 272.604 71.8609 272.088C71.5369 271.56 71.1229 271.152 70.6189 270.864C70.1149 270.564 69.5569 270.414 68.9449 270.414C68.3329 270.414 67.7749 270.564 67.2709 270.864C66.7669 271.152 66.3529 271.56 66.0289 272.088C65.7169 272.604 65.5369 273.198 65.4889 273.87ZM78.5374 279.18C77.7694 279.18 77.0554 279.054 76.3954 278.802C75.7474 278.538 75.1774 278.154 74.6854 277.65L75.1894 276.786C75.7174 277.278 76.2454 277.638 76.7734 277.866C77.3134 278.082 77.8834 278.19 78.4834 278.19C79.2034 278.19 79.7914 278.046 80.2474 277.758C80.7154 277.458 80.9494 277.032 80.9494 276.48C80.9494 276.108 80.8354 275.826 80.6074 275.634C80.3914 275.43 80.0734 275.268 79.6534 275.148C79.2454 275.028 78.7534 274.89 78.1774 274.734C77.5294 274.554 76.9834 274.368 76.5394 274.176C76.1074 273.972 75.7774 273.72 75.5494 273.42C75.3334 273.108 75.2254 272.706 75.2254 272.214C75.2254 271.614 75.3754 271.11 75.6754 270.702C75.9874 270.294 76.4074 269.988 76.9354 269.784C77.4754 269.568 78.0754 269.46 78.7354 269.46C79.4554 269.46 80.0914 269.574 80.6434 269.802C81.1954 270.03 81.6454 270.348 81.9934 270.756L81.3994 271.584C81.0754 271.2 80.6734 270.918 80.1934 270.738C79.7254 270.546 79.2154 270.45 78.6634 270.45C78.2794 270.45 77.9134 270.504 77.5654 270.612C77.2174 270.708 76.9294 270.876 76.7014 271.116C76.4854 271.344 76.3774 271.662 76.3774 272.07C76.3774 272.574 76.5634 272.922 76.9354 273.114C77.3074 273.306 77.8714 273.51 78.6274 273.726C79.3354 273.918 79.9534 274.11 80.4814 274.302C81.0094 274.494 81.4174 274.752 81.7054 275.076C81.9934 275.388 82.1374 275.826 82.1374 276.39C82.1374 277.266 81.8074 277.95 81.1474 278.442C80.4874 278.934 79.6174 279.18 78.5374 279.18ZM88.9485 279.18C88.1685 279.18 87.4665 278.976 86.8425 278.568C86.2305 278.16 85.7445 277.656 85.3845 277.056V282.834H84.1605V269.622H85.2585V271.44C85.6305 270.852 86.1225 270.378 86.7345 270.018C87.3585 269.646 88.0305 269.46 88.7505 269.46C89.3985 269.46 89.9925 269.598 90.5325 269.874C91.0725 270.138 91.5405 270.498 91.9365 270.954C92.3445 271.41 92.6565 271.932 92.8725 272.52C93.0885 273.096 93.1965 273.696 93.1965 274.32C93.1965 275.196 93.0165 276.006 92.6565 276.75C92.3085 277.482 91.8105 278.07 91.1625 278.514C90.5265 278.958 89.7885 279.18 88.9485 279.18ZM88.6065 278.1C89.2905 278.1 89.8785 277.92 90.3705 277.56C90.8745 277.188 91.2645 276.714 91.5405 276.138C91.8165 275.562 91.9545 274.956 91.9545 274.32C91.9545 273.648 91.7985 273.024 91.4865 272.448C91.1745 271.872 90.7545 271.41 90.2265 271.062C89.7105 270.714 89.1225 270.54 88.4625 270.54C88.0545 270.54 87.6225 270.648 87.1665 270.864C86.7225 271.068 86.3265 271.35 85.9785 271.71C85.6425 272.058 85.4445 272.442 85.3845 272.862V275.742C85.6605 276.402 86.0925 276.96 86.6805 277.416C87.2685 277.872 87.9105 278.1 88.6065 278.1ZM99.3199 279.18C98.4199 279.18 97.6159 278.958 96.9079 278.514C96.1999 278.07 95.6419 277.476 95.2339 276.732C94.8259 275.988 94.6219 275.172 94.6219 274.284C94.6219 273.408 94.8199 272.604 95.2159 271.872C95.6239 271.14 96.1819 270.558 96.8899 270.126C97.5979 269.682 98.4019 269.46 99.3019 269.46C100.226 269.46 101.036 269.682 101.732 270.126C102.428 270.57 102.968 271.158 103.352 271.89C103.748 272.61 103.946 273.402 103.946 274.266C103.946 274.458 103.94 274.62 103.928 274.752H95.8999C95.9599 275.424 96.1519 276.024 96.4759 276.552C96.7999 277.068 97.2139 277.482 97.7179 277.794C98.2219 278.094 98.7739 278.244 99.3739 278.244C99.9859 278.244 100.562 278.088 101.102 277.776C101.642 277.464 102.026 277.056 102.254 276.552L103.316 276.84C103.124 277.296 102.824 277.704 102.416 278.064C102.02 278.412 101.558 278.688 101.03 278.892C100.502 279.084 99.9319 279.18 99.3199 279.18ZM95.8639 273.87H102.794C102.746 273.198 102.56 272.604 102.236 272.088C101.912 271.56 101.498 271.152 100.994 270.864C100.49 270.564 99.9319 270.414 99.3199 270.414C98.7079 270.414 98.1499 270.564 97.6459 270.864C97.1419 271.152 96.7279 271.56 96.4039 272.088C96.0919 272.604 95.9119 273.198 95.8639 273.87ZM109.902 279.18C108.99 279.18 108.18 278.958 107.472 278.514C106.764 278.058 106.206 277.464 105.798 276.732C105.39 275.988 105.186 275.172 105.186 274.284C105.186 273.396 105.384 272.592 105.78 271.872C106.176 271.14 106.728 270.558 107.436 270.126C108.144 269.682 108.96 269.46 109.884 269.46C110.76 269.46 111.528 269.664 112.188 270.072C112.86 270.468 113.364 271.008 113.7 271.692L112.512 272.07C112.248 271.59 111.876 271.218 111.396 270.954C110.928 270.678 110.406 270.54 109.83 270.54C109.194 270.54 108.618 270.702 108.102 271.026C107.598 271.35 107.19 271.8 106.878 272.376C106.578 272.94 106.428 273.576 106.428 274.284C106.428 274.992 106.584 275.634 106.896 276.21C107.208 276.786 107.622 277.248 108.138 277.596C108.654 277.932 109.224 278.1 109.848 278.1C110.256 278.1 110.652 278.028 111.036 277.884C111.42 277.74 111.75 277.548 112.026 277.308C112.302 277.056 112.488 276.786 112.584 276.498L113.79 276.858C113.622 277.302 113.346 277.704 112.962 278.064C112.578 278.412 112.122 278.688 111.594 278.892C111.066 279.084 110.502 279.18 109.902 279.18ZM115.713 267.66V265.86H116.937V267.66H115.713ZM115.713 279V269.622H116.937V279H115.713ZM118.877 276.3C118.877 275.724 119.045 275.226 119.381 274.806C119.717 274.374 120.179 274.038 120.767 273.798C121.367 273.558 122.057 273.438 122.837 273.438C123.293 273.438 123.767 273.48 124.259 273.564C124.751 273.636 125.189 273.738 125.573 273.87V273.078C125.573 272.286 125.339 271.656 124.871 271.188C124.403 270.72 123.755 270.486 122.927 270.486C122.435 270.486 121.943 270.582 121.451 270.774C120.959 270.954 120.449 271.224 119.921 271.584L119.453 270.72C120.065 270.3 120.665 269.988 121.253 269.784C121.841 269.568 122.441 269.46 123.053 269.46C124.205 269.46 125.117 269.79 125.789 270.45C126.461 271.11 126.797 272.022 126.797 273.186V277.524C126.797 277.848 126.947 278.016 127.247 278.028V279C126.983 279.036 126.797 279.048 126.689 279.036C126.389 279.024 126.161 278.928 126.005 278.748C125.849 278.568 125.765 278.376 125.753 278.172L125.735 277.488C125.315 278.028 124.769 278.448 124.097 278.748C123.425 279.036 122.741 279.18 122.045 279.18C121.433 279.18 120.887 279.054 120.407 278.802C119.927 278.538 119.549 278.19 119.273 277.758C119.009 277.314 118.877 276.828 118.877 276.3ZM125.159 277.02C125.435 276.696 125.573 276.396 125.573 276.12V274.752C124.745 274.428 123.881 274.266 122.981 274.266C122.105 274.266 121.397 274.44 120.857 274.788C120.317 275.136 120.047 275.61 120.047 276.21C120.047 276.726 120.245 277.194 120.641 277.614C121.049 278.034 121.613 278.244 122.333 278.244C122.921 278.244 123.467 278.13 123.971 277.902C124.487 277.674 124.883 277.38 125.159 277.02ZM129.496 265.86H130.72V276.876C130.72 277.344 130.798 277.65 130.954 277.794C131.122 277.938 131.332 278.01 131.584 278.01C131.8 278.01 132.016 277.986 132.232 277.938C132.46 277.89 132.646 277.842 132.79 277.794L133.006 278.784C132.778 278.88 132.496 278.958 132.16 279.018C131.836 279.078 131.554 279.108 131.314 279.108C130.762 279.108 130.318 278.946 129.982 278.622C129.658 278.298 129.496 277.854 129.496 277.29V265.86ZM134.346 267.66V265.86H135.57V267.66H134.346ZM134.346 279V269.622H135.57V279H134.346ZM137.474 278.172L143.756 270.54H137.618V269.622H145.142V270.45L138.896 278.082H145.124V279H137.474V278.172ZM146.369 276.3C146.369 275.724 146.537 275.226 146.873 274.806C147.209 274.374 147.671 274.038 148.259 273.798C148.859 273.558 149.549 273.438 150.329 273.438C150.785 273.438 151.259 273.48 151.751 273.564C152.243 273.636 152.681 273.738 153.065 273.87V273.078C153.065 272.286 152.831 271.656 152.363 271.188C151.895 270.72 151.247 270.486 150.419 270.486C149.927 270.486 149.435 270.582 148.943 270.774C148.451 270.954 147.941 271.224 147.413 271.584L146.945 270.72C147.557 270.3 148.157 269.988 148.745 269.784C149.333 269.568 149.933 269.46 150.545 269.46C151.697 269.46 152.609 269.79 153.281 270.45C153.953 271.11 154.289 272.022 154.289 273.186V277.524C154.289 277.848 154.439 278.016 154.739 278.028V279C154.475 279.036 154.289 279.048 154.181 279.036C153.881 279.024 153.653 278.928 153.497 278.748C153.341 278.568 153.257 278.376 153.245 278.172L153.227 277.488C152.807 278.028 152.261 278.448 151.589 278.748C150.917 279.036 150.233 279.18 149.537 279.18C148.925 279.18 148.379 279.054 147.899 278.802C147.419 278.538 147.041 278.19 146.765 277.758C146.501 277.314 146.369 276.828 146.369 276.3ZM152.651 277.02C152.927 276.696 153.065 276.396 153.065 276.12V274.752C152.237 274.428 151.373 274.266 150.473 274.266C149.597 274.266 148.889 274.44 148.349 274.788C147.809 275.136 147.539 275.61 147.539 276.21C147.539 276.726 147.737 277.194 148.133 277.614C148.541 278.034 149.105 278.244 149.825 278.244C150.413 278.244 150.959 278.13 151.463 277.902C151.979 277.674 152.375 277.38 152.651 277.02ZM156.304 274.338C156.304 273.45 156.484 272.64 156.844 271.908C157.216 271.164 157.726 270.57 158.374 270.126C159.022 269.682 159.76 269.46 160.588 269.46C161.368 269.46 162.064 269.67 162.676 270.09C163.3 270.498 163.786 270.996 164.134 271.584V265.86H165.358V277.524C165.358 277.848 165.502 278.016 165.79 278.028V279C165.55 279.036 165.364 279.048 165.232 279.036C164.968 279.024 164.74 278.928 164.548 278.748C164.368 278.556 164.278 278.34 164.278 278.1V277.182C163.906 277.794 163.402 278.28 162.766 278.64C162.13 279 161.47 279.18 160.786 279.18C160.138 279.18 159.538 279.048 158.986 278.784C158.434 278.52 157.954 278.16 157.546 277.704C157.15 277.248 156.844 276.732 156.628 276.156C156.412 275.568 156.304 274.962 156.304 274.338ZM164.134 275.778V272.88C163.978 272.448 163.726 272.058 163.378 271.71C163.03 271.35 162.634 271.068 162.19 270.864C161.758 270.648 161.326 270.54 160.894 270.54C160.222 270.54 159.634 270.726 159.13 271.098C158.638 271.458 158.254 271.932 157.978 272.52C157.702 273.096 157.564 273.702 157.564 274.338C157.564 275.01 157.714 275.634 158.014 276.21C158.326 276.786 158.746 277.248 159.274 277.596C159.802 277.932 160.396 278.1 161.056 278.1C161.464 278.1 161.89 277.998 162.334 277.794C162.79 277.578 163.186 277.296 163.522 276.948C163.87 276.6 164.074 276.21 164.134 275.778ZM172.127 279.18C171.227 279.18 170.423 278.958 169.715 278.514C169.019 278.07 168.473 277.482 168.077 276.75C167.681 276.006 167.483 275.202 167.483 274.338C167.483 273.462 167.681 272.658 168.077 271.926C168.485 271.182 169.037 270.588 169.733 270.144C170.441 269.688 171.239 269.46 172.127 269.46C173.027 269.46 173.825 269.688 174.521 270.144C175.229 270.588 175.781 271.182 176.177 271.926C176.585 272.658 176.789 273.462 176.789 274.338C176.789 275.202 176.591 276.006 176.195 276.75C175.799 277.482 175.247 278.07 174.539 278.514C173.843 278.958 173.039 279.18 172.127 279.18ZM168.725 274.356C168.725 275.052 168.875 275.688 169.175 276.264C169.487 276.828 169.901 277.278 170.417 277.614C170.933 277.938 171.503 278.1 172.127 278.1C172.751 278.1 173.321 277.932 173.837 277.596C174.353 277.26 174.767 276.804 175.079 276.228C175.391 275.652 175.547 275.016 175.547 274.32C175.547 273.624 175.391 272.988 175.079 272.412C174.767 271.836 174.353 271.38 173.837 271.044C173.321 270.708 172.751 270.54 172.127 270.54C171.515 270.54 170.951 270.714 170.435 271.062C169.919 271.398 169.505 271.854 169.193 272.43C168.881 273.006 168.725 273.648 168.725 274.356ZM187.492 279.18C186.58 279.18 185.77 278.958 185.062 278.514C184.354 278.058 183.796 277.464 183.388 276.732C182.98 275.988 182.776 275.172 182.776 274.284C182.776 273.396 182.974 272.592 183.37 271.872C183.766 271.14 184.318 270.558 185.026 270.126C185.734 269.682 186.55 269.46 187.474 269.46C188.35 269.46 189.118 269.664 189.778 270.072C190.45 270.468 190.954 271.008 191.29 271.692L190.102 272.07C189.838 271.59 189.466 271.218 188.986 270.954C188.518 270.678 187.996 270.54 187.42 270.54C186.784 270.54 186.208 270.702 185.692 271.026C185.188 271.35 184.78 271.8 184.468 272.376C184.168 272.94 184.018 273.576 184.018 274.284C184.018 274.992 184.174 275.634 184.486 276.21C184.798 276.786 185.212 277.248 185.728 277.596C186.244 277.932 186.814 278.1 187.438 278.1C187.846 278.1 188.242 278.028 188.626 277.884C189.01 277.74 189.34 277.548 189.616 277.308C189.892 277.056 190.078 276.786 190.174 276.498L191.38 276.858C191.212 277.302 190.936 277.704 190.552 278.064C190.168 278.412 189.712 278.688 189.184 278.892C188.656 279.084 188.092 279.18 187.492 279.18ZM197.211 279.18C196.311 279.18 195.507 278.958 194.799 278.514C194.103 278.07 193.557 277.482 193.161 276.75C192.765 276.006 192.567 275.202 192.567 274.338C192.567 273.462 192.765 272.658 193.161 271.926C193.569 271.182 194.121 270.588 194.817 270.144C195.525 269.688 196.323 269.46 197.211 269.46C198.111 269.46 198.909 269.688 199.605 270.144C200.313 270.588 200.865 271.182 201.261 271.926C201.669 272.658 201.873 273.462 201.873 274.338C201.873 275.202 201.675 276.006 201.279 276.75C200.883 277.482 200.331 278.07 199.623 278.514C198.927 278.958 198.123 279.18 197.211 279.18ZM193.809 274.356C193.809 275.052 193.959 275.688 194.259 276.264C194.571 276.828 194.985 277.278 195.501 277.614C196.017 277.938 196.587 278.1 197.211 278.1C197.835 278.1 198.405 277.932 198.921 277.596C199.437 277.26 199.851 276.804 200.163 276.228C200.475 275.652 200.631 275.016 200.631 274.32C200.631 273.624 200.475 272.988 200.163 272.412C199.851 271.836 199.437 271.38 198.921 271.044C198.405 270.708 197.835 270.54 197.211 270.54C196.599 270.54 196.035 270.714 195.519 271.062C195.003 271.398 194.589 271.854 194.277 272.43C193.965 273.006 193.809 273.648 193.809 274.356ZM211.804 279H210.58V273.762C210.58 272.658 210.412 271.854 210.076 271.35C209.752 270.834 209.248 270.576 208.564 270.576C208.084 270.576 207.61 270.696 207.142 270.936C206.674 271.164 206.26 271.482 205.9 271.89C205.552 272.286 205.3 272.742 205.144 273.258V279H203.92V269.622H205.036V271.746C205.408 271.062 205.954 270.51 206.674 270.09C207.394 269.67 208.174 269.46 209.014 269.46C209.71 269.46 210.262 269.628 210.67 269.964C211.078 270.288 211.366 270.756 211.534 271.368C211.714 271.968 211.804 272.682 211.804 273.51V279ZM223.052 279.18C222.152 279.18 221.348 278.958 220.64 278.514C219.932 278.07 219.374 277.476 218.966 276.732C218.558 275.988 218.354 275.172 218.354 274.284C218.354 273.408 218.552 272.604 218.948 271.872C219.356 271.14 219.914 270.558 220.622 270.126C221.33 269.682 222.134 269.46 223.034 269.46C223.958 269.46 224.768 269.682 225.464 270.126C226.16 270.57 226.7 271.158 227.084 271.89C227.48 272.61 227.678 273.402 227.678 274.266C227.678 274.458 227.672 274.62 227.66 274.752H219.632C219.692 275.424 219.884 276.024 220.208 276.552C220.532 277.068 220.946 277.482 221.45 277.794C221.954 278.094 222.506 278.244 223.106 278.244C223.718 278.244 224.294 278.088 224.834 277.776C225.374 277.464 225.758 277.056 225.986 276.552L227.048 276.84C226.856 277.296 226.556 277.704 226.148 278.064C225.752 278.412 225.29 278.688 224.762 278.892C224.234 279.084 223.664 279.18 223.052 279.18ZM219.596 273.87H226.526C226.478 273.198 226.292 272.604 225.968 272.088C225.644 271.56 225.23 271.152 224.726 270.864C224.222 270.564 223.664 270.414 223.052 270.414C222.44 270.414 221.882 270.564 221.378 270.864C220.874 271.152 220.46 271.56 220.136 272.088C219.824 272.604 219.644 273.198 219.596 273.87ZM229.621 265.86H230.845V276.876C230.845 277.344 230.923 277.65 231.079 277.794C231.247 277.938 231.457 278.01 231.709 278.01C231.925 278.01 232.141 277.986 232.357 277.938C232.585 277.89 232.771 277.842 232.915 277.794L233.131 278.784C232.903 278.88 232.621 278.958 232.285 279.018C231.961 279.078 231.679 279.108 231.439 279.108C230.887 279.108 230.443 278.946 230.107 278.622C229.783 278.298 229.621 277.854 229.621 277.29V265.86ZM238.964 270.594H237.668V269.622H238.964V269.37C238.964 268.782 239.078 268.206 239.306 267.642C239.546 267.078 239.906 266.61 240.386 266.238C240.878 265.866 241.508 265.68 242.276 265.68C242.936 265.68 243.5 265.782 243.968 265.986C244.448 266.19 244.79 266.37 244.994 266.526L244.436 267.408C244.232 267.228 243.944 267.078 243.572 266.958C243.2 266.826 242.792 266.76 242.348 266.76C241.832 266.76 241.418 266.892 241.106 267.156C240.794 267.408 240.56 267.732 240.404 268.128C240.26 268.524 240.188 268.926 240.188 269.334V269.622H244.886V279H243.662V270.594H240.188V279H238.964V270.594ZM255.468 279H254.244V273.762C254.244 272.658 254.076 271.854 253.74 271.35C253.416 270.834 252.912 270.576 252.228 270.576C251.748 270.576 251.274 270.696 250.806 270.936C250.338 271.164 249.924 271.482 249.564 271.89C249.216 272.286 248.964 272.742 248.808 273.258V279H247.584V269.622H248.7V271.746C249.072 271.062 249.618 270.51 250.338 270.09C251.058 269.67 251.838 269.46 252.678 269.46C253.374 269.46 253.926 269.628 254.334 269.964C254.742 270.288 255.03 270.756 255.198 271.368C255.378 271.968 255.468 272.682 255.468 273.51V279ZM262.036 274.338C262.036 273.45 262.216 272.64 262.576 271.908C262.948 271.164 263.458 270.57 264.106 270.126C264.754 269.682 265.492 269.46 266.32 269.46C267.1 269.46 267.796 269.67 268.408 270.09C269.032 270.498 269.518 270.996 269.866 271.584V265.86H271.09V277.524C271.09 277.848 271.234 278.016 271.522 278.028V279C271.282 279.036 271.096 279.048 270.964 279.036C270.7 279.024 270.472 278.928 270.28 278.748C270.1 278.556 270.01 278.34 270.01 278.1V277.182C269.638 277.794 269.134 278.28 268.498 278.64C267.862 279 267.202 279.18 266.518 279.18C265.87 279.18 265.27 279.048 264.718 278.784C264.166 278.52 263.686 278.16 263.278 277.704C262.882 277.248 262.576 276.732 262.36 276.156C262.144 275.568 262.036 274.962 262.036 274.338ZM269.866 275.778V272.88C269.71 272.448 269.458 272.058 269.11 271.71C268.762 271.35 268.366 271.068 267.922 270.864C267.49 270.648 267.058 270.54 266.626 270.54C265.954 270.54 265.366 270.726 264.862 271.098C264.37 271.458 263.986 271.932 263.71 272.52C263.434 273.096 263.296 273.702 263.296 274.338C263.296 275.01 263.446 275.634 263.746 276.21C264.058 276.786 264.478 277.248 265.006 277.596C265.534 277.932 266.128 278.1 266.788 278.1C267.196 278.1 267.622 277.998 268.066 277.794C268.522 277.578 268.918 277.296 269.254 276.948C269.602 276.6 269.806 276.21 269.866 275.778ZM277.914 279.18C277.014 279.18 276.21 278.958 275.502 278.514C274.794 278.07 274.236 277.476 273.828 276.732C273.42 275.988 273.216 275.172 273.216 274.284C273.216 273.408 273.414 272.604 273.81 271.872C274.218 271.14 274.776 270.558 275.484 270.126C276.192 269.682 276.996 269.46 277.896 269.46C278.82 269.46 279.63 269.682 280.326 270.126C281.022 270.57 281.562 271.158 281.946 271.89C282.342 272.61 282.54 273.402 282.54 274.266C282.54 274.458 282.534 274.62 282.522 274.752H274.494C274.554 275.424 274.746 276.024 275.07 276.552C275.394 277.068 275.808 277.482 276.312 277.794C276.816 278.094 277.368 278.244 277.968 278.244C278.58 278.244 279.156 278.088 279.696 277.776C280.236 277.464 280.62 277.056 280.848 276.552L281.91 276.84C281.718 277.296 281.418 277.704 281.01 278.064C280.614 278.412 280.152 278.688 279.624 278.892C279.096 279.084 278.526 279.18 277.914 279.18ZM274.458 273.87H281.388C281.34 273.198 281.154 272.604 280.83 272.088C280.506 271.56 280.092 271.152 279.588 270.864C279.084 270.564 278.526 270.414 277.914 270.414C277.302 270.414 276.744 270.564 276.24 270.864C275.736 271.152 275.322 271.56 274.998 272.088C274.686 272.604 274.506 273.198 274.458 273.87ZM15.3 300H14.076V294.762C14.076 293.682 13.902 292.884 13.554 292.368C13.206 291.84 12.69 291.576 12.006 291.576C11.286 291.576 10.65 291.828 10.098 292.332C9.546 292.836 9.156 293.484 8.928 294.276V300H7.704V294.762C7.704 293.658 7.53 292.854 7.182 292.35C6.846 291.834 6.336 291.576 5.652 291.576C4.944 291.576 4.308 291.822 3.744 292.314C3.192 292.806 2.802 293.454 2.574 294.258V300H1.35V290.622H2.466V292.746C2.85 292.026 3.354 291.468 3.978 291.072C4.602 290.664 5.292 290.46 6.048 290.46C6.828 290.46 7.458 290.688 7.938 291.144C8.418 291.588 8.712 292.164 8.82 292.872C9.684 291.264 10.89 290.46 12.438 290.46C13.494 290.46 14.232 290.832 14.652 291.576C15.084 292.308 15.3 293.286 15.3 294.51V300ZM21.941 300.18C21.041 300.18 20.237 299.958 19.529 299.514C18.821 299.07 18.263 298.476 17.855 297.732C17.447 296.988 17.243 296.172 17.243 295.284C17.243 294.408 17.441 293.604 17.837 292.872C18.245 292.14 18.803 291.558 19.511 291.126C20.219 290.682 21.023 290.46 21.923 290.46C22.847 290.46 23.657 290.682 24.353 291.126C25.049 291.57 25.589 292.158 25.973 292.89C26.369 293.61 26.567 294.402 26.567 295.266C26.567 295.458 26.561 295.62 26.549 295.752H18.521C18.581 296.424 18.773 297.024 19.097 297.552C19.421 298.068 19.835 298.482 20.339 298.794C20.843 299.094 21.395 299.244 21.995 299.244C22.607 299.244 23.183 299.088 23.723 298.776C24.263 298.464 24.647 298.056 24.875 297.552L25.937 297.84C25.745 298.296 25.445 298.704 25.037 299.064C24.641 299.412 24.179 299.688 23.651 299.892C23.123 300.084 22.553 300.18 21.941 300.18ZM18.485 294.87H25.415C25.367 294.198 25.181 293.604 24.857 293.088C24.533 292.56 24.119 292.152 23.615 291.864C23.111 291.564 22.553 291.414 21.941 291.414C21.329 291.414 20.771 291.564 20.267 291.864C19.763 292.152 19.349 292.56 19.025 293.088C18.713 293.604 18.533 294.198 18.485 294.87ZM28.5815 288.66V286.86H29.8055V288.66H28.5815ZM27.0515 303.258C26.6555 303.258 26.2835 303.204 25.9355 303.096C25.5755 302.988 25.2635 302.808 24.9995 302.556L25.5935 301.728C25.7855 301.896 25.9955 302.01 26.2235 302.07C26.4515 302.13 26.6795 302.16 26.9075 302.16C27.3275 302.16 27.7115 301.998 28.0595 301.674C28.4075 301.362 28.5815 300.966 28.5815 300.486V290.622H29.8055V300.414C29.8055 300.966 29.6735 301.458 29.4095 301.89C29.1455 302.322 28.8035 302.658 28.3835 302.898C27.9635 303.138 27.5195 303.258 27.0515 303.258ZM36.4944 300.18C35.5944 300.18 34.7904 299.958 34.0824 299.514C33.3864 299.07 32.8404 298.482 32.4444 297.75C32.0484 297.006 31.8504 296.202 31.8504 295.338C31.8504 294.462 32.0484 293.658 32.4444 292.926C32.8524 292.182 33.4044 291.588 34.1004 291.144C34.8084 290.688 35.6064 290.46 36.4944 290.46C37.3944 290.46 38.1924 290.688 38.8884 291.144C39.5964 291.588 40.1484 292.182 40.5444 292.926C40.9524 293.658 41.1564 294.462 41.1564 295.338C41.1564 296.202 40.9584 297.006 40.5624 297.75C40.1664 298.482 39.6144 299.07 38.9064 299.514C38.2104 299.958 37.4064 300.18 36.4944 300.18ZM33.0924 295.356C33.0924 296.052 33.2424 296.688 33.5424 297.264C33.8544 297.828 34.2684 298.278 34.7844 298.614C35.3004 298.938 35.8704 299.1 36.4944 299.1C37.1184 299.1 37.6884 298.932 38.2044 298.596C38.7204 298.26 39.1344 297.804 39.4464 297.228C39.7584 296.652 39.9144 296.016 39.9144 295.32C39.9144 294.624 39.7584 293.988 39.4464 293.412C39.1344 292.836 38.7204 292.38 38.2044 292.044C37.6884 291.708 37.1184 291.54 36.4944 291.54C35.8824 291.54 35.3184 291.714 34.8024 292.062C34.2864 292.398 33.8724 292.854 33.5604 293.43C33.2484 294.006 33.0924 294.648 33.0924 295.356ZM47.8835 291.702C47.0675 291.726 46.3475 291.954 45.7235 292.386C45.1115 292.818 44.6795 293.412 44.4275 294.168V300H43.2035V290.622H44.3555V292.872C44.6795 292.212 45.1055 291.678 45.6335 291.27C46.1735 290.862 46.7435 290.634 47.3435 290.586C47.4635 290.574 47.5655 290.568 47.6495 290.568C47.7335 290.568 47.8115 290.574 47.8835 290.586V291.702ZM48.7229 297.3C48.7229 296.724 48.8909 296.226 49.2269 295.806C49.5629 295.374 50.0249 295.038 50.6129 294.798C51.2129 294.558 51.9029 294.438 52.6829 294.438C53.1389 294.438 53.6129 294.48 54.1049 294.564C54.5969 294.636 55.0349 294.738 55.4189 294.87V294.078C55.4189 293.286 55.1849 292.656 54.7169 292.188C54.2489 291.72 53.6009 291.486 52.7729 291.486C52.2809 291.486 51.7889 291.582 51.2969 291.774C50.8049 291.954 50.2949 292.224 49.7669 292.584L49.2989 291.72C49.9109 291.3 50.5109 290.988 51.0989 290.784C51.6869 290.568 52.2869 290.46 52.8989 290.46C54.0509 290.46 54.9629 290.79 55.6349 291.45C56.3069 292.11 56.6429 293.022 56.6429 294.186V298.524C56.6429 298.848 56.7929 299.016 57.0929 299.028V300C56.8289 300.036 56.6429 300.048 56.5349 300.036C56.2349 300.024 56.0069 299.928 55.8509 299.748C55.6949 299.568 55.6109 299.376 55.5989 299.172L55.5809 298.488C55.1609 299.028 54.6149 299.448 53.9429 299.748C53.2709 300.036 52.5869 300.18 51.8909 300.18C51.2789 300.18 50.7329 300.054 50.2529 299.802C49.7729 299.538 49.3949 299.19 49.1189 298.758C48.8549 298.314 48.7229 297.828 48.7229 297.3ZM55.0049 298.02C55.2809 297.696 55.4189 297.396 55.4189 297.12V295.752C54.5909 295.428 53.7269 295.266 52.8269 295.266C51.9509 295.266 51.2429 295.44 50.7029 295.788C50.1629 296.136 49.8929 296.61 49.8929 297.21C49.8929 297.726 50.0909 298.194 50.4869 298.614C50.8949 299.034 51.4589 299.244 52.1789 299.244C52.7669 299.244 53.3129 299.13 53.8169 298.902C54.3329 298.674 54.7289 298.38 55.0049 298.02ZM63.9675 291.702C63.1515 291.726 62.4315 291.954 61.8075 292.386C61.1955 292.818 60.7635 293.412 60.5115 294.168V300H59.2875V290.622H60.4395V292.872C60.7635 292.212 61.1895 291.678 61.7175 291.27C62.2575 290.862 62.8275 290.634 63.4275 290.586C63.5475 290.574 63.6495 290.568 63.7335 290.568C63.8175 290.568 63.8955 290.574 63.9675 290.586V291.702ZM69.8181 286.86H71.0421V297.876C71.0421 298.344 71.1201 298.65 71.2761 298.794C71.4441 298.938 71.6541 299.01 71.9061 299.01C72.1221 299.01 72.3381 298.986 72.5541 298.938C72.7821 298.89 72.9681 298.842 73.1121 298.794L73.3281 299.784C73.1001 299.88 72.8181 299.958 72.4821 300.018C72.1581 300.078 71.8761 300.108 71.6361 300.108C71.0841 300.108 70.6401 299.946 70.3041 299.622C69.9801 299.298 69.8181 298.854 69.8181 298.29V286.86ZM73.9124 297.3C73.9124 296.724 74.0804 296.226 74.4164 295.806C74.7524 295.374 75.2144 295.038 75.8024 294.798C76.4024 294.558 77.0924 294.438 77.8724 294.438C78.3284 294.438 78.8024 294.48 79.2944 294.564C79.7864 294.636 80.2244 294.738 80.6084 294.87V294.078C80.6084 293.286 80.3744 292.656 79.9064 292.188C79.4384 291.72 78.7904 291.486 77.9624 291.486C77.4704 291.486 76.9784 291.582 76.4864 291.774C75.9944 291.954 75.4844 292.224 74.9564 292.584L74.4884 291.72C75.1004 291.3 75.7004 290.988 76.2884 290.784C76.8764 290.568 77.4764 290.46 78.0884 290.46C79.2404 290.46 80.1524 290.79 80.8244 291.45C81.4964 292.11 81.8324 293.022 81.8324 294.186V298.524C81.8324 298.848 81.9824 299.016 82.2824 299.028V300C82.0184 300.036 81.8324 300.048 81.7244 300.036C81.4244 300.024 81.1964 299.928 81.0404 299.748C80.8844 299.568 80.8004 299.376 80.7884 299.172L80.7704 298.488C80.3504 299.028 79.8044 299.448 79.1324 299.748C78.4604 300.036 77.7764 300.18 77.0804 300.18C76.4684 300.18 75.9224 300.054 75.4424 299.802C74.9624 299.538 74.5844 299.19 74.3084 298.758C74.0444 298.314 73.9124 297.828 73.9124 297.3ZM80.1944 298.02C80.4704 297.696 80.6084 297.396 80.6084 297.12V295.752C79.7804 295.428 78.9164 295.266 78.0164 295.266C77.1404 295.266 76.4324 295.44 75.8924 295.788C75.3524 296.136 75.0824 296.61 75.0824 297.21C75.0824 297.726 75.2804 298.194 75.6764 298.614C76.0844 299.034 76.6484 299.244 77.3684 299.244C77.9564 299.244 78.5024 299.13 79.0064 298.902C79.5224 298.674 79.9184 298.38 80.1944 298.02ZM89.5148 300V291.594H88.2188V290.622H89.5148V290.37C89.5148 289.218 89.7608 288.318 90.2528 287.67C90.7568 287.01 91.4288 286.68 92.2688 286.68C92.6288 286.68 92.9828 286.734 93.3308 286.842C93.6908 286.95 93.9968 287.094 94.2488 287.274L93.8708 288.156C93.5108 287.88 93.0548 287.742 92.5028 287.742C91.9388 287.742 91.5008 287.964 91.1888 288.408C90.8888 288.852 90.7388 289.494 90.7388 290.334V290.622H93.3308V291.594H90.7388V300H89.5148ZM94.9163 296.13V290.622H96.1403V295.914C96.1403 298.038 96.8663 299.1 98.3183 299.1C99.0383 299.1 99.7103 298.866 100.334 298.398C100.97 297.93 101.426 297.306 101.702 296.526V290.622H102.926V298.524C102.926 298.848 103.07 299.016 103.358 299.028V300C103.214 300.024 103.1 300.036 103.016 300.036C102.944 300.036 102.866 300.036 102.782 300.036C102.53 300.012 102.314 299.916 102.134 299.748C101.966 299.58 101.882 299.376 101.882 299.136L101.846 297.876C101.438 298.608 100.88 299.178 100.172 299.586C99.4763 299.982 98.7203 300.18 97.9043 300.18C95.9123 300.18 94.9163 298.83 94.9163 296.13ZM113.578 300H112.354V294.762C112.354 293.658 112.186 292.854 111.85 292.35C111.526 291.834 111.022 291.576 110.338 291.576C109.858 291.576 109.384 291.696 108.916 291.936C108.448 292.164 108.034 292.482 107.674 292.89C107.326 293.286 107.074 293.742 106.918 294.258V300H105.694V290.622H106.81V292.746C107.182 292.062 107.728 291.51 108.448 291.09C109.168 290.67 109.948 290.46 110.788 290.46C111.484 290.46 112.036 290.628 112.444 290.964C112.852 291.288 113.14 291.756 113.308 292.368C113.488 292.968 113.578 293.682 113.578 294.51V300ZM120.256 300.18C119.344 300.18 118.534 299.958 117.826 299.514C117.118 299.058 116.56 298.464 116.152 297.732C115.744 296.988 115.54 296.172 115.54 295.284C115.54 294.396 115.738 293.592 116.134 292.872C116.53 292.14 117.082 291.558 117.79 291.126C118.498 290.682 119.314 290.46 120.238 290.46C121.114 290.46 121.882 290.664 122.542 291.072C123.214 291.468 123.718 292.008 124.054 292.692L122.866 293.07C122.602 292.59 122.23 292.218 121.75 291.954C121.282 291.678 120.76 291.54 120.184 291.54C119.548 291.54 118.972 291.702 118.456 292.026C117.952 292.35 117.544 292.8 117.232 293.376C116.932 293.94 116.782 294.576 116.782 295.284C116.782 295.992 116.938 296.634 117.25 297.21C117.562 297.786 117.976 298.248 118.492 298.596C119.008 298.932 119.578 299.1 120.202 299.1C120.61 299.1 121.006 299.028 121.39 298.884C121.774 298.74 122.104 298.548 122.38 298.308C122.656 298.056 122.842 297.786 122.938 297.498L124.144 297.858C123.976 298.302 123.7 298.704 123.316 299.064C122.932 299.412 122.476 299.688 121.948 299.892C121.42 300.084 120.856 300.18 120.256 300.18ZM126.067 288.66V286.86H127.291V288.66H126.067ZM126.067 300V290.622H127.291V300H126.067ZM133.983 300.18C133.083 300.18 132.279 299.958 131.571 299.514C130.875 299.07 130.329 298.482 129.933 297.75C129.537 297.006 129.339 296.202 129.339 295.338C129.339 294.462 129.537 293.658 129.933 292.926C130.341 292.182 130.893 291.588 131.589 291.144C132.297 290.688 133.095 290.46 133.983 290.46C134.883 290.46 135.681 290.688 136.377 291.144C137.085 291.588 137.637 292.182 138.033 292.926C138.441 293.658 138.645 294.462 138.645 295.338C138.645 296.202 138.447 297.006 138.051 297.75C137.655 298.482 137.103 299.07 136.395 299.514C135.699 299.958 134.895 300.18 133.983 300.18ZM130.581 295.356C130.581 296.052 130.731 296.688 131.031 297.264C131.343 297.828 131.757 298.278 132.273 298.614C132.789 298.938 133.359 299.1 133.983 299.1C134.607 299.1 135.177 298.932 135.693 298.596C136.209 298.26 136.623 297.804 136.935 297.228C137.247 296.652 137.403 296.016 137.403 295.32C137.403 294.624 137.247 293.988 136.935 293.412C136.623 292.836 136.209 292.38 135.693 292.044C135.177 291.708 134.607 291.54 133.983 291.54C133.371 291.54 132.807 291.714 132.291 292.062C131.775 292.398 131.361 292.854 131.049 293.43C130.737 294.006 130.581 294.648 130.581 295.356ZM148.576 300H147.352V294.762C147.352 293.658 147.184 292.854 146.848 292.35C146.524 291.834 146.02 291.576 145.336 291.576C144.856 291.576 144.382 291.696 143.914 291.936C143.446 292.164 143.032 292.482 142.672 292.89C142.324 293.286 142.072 293.742 141.916 294.258V300H140.692V290.622H141.808V292.746C142.18 292.062 142.726 291.51 143.446 291.09C144.166 290.67 144.946 290.46 145.786 290.46C146.482 290.46 147.034 290.628 147.442 290.964C147.85 291.288 148.138 291.756 148.306 292.368C148.486 292.968 148.576 293.682 148.576 294.51V300ZM150.43 297.3C150.43 296.724 150.598 296.226 150.934 295.806C151.27 295.374 151.732 295.038 152.32 294.798C152.92 294.558 153.61 294.438 154.39 294.438C154.846 294.438 155.32 294.48 155.812 294.564C156.304 294.636 156.742 294.738 157.126 294.87V294.078C157.126 293.286 156.892 292.656 156.424 292.188C155.956 291.72 155.308 291.486 154.48 291.486C153.988 291.486 153.496 291.582 153.004 291.774C152.512 291.954 152.002 292.224 151.474 292.584L151.006 291.72C151.618 291.3 152.218 290.988 152.806 290.784C153.394 290.568 153.994 290.46 154.606 290.46C155.758 290.46 156.67 290.79 157.342 291.45C158.014 292.11 158.35 293.022 158.35 294.186V298.524C158.35 298.848 158.5 299.016 158.8 299.028V300C158.536 300.036 158.35 300.048 158.242 300.036C157.942 300.024 157.714 299.928 157.558 299.748C157.402 299.568 157.318 299.376 157.306 299.172L157.288 298.488C156.868 299.028 156.322 299.448 155.65 299.748C154.978 300.036 154.294 300.18 153.598 300.18C152.986 300.18 152.44 300.054 151.96 299.802C151.48 299.538 151.102 299.19 150.826 298.758C150.562 298.314 150.43 297.828 150.43 297.3ZM156.712 298.02C156.988 297.696 157.126 297.396 157.126 297.12V295.752C156.298 295.428 155.434 295.266 154.534 295.266C153.658 295.266 152.95 295.44 152.41 295.788C151.87 296.136 151.6 296.61 151.6 297.21C151.6 297.726 151.798 298.194 152.194 298.614C152.602 299.034 153.166 299.244 153.886 299.244C154.474 299.244 155.02 299.13 155.524 298.902C156.04 298.674 156.436 298.38 156.712 298.02ZM161.049 286.86H162.273V297.876C162.273 298.344 162.351 298.65 162.507 298.794C162.675 298.938 162.885 299.01 163.137 299.01C163.353 299.01 163.569 298.986 163.785 298.938C164.013 298.89 164.199 298.842 164.343 298.794L164.559 299.784C164.331 299.88 164.049 299.958 163.713 300.018C163.389 300.078 163.107 300.108 162.867 300.108C162.315 300.108 161.871 299.946 161.535 299.622C161.211 299.298 161.049 298.854 161.049 298.29V286.86ZM165.899 288.66V286.86H167.123V288.66H165.899ZM165.899 300V290.622H167.123V300H165.899ZM169.189 295.338C169.189 294.45 169.369 293.64 169.729 292.908C170.101 292.164 170.611 291.57 171.259 291.126C171.907 290.682 172.645 290.46 173.473 290.46C174.253 290.46 174.949 290.67 175.561 291.09C176.185 291.498 176.671 291.996 177.019 292.584V286.86H178.243V298.524C178.243 298.848 178.387 299.016 178.675 299.028V300C178.435 300.036 178.249 300.048 178.117 300.036C177.853 300.024 177.625 299.928 177.433 299.748C177.253 299.556 177.163 299.34 177.163 299.1V298.182C176.791 298.794 176.287 299.28 175.651 299.64C175.015 300 174.355 300.18 173.671 300.18C173.023 300.18 172.423 300.048 171.871 299.784C171.319 299.52 170.839 299.16 170.431 298.704C170.035 298.248 169.729 297.732 169.513 297.156C169.297 296.568 169.189 295.962 169.189 295.338ZM177.019 296.778V293.88C176.863 293.448 176.611 293.058 176.263 292.71C175.915 292.35 175.519 292.068 175.075 291.864C174.643 291.648 174.211 291.54 173.779 291.54C173.107 291.54 172.519 291.726 172.015 292.098C171.523 292.458 171.139 292.932 170.863 293.52C170.587 294.096 170.449 294.702 170.449 295.338C170.449 296.01 170.599 296.634 170.899 297.21C171.211 297.786 171.631 298.248 172.159 298.596C172.687 298.932 173.281 299.1 173.941 299.1C174.349 299.1 174.775 298.998 175.219 298.794C175.675 298.578 176.071 298.296 176.407 297.948C176.755 297.6 176.959 297.21 177.019 296.778ZM180.26 297.3C180.26 296.724 180.428 296.226 180.764 295.806C181.1 295.374 181.562 295.038 182.15 294.798C182.75 294.558 183.44 294.438 184.22 294.438C184.676 294.438 185.15 294.48 185.642 294.564C186.134 294.636 186.572 294.738 186.956 294.87V294.078C186.956 293.286 186.722 292.656 186.254 292.188C185.786 291.72 185.138 291.486 184.31 291.486C183.818 291.486 183.326 291.582 182.834 291.774C182.342 291.954 181.832 292.224 181.304 292.584L180.836 291.72C181.448 291.3 182.048 290.988 182.636 290.784C183.224 290.568 183.824 290.46 184.436 290.46C185.588 290.46 186.5 290.79 187.172 291.45C187.844 292.11 188.18 293.022 188.18 294.186V298.524C188.18 298.848 188.33 299.016 188.63 299.028V300C188.366 300.036 188.18 300.048 188.072 300.036C187.772 300.024 187.544 299.928 187.388 299.748C187.232 299.568 187.148 299.376 187.136 299.172L187.118 298.488C186.698 299.028 186.152 299.448 185.48 299.748C184.808 300.036 184.124 300.18 183.428 300.18C182.816 300.18 182.27 300.054 181.79 299.802C181.31 299.538 180.932 299.19 180.656 298.758C180.392 298.314 180.26 297.828 180.26 297.3ZM186.542 298.02C186.818 297.696 186.956 297.396 186.956 297.12V295.752C186.128 295.428 185.264 295.266 184.364 295.266C183.488 295.266 182.78 295.44 182.24 295.788C181.7 296.136 181.43 296.61 181.43 297.21C181.43 297.726 181.628 298.194 182.024 298.614C182.432 299.034 182.996 299.244 183.716 299.244C184.304 299.244 184.85 299.13 185.354 298.902C185.87 298.674 186.266 298.38 186.542 298.02ZM190.195 295.338C190.195 294.45 190.375 293.64 190.735 292.908C191.107 292.164 191.617 291.57 192.265 291.126C192.913 290.682 193.651 290.46 194.479 290.46C195.259 290.46 195.955 290.67 196.567 291.09C197.191 291.498 197.677 291.996 198.025 292.584V286.86H199.249V298.524C199.249 298.848 199.393 299.016 199.681 299.028V300C199.441 300.036 199.255 300.048 199.123 300.036C198.859 300.024 198.631 299.928 198.439 299.748C198.259 299.556 198.169 299.34 198.169 299.1V298.182C197.797 298.794 197.293 299.28 196.657 299.64C196.021 300 195.361 300.18 194.677 300.18C194.029 300.18 193.429 300.048 192.877 299.784C192.325 299.52 191.845 299.16 191.437 298.704C191.041 298.248 190.735 297.732 190.519 297.156C190.303 296.568 190.195 295.962 190.195 295.338ZM198.025 296.778V293.88C197.869 293.448 197.617 293.058 197.269 292.71C196.921 292.35 196.525 292.068 196.081 291.864C195.649 291.648 195.217 291.54 194.785 291.54C194.113 291.54 193.525 291.726 193.021 292.098C192.529 292.458 192.145 292.932 191.869 293.52C191.593 294.096 191.455 294.702 191.455 295.338C191.455 296.01 191.605 296.634 191.905 297.21C192.217 297.786 192.637 298.248 193.165 298.596C193.693 298.932 194.287 299.1 194.947 299.1C195.355 299.1 195.781 298.998 196.225 298.794C196.681 298.578 197.077 298.296 197.413 297.948C197.761 297.6 197.965 297.21 198.025 296.778ZM205.98 295.338C205.98 294.45 206.16 293.64 206.52 292.908C206.892 292.164 207.402 291.57 208.05 291.126C208.698 290.682 209.436 290.46 210.264 290.46C211.044 290.46 211.74 290.67 212.352 291.09C212.976 291.498 213.462 291.996 213.81 292.584V286.86H215.034V298.524C215.034 298.848 215.178 299.016 215.466 299.028V300C215.226 300.036 215.04 300.048 214.908 300.036C214.644 300.024 214.416 299.928 214.224 299.748C214.044 299.556 213.954 299.34 213.954 299.1V298.182C213.582 298.794 213.078 299.28 212.442 299.64C211.806 300 211.146 300.18 210.462 300.18C209.814 300.18 209.214 300.048 208.662 299.784C208.11 299.52 207.63 299.16 207.222 298.704C206.826 298.248 206.52 297.732 206.304 297.156C206.088 296.568 205.98 295.962 205.98 295.338ZM213.81 296.778V293.88C213.654 293.448 213.402 293.058 213.054 292.71C212.706 292.35 212.31 292.068 211.866 291.864C211.434 291.648 211.002 291.54 210.57 291.54C209.898 291.54 209.31 291.726 208.806 292.098C208.314 292.458 207.93 292.932 207.654 293.52C207.378 294.096 207.24 294.702 207.24 295.338C207.24 296.01 207.39 296.634 207.69 297.21C208.002 297.786 208.422 298.248 208.95 298.596C209.478 298.932 210.072 299.1 210.732 299.1C211.14 299.1 211.566 298.998 212.01 298.794C212.466 298.578 212.862 298.296 213.198 297.948C213.546 297.6 213.75 297.21 213.81 296.778ZM221.857 300.18C220.957 300.18 220.153 299.958 219.445 299.514C218.737 299.07 218.179 298.476 217.771 297.732C217.363 296.988 217.159 296.172 217.159 295.284C217.159 294.408 217.357 293.604 217.753 292.872C218.161 292.14 218.719 291.558 219.427 291.126C220.135 290.682 220.939 290.46 221.839 290.46C222.763 290.46 223.573 290.682 224.269 291.126C224.965 291.57 225.505 292.158 225.889 292.89C226.285 293.61 226.483 294.402 226.483 295.266C226.483 295.458 226.477 295.62 226.465 295.752H218.437C218.497 296.424 218.689 297.024 219.013 297.552C219.337 298.068 219.751 298.482 220.255 298.794C220.759 299.094 221.311 299.244 221.911 299.244C222.523 299.244 223.099 299.088 223.639 298.776C224.179 298.464 224.563 298.056 224.791 297.552L225.853 297.84C225.661 298.296 225.361 298.704 224.953 299.064C224.557 299.412 224.095 299.688 223.567 299.892C223.039 300.084 222.469 300.18 221.857 300.18ZM218.401 294.87H225.331C225.283 294.198 225.097 293.604 224.773 293.088C224.449 292.56 224.035 292.152 223.531 291.864C223.027 291.564 222.469 291.414 221.857 291.414C221.245 291.414 220.687 291.564 220.183 291.864C219.679 292.152 219.265 292.56 218.941 293.088C218.629 293.604 218.449 294.198 218.401 294.87ZM236.037 300.18C235.269 300.18 234.555 300.054 233.895 299.802C233.247 299.538 232.677 299.154 232.185 298.65L232.689 297.786C233.217 298.278 233.745 298.638 234.273 298.866C234.813 299.082 235.383 299.19 235.983 299.19C236.703 299.19 237.291 299.046 237.747 298.758C238.215 298.458 238.449 298.032 238.449 297.48C238.449 297.108 238.335 296.826 238.107 296.634C237.891 296.43 237.573 296.268 237.153 296.148C236.745 296.028 236.253 295.89 235.677 295.734C235.029 295.554 234.483 295.368 234.039 295.176C233.607 294.972 233.277 294.72 233.049 294.42C232.833 294.108 232.725 293.706 232.725 293.214C232.725 292.614 232.875 292.11 233.175 291.702C233.487 291.294 233.907 290.988 234.435 290.784C234.975 290.568 235.575 290.46 236.235 290.46C236.955 290.46 237.591 290.574 238.143 290.802C238.695 291.03 239.145 291.348 239.493 291.756L238.899 292.584C238.575 292.2 238.173 291.918 237.693 291.738C237.225 291.546 236.715 291.45 236.163 291.45C235.779 291.45 235.413 291.504 235.065 291.612C234.717 291.708 234.429 291.876 234.201 292.116C233.985 292.344 233.877 292.662 233.877 293.07C233.877 293.574 234.063 293.922 234.435 294.114C234.807 294.306 235.371 294.51 236.127 294.726C236.835 294.918 237.453 295.11 237.981 295.302C238.509 295.494 238.917 295.752 239.205 296.076C239.493 296.388 239.637 296.826 239.637 297.39C239.637 298.266 239.307 298.95 238.647 299.442C237.987 299.934 237.117 300.18 236.037 300.18ZM241.571 296.13V290.622H242.795V295.914C242.795 298.038 243.521 299.1 244.973 299.1C245.693 299.1 246.365 298.866 246.989 298.398C247.625 297.93 248.081 297.306 248.357 296.526V290.622H249.581V298.524C249.581 298.848 249.725 299.016 250.013 299.028V300C249.869 300.024 249.755 300.036 249.671 300.036C249.599 300.036 249.521 300.036 249.437 300.036C249.185 300.012 248.969 299.916 248.789 299.748C248.621 299.58 248.537 299.376 248.537 299.136L248.501 297.876C248.093 298.608 247.535 299.178 246.827 299.586C246.131 299.982 245.375 300.18 244.559 300.18C242.567 300.18 241.571 298.83 241.571 296.13ZM5.4 321.18C4.5 321.18 3.696 320.958 2.988 320.514C2.28 320.07 1.722 319.476 1.314 318.732C0.906 317.988 0.702 317.172 0.702 316.284C0.702 315.408 0.9 314.604 1.296 313.872C1.704 313.14 2.262 312.558 2.97 312.126C3.678 311.682 4.482 311.46 5.382 311.46C6.306 311.46 7.116 311.682 7.812 312.126C8.508 312.57 9.048 313.158 9.432 313.89C9.828 314.61 10.026 315.402 10.026 316.266C10.026 316.458 10.02 316.62 10.008 316.752H1.98C2.04 317.424 2.232 318.024 2.556 318.552C2.88 319.068 3.294 319.482 3.798 319.794C4.302 320.094 4.854 320.244 5.454 320.244C6.066 320.244 6.642 320.088 7.182 319.776C7.722 319.464 8.106 319.056 8.334 318.552L9.396 318.84C9.204 319.296 8.904 319.704 8.496 320.064C8.1 320.412 7.638 320.688 7.11 320.892C6.582 321.084 6.012 321.18 5.4 321.18ZM1.944 315.87H8.874C8.826 315.198 8.64 314.604 8.316 314.088C7.992 313.56 7.578 313.152 7.074 312.864C6.57 312.564 6.012 312.414 5.4 312.414C4.788 312.414 4.23 312.564 3.726 312.864C3.222 313.152 2.808 313.56 2.484 314.088C2.172 314.604 1.992 315.198 1.944 315.87ZM25.8645 321H24.6405V315.762C24.6405 314.682 24.4665 313.884 24.1185 313.368C23.7705 312.84 23.2545 312.576 22.5705 312.576C21.8505 312.576 21.2145 312.828 20.6625 313.332C20.1105 313.836 19.7205 314.484 19.4925 315.276V321H18.2685V315.762C18.2685 314.658 18.0945 313.854 17.7465 313.35C17.4105 312.834 16.9005 312.576 16.2165 312.576C15.5085 312.576 14.8725 312.822 14.3085 313.314C13.7565 313.806 13.3665 314.454 13.1385 315.258V321H11.9145V311.622H13.0305V313.746C13.4145 313.026 13.9185 312.468 14.5425 312.072C15.1665 311.664 15.8565 311.46 16.6125 311.46C17.3925 311.46 18.0225 311.688 18.5025 312.144C18.9825 312.588 19.2765 313.164 19.3845 313.872C20.2485 312.264 21.4545 311.46 23.0025 311.46C24.0585 311.46 24.7965 311.832 25.2165 312.576C25.6485 313.308 25.8645 314.286 25.8645 315.51V321ZM33.2435 321.18C32.4635 321.18 31.7615 320.976 31.1375 320.568C30.5255 320.16 30.0395 319.656 29.6795 319.056V324.834H28.4555V311.622H29.5535V313.44C29.9255 312.852 30.4175 312.378 31.0295 312.018C31.6535 311.646 32.3255 311.46 33.0455 311.46C33.6935 311.46 34.2875 311.598 34.8275 311.874C35.3675 312.138 35.8355 312.498 36.2315 312.954C36.6395 313.41 36.9515 313.932 37.1675 314.52C37.3835 315.096 37.4915 315.696 37.4915 316.32C37.4915 317.196 37.3115 318.006 36.9515 318.75C36.6035 319.482 36.1055 320.07 35.4575 320.514C34.8215 320.958 34.0835 321.18 33.2435 321.18ZM32.9015 320.1C33.5855 320.1 34.1735 319.92 34.6655 319.56C35.1695 319.188 35.5595 318.714 35.8355 318.138C36.1115 317.562 36.2495 316.956 36.2495 316.32C36.2495 315.648 36.0935 315.024 35.7815 314.448C35.4695 313.872 35.0495 313.41 34.5215 313.062C34.0055 312.714 33.4175 312.54 32.7575 312.54C32.3495 312.54 31.9175 312.648 31.4615 312.864C31.0175 313.068 30.6215 313.35 30.2735 313.71C29.9375 314.058 29.7395 314.442 29.6795 314.862V317.742C29.9555 318.402 30.3875 318.96 30.9755 319.416C31.5635 319.872 32.2055 320.1 32.9015 320.1ZM44.2448 312.702C43.4288 312.726 42.7088 312.954 42.0848 313.386C41.4728 313.818 41.0408 314.412 40.7888 315.168V321H39.5648V311.622H40.7168V313.872C41.0408 313.212 41.4668 312.678 41.9948 312.27C42.5348 311.862 43.1048 311.634 43.7048 311.586C43.8248 311.574 43.9268 311.568 44.0108 311.568C44.0948 311.568 44.1728 311.574 44.2448 311.586V312.702ZM49.6441 321.18C48.7441 321.18 47.9401 320.958 47.2321 320.514C46.5241 320.07 45.9661 319.476 45.5581 318.732C45.1501 317.988 44.9461 317.172 44.9461 316.284C44.9461 315.408 45.1441 314.604 45.5401 313.872C45.9481 313.14 46.5061 312.558 47.2141 312.126C47.9221 311.682 48.7261 311.46 49.6261 311.46C50.5501 311.46 51.3601 311.682 52.0561 312.126C52.7521 312.57 53.2921 313.158 53.6761 313.89C54.0721 314.61 54.2701 315.402 54.2701 316.266C54.2701 316.458 54.2641 316.62 54.2521 316.752H46.2241C46.2841 317.424 46.4761 318.024 46.8001 318.552C47.1241 319.068 47.5381 319.482 48.0421 319.794C48.5461 320.094 49.0981 320.244 49.6981 320.244C50.3101 320.244 50.8861 320.088 51.4261 319.776C51.9661 319.464 52.3501 319.056 52.5781 318.552L53.6401 318.84C53.4481 319.296 53.1481 319.704 52.7401 320.064C52.3441 320.412 51.8821 320.688 51.3541 320.892C50.8261 321.084 50.2561 321.18 49.6441 321.18ZM46.1881 315.87H53.1181C53.0701 315.198 52.8841 314.604 52.5601 314.088C52.2361 313.56 51.8221 313.152 51.3181 312.864C50.8141 312.564 50.2561 312.414 49.6441 312.414C49.0321 312.414 48.4741 312.564 47.9701 312.864C47.4661 313.152 47.0521 313.56 46.7281 314.088C46.4161 314.604 46.2361 315.198 46.1881 315.87ZM59.2366 321.18C58.4686 321.18 57.7546 321.054 57.0946 320.802C56.4466 320.538 55.8766 320.154 55.3846 319.65L55.8886 318.786C56.4166 319.278 56.9446 319.638 57.4726 319.866C58.0126 320.082 58.5826 320.19 59.1826 320.19C59.9026 320.19 60.4906 320.046 60.9466 319.758C61.4146 319.458 61.6486 319.032 61.6486 318.48C61.6486 318.108 61.5346 317.826 61.3066 317.634C61.0906 317.43 60.7726 317.268 60.3526 317.148C59.9446 317.028 59.4526 316.89 58.8766 316.734C58.2286 316.554 57.6826 316.368 57.2386 316.176C56.8066 315.972 56.4766 315.72 56.2486 315.42C56.0326 315.108 55.9246 314.706 55.9246 314.214C55.9246 313.614 56.0746 313.11 56.3746 312.702C56.6866 312.294 57.1066 311.988 57.6346 311.784C58.1746 311.568 58.7746 311.46 59.4346 311.46C60.1546 311.46 60.7906 311.574 61.3426 311.802C61.8946 312.03 62.3446 312.348 62.6926 312.756L62.0986 313.584C61.7746 313.2 61.3726 312.918 60.8926 312.738C60.4246 312.546 59.9146 312.45 59.3626 312.45C58.9786 312.45 58.6126 312.504 58.2646 312.612C57.9166 312.708 57.6286 312.876 57.4006 313.116C57.1846 313.344 57.0766 313.662 57.0766 314.07C57.0766 314.574 57.2626 314.922 57.6346 315.114C58.0066 315.306 58.5706 315.51 59.3266 315.726C60.0346 315.918 60.6526 316.11 61.1806 316.302C61.7086 316.494 62.1166 316.752 62.4046 317.076C62.6926 317.388 62.8366 317.826 62.8366 318.39C62.8366 319.266 62.5066 319.95 61.8466 320.442C61.1866 320.934 60.3166 321.18 59.2366 321.18ZM64.1038 318.3C64.1038 317.724 64.2718 317.226 64.6078 316.806C64.9438 316.374 65.4058 316.038 65.9938 315.798C66.5938 315.558 67.2838 315.438 68.0638 315.438C68.5198 315.438 68.9938 315.48 69.4858 315.564C69.9778 315.636 70.4158 315.738 70.7998 315.87V315.078C70.7998 314.286 70.5658 313.656 70.0978 313.188C69.6298 312.72 68.9818 312.486 68.1538 312.486C67.6618 312.486 67.1698 312.582 66.6778 312.774C66.1858 312.954 65.6758 313.224 65.1478 313.584L64.6798 312.72C65.2918 312.3 65.8918 311.988 66.4798 311.784C67.0678 311.568 67.6678 311.46 68.2798 311.46C69.4318 311.46 70.3438 311.79 71.0158 312.45C71.6878 313.11 72.0238 314.022 72.0238 315.186V319.524C72.0238 319.848 72.1738 320.016 72.4738 320.028V321C72.2098 321.036 72.0238 321.048 71.9158 321.036C71.6158 321.024 71.3878 320.928 71.2318 320.748C71.0758 320.568 70.9918 320.376 70.9798 320.172L70.9618 319.488C70.5418 320.028 69.9958 320.448 69.3238 320.748C68.6518 321.036 67.9678 321.18 67.2718 321.18C66.6598 321.18 66.1138 321.054 65.6338 320.802C65.1538 320.538 64.7758 320.19 64.4998 319.758C64.2358 319.314 64.1038 318.828 64.1038 318.3ZM70.3858 319.02C70.6618 318.696 70.7998 318.396 70.7998 318.12V316.752C69.9718 316.428 69.1078 316.266 68.2078 316.266C67.3318 316.266 66.6238 316.44 66.0838 316.788C65.5438 317.136 65.2738 317.61 65.2738 318.21C65.2738 318.726 65.4718 319.194 65.8678 319.614C66.2758 320.034 66.8398 320.244 67.5598 320.244C68.1478 320.244 68.6938 320.13 69.1978 319.902C69.7138 319.674 70.1098 319.38 70.3858 319.02Z" fill="black"/>
<path d="M179.653 52.836H178.651V24.7672C178.651 22.6339 178.24 20.5214 177.442 18.5504C176.643 16.5794 175.473 14.7885 173.998 13.28C172.523 11.7715 170.772 10.5748 168.845 9.75842C166.918 8.94201 164.852 8.5218 162.766 8.5218H104.62C102.534 8.5218 100.468 8.94199 98.5413 9.7584C96.6141 10.5748 94.863 11.7714 93.388 13.28C91.9129 14.7885 90.7429 16.5794 89.9446 18.5503C89.1463 20.5213 88.7355 22.6338 88.7355 24.7672V178.755C88.7355 183.063 90.409 187.195 93.3879 190.242C96.3668 193.288 100.407 195 104.62 195H162.766C166.979 195 171.019 193.288 173.998 190.242C176.977 187.195 178.651 183.063 178.651 178.755V72.8158H179.653L179.653 52.836Z" fill="#3F3D56"/>
<path d="M175.271 24.8806V178.641C175.271 181.859 174.021 184.945 171.796 187.22C169.571 189.496 166.554 190.774 163.408 190.774H104.98C103.422 190.774 101.88 190.46 100.441 189.85C99.0017 189.24 97.6941 188.347 96.5928 187.22C95.4914 186.093 94.6178 184.756 94.0219 183.284C93.426 181.812 93.1194 180.234 93.1196 178.641V24.8806C93.1194 23.2875 93.426 21.7099 94.0219 20.238C94.6178 18.7661 95.4914 17.4286 96.5928 16.302C97.6941 15.1754 99.0017 14.2816 100.441 13.6719C101.88 13.0621 103.422 12.7482 104.98 12.7481H112.07C111.721 13.6233 111.587 14.5731 111.681 15.5136C111.775 16.4541 112.094 17.3565 112.61 18.1412C113.126 18.9258 113.822 19.5686 114.638 20.0129C115.454 20.4572 116.364 20.6893 117.289 20.6887H150.6C151.525 20.6892 152.435 20.457 153.251 20.0126C154.067 19.5683 154.763 18.9254 155.278 18.1407C155.794 17.356 156.113 16.4536 156.206 15.5132C156.3 14.5727 156.166 13.6231 155.816 12.7481H163.408C166.554 12.7482 169.571 14.0264 171.796 16.3017C174.021 18.577 175.271 21.6629 175.271 24.8806V24.8806Z" fill="white"/>
<path d="M119.529 54.0497C128.107 54.0497 135.062 46.9372 135.062 38.1635C135.062 29.3898 128.107 22.2773 119.529 22.2773C110.95 22.2773 103.995 29.3898 103.995 38.1635C103.995 46.9372 110.95 54.0497 119.529 54.0497Z" fill="#FF6584"/>
<path d="M158.823 114.287C159.962 102.466 156.294 92.4202 150.629 91.849C144.965 91.2778 139.449 100.397 138.309 112.218C137.17 124.039 140.838 134.085 146.503 134.656C152.167 135.227 157.683 126.107 158.823 114.287Z" fill="#3F3D56"/>
<path d="M146.136 148.382C144.458 122.761 150.946 98.0551 151.011 97.8087L151.797 98.0278C151.732 98.2729 145.28 122.849 146.948 148.326L146.136 148.382Z" fill="#3073FF"/>
<path d="M158.04 109.561L148.276 113.699L148.588 114.469L158.352 110.33L158.04 109.561Z" fill="#3073FF"/>
<path d="M139.114 110.219L138.661 110.912L147.445 116.923L147.898 116.231L139.114 110.219Z" fill="#3073FF"/>
<path d="M122.739 146.441C119.462 96.3954 132.134 48.1392 132.263 47.6576L133.049 47.8766C132.921 48.357 120.284 96.4836 123.552 146.386L122.739 146.441Z" fill="#3F3D56"/>
<path d="M145.783 70.9053L126.686 78.9998L126.998 79.7694L146.095 71.6749L145.783 70.9053Z" fill="#3F3D56"/>
<path d="M108.4 72.1553L107.947 72.8476L125.128 84.6056L125.581 83.9132L108.4 72.1553Z" fill="#3F3D56"/>
<path d="M93.1196 150.468L92.6185 179.295C92.6185 186.115 98.4285 191.645 104.98 191.645H163.408C169.959 191.645 175.772 186.115 175.772 179.295L175.271 150.721C145.815 139.044 118.577 139.777 93.1196 150.468Z" fill="#3073FF"/>
<path d="M141.752 27.7821L144.862 25.2381C142.446 24.9655 141.453 26.3131 141.047 27.3798C139.159 26.5782 137.105 27.6287 137.105 27.6287L143.327 29.939C143.013 29.0815 142.467 28.3333 141.752 27.7821V27.7821Z" fill="#3F3D56"/>
</svg>
