<svg width="756" height="520" viewBox="0 0 756 520" fill="none" xmlns="http://www.w3.org/2000/svg">
<g clip-path="url(#clip0)" filter="url(#filter0_d)">
<path d="M467.768 496V432.925C467.768 432.925 492.272 477.642 467.768 496Z" fill="#F1F1F1"/>
<path d="M469.282 495.989L422.963 453.333C422.963 453.333 472.372 465.466 469.282 495.989Z" fill="#F1F1F1"/>
<g filter="url(#filter1_d)">
<path d="M732 20.123H0.311951V368.419H732V20.123Z" fill="#E5E5E5"/>
</g>
<path d="M711.078 49.9902H21.2349V340.585H711.078V49.9902Z" fill="white"/>
<path d="M731.688 0H0V31.1826H731.688V0Z" fill="#FDFDFD"/>
<path d="M23.0995 21.3131C26.2814 21.3131 28.8608 18.7255 28.8608 15.5335C28.8608 12.3416 26.2814 9.75397 23.0995 9.75397C19.9176 9.75397 17.3381 12.3416 17.3381 15.5335C17.3381 18.7255 19.9176 21.3131 23.0995 21.3131Z" fill="white"/>
<path d="M44.9677 21.3131C48.1497 21.3131 50.7291 18.7255 50.7291 15.5335C50.7291 12.3416 48.1497 9.75397 44.9677 9.75397C41.7858 9.75397 39.2064 12.3416 39.2064 15.5335C39.2064 18.7255 41.7858 21.3131 44.9677 21.3131Z" fill="white"/>
<path d="M66.837 21.3131C70.0189 21.3131 72.5983 18.7255 72.5983 15.5335C72.5983 12.3416 70.0189 9.75397 66.837 9.75397C63.6551 9.75397 61.0756 12.3416 61.0756 15.5335C61.0756 18.7255 63.6551 21.3131 66.837 21.3131Z" fill="white"/>
<path d="M134.254 116.144C133.501 116.144 132.778 116.444 132.246 116.979C131.713 117.513 131.414 118.238 131.414 118.993C131.414 119.749 131.713 120.474 132.246 121.008C132.778 121.543 133.501 121.843 134.254 121.843H211.866C212.62 121.843 213.342 121.543 213.875 121.008C214.407 120.474 214.707 119.749 214.707 118.993C214.707 118.238 214.407 117.513 213.875 116.979C213.342 116.444 212.62 116.144 211.866 116.144H134.254Z" fill="#3F3D56"/>
<path d="M90.3606 155.381C89.6073 155.381 88.8848 155.681 88.3521 156.215C87.8194 156.75 87.5201 157.474 87.5201 158.23C87.5201 158.986 87.8194 159.711 88.3521 160.245C88.8848 160.779 89.6073 161.08 90.3606 161.08H255.76C256.513 161.08 257.236 160.779 257.769 160.245C258.301 159.711 258.601 158.986 258.601 158.23C258.601 157.474 258.301 156.75 257.769 156.215C257.236 155.681 256.513 155.381 255.76 155.381H90.3606Z" fill="#CCCCCC"/>
<path d="M90.3606 178.051C89.6073 178.051 88.8848 178.351 88.3521 178.886C87.8194 179.42 87.5201 180.145 87.5201 180.901C87.5201 181.656 87.8194 182.381 88.3521 182.915C88.8848 183.45 89.6073 183.75 90.3606 183.75H255.76C256.513 183.75 257.236 183.45 257.769 182.915C258.301 182.381 258.601 181.656 258.601 180.901C258.601 180.145 258.301 179.42 257.769 178.886C257.236 178.351 256.513 178.051 255.76 178.051H90.3606Z" fill="#CCCCCC"/>
<path d="M90.3606 200.721C89.6073 200.721 88.8848 201.021 88.3521 201.556C87.8194 202.09 87.5201 202.815 87.5201 203.571C87.5201 204.326 87.8194 205.051 88.3521 205.586C88.8848 206.12 89.6073 206.42 90.3606 206.42H255.76C256.513 206.42 257.236 206.12 257.769 205.586C258.301 205.051 258.601 204.326 258.601 203.571C258.601 202.815 258.301 202.09 257.769 201.556C257.236 201.021 256.513 200.721 255.76 200.721H90.3606Z" fill="#CCCCCC"/>
<path d="M90.3606 223.391C89.6073 223.391 88.8848 223.692 88.3521 224.226C87.8194 224.76 87.5201 225.485 87.5201 226.241C87.5201 226.997 87.8194 227.721 88.3521 228.256C88.8848 228.79 89.6073 229.09 90.3606 229.09H255.76C256.513 229.09 257.236 228.79 257.769 228.256C258.301 227.721 258.601 226.997 258.601 226.241C258.601 225.485 258.301 224.76 257.769 224.226C257.236 223.692 256.513 223.391 255.76 223.391H90.3606Z" fill="#CCCCCC"/>
<path d="M90.3606 246.062C89.6073 246.062 88.8848 246.362 88.3521 246.896C87.8194 247.431 87.5201 248.155 87.5201 248.911C87.5201 249.667 87.8194 250.392 88.3521 250.926C88.8848 251.46 89.6073 251.761 90.3606 251.761H255.76C256.513 251.761 257.236 251.46 257.769 250.926C258.301 250.392 258.601 249.667 258.601 248.911C258.601 248.155 258.301 247.431 257.769 246.896C257.236 246.362 256.513 246.062 255.76 246.062H90.3606Z" fill="#CCCCCC"/>
<path d="M90.3606 268.732C89.6073 268.732 88.8848 269.032 88.3521 269.566C87.8194 270.101 87.5201 270.826 87.5201 271.581C87.5201 272.337 87.8194 273.062 88.3521 273.596C88.8848 274.131 89.6073 274.431 90.3606 274.431H255.76C256.513 274.431 257.236 274.131 257.769 273.596C258.301 273.062 258.601 272.337 258.601 271.581C258.601 270.826 258.301 270.101 257.769 269.566C257.236 269.032 256.513 268.732 255.76 268.732H90.3606Z" fill="#CCCCCC"/>
<path d="M635.989 275.651H385.575C383.902 275.649 382.297 274.981 381.113 273.794C379.93 272.606 379.264 270.997 379.262 269.318V121.55C379.264 119.871 379.93 118.261 381.113 117.074C382.297 115.886 383.902 115.219 385.575 115.217H635.989C637.663 115.219 639.268 115.886 640.451 117.074C641.635 118.261 642.301 119.871 642.302 121.55V269.318C642.301 270.997 641.635 272.606 640.451 273.794C639.268 274.981 637.663 275.649 635.989 275.651V275.651Z" fill="#F1F1F1"/>
<path d="M668.932 309.449H418.518C416.844 309.447 415.239 308.779 414.056 307.592C412.872 306.404 412.207 304.795 412.205 303.116V155.347C412.207 153.668 412.872 152.059 414.056 150.871C415.239 149.684 416.844 149.016 418.518 149.015H668.932C670.606 149.016 672.21 149.684 673.394 150.871C674.577 152.059 675.243 153.668 675.245 155.347V303.116C675.243 304.795 674.577 306.404 673.394 307.592C672.21 308.779 670.606 309.447 668.932 309.449V309.449Z" fill="white"/>
<path d="M668.932 311.604H418.518C416.274 311.601 414.124 310.706 412.537 309.115C410.951 307.523 410.059 305.366 410.056 303.115V155.348C410.059 153.097 410.951 150.94 412.537 149.349C414.124 147.757 416.274 146.862 418.518 146.86H668.932C671.175 146.862 673.326 147.757 674.912 149.348C676.498 150.94 677.39 153.097 677.393 155.348V303.115C677.39 305.366 676.498 307.523 674.912 309.115C673.326 310.706 671.175 311.601 668.932 311.604V311.604ZM418.518 151.17C417.413 151.171 416.355 151.611 415.574 152.395C414.793 153.178 414.354 154.24 414.353 155.348V303.115C414.354 304.223 414.793 305.285 415.574 306.068C416.355 306.852 417.413 307.292 418.518 307.293H668.932C670.036 307.292 671.094 306.852 671.875 306.068C672.656 305.285 673.095 304.223 673.096 303.115V155.348C673.095 154.24 672.656 153.178 671.875 152.395C671.094 151.611 670.036 151.171 668.932 151.17H418.518Z" fill="#3F3D56"/>
<path d="M543.387 270.674C555.388 270.674 565.117 260.915 565.117 248.876C565.117 236.837 555.388 227.077 543.387 227.077C531.386 227.077 521.657 236.837 521.657 248.876C521.657 260.915 531.386 270.674 543.387 270.674Z" fill="#FF6583"/>
<path d="M585.306 227.904C584.027 226.543 582.489 225.453 580.784 224.696C579.078 223.94 577.24 223.533 575.375 223.499C573.511 223.466 571.658 223.807 569.927 224.501C568.196 225.196 566.62 226.231 565.293 227.546L494.82 298.242C485.793 307.34 476.369 293.425 470.347 287.813C455.866 273.446 440.225 300.386 430.492 308.1H656.958V305.208L585.306 227.904Z" fill="#FDFDFD"/>
<path d="M306.152 313.599L302.341 260.626L309.185 210.986L289.748 209.669L285.911 264.504L296.755 316.069C295.831 317.35 295.325 318.886 295.304 320.466C295.284 322.047 295.751 323.595 296.641 324.899C297.531 326.204 298.802 327.2 300.278 327.753C301.754 328.305 303.365 328.386 304.889 327.986C306.413 327.585 307.777 326.722 308.793 325.514C309.81 324.306 310.429 322.813 310.568 321.238C310.706 319.664 310.356 318.085 309.566 316.717C308.775 315.35 307.583 314.261 306.152 313.599V313.599Z" fill="#9F616A"/>
<path d="M287.268 216.804L291.832 196.988C292.706 193.194 294.994 189.878 298.226 187.721C301.458 185.564 305.391 184.728 309.217 185.386C313.044 186.043 316.475 188.143 318.807 191.257C321.14 194.37 322.197 198.26 321.763 202.13L319.249 224.521L287.268 216.804Z" fill="#CBCBCB"/>
<path d="M323.252 486.186H332.415L336.774 450.73L323.25 450.731L323.252 486.186Z" fill="#9F616A"/>
<path d="M320.914 483.185L338.96 483.184H338.961C342.011 483.185 344.936 484.4 347.092 486.564C349.249 488.727 350.461 491.661 350.461 494.721V495.096L320.915 495.097L320.914 483.185Z" fill="#2F2E41"/>
<path d="M368.902 485.885L377.711 483.354L372.17 448.064L359.169 451.801L368.902 485.885Z" fill="#9F616A"/>
<path d="M365.832 483.646L383.18 478.661L383.18 478.66C386.112 477.818 389.258 478.179 391.925 479.663C394.592 481.147 396.562 483.633 397.402 486.574L397.505 486.935L369.102 495.097L365.832 483.646Z" fill="#2F2E41"/>
<path d="M318.299 473.317L322.561 365.914L311.491 317.309C296.595 292.254 312.666 252.289 312.83 251.888L312.89 251.742L313.046 251.721L352.013 246.424L352.56 247.685C367.802 282.641 372.032 321.435 364.683 358.87L360.628 379.679L380.672 460.865L361.702 470.38L347.147 432.517L337.308 471.256L318.299 473.317Z" fill="#2F2E41"/>
<path d="M307.698 261.85L294.985 224.483C287.082 210.522 292.095 198.127 297.692 190.187C303.736 181.614 304.099 176.806 304.179 176.753L304.244 176.71L320.946 176.202L336.404 191.959C337.377 191.578 345.59 211.883 344.893 212.903L355.69 247.913L307.698 261.85Z" fill="#CBCBCB"/>
<path d="M410.632 268.312L368.755 235.817L336.461 197.583L322.515 211.229L360.673 250.681L406.197 276.982C406.532 278.527 407.334 279.93 408.494 281C409.654 282.069 411.115 282.753 412.678 282.958C414.24 283.163 415.827 282.879 417.223 282.144C418.618 281.41 419.753 280.261 420.472 278.854C421.192 277.448 421.46 275.853 421.242 274.288C421.023 272.722 420.328 271.263 419.251 270.109C418.174 268.955 416.768 268.163 415.225 267.842C413.682 267.52 412.078 267.684 410.632 268.312V268.312Z" fill="#9F616A"/>
<path d="M318.552 225.054L306.883 208.423C304.649 205.239 303.713 201.317 304.268 197.463C304.822 193.608 306.825 190.112 309.867 187.691C312.908 185.27 316.757 184.108 320.625 184.442C324.492 184.776 328.087 186.582 330.671 189.488L345.62 206.305L318.552 225.054Z" fill="#CBCBCB"/>
<path d="M310.631 171.621C321.585 171.621 330.465 162.713 330.465 151.724C330.465 140.736 321.585 131.828 310.631 131.828C299.677 131.828 290.797 140.736 290.797 151.724C290.797 162.713 299.677 171.621 310.631 171.621Z" fill="#9F616A"/>
<path d="M330.798 141.63H299.304V127.859C306.216 125.104 312.981 122.761 317.07 127.859C320.711 127.859 324.202 129.31 326.777 131.893C329.351 134.475 330.798 137.978 330.798 141.63V141.63Z" fill="#2F2E41"/>
<path d="M303.645 124.557C274.789 123.766 280.253 171.454 280.253 171.454C280.253 171.454 285.698 172.176 288.182 172.601L291.182 170.906L294.41 173.03C295.892 173.037 297.449 173.008 299.063 172.978L300.543 169.922L303.843 172.923C309.85 172.932 326.152 173.098 326.152 173.098C326.152 173.098 335.976 125.442 303.645 124.557Z" fill="#2F2E41"/>
<path d="M537.313 495.632H206.154C205.924 495.632 205.703 495.54 205.54 495.377C205.377 495.213 205.285 494.991 205.285 494.76C205.285 494.529 205.377 494.307 205.54 494.144C205.703 493.98 205.924 493.888 206.154 493.888H537.313C537.544 493.888 537.765 493.98 537.928 494.144C538.091 494.307 538.182 494.529 538.182 494.76C538.182 494.991 538.091 495.213 537.928 495.377C537.765 495.54 537.544 495.632 537.313 495.632Z" fill="#CBCBCB"/>
</g>
<defs>
<filter id="filter0_d" x="0" y="0" width="756" height="520" filterUnits="userSpaceOnUse" color-interpolation-filters="sRGB">
<feFlood flood-opacity="0" result="BackgroundImageFix"/>
<feColorMatrix in="SourceAlpha" type="matrix" values="0 0 0 0 0 0 0 0 0 0 0 0 0 0 0 0 0 0 127 0" result="hardAlpha"/>
<feOffset dx="20" dy="20"/>
<feGaussianBlur stdDeviation="2"/>
<feComposite in2="hardAlpha" operator="out"/>
<feColorMatrix type="matrix" values="0 0 0 0 0 0 0 0 0 0 0 0 0 0 0 0 0 0 0.25 0"/>
<feBlend mode="normal" in2="BackgroundImageFix" result="effect1_dropShadow"/>
<feBlend mode="normal" in="SourceGraphic" in2="effect1_dropShadow" result="shape"/>
</filter>
<filter id="filter1_d" x="0.311951" y="20.123" width="755.688" height="372.296" filterUnits="userSpaceOnUse" color-interpolation-filters="sRGB">
<feFlood flood-opacity="0" result="BackgroundImageFix"/>
<feColorMatrix in="SourceAlpha" type="matrix" values="0 0 0 0 0 0 0 0 0 0 0 0 0 0 0 0 0 0 127 0" result="hardAlpha"/>
<feOffset dx="20" dy="20"/>
<feGaussianBlur stdDeviation="2"/>
<feComposite in2="hardAlpha" operator="out"/>
<feColorMatrix type="matrix" values="0 0 0 0 0 0 0 0 0 0 0 0 0 0 0 0 0 0 0.25 0"/>
<feBlend mode="normal" in2="BackgroundImageFix" result="effect1_dropShadow"/>
<feBlend mode="normal" in="SourceGraphic" in2="effect1_dropShadow" result="shape"/>
</filter>
<clipPath id="clip0">
<rect width="732" height="496" fill="white"/>
</clipPath>
</defs>
</svg>
