<svg width="145" height="191" viewBox="0 0 145 191" fill="none" xmlns="http://www.w3.org/2000/svg">
<path d="M118.399 51.7522H117.402V24.2592C117.402 22.1696 116.993 20.1004 116.198 18.1699C115.403 16.2393 114.238 14.4852 112.77 13.0076C111.301 11.53 109.558 10.3579 107.64 9.55824C105.721 8.75858 103.665 8.34699 101.588 8.34699H43.702C41.6253 8.34699 39.569 8.75856 37.6504 9.55822C35.7319 10.3579 33.9886 11.53 32.5202 13.0075C31.0518 14.4851 29.8869 16.2393 29.0922 18.1698C28.2975 20.1004 27.8885 22.1695 27.8885 24.2591V175.088C27.8885 179.308 29.5546 183.355 32.5201 186.339C35.4857 189.324 39.5079 191 43.7019 191H101.588C105.782 191 109.804 189.324 112.77 186.339C115.735 183.355 117.402 179.308 117.402 175.088V71.3221H118.399L118.399 51.7522Z" fill="#3F3D56"/>
<path d="M114.037 24.3702V174.977C114.036 178.129 112.792 181.151 110.577 183.38C108.363 185.608 105.359 186.86 102.227 186.861H44.0604C42.5096 186.86 40.9741 186.553 39.5414 185.956C38.1088 185.358 36.807 184.483 35.7106 183.38C34.6142 182.276 33.7445 180.966 33.1513 179.524C32.558 178.083 32.2528 176.537 32.253 174.977V24.3702C32.2528 22.8098 32.558 21.2646 33.1512 19.8228C33.7445 18.3811 34.6142 17.0711 35.7106 15.9676C36.807 14.8641 38.1088 13.9887 39.5414 13.3914C40.9741 12.7942 42.5096 12.4867 44.0604 12.4866H51.1189C50.7708 13.3439 50.6378 14.2742 50.7315 15.1954C50.8252 16.1166 51.1427 17.0005 51.6561 17.769C52.1695 18.5376 52.8629 19.1672 53.6753 19.6024C54.4876 20.0375 55.3939 20.2649 56.3142 20.2643H89.4765C90.3967 20.2648 91.3029 20.0374 92.1151 19.6021C92.9273 19.1669 93.6206 18.5372 94.1337 17.7686C94.6469 17 94.9642 16.1161 95.0576 15.195C95.151 14.2738 95.0177 13.3437 94.6694 12.4866H102.227C105.359 12.4867 108.363 13.7387 110.577 15.9673C112.792 18.1959 114.036 21.2185 114.037 24.3702V24.3702Z" fill="white"/>
<path d="M58.544 52.941C67.0844 52.941 74.0078 45.9744 74.0078 37.3807C74.0078 28.7869 67.0844 21.8203 58.544 21.8203C50.0036 21.8203 43.0802 28.7869 43.0802 37.3807C43.0802 45.9744 50.0036 52.941 58.544 52.941Z" fill="#FF6584"/>
<path d="M97.6622 111.942C98.7967 100.364 95.1449 90.5244 89.5056 89.9649C83.8663 89.4055 78.3751 98.338 77.2406 109.916C76.1061 121.495 79.7579 131.334 85.3972 131.894C91.0365 132.453 96.5277 123.521 97.6622 111.942Z" fill="#3F3D56"/>
<path d="M85.0319 145.338C83.3616 120.243 89.8205 96.0437 89.8859 95.8024L90.6681 96.0169C90.603 96.2571 84.18 120.329 85.8409 145.284L85.0319 145.338Z" fill="#3073FF"/>
<path d="M96.8828 107.313L87.1625 111.367L87.4729 112.121L97.1932 108.067L96.8828 107.313Z" fill="#3073FF"/>
<path d="M78.0415 107.958L77.5906 108.636L86.3356 114.525L86.7866 113.847L78.0415 107.958Z" fill="#3073FF"/>
<path d="M61.7401 143.437C58.4776 94.4181 71.0933 47.1517 71.2211 46.68L72.0033 46.8945C71.8758 47.365 59.296 94.5045 62.549 143.383L61.7401 143.437Z" fill="#3F3D56"/>
<path d="M84.6811 69.4508L65.6689 77.3793L65.9793 78.1331L84.9916 70.2046L84.6811 69.4508Z" fill="#3F3D56"/>
<path d="M47.4652 70.6752L47.0142 71.3533L64.1184 82.8701L64.5694 82.1919L47.4652 70.6752Z" fill="#3F3D56"/>
<path d="M32.253 147.382L31.7542 175.617C31.7542 182.298 37.5382 187.714 44.0604 187.714H102.227C108.749 187.714 114.535 182.298 114.535 175.617L114.037 147.63C84.7123 136.192 57.5965 136.909 32.253 147.382Z" fill="#3073FF"/>
<path d="M80.6678 27.2122L83.7639 24.7204C81.3587 24.4534 80.3704 25.7733 79.9659 26.8181C78.0869 26.033 76.0413 27.0619 76.0413 27.0619L82.236 29.3249C81.9235 28.485 81.3795 27.7521 80.6678 27.2122V27.2122Z" fill="#3F3D56"/>
</svg>
