<svg width="776" height="413" viewBox="0 0 776 413" fill="none" xmlns="http://www.w3.org/2000/svg">
<g clip-path="url(#clip0)">
<path opacity="0.1" d="M716.503 326.58C715.638 328.443 714.776 330.281 713.917 332.095C712.575 334.912 711.251 337.674 709.945 340.382C709.364 341.582 708.782 342.759 708.216 343.937C701.807 357.031 695.823 368.612 690.741 378.137C686.129 386.767 679.282 393.998 670.916 399.072C662.55 404.146 652.973 406.877 643.189 406.978L530.178 408.208H528.986L519.298 408.312L511.012 408.402L485.6 408.677H484.572L471.635 408.819H471.24L391.503 409.684L320.328 410.429L312.048 410.518L260.629 411.077H260.569L227.221 411.435H226.864L121.417 412.575L89.8721 412.918C83.1404 412.994 76.4371 412.034 69.9974 410.071C58.791 406.686 48.7198 400.309 40.8672 391.626C27.3193 376.698 17.4453 359.282 10.813 340.382C9.85415 337.654 8.9599 334.892 8.13023 332.095C-14.8296 254.476 13.1604 154.336 63.5365 87.3219C65.6479 84.5197 67.7941 81.7871 69.9751 79.124L70.0272 79.0644C85.5201 60.0454 102.891 44.1565 121.394 32.8584C154.184 12.8035 190.512 7.15442 226.245 23.9898C256.478 38.2392 284.707 44.939 312.071 46.7575C314.835 46.9363 317.6 47.0705 320.35 47.1524C383.119 49.1274 441.946 26.5088 511.026 11.9092C513.776 11.3279 516.534 10.754 519.313 10.21C568.594 0.402377 623.262 -4.76971 688.274 6.10361C695.028 7.20709 701.693 8.80119 708.216 10.8733C711.082 11.7974 713.845 12.7911 716.503 13.8543C747.533 26.479 764.457 49.8056 771.648 79.0346C772.329 81.7474 772.917 84.5073 773.414 87.3144C786.165 157.622 748.822 257.353 716.503 326.58Z" fill="#FF6584"/>
<g opacity="0.1">
<path opacity="0.1" d="M121.394 32.8585V412.657L89.8498 413C83.1181 413.076 76.4148 412.116 69.9751 410.153V79.0645H70.0272C85.5201 60.0232 102.891 44.1343 121.394 32.8585Z" fill="#FF6584"/>
<path opacity="0.1" d="M773.451 87.322H63.5364C65.6479 84.5198 67.7941 81.7872 69.975 79.1242V79.0646H771.685C772.366 81.7624 772.955 84.5149 773.451 87.322Z" fill="#FF6584"/>
<path opacity="0.1" d="M716.503 13.8618V332.087H713.917C712.575 334.904 711.251 337.667 709.945 340.375C709.364 341.574 708.782 342.752 708.216 343.929V10.851C711.082 11.7751 713.845 12.7787 716.503 13.8618Z" fill="#FF6584"/>
<path opacity="0.1" d="M519.313 10.1877V408.342L511.026 408.432V11.8869C513.776 11.3056 516.533 10.7318 519.313 10.1877Z" fill="#FF6584"/>
<path opacity="0.1" d="M320.35 47.1302V410.503L312.071 410.593V46.7352C314.835 46.914 317.6 47.0184 320.35 47.1302Z" fill="#FF6584"/>
<path opacity="0.1" d="M713.917 332.095C712.575 334.912 711.251 337.674 709.945 340.382H10.813C9.85416 337.654 8.95991 334.892 8.13025 332.095H713.917Z" fill="#FF6584"/>
</g>
<path d="M171.845 198.112H157.686V241.084H171.845V198.112Z" fill="#3F3D56"/>
<path d="M552.892 195.876H538.733V241.337H552.892V195.876Z" fill="#3F3D56"/>
<path d="M643.189 397.707V407.396L529.977 408.439L528.77 408.461L485.742 408.856L484.713 408.871L471.635 408.983H471.247L391.525 409.721L260.659 410.936H260.547L227.274 411.249L226.916 411.256L79.0665 412.612V401.434L113.83 380.566L183.582 379.985L185.072 379.978L185.564 379.97L187.055 379.948L220.544 379.672L222.042 379.665L222.519 379.657L224.01 379.65L234.748 379.56L235.031 379.553L261.523 379.329H261.739L468.46 377.585L473.52 377.548H474.027L477.887 377.511L505.944 377.28L507.435 377.257L508.813 377.243H509.529L518.255 377.175L519.984 377.153L522.301 377.138L529.567 377.071L541.096 376.974L542.586 376.959L545.179 376.944H545.664L601.338 376.467L643.189 397.707Z" fill="#65617D"/>
<path opacity="0.2" d="M643.189 397.707V407.396L529.977 408.439L528.77 408.461L485.742 408.856L484.713 408.871L471.635 408.983H471.247L391.525 409.721L260.659 410.936H260.547L227.274 411.249L226.916 411.256L79.0665 412.612V401.434L113.83 380.566L183.582 379.985L185.072 379.978L185.564 379.97L187.055 379.948L220.544 379.672L222.042 379.665L222.519 379.657L224.01 379.65L234.748 379.56L235.031 379.553L261.523 379.329H261.739L468.46 377.585L473.52 377.548H474.027L477.887 377.511L505.944 377.28L507.435 377.257L508.813 377.243H509.529L518.255 377.175L519.984 377.153L522.301 377.138L529.567 377.071L541.096 376.974L542.586 376.959L545.179 376.944H545.664L601.338 376.467L643.189 397.707Z" fill="black"/>
<path d="M220.656 360.452V378.703C220.657 379.568 220.412 380.414 219.95 381.145C219.488 381.876 218.829 382.461 218.048 382.832C217.466 383.114 216.831 383.266 216.185 383.279L190.177 383.831C189.483 383.847 188.794 383.702 188.165 383.406C187.37 383.042 186.697 382.457 186.226 381.721C185.754 380.985 185.504 380.129 185.505 379.255V360.452H220.656Z" fill="#3F3D56"/>
<path opacity="0.1" d="M220.656 360.452V378.703C220.657 379.568 220.412 380.414 219.95 381.145C219.488 381.876 218.829 382.461 218.048 382.832C217.466 383.114 216.831 383.266 216.185 383.279L190.177 383.831C189.483 383.847 188.794 383.702 188.165 383.406C187.37 383.042 186.697 382.457 186.226 381.721C185.754 380.985 185.504 380.129 185.505 379.255V360.452H220.656Z" fill="black"/>
<path d="M222.147 360.452V378.703C222.147 379.568 221.902 380.414 221.44 381.145C220.979 381.876 220.319 382.461 219.538 382.832C218.957 383.114 218.321 383.266 217.675 383.279L191.668 383.831C190.973 383.847 190.284 383.702 189.655 383.406C188.861 383.042 188.188 382.457 187.716 381.721C187.244 380.985 186.994 380.129 186.995 379.255V360.452H222.147Z" fill="#3F3D56"/>
<path d="M542.586 360.452H507.435V383.927H542.586V360.452Z" fill="#3F3D56"/>
<path opacity="0.1" d="M542.586 360.452H507.435V383.927H542.586V360.452Z" fill="black"/>
<path d="M541.096 360.452H505.944V383.927H541.096V360.452Z" fill="#3F3D56"/>
<path opacity="0.1" d="M171.845 198.105V202.375L157.686 202.01V198.105H171.845Z" fill="black"/>
<path d="M265.041 77.805L248.028 200.027C247.92 200.808 247.528 201.522 246.927 202.032C246.326 202.542 245.559 202.813 244.771 202.792L108.547 199.26L105.961 199.193C105.511 199.182 105.068 199.077 104.661 198.883C104.254 198.69 103.893 198.413 103.601 198.07C103.308 197.728 103.091 197.328 102.964 196.896C102.836 196.464 102.801 196.01 102.861 195.563L121.961 67.6173C122.084 66.8248 122.5 66.1072 123.126 65.6063C123.752 65.1055 124.544 64.8577 125.344 64.912L262.06 74.1681C262.501 74.1937 262.932 74.3104 263.326 74.5109C263.719 74.7114 264.067 74.9914 264.347 75.3331C264.627 75.6749 264.834 76.071 264.953 76.4964C265.072 76.9218 265.102 77.3674 265.041 77.805V77.805Z" fill="#65617D"/>
<path d="M131.104 73.8998L116.7 186.68L241.894 190.652L257.29 81.8443L131.104 73.8998Z" fill="white"/>
<path d="M435.157 72.156H290.579C288.385 72.156 286.607 73.9344 286.607 76.1282V197.359C286.607 199.553 288.385 201.332 290.579 201.332H435.157C437.35 201.332 439.129 199.553 439.129 197.359V76.1282C439.129 73.9344 437.35 72.156 435.157 72.156Z" fill="#65617D"/>
<path d="M432.414 80.8531H293.806V188.416H432.414V80.8531Z" fill="white"/>
<path opacity="0.1" d="M552.892 195.869V198.693L538.733 198.984V195.869H552.892Z" fill="black"/>
<path d="M616.779 193.484C616.799 193.793 616.757 194.102 616.654 194.394C616.551 194.686 616.391 194.955 616.182 195.183C615.973 195.411 615.72 195.595 615.439 195.723C615.157 195.851 614.853 195.921 614.543 195.928L475.04 198.813C474.461 198.825 473.898 198.617 473.466 198.231C473.033 197.846 472.762 197.31 472.708 196.733L460.717 72.0665C460.688 71.7572 460.721 71.4451 460.816 71.1491C460.91 70.8532 461.064 70.5795 461.267 70.3447C461.471 70.1098 461.72 69.9188 461.999 69.783C462.279 69.6473 462.583 69.5697 462.893 69.555L601.338 62.6688L602.829 62.5943C603.421 62.563 604.002 62.7632 604.45 63.1525C604.898 63.5419 605.177 64.0899 605.228 64.681L616.779 193.484Z" fill="#65617D"/>
<path d="M468.684 76.8809L595.123 70.6655L605.802 183.945L480.361 186.926L468.684 76.8809Z" fill="white"/>
<path opacity="0.1" d="M616.779 193.484C616.799 193.793 616.757 194.103 616.654 194.394C616.552 194.686 616.391 194.955 616.182 195.183C615.973 195.411 615.721 195.595 615.439 195.723C615.157 195.851 614.853 195.921 614.543 195.929L601.338 62.6688L602.829 62.5943C603.421 62.563 604.002 62.7632 604.45 63.1525C604.898 63.5419 605.177 64.0899 605.228 64.681L616.779 193.484Z" fill="black"/>
<path opacity="0.1" d="M125.366 64.9046L108.547 199.26L105.961 199.193C105.511 199.182 105.068 199.077 104.661 198.883C104.254 198.69 103.893 198.413 103.601 198.07C103.308 197.728 103.091 197.328 102.964 196.896C102.836 196.464 102.801 196.01 102.861 195.563L121.961 67.6173C122.082 66.8193 122.501 66.0966 123.132 65.5937C123.763 65.0908 124.561 64.8447 125.366 64.9046V64.9046Z" fill="black"/>
<path opacity="0.1" d="M171.845 228.355H157.686V241.084H171.845V228.355Z" fill="black"/>
<path opacity="0.1" d="M222.147 360.444V364.148L186.995 365.087V360.444H222.147Z" fill="black"/>
<path d="M284.185 232.789V358.141C284.176 358.907 283.873 359.639 283.339 360.187C282.805 360.735 282.081 361.057 281.316 361.085L138.497 364.886H138.46C137.682 364.876 136.939 364.563 136.389 364.013C135.839 363.463 135.526 362.72 135.516 361.942V232.789C135.526 232.011 135.839 231.268 136.389 230.718C136.939 230.168 137.682 229.855 138.46 229.845H281.242C282.019 229.855 282.762 230.168 283.312 230.718C283.862 231.268 284.175 232.011 284.185 232.789V232.789Z" fill="#65617D"/>
<path opacity="0.1" d="M138.497 229.845V364.886H138.46C137.682 364.876 136.939 364.563 136.389 364.013C135.839 363.463 135.526 362.72 135.516 361.942V232.789C135.526 232.011 135.839 231.268 136.389 230.718C136.939 230.168 137.682 229.855 138.46 229.845H138.497Z" fill="black"/>
<path d="M145.017 237.849H277.292V348.334L145.017 351.315V237.849Z" fill="white"/>
<path opacity="0.1" d="M552.892 228.355H538.733V241.337H552.892V228.355Z" fill="black"/>
<path opacity="0.1" d="M541.096 360.444V365.221L505.944 364.282V360.444H541.096Z" fill="black"/>
<path d="M587.485 232.789V361.942C587.475 362.726 587.157 363.475 586.599 364.026C586.041 364.577 585.288 364.886 584.504 364.886V364.886L441.655 361.085C440.89 361.057 440.166 360.735 439.632 360.187C439.098 359.639 438.795 358.907 438.786 358.141V232.789C438.796 232.011 439.109 231.268 439.659 230.718C440.209 230.168 440.952 229.855 441.729 229.845H584.511C585.294 229.847 586.045 230.157 586.601 230.708C587.158 231.259 587.475 232.006 587.485 232.789V232.789Z" fill="#65617D"/>
<path opacity="0.1" d="M587.485 232.789V361.942C587.475 362.726 587.157 363.475 586.599 364.026C586.041 364.577 585.288 364.886 584.504 364.886V364.886V229.845C585.288 229.845 586.041 230.154 586.599 230.705C587.157 231.256 587.475 232.005 587.485 232.789Z" fill="black"/>
<path d="M577.983 237.849H445.709V348.334L577.983 351.315V237.849Z" fill="white"/>
<path d="M435.09 232.789V358.141C435.081 358.907 434.778 359.639 434.244 360.187C433.71 360.735 432.985 361.057 432.221 361.085L289.402 364.886C288.617 364.886 287.865 364.577 287.307 364.026C286.749 363.475 286.431 362.726 286.421 361.942V232.789C286.43 232.011 286.744 231.268 287.294 230.718C287.843 230.168 288.587 229.855 289.364 229.845H432.146C432.924 229.855 433.667 230.168 434.217 230.718C434.767 231.268 435.08 232.011 435.09 232.789V232.789Z" fill="#65617D"/>
<path d="M295.922 237.849H428.196V348.334L295.922 351.315V237.849Z" fill="white"/>
<path opacity="0.1" d="M643.189 397.707V407.396L529.977 408.439L528.77 408.461L485.742 408.856L484.713 408.871L471.635 408.983H471.247L391.525 409.721L260.659 410.936H260.547L227.274 411.249L226.916 411.256L79.0665 412.613V401.434L229.979 400.442H230.336L260.882 400.234H261.024L471.977 398.84H472.194L472.32 398.833H472.671L476.24 398.81H477.328L532.839 398.438L536.118 398.423L536.848 398.415L643.189 397.707Z" fill="black"/>
<path d="M363.11 241.084C384.236 241.084 401.362 223.957 401.362 202.83C401.362 181.702 384.236 164.575 363.11 164.575C341.984 164.575 324.859 181.702 324.859 202.83C324.859 223.957 341.984 241.084 363.11 241.084Z" fill="#FBBEBE"/>
<path d="M401.369 281.082C401.369 281.082 327.221 290.025 334.3 281.082C336.864 277.847 337.572 268.263 337.43 257.345C337.385 254.029 337.266 250.593 337.095 247.173C336.275 230.777 334.3 214.754 334.3 214.754C334.3 214.754 399.133 184.198 391.681 208.419C388.7 218.204 389.677 231.947 391.942 244.847C392.605 248.611 393.373 252.3 394.178 255.803C396.142 264.346 398.542 272.784 401.369 281.082V281.082Z" fill="#FBBEBE"/>
<path opacity="0.1" d="M401.369 281.082C401.369 281.082 327.221 290.025 334.3 281.082C336.864 277.847 337.572 268.263 337.43 257.345C348.735 252.516 363.117 256.116 363.117 256.116C378.26 253.097 387.97 253.686 394.178 255.803C396.142 264.346 398.542 272.784 401.369 281.082V281.082Z" fill="black"/>
<path d="M260.629 411.778V411.152L391.502 409.728L471.24 408.983H471.463L471.381 410.086L471.493 408.983H471.635V408.856L472.656 398.833L473.043 395.039L473.162 393.854L473.267 392.863L477.872 377.503L482.477 362.166L486.353 349.251L492.269 329.516C492.269 329.516 488.916 321.691 487.053 319.455C485.19 317.219 483.327 301.942 483.327 301.942C483.327 301.942 467.424 286.79 460.471 285.047C457.558 284.301 451.805 283.31 445.694 282.065C443.406 281.603 441.059 281.112 438.801 280.575C437.526 280.284 436.275 279.979 435.075 279.673C432.74 279.09 430.438 278.378 428.182 277.542C426.998 277.112 425.872 276.539 424.828 275.835C419.351 271.818 405.624 271.364 405.095 271.364C405.094 271.346 405.094 271.329 405.095 271.311V271.244C405.114 270.932 405.114 270.618 405.095 270.305C405.095 270.007 405.095 269.657 405.028 269.262C405.028 269.143 405.028 269.016 404.976 268.889C404.939 268.621 404.894 268.338 404.827 268.04C404.804 267.907 404.774 267.775 404.737 267.645C404.521 266.747 404.209 265.875 403.806 265.044C403.754 264.925 403.687 264.798 403.627 264.679C403.262 263.99 402.838 263.334 402.36 262.719C402.263 262.592 402.159 262.458 402.047 262.331C401.437 261.611 400.758 260.952 400.02 260.364C399.819 260.207 399.61 260.043 399.394 259.894C399.274 259.796 399.147 259.707 399.014 259.626L398.351 259.193L397.732 258.836C397.188 258.538 396.615 258.247 395.989 257.971C395.795 257.882 395.586 257.8 395.378 257.718C395.169 257.636 394.841 257.509 394.565 257.405H394.521L393.962 257.181C393.537 257.04 393.105 256.913 392.65 256.786L391.957 256.607L391.212 256.436L390.467 256.28C389.721 256.13 388.924 255.996 388.089 255.892L387.24 255.788L386.368 255.698L385.466 255.624L384.185 255.549L382.694 255.497C376.121 255.496 369.566 256.193 363.14 257.576C358.676 256.583 354.103 256.162 349.532 256.324H348.884L348.139 256.369H347.662L346.701 256.458C346.38 256.458 346.052 256.525 345.732 256.57C345.411 256.615 345.076 256.652 344.756 256.704L344.264 256.786C343.779 256.868 343.288 256.958 342.773 257.062C342.609 257.092 342.445 257.129 342.281 257.174C341.633 257.315 340.985 257.487 340.344 257.681C340.023 257.77 339.703 257.874 339.383 257.986C339.219 258.031 339.062 258.09 338.906 258.15L338.429 258.322L337.959 258.508L337.4 258.731C337.117 258.851 336.841 258.977 336.566 259.112C336.409 259.179 336.253 259.253 336.104 259.335C335.955 259.417 335.798 259.484 335.657 259.566C333.972 260.437 332.414 261.535 331.029 262.83L330.649 263.196L330.276 263.576C330.149 263.702 330.03 263.836 329.911 263.971C329.425 264.502 328.972 265.061 328.555 265.647C328.436 265.804 328.324 265.96 328.212 266.124C327.739 266.822 327.311 267.549 326.93 268.301C326.833 268.479 326.744 268.666 326.654 268.845C326.046 270.104 325.548 271.413 325.164 272.757C325.025 273.254 324.898 273.751 324.784 274.248C324.784 274.248 309.008 281.208 295.922 286.246C292.442 287.588 289.163 288.803 286.421 289.719C285.623 289.988 284.878 290.233 284.185 290.465C282.681 291.008 281.118 291.368 279.528 291.538C278.778 291.55 278.031 291.62 277.292 291.746C271.278 292.723 260.972 296.963 259.847 301.219C259.755 301.558 259.73 301.913 259.772 302.262C259.772 302.262 259.772 302.314 259.772 302.344C260.517 307.561 255.301 306.816 255.301 306.816C255.301 306.816 253.438 320.603 250.83 324.329C248.944 327.012 247.655 332.996 247.491 337.513C247.397 338.92 247.508 340.333 247.819 341.709C247.819 341.746 247.819 341.783 247.819 341.813C248.117 342.812 247.402 345.539 246.187 349.034C244.868 352.873 242.945 357.642 241.097 362.144C238.31 368.94 235.687 375.111 235.523 376.467C235.456 377.071 235.262 378.152 234.994 379.545C233.906 385.224 231.491 396.038 230.299 400.413C229.412 403.677 228.123 408.148 227.236 411.219C227.236 411.308 227.184 411.398 227.162 411.48L260.569 411.152V411.778H260.674H260.629Z" fill="#FF829B"/>
<path opacity="0.1" d="M272.821 323.934C272.821 323.934 315.298 345.919 330.574 343.311L272.821 323.934Z" fill="black"/>
<path opacity="0.1" d="M359.265 314.991C359.265 314.991 400.624 328.406 414.41 330.269C428.197 332.132 359.265 314.991 359.265 314.991Z" fill="black"/>
<path opacity="0.1" d="M405.14 271.826C383.529 275.805 342.84 274.948 325.254 274.345C331.7 251.242 363.132 259.097 363.132 259.097C402.04 251.331 405.021 267.444 405.14 271.826Z" fill="black"/>
<path d="M405.14 270.335C383.529 274.315 342.84 273.458 325.254 272.854C331.7 249.751 363.132 257.606 363.132 257.606C402.04 249.841 405.021 265.953 405.14 270.335Z" fill="#FF6584"/>
<path d="M519.857 372.19C519.857 372.19 545.313 368.277 545.813 379.456C546.312 390.635 532.831 398.445 532.831 398.445L519.857 372.19Z" fill="#FBBEBE"/>
<path opacity="0.1" d="M391.942 244.847C390.847 245.337 389.728 245.769 388.589 246.144C380.555 248.916 372.455 251.711 363.997 252.725C355.539 253.738 346.663 252.844 339.286 248.626C338.511 248.188 337.764 247.703 337.05 247.173C336.23 230.777 334.256 214.754 334.256 214.754C334.256 214.754 399.089 184.198 391.637 208.419C388.671 218.204 389.677 231.947 391.942 244.847Z" fill="black"/>
<path d="M352.618 143.038C351.554 143.318 350.439 143.347 349.363 143.12C348.286 142.894 347.278 142.419 346.417 141.733L347.967 143.887C347.054 143.993 346.128 143.897 345.256 143.607C344.383 143.318 343.584 142.841 342.915 142.21C342.774 144.138 342.854 146.076 343.153 147.986C340.589 148.11 338.063 147.317 336.029 145.75C335.989 146.423 336.157 147.091 336.509 147.665C336.86 148.24 337.38 148.692 337.997 148.962C335.42 148.655 332.82 149.295 330.681 150.763C328.542 152.232 327.01 154.429 326.371 156.944L330.261 157.302C327.204 157.955 324.46 159.629 322.481 162.049C321.289 163.54 320.38 165.447 320.901 167.266C321.423 169.084 323.942 170.247 325.313 168.95C323.363 171.278 321.945 174.005 321.16 176.939C320.374 179.873 320.241 182.943 320.767 185.935C321.121 187.209 321.237 188.538 321.11 189.855C320.864 191.084 320.089 192.15 319.702 193.35C318.956 195.526 319.664 197.889 320.328 200.057L323.823 211.549C325.09 215.7 326.349 219.859 328.003 223.876C329.175 226.415 330.171 229.032 330.984 231.708C331.923 235.315 331.96 239.265 333.965 242.418C335.339 244.402 337.175 246.021 339.316 247.135C346.686 251.353 355.591 252.248 364.027 251.234C372.462 250.221 380.555 247.426 388.581 244.654C390.364 244.116 392.076 243.366 393.678 242.418C399.23 238.781 400.467 231.343 401.503 224.792C402.658 217.489 404.201 210.2 406.936 203.329C408.56 199.237 410.662 195.086 410.304 190.704C409.849 184.884 405.244 180.166 404.104 174.443C403.722 172.53 403.74 170.558 404.156 168.652C404.51 167.516 404.708 166.338 404.745 165.149C404.618 162.75 402.651 160.901 400.803 159.359C396.793 156.01 392.655 152.845 388.388 149.864C388.171 148.374 390.198 147.733 391.115 146.555C392.412 144.893 391.07 142.255 389.103 141.48C387.136 140.705 384.93 141.212 382.88 141.726C383.014 140.677 382.805 139.613 382.286 138.692C381.766 137.771 380.963 137.042 379.996 136.614C379.029 136.187 377.949 136.082 376.918 136.317C375.887 136.552 374.96 137.113 374.273 137.918C373.729 136.67 372.86 135.591 371.756 134.794C370.652 133.996 369.354 133.511 367.999 133.386C363.058 132.999 362.961 136.777 359.801 138.857C356.642 140.936 354.033 138.193 351.604 136.196C351.158 137.325 351.016 138.552 351.194 139.753C351.372 140.954 351.863 142.086 352.618 143.038V143.038Z" fill="#3F3D56"/>
<path d="M538.733 394.547C538.733 394.547 538.07 396.127 536.848 398.415C534.999 401.935 532.748 405.229 530.141 408.23L529.94 408.446H528.732L485.704 408.841H484.676L484.549 408.692L476.203 398.788L473.058 395.054L472.931 394.898L472.663 394.585L472.514 394.406L472.32 394.175L466.202 386.916L468.438 377.6L472.246 361.905L472.343 361.525L473.088 358.544L473.617 356.308L475.391 349.02L481.471 323.942L492.277 329.531L503.671 349.653L509.789 360.459H513.143C513.776 360.459 515.229 361.682 516.69 363.09C517.212 363.589 517.733 364.118 518.18 364.581C519.507 365.952 520.558 367.129 520.558 367.129C520.558 367.129 525.99 367.249 527.451 371.526C527.526 371.733 527.588 371.945 527.637 372.16C528.122 373.841 528.753 375.477 529.522 377.049C530.484 379.143 531.691 381.52 532.913 383.898C535.186 388.257 537.496 392.409 538.346 393.914L538.45 394.1L538.733 394.547Z" fill="#FF829B"/>
<path opacity="0.1" d="M474.72 360.899L474.645 361.965V362.039L474.519 363.753L473.528 377.548L472.328 394.167L471.985 398.848L471.24 408.864V408.991L391.503 409.736L260.651 411.152V411.778H260.547V411.152V410.943L260.882 400.241L261.523 379.329L262.075 361.599L262.127 359.833C262.16 358.767 262.409 357.719 262.86 356.753C263.312 355.786 263.955 354.922 264.752 354.213C265.548 353.503 266.481 352.964 267.493 352.627C268.505 352.29 269.575 352.163 270.637 352.254C274.155 352.552 278.723 352.917 284.185 353.305L286.421 353.469C317.965 355.66 376.263 358.492 435.09 354.959C436.327 354.892 437.571 354.818 438.816 354.728C447.937 354.154 457.051 353.417 466.076 352.492C467.216 352.373 468.37 352.505 469.454 352.879C470.538 353.254 471.527 353.861 472.351 354.659C473.175 355.457 473.815 356.426 474.224 357.497C474.633 358.569 474.802 359.717 474.72 360.862V360.899Z" fill="black"/>
<path d="M260.629 411.778V411.152L391.503 409.728L471.24 408.983H471.463V408.856L472.209 398.84L472.529 394.368L473.751 377.518L474.712 364.178V363.85C474.757 363.235 474.729 362.618 474.63 362.009C474.635 361.985 474.635 361.959 474.63 361.935C474.426 360.677 473.914 359.489 473.14 358.477C472.319 357.424 471.244 356.599 470.016 356.077C468.788 355.555 467.447 355.355 466.12 355.496C457.096 356.42 447.982 357.158 438.86 357.732C437.616 357.821 436.371 357.895 435.134 357.963C376.308 361.458 318.01 358.626 286.465 356.472L284.23 356.308C278.767 355.921 274.199 355.563 270.682 355.257C268.747 355.094 266.82 355.653 265.273 356.827C263.726 358.001 262.669 359.707 262.306 361.614C262.231 362.018 262.186 362.426 262.172 362.837L261.665 379.352L260.972 400.271L260.644 410.973V411.182V411.808L260.629 411.778Z" fill="#3F3D56"/>
<path opacity="0.1" d="M474.943 366.123L474.027 377.548L472.663 394.577L472.32 398.84L471.575 408.387L471.53 408.864V408.991L471.419 410.093L471.501 408.991H471.284L391.547 409.736L260.651 411.152V410.943L261.017 400.241L261.762 379.329L262.239 365.43C262.262 364.639 262.483 363.867 262.881 363.184C263.28 362.5 263.843 361.928 264.519 361.518C265.363 361 266.35 360.765 267.336 360.847C268.901 360.973 270.823 361.123 273.067 361.286C276.711 361.555 281.204 361.868 286.436 362.196C296.123 362.807 308.278 363.463 322.206 363.999C360.956 365.49 413.27 365.989 462.961 361.637C465.196 361.443 467.506 361.227 469.764 361.011C470.658 360.922 471.559 361.092 472.358 361.503C472.584 361.615 472.799 361.75 472.998 361.905C473.647 362.375 474.161 363.007 474.489 363.738C474.565 363.884 474.627 364.036 474.675 364.193C474.899 364.81 474.99 365.468 474.943 366.123V366.123Z" fill="black"/>
<path opacity="0.1" d="M222.147 376.326V378.703C222.147 379.568 221.902 380.415 221.44 381.145C220.979 381.876 220.319 382.461 219.538 382.832L189.655 383.406C188.861 383.042 188.188 382.457 187.716 381.721C187.244 380.985 186.994 380.129 186.995 379.255V377.019L222.147 376.326Z" fill="black"/>
<path d="M222.519 384.233L183.582 384.978V378.517L222.519 377.772V384.233Z" fill="#3F3D56"/>
<path opacity="0.1" d="M222.519 384.233L183.582 384.978V378.517L222.519 377.772V384.233Z" fill="black"/>
<path d="M224.01 384.233L185.072 384.978V378.517L224.01 377.772V384.233Z" fill="#3F3D56"/>
<g opacity="0.1">
<path opacity="0.1" d="M352.923 140.593C352.195 139.647 351.711 138.536 351.515 137.359C351.335 138.51 351.443 139.687 351.828 140.787C352.198 140.753 352.564 140.688 352.923 140.593Z" fill="black"/>
<path opacity="0.1" d="M343.459 145.542C343.318 144.628 343.226 143.708 343.183 142.784C343.183 143.701 343.183 144.625 343.183 145.549L343.459 145.542Z" fill="black"/>
<path opacity="0.1" d="M404.193 170.411C404.235 169.747 404.324 169.087 404.462 168.436C404.814 167.302 405.015 166.127 405.058 164.941C405.041 164.674 405.001 164.41 404.939 164.151C404.812 164.836 404.611 165.522 404.462 166.2C404.164 167.583 404.074 169.002 404.193 170.411Z" fill="black"/>
<path opacity="0.1" d="M388.693 147.382L389.505 147.971C390.19 147.476 390.831 146.922 391.421 146.317C391.701 145.929 391.875 145.474 391.924 144.998C391.974 144.522 391.898 144.041 391.704 143.604C391.629 143.774 391.534 143.934 391.421 144.081C390.504 145.258 388.477 145.907 388.693 147.382Z" fill="black"/>
<path opacity="0.1" d="M327.459 154.552C327.188 155.095 326.97 155.665 326.811 156.251C327.977 155.6 329.232 155.126 330.537 154.842L327.459 154.552Z" fill="black"/>
<path opacity="0.1" d="M337.736 146.443C337.246 146.174 336.778 145.867 336.335 145.527C336.316 145.821 336.339 146.117 336.402 146.406C336.847 146.385 337.293 146.397 337.736 146.443V146.443Z" fill="black"/>
<path opacity="0.1" d="M410.595 190.354C410.289 193.968 408.605 197.449 407.241 200.877C404.506 207.748 402.964 215.037 401.809 222.348C400.773 228.899 399.573 236.336 393.984 239.966C392.387 240.92 390.677 241.671 388.894 242.202C380.861 244.981 372.761 247.769 364.302 248.782C355.844 249.796 346.969 248.909 339.591 244.691C337.452 243.575 335.616 241.956 334.241 239.973C332.251 236.821 332.214 232.871 331.26 229.264C330.447 226.586 329.451 223.966 328.279 221.424C326.632 217.414 325.365 213.226 324.106 209.105C322.938 205.274 321.773 201.441 320.611 197.605C320.228 196.452 319.944 195.267 319.761 194.065C319.471 195.973 320.037 197.971 320.611 199.841C321.773 203.682 322.938 207.515 324.106 211.34C325.365 215.492 326.632 219.65 328.279 223.66C329.451 226.202 330.447 228.821 331.26 231.5C332.199 235.107 332.236 239.057 334.241 242.209C335.616 244.192 337.452 245.81 339.591 246.927C346.969 251.145 355.867 252.032 364.302 251.018C372.738 250.004 380.831 247.217 388.894 244.437C390.677 243.907 392.387 243.156 393.984 242.202C399.536 238.572 400.773 231.135 401.809 224.584C402.964 217.273 404.506 209.984 407.241 203.113C408.866 199.029 410.967 194.878 410.61 190.488C410.61 190.443 410.595 190.399 410.595 190.354Z" fill="black"/>
<path opacity="0.1" d="M321.401 187.47C321.401 187.47 321.401 187.418 321.401 187.388C321.535 186.074 321.419 184.746 321.058 183.475C320.909 182.657 320.812 181.831 320.767 181.001C320.682 182.577 320.779 184.158 321.058 185.711C321.177 186.292 321.311 186.881 321.401 187.47Z" fill="black"/>
<path opacity="0.1" d="M323.674 169.241C324.247 168.278 324.897 167.363 325.619 166.506C324.255 167.81 321.736 166.647 321.207 164.836C321.012 165.569 321.012 166.34 321.207 167.072C321.391 167.619 321.715 168.108 322.148 168.488C322.582 168.869 323.108 169.129 323.674 169.241V169.241Z" fill="black"/>
</g>
<path opacity="0.1" d="M509.797 360.452C509.797 360.452 512.159 369.022 509.797 376.475C507.434 383.927 509.797 360.452 509.797 360.452Z" fill="black"/>
<path opacity="0.1" d="M519.857 369.194C519.857 369.194 520.848 380.074 518.613 382.005C516.377 383.935 519.857 369.194 519.857 369.194Z" fill="black"/>
<path d="M148.289 255.519L224.01 254.774" stroke="#FF6584" stroke-width="2" stroke-miterlimit="10"/>
<path d="M148.289 264.813L224.01 264.075" stroke="#FF6584" stroke-width="2" stroke-miterlimit="10"/>
<path d="M148.289 274.114L224.01 273.368" stroke="#FF6584" stroke-width="2" stroke-miterlimit="10"/>
</g>
<defs>
<clipPath id="clip0">
<rect width="776" height="413" fill="white"/>
</clipPath>
</defs>
</svg>
