<svg width="1920" height="1080" viewBox="0 0 1920 1080" fill="none" xmlns="http://www.w3.org/2000/svg">
<rect width="1920" height="1080" fill="white"/>
<path d="M523 273.187C763.642 -64.8379 1361.61 22.8961 1657.64 537.834C1764.9 714.685 1685.77 849.223 1684.14 852.652C1682.83 855.395 681.098 853.795 193.643 852.652C46.6433 799.152 42.3102 596.218 317.143 623.651C232.217 379.005 464.44 419.823 491.931 433.222C474.464 418.4 498.237 324.172 523 273.187Z" fill="#D3D3F8" stroke="#D3D3F8"/>
<rect x="656" y="444" width="627" height="371" rx="19" fill="#4042E2"/>
<rect x="687" y="471" width="563" height="317" rx="8" fill="#7A7CEB"/>
<path d="M587 841.5C587 824.103 601.103 810 618.5 810H1319.5C1336.9 810 1351 824.103 1351 841.5C1351 858.897 1336.9 873 1319.5 873H618.5C601.103 873 587 858.897 587 841.5Z" fill="#4042E2"/>
<rect x="569" y="380" width="486" height="304" rx="31" fill="white"/>
<rect x="568" y="380" width="486" height="47" rx="23.5" fill="#9092EE"/>
<circle cx="954.5" cy="403.5" r="10.5" fill="#FFF96F"/>
<circle cx="985.5" cy="403.5" r="10.5" fill="#A7FF91"/>
<circle cx="1016.5" cy="403.5" r="10.5" fill="#FF5C5C"/>
<rect x="587" y="442" width="266" height="80" rx="13" fill="#D3D3F8"/>
<circle cx="817" cy="473" r="13" fill="white"/>
<path d="M839 506.5C839 504.071 838.431 501.665 837.325 499.42C836.22 497.176 834.599 495.136 832.556 493.419C830.513 491.701 828.088 490.338 825.419 489.408C822.75 488.479 819.889 488 817 488C814.111 488 811.25 488.479 808.581 489.408C805.912 490.338 803.487 491.701 801.444 493.419C799.401 495.136 797.78 497.176 796.675 499.42C795.569 501.665 795 504.071 795 506.5L817 506.5H839Z" fill="white"/>
<rect x="605" y="449" width="175" height="14" rx="5" fill="#4042E2"/>
<rect x="605" y="471" width="175" height="11" rx="5" fill="#4042E2"/>
<path d="M605 492.5C605 491.119 606.119 490 607.5 490H665.5C666.881 490 668 491.119 668 492.5C668 493.881 666.881 495 665.5 495H607.5C606.119 495 605 493.881 605 492.5Z" fill="#4042E2"/>
<path d="M674 492.5C674 491.119 675.119 490 676.5 490H734.5C735.881 490 737 491.119 737 492.5C737 493.881 735.881 495 734.5 495H676.5C675.119 495 674 493.881 674 492.5Z" fill="#4042E2"/>
<rect x="609" y="499" width="169" height="16" rx="3" fill="white"/>
<rect x="868" y="442" width="158" height="83" rx="14" fill="#9092EE"/>
<path d="M974 482L934.25 507.981V456.019L974 482Z" fill="white"/>
</svg>
